<svg width="450" height="335" viewBox="0 0 450 335" fill="none" xmlns="http://www.w3.org/2000/svg">
<path d="M0 283.396L15.8851 243.343H23.941L39.6559 283.396H30.2383L18.2111 250.151H21.4448L9.24737 283.396H0ZM9.02044 276.134V268.872H30.8624V276.134H9.02044Z" fill="white"/>
<path d="M46.7306 283.396V243.343H55.6376V283.396H46.7306ZM53.5952 283.396V275.567H73.3948V283.396H53.5952Z" fill="white"/>
<path d="M81.3684 283.396V243.343H90.2753V283.396H81.3684Z" fill="white"/>
<path d="M119.831 284.02C116.843 284.02 114.063 283.509 111.491 282.488C108.957 281.429 106.726 279.954 104.797 278.063C102.906 276.172 101.431 273.978 100.372 271.482C99.3129 268.948 98.7834 266.225 98.7834 263.313C98.7834 260.4 99.3129 257.696 100.372 255.2C101.431 252.666 102.906 250.472 104.797 248.619C106.688 246.766 108.901 245.328 111.435 244.307C114.007 243.248 116.786 242.719 119.774 242.719C122.951 242.719 125.769 243.229 128.227 244.251C130.724 245.272 132.898 246.671 134.752 248.449L128.795 254.462C127.736 253.328 126.45 252.439 124.937 251.796C123.462 251.153 121.741 250.831 119.774 250.831C118.035 250.831 116.427 251.134 114.952 251.739C113.515 252.307 112.267 253.139 111.208 254.235C110.187 255.332 109.373 256.656 108.768 258.207C108.201 259.757 107.917 261.459 107.917 263.313C107.917 265.204 108.201 266.925 108.768 268.475C109.373 270.026 110.187 271.35 111.208 272.446C112.267 273.543 113.515 274.394 114.952 274.999C116.427 275.605 118.035 275.907 119.774 275.907C121.817 275.907 123.594 275.586 125.107 274.943C126.62 274.3 127.925 273.411 129.022 272.276L135.035 278.29C133.106 280.068 130.894 281.467 128.398 282.488C125.939 283.509 123.084 284.02 119.831 284.02Z" fill="white"/>
<path d="M142.777 283.396V243.343H151.684V283.396H142.777Z" fill="white"/>
<path d="M159.227 283.396L175.112 243.343H183.168L198.883 283.396H189.466L177.438 250.151H180.672L168.475 283.396H159.227ZM168.248 276.134V268.872H190.09V276.134H168.248Z" fill="white"/>
<path d="M237.44 284.02C234.452 284.02 231.672 283.509 229.1 282.488C226.566 281.429 224.335 279.954 222.406 278.063C220.515 276.172 219.04 273.978 217.981 271.482C216.922 268.948 216.392 266.225 216.392 263.313C216.392 260.4 216.922 257.696 217.981 255.2C219.04 252.666 220.515 250.472 222.406 248.619C224.297 246.766 226.509 245.328 229.044 244.307C231.615 243.248 234.395 242.719 237.383 242.719C240.56 242.719 243.378 243.229 245.836 244.251C248.333 245.272 250.507 246.671 252.361 248.449L246.404 254.462C245.345 253.328 244.059 252.439 242.546 251.796C241.071 251.153 239.35 250.831 237.383 250.831C235.643 250.831 234.036 251.134 232.561 251.739C231.124 252.307 229.876 253.139 228.817 254.235C227.795 255.332 226.982 256.656 226.377 258.207C225.81 259.757 225.526 261.459 225.526 263.313C225.526 265.204 225.81 266.925 226.377 268.475C226.982 270.026 227.795 271.35 228.817 272.446C229.876 273.543 231.124 274.394 232.561 274.999C234.036 275.605 235.643 275.907 237.383 275.907C239.426 275.907 241.203 275.586 242.716 274.943C244.229 274.3 245.534 273.411 246.631 272.276L252.644 278.29C250.715 280.068 248.503 281.467 246.007 282.488C243.548 283.509 240.693 284.02 237.44 284.02Z" fill="white"/>
<path d="M256.381 283.396L272.267 243.343H280.322L296.037 283.396H286.62L274.593 250.151H277.826L265.629 283.396H256.381ZM265.402 276.134V268.872H287.244V276.134H265.402Z" fill="white"/>
<path d="M309.92 266.887V260.306H318.373C320.151 260.306 321.512 259.852 322.458 258.944C323.441 258.036 323.933 256.807 323.933 255.257C323.933 253.819 323.46 252.628 322.514 251.682C321.569 250.737 320.207 250.264 318.43 250.264H309.92V243.343H319.451C322.098 243.343 324.424 243.853 326.429 244.875C328.434 245.858 330.003 247.238 331.138 249.016C332.272 250.794 332.84 252.836 332.84 255.143C332.84 257.488 332.272 259.549 331.138 261.327C330.003 263.067 328.415 264.428 326.372 265.412C324.33 266.395 321.928 266.887 319.167 266.887H309.92ZM303.112 283.396V243.343H312.019V283.396H303.112ZM324.897 283.396L312.416 266.149L320.586 263.937L335.449 283.396H324.897Z" fill="white"/>
<path d="M350.667 283.396V243.91H359.574V283.396H350.667ZM338.129 251.115V243.343H372.112V251.115H338.129Z" fill="white"/>
<path d="M379.922 283.396V243.343H388.829V283.396H379.922ZM386.73 283.396V275.68H408.686V283.396H386.73ZM386.73 266.66V259.228H406.7V266.66H386.73ZM386.73 251.002V243.343H408.402V251.002H386.73Z" fill="white"/>
<path d="M424.47 266.887V260.306H432.924C434.701 260.306 436.063 259.852 437.008 258.944C437.992 258.036 438.483 256.807 438.483 255.257C438.483 253.819 438.011 252.628 437.065 251.682C436.12 250.737 434.758 250.264 432.98 250.264H424.47V243.343H434.001C436.649 243.343 438.975 243.853 440.98 244.875C442.984 245.858 444.554 247.238 445.688 249.016C446.823 250.794 447.39 252.836 447.39 255.143C447.39 257.488 446.823 259.549 445.688 261.327C444.554 263.067 442.965 264.428 440.923 265.412C438.88 266.395 436.479 266.887 433.718 266.887H424.47ZM417.663 283.396V243.343H426.57V283.396H417.663ZM439.448 283.396L426.967 266.149L435.136 263.937L450 283.396H439.448Z" fill="white"/>
<path d="M134.069 322.51V319.251H141.826C143.504 319.251 144.796 318.824 145.704 317.972C146.612 317.119 147.066 315.964 147.066 314.506C147.066 313.13 146.612 311.989 145.704 311.081C144.824 310.174 143.545 309.72 141.867 309.72H134.069V306.336H141.991C143.806 306.336 145.388 306.694 146.736 307.409C148.083 308.097 149.115 309.046 149.83 310.256C150.573 311.466 150.944 312.855 150.944 314.423C150.944 316.046 150.573 317.463 149.83 318.673C149.115 319.883 148.083 320.832 146.736 321.52C145.388 322.18 143.806 322.51 141.991 322.51H134.069ZM131.469 334.971V306.336H135.348V334.971H131.469ZM147.973 334.971L137.576 322.139L141.248 320.86L152.883 334.971H147.973Z" fill="white"/>
<path d="M165.559 334.971V306.336H169.437V334.971H165.559ZM168.199 334.971V331.422H184.621V334.971H168.199ZM168.199 322.015V318.632H183.259V322.015H168.199ZM168.199 309.885V306.336H184.415V309.885H168.199Z" fill="white"/>
<path d="M196.456 334.971L208.174 306.336H210.98L222.656 334.971H218.448L208.834 310.751H210.278L200.582 334.971H196.456ZM202.026 328.493V325.11H217.086V328.493H202.026Z" fill="white"/>
<path d="M235.631 334.971V306.336H239.51V334.971H235.631ZM238.272 334.971V331.422H253.621V334.971H238.272Z" fill="white"/>
<path d="M270.866 334.971V307.162H274.744V334.971H270.866ZM261.128 309.885V306.336H284.44V309.885H261.128Z" fill="white"/>
<path d="M304.869 323.335L293.605 306.336H298.102L307.18 320.241H305.158L314.276 306.336H318.691L307.345 323.335H304.869ZM304.209 334.971V320.777H308.087V334.971H304.209Z" fill="white"/>
<path d="M137.812 87.0393L224.852 0L296.66 71.8074L264.02 104.447L224.852 65.2795L181.332 108.799V163.199H224.852V206.718H137.812V87.0393Z" fill="white"/>
<path d="M268.372 206.719V163.199H311.892V206.719H268.372Z" fill="white"/>
<path d="M290.132 141.439L311.892 163.199H268.372L290.132 141.439Z" fill="white"/>
</svg>
