<svg width="1277" height="182" viewBox="0 0 1277 182" fill="none" xmlns="http://www.w3.org/2000/svg">
<path d="M0 76.6315L76.6316 0L139.853 63.2209L111.116 91.9577L76.6316 57.4736L38.3158 95.7893V143.684H76.6316V182H0V76.6315Z" fill="black"/>
<path d="M114.948 182V143.685H153.263V182H114.948Z" fill="black"/>
<path d="M134.105 124.526L153.263 143.684H114.948L134.105 124.526Z" fill="black"/>
<path d="M215.263 122.102L240.992 58.9876H251.083L276.721 122.102H263.539L243.719 70.2997H248.265L228.173 122.102H215.263ZM228.9 110.341V100.106H263.266V110.341H228.9Z" fill="black"/>
<path d="M285.179 122.102V58.9876H297.543V122.102H285.179ZM294.27 122.102V111.239H326.818V122.102H294.27Z" fill="black"/>
<path d="M336.606 122.102V58.9876H348.97V122.102H336.606Z" fill="black"/>
<path d="M392.634 123C387.967 123 383.633 122.192 379.633 120.576C375.633 118.9 372.117 116.596 369.087 113.663C366.117 110.67 363.814 107.199 362.177 103.249C360.602 99.2983 359.814 95.0488 359.814 90.5C359.814 85.9512 360.602 81.7017 362.177 77.7514C363.814 73.8011 366.117 70.3596 369.087 67.4268C372.117 64.494 375.602 62.1897 379.542 60.5138C383.542 58.8379 387.906 58 392.634 58C397.725 58 402.21 58.8379 406.089 60.5138C409.968 62.1298 413.392 64.3743 416.362 67.2472L407.998 75.5069C406.241 73.5916 404.089 72.0953 401.543 71.018C398.998 69.9406 396.028 69.4019 392.634 69.4019C389.664 69.4019 386.936 69.9107 384.451 70.9282C382.027 71.8858 379.906 73.3223 378.087 75.2376C376.269 77.093 374.875 79.3375 373.905 81.971C372.936 84.5447 372.451 87.3877 372.451 90.5C372.451 93.6722 372.936 96.5451 373.905 99.1188C374.875 101.692 376.269 103.937 378.087 105.852C379.906 107.708 382.027 109.144 384.451 110.162C386.936 111.179 389.664 111.688 392.634 111.688C396.21 111.688 399.27 111.149 401.816 110.072C404.422 108.994 406.604 107.468 408.362 105.493L416.726 113.753C413.756 116.686 410.301 118.96 406.362 120.576C402.422 122.192 397.846 123 392.634 123Z" fill="black"/>
<path d="M426.231 122.102V58.9876H438.595V122.102H426.231Z" fill="black"/>
<path d="M447.893 122.102L473.622 58.9876H483.713L509.351 122.102H496.168L476.349 70.2997H480.895L460.803 122.102H447.893ZM461.53 110.341V100.106H495.896V110.341H461.53Z" fill="black"/>
<path d="M582.914 123C578.247 123 573.914 122.192 569.913 120.576C565.913 118.9 562.398 116.596 559.367 113.663C556.397 110.67 554.094 107.199 552.458 103.249C550.882 99.2983 550.094 95.0488 550.094 90.5C550.094 85.9512 550.882 81.7017 552.458 77.7514C554.094 73.8011 556.397 70.3596 559.367 67.4268C562.398 64.494 565.883 62.1897 569.822 60.5138C573.823 58.8379 578.187 58 582.914 58C588.005 58 592.49 58.8379 596.369 60.5138C600.248 62.1298 603.673 64.3743 606.643 67.2472L598.278 75.5069C596.521 73.5916 594.369 72.0953 591.824 71.018C589.278 69.9406 586.308 69.4019 582.914 69.4019C579.944 69.4019 577.217 69.9107 574.732 70.9282C572.307 71.8858 570.186 73.3223 568.368 75.2376C566.549 77.093 565.155 79.3375 564.186 81.971C563.216 84.5447 562.731 87.3877 562.731 90.5C562.731 93.6722 563.216 96.5451 564.186 99.1188C565.155 101.692 566.549 103.937 568.368 105.852C570.186 107.708 572.307 109.144 574.732 110.162C577.217 111.179 579.944 111.688 582.914 111.688C586.49 111.688 589.551 111.149 592.096 110.072C594.703 108.994 596.884 107.468 598.642 105.493L607.006 113.753C604.036 116.686 600.582 118.96 596.642 120.576C592.702 122.192 588.126 123 582.914 123Z" fill="black"/>
<path d="M610.185 122.102L635.914 58.9876H646.006L671.643 122.102H658.461L638.642 70.2997H643.187L623.095 122.102H610.185ZM623.823 110.341V100.106H658.188V110.341H623.823Z" fill="black"/>
<path d="M689.193 95.7072V86.1906H704.012C707.042 86.1906 709.376 85.4425 711.012 83.9461C712.709 82.39 713.558 80.2652 713.558 77.5718C713.558 75.1179 712.709 73.0829 711.012 71.4669C709.376 69.791 707.042 68.953 704.012 68.953H689.193V58.9876H705.103C709.224 58.9876 712.83 59.7956 715.921 61.4116C719.073 62.9678 721.497 65.1225 723.194 67.8757C724.952 70.6289 725.831 73.8011 725.831 77.3923C725.831 81.1031 724.952 84.3352 723.194 87.0884C721.497 89.7818 719.073 91.9065 715.921 93.4627C712.77 94.959 709.103 95.7072 704.921 95.7072H689.193ZM680.101 122.102V58.9876H692.466V122.102H680.101ZM715.012 122.102L693.92 94.8094L705.284 91.308L730.013 122.102H715.012Z" fill="black"/>
<path d="M751.076 122.102V60.3343H763.531V122.102H751.076ZM730.711 69.8508V58.9876H783.896V69.8508H730.711Z" fill="black"/>
<path d="M793.342 122.102V58.9876H805.707V122.102H793.342ZM802.434 122.102V111.329H837.799V122.102H802.434ZM802.434 95.0787V84.6644H834.617V95.0787H802.434ZM802.434 69.7611V58.9876H837.345V69.7611H802.434Z" fill="black"/>
<path d="M858.034 95.7072V86.1906H872.853C875.883 86.1906 878.216 85.4425 879.853 83.9461C881.55 82.39 882.399 80.2652 882.399 77.5718C882.399 75.1179 881.55 73.0829 879.853 71.4669C878.216 69.791 875.883 68.953 872.853 68.953H858.034V58.9876H873.944C878.065 58.9876 881.671 59.7956 884.762 61.4116C887.914 62.9678 890.338 65.1225 892.035 67.8757C893.793 70.6289 894.672 73.8011 894.672 77.3923C894.672 81.1031 893.793 84.3352 892.035 87.0884C890.338 89.7818 887.914 91.9065 884.762 93.4627C881.611 94.959 877.944 95.7072 873.762 95.7072H858.034ZM848.942 122.102V58.9876H861.306V122.102H848.942ZM883.853 122.102L862.761 94.8094L874.125 91.308L898.854 122.102H883.853Z" fill="black"/>
<path d="M954.427 95.7072V86.1906H969.246C972.277 86.1906 974.61 85.4425 976.247 83.9461C977.944 82.39 978.792 80.2652 978.792 77.5718C978.792 75.1179 977.944 73.0829 976.247 71.4669C974.61 69.791 972.277 68.953 969.246 68.953H954.427V58.9876H970.337C974.459 58.9876 978.065 59.7956 981.156 61.4116C984.308 62.9678 986.732 65.1225 988.429 67.8757C990.187 70.6289 991.066 73.8011 991.066 77.3923C991.066 81.1031 990.187 84.3352 988.429 87.0884C986.732 89.7818 984.308 91.9065 981.156 93.4627C978.004 94.959 974.337 95.7072 970.155 95.7072H954.427ZM945.336 122.102V58.9876H957.7V122.102H945.336ZM980.247 122.102L959.155 94.8094L970.519 91.308L995.248 122.102H980.247Z" fill="black"/>
<path d="M1003.16 122.102V58.9876H1015.52V122.102H1003.16ZM1012.25 122.102V111.329H1047.61V122.102H1012.25ZM1012.25 95.0787V84.6644H1044.43V95.0787H1012.25ZM1012.25 69.7611V58.9876H1047.16V69.7611H1012.25Z" fill="black"/>
<path d="M1054.03 122.102L1079.76 58.9876H1089.85L1115.49 122.102H1102.3L1082.48 70.2997H1087.03L1066.94 122.102H1054.03ZM1067.66 110.341V100.106H1102.03V110.341H1067.66Z" fill="black"/>
<path d="M1123.94 122.102V58.9876H1136.31V122.102H1123.94ZM1133.03 122.102V111.239H1165.58V122.102H1133.03Z" fill="black"/>
<path d="M1183.91 122.102V60.3343H1196.36V122.102H1183.91ZM1163.54 69.8508V58.9876H1216.73V69.8508H1163.54Z" fill="black"/>
<path d="M1242.44 97.7721L1217.71 58.9876H1231.99L1251.17 90.0511H1242.99L1262.17 58.9876H1276.26L1251.26 97.7721H1242.44ZM1240.81 122.102V91.2182H1253.26V122.102H1240.81Z" fill="black"/>
</svg>
