<svg width="197" height="36" viewBox="0 0 197 36" fill="none" xmlns="http://www.w3.org/2000/svg">
<path d="M40.1675 33.1C39.6808 33.1 39.2275 33.01 38.8075 32.83C38.3942 32.6433 38.0308 32.39 37.7175 32.07C37.4042 31.7433 37.1575 31.3667 36.9775 30.94C36.8042 30.5067 36.7175 30.0433 36.7175 29.55C36.7175 29.05 36.8042 28.5867 36.9775 28.16C37.1508 27.7333 37.3942 27.36 37.7075 27.04C38.0208 26.72 38.3842 26.47 38.7975 26.29C39.2108 26.11 39.6608 26.02 40.1475 26.02C40.6342 26.02 41.0842 26.11 41.4975 26.29C41.9175 26.47 42.2842 26.72 42.5975 27.04C42.9108 27.36 43.1542 27.7367 43.3275 28.17C43.5008 28.5967 43.5875 29.06 43.5875 29.56C43.5875 30.0533 43.5008 30.5167 43.3275 30.95C43.1542 31.3767 42.9108 31.75 42.5975 32.07C42.2908 32.39 41.9308 32.6433 41.5175 32.83C41.1042 33.01 40.6542 33.1 40.1675 33.1ZM40.1475 32.39C40.6675 32.39 41.1275 32.2667 41.5275 32.02C41.9342 31.7733 42.2508 31.4367 42.4775 31.01C42.7108 30.5833 42.8275 30.0967 42.8275 29.55C42.8275 29.1433 42.7608 28.77 42.6275 28.43C42.4942 28.0833 42.3075 27.7833 42.0675 27.53C41.8275 27.27 41.5442 27.07 41.2175 26.93C40.8975 26.79 40.5408 26.72 40.1475 26.72C39.6342 26.72 39.1742 26.8433 38.7675 27.09C38.3675 27.33 38.0508 27.6633 37.8175 28.09C37.5908 28.5167 37.4775 29.0033 37.4775 29.55C37.4775 29.9567 37.5442 30.3333 37.6775 30.68C37.8108 31.0267 37.9975 31.33 38.2375 31.59C38.4775 31.8433 38.7608 32.04 39.0875 32.18C39.4142 32.32 39.7675 32.39 40.1475 32.39ZM49.557 33V30.24C49.557 29.8267 49.4336 29.4933 49.187 29.24C48.947 28.98 48.627 28.85 48.227 28.85C47.9536 28.85 47.7136 28.91 47.507 29.03C47.3003 29.15 47.137 29.3133 47.017 29.52C46.897 29.7267 46.837 29.9633 46.837 30.23L46.517 30.05C46.517 29.6967 46.6003 29.38 46.767 29.1C46.9336 28.82 47.157 28.6 47.437 28.44C47.7236 28.28 48.0503 28.2 48.417 28.2C48.777 28.2 49.097 28.2867 49.377 28.46C49.657 28.6333 49.8736 28.8667 50.027 29.16C50.187 29.4533 50.267 29.7733 50.267 30.12V33H49.557ZM46.137 33V28.3H46.837V33H46.137ZM55.0464 33.1C54.5731 33.1 54.1497 32.9933 53.7764 32.78C53.4031 32.5667 53.1064 32.2733 52.8864 31.9C52.6731 31.5267 52.5664 31.1067 52.5664 30.64C52.5664 30.18 52.6731 29.7667 52.8864 29.4C53.0997 29.0267 53.3897 28.7333 53.7564 28.52C54.1231 28.3067 54.5331 28.2 54.9864 28.2C55.4131 28.2 55.7897 28.2967 56.1164 28.49C56.4497 28.6833 56.7097 28.9533 56.8964 29.3C57.0897 29.64 57.1864 30.0333 57.1864 30.48C57.1864 30.5333 57.1831 30.5967 57.1764 30.67C57.1697 30.7367 57.1564 30.8167 57.1364 30.91H53.0664V30.31H56.7564L56.5064 30.53C56.5131 30.1833 56.4531 29.8867 56.3264 29.64C56.2064 29.3867 56.0297 29.1933 55.7964 29.06C55.5697 28.92 55.2931 28.85 54.9664 28.85C54.6264 28.85 54.3297 28.9233 54.0764 29.07C53.8231 29.2167 53.6231 29.4233 53.4764 29.69C53.3364 29.95 53.2664 30.26 53.2664 30.62C53.2664 30.98 53.3397 31.2967 53.4864 31.57C53.6397 31.8433 53.8497 32.0567 54.1164 32.21C54.3897 32.3633 54.7031 32.44 55.0564 32.44C55.3431 32.44 55.6064 32.39 55.8464 32.29C56.0864 32.1833 56.2897 32.0267 56.4564 31.82L56.9064 32.28C56.6864 32.54 56.4131 32.7433 56.0864 32.89C55.7664 33.03 55.4197 33.1 55.0464 33.1ZM65.1357 33.1C64.6824 33.1 64.269 32.99 63.8957 32.77C63.529 32.55 63.2357 32.2533 63.0157 31.88C62.8024 31.5067 62.6957 31.09 62.6957 30.63C62.6957 30.1767 62.8024 29.7667 63.0157 29.4C63.2357 29.0333 63.529 28.7433 63.8957 28.53C64.269 28.31 64.6824 28.2 65.1357 28.2C65.5957 28.2 66.009 28.3067 66.3757 28.52C66.7424 28.7333 67.0324 29.0267 67.2457 29.4C67.4657 29.7667 67.5757 30.1767 67.5757 30.63C67.5757 31.0967 67.4657 31.5167 67.2457 31.89C67.0324 32.2567 66.7424 32.55 66.3757 32.77C66.009 32.99 65.5957 33.1 65.1357 33.1ZM65.1357 32.42C65.469 32.42 65.7624 32.3433 66.0157 32.19C66.2757 32.0367 66.479 31.8233 66.6257 31.55C66.779 31.2767 66.8557 30.97 66.8557 30.63C66.8557 30.29 66.779 29.99 66.6257 29.73C66.479 29.4633 66.2757 29.2533 66.0157 29.1C65.7624 28.9467 65.469 28.87 65.1357 28.87C64.809 28.87 64.5157 28.9467 64.2557 29.1C63.9957 29.2533 63.7924 29.4633 63.6457 29.73C63.499 29.99 63.4257 30.29 63.4257 30.63C63.4257 30.9767 63.499 31.2867 63.6457 31.56C63.7924 31.8267 63.9957 32.0367 64.2557 32.19C64.5157 32.3433 64.809 32.42 65.1357 32.42ZM70.5133 33V27.5C70.5133 27.1733 70.5833 26.8833 70.7233 26.63C70.8699 26.3767 71.0699 26.18 71.3233 26.04C71.5833 25.8933 71.8766 25.82 72.2033 25.82C72.4566 25.82 72.6799 25.8667 72.8733 25.96C73.0666 26.0467 73.2433 26.17 73.4033 26.33L72.9433 26.79C72.8366 26.6833 72.7233 26.6067 72.6033 26.56C72.4899 26.5067 72.3566 26.48 72.2033 26.48C71.8899 26.48 71.6466 26.5733 71.4733 26.76C71.3066 26.94 71.2233 27.1933 71.2233 27.52V33H70.5133ZM69.3333 28.93V28.3H72.7933V28.93H69.3333ZM80.557 33.1C80.1104 33.1 79.7104 32.9933 79.357 32.78C79.0037 32.56 78.7237 32.2667 78.517 31.9C78.317 31.5333 78.217 31.12 78.217 30.66C78.217 30.1933 78.317 29.7767 78.517 29.41C78.7237 29.0367 79.0037 28.7433 79.357 28.53C79.7104 28.31 80.107 28.2 80.547 28.2C80.907 28.2 81.227 28.2733 81.507 28.42C81.7937 28.56 82.0237 28.76 82.197 29.02C82.377 29.2733 82.487 29.57 82.527 29.91V31.38C82.487 31.72 82.377 32.02 82.197 32.28C82.0237 32.54 81.7937 32.7433 81.507 32.89C81.227 33.03 80.9104 33.1 80.557 33.1ZM80.667 32.43C81.1537 32.43 81.5437 32.2667 81.837 31.94C82.137 31.6133 82.287 31.1833 82.287 30.65C82.287 30.2967 82.217 29.9867 82.077 29.72C81.9437 29.4467 81.7537 29.2367 81.507 29.09C81.267 28.9367 80.9837 28.86 80.657 28.86C80.3237 28.86 80.027 28.9367 79.767 29.09C79.5137 29.2433 79.3104 29.4567 79.157 29.73C79.0104 29.9967 78.937 30.3033 78.937 30.65C78.937 30.9967 79.0104 31.3033 79.157 31.57C79.3104 31.8367 79.517 32.0467 79.777 32.2C80.037 32.3533 80.3337 32.43 80.667 32.43ZM82.247 33V31.74L82.387 30.58L82.247 29.45V28.3H82.947V33H82.247ZM93.6451 33L89.8851 29.41L93.5651 26.12H94.5451L90.6251 29.61V29.19L94.6451 33H93.6451ZM89.2851 33V26.12H90.0151V33H89.2851ZM97.0069 33V28.3H97.7169V33H97.0069ZM97.3569 27.28C97.2235 27.28 97.1102 27.2333 97.0169 27.14C96.9235 27.04 96.8769 26.9233 96.8769 26.79C96.8769 26.65 96.9235 26.5333 97.0169 26.44C97.1102 26.3467 97.2235 26.3 97.3569 26.3C97.5035 26.3 97.6202 26.3467 97.7069 26.44C97.8002 26.5333 97.8469 26.65 97.8469 26.79C97.8469 26.9233 97.8002 27.04 97.7069 27.14C97.6202 27.2333 97.5035 27.28 97.3569 27.28ZM103.856 33V30.24C103.856 29.8267 103.732 29.4933 103.486 29.24C103.246 28.98 102.926 28.85 102.526 28.85C102.252 28.85 102.012 28.91 101.806 29.03C101.599 29.15 101.436 29.3133 101.316 29.52C101.196 29.7267 101.136 29.9633 101.136 30.23L100.816 30.05C100.816 29.6967 100.899 29.38 101.066 29.1C101.232 28.82 101.456 28.6 101.736 28.44C102.022 28.28 102.349 28.2 102.716 28.2C103.076 28.2 103.396 28.2867 103.676 28.46C103.956 28.6333 104.172 28.8667 104.326 29.16C104.486 29.4533 104.566 29.7733 104.566 30.12V33H103.856ZM100.436 33V28.3H101.136V33H100.436ZM109.175 33.1C108.742 33.1 108.352 32.9933 108.005 32.78C107.659 32.5667 107.382 32.2767 107.175 31.91C106.975 31.5367 106.875 31.12 106.875 30.66C106.875 30.1933 106.975 29.7767 107.175 29.41C107.382 29.0367 107.659 28.7433 108.005 28.53C108.352 28.31 108.742 28.2 109.175 28.2C109.529 28.2 109.849 28.27 110.135 28.41C110.422 28.55 110.659 28.75 110.845 29.01C111.039 29.2633 111.152 29.5633 111.185 29.91V31.38C111.145 31.72 111.032 32.02 110.845 32.28C110.665 32.5333 110.432 32.7333 110.145 32.88C109.859 33.0267 109.535 33.1 109.175 33.1ZM109.295 32.43C109.622 32.43 109.909 32.3567 110.155 32.21C110.402 32.0567 110.595 31.8467 110.735 31.58C110.875 31.3067 110.945 30.9967 110.945 30.65C110.945 30.2967 110.872 29.9867 110.725 29.72C110.585 29.4533 110.392 29.2433 110.145 29.09C109.899 28.9367 109.612 28.86 109.285 28.86C108.959 28.86 108.669 28.9367 108.415 29.09C108.162 29.2433 107.962 29.4567 107.815 29.73C107.675 29.9967 107.605 30.3033 107.605 30.65C107.605 30.9967 107.675 31.3067 107.815 31.58C107.962 31.8467 108.162 32.0567 108.415 32.21C108.675 32.3567 108.969 32.43 109.295 32.43ZM111.605 33H110.905V31.74L111.045 30.58L110.905 29.45V25.92H111.605V33ZM119.843 33.1C119.31 33.1 118.85 33 118.463 32.8C118.077 32.5933 117.737 32.3067 117.443 31.94L117.953 31.44C118.187 31.7667 118.457 32.01 118.763 32.17C119.077 32.33 119.447 32.41 119.873 32.41C120.313 32.41 120.67 32.31 120.943 32.11C121.217 31.91 121.353 31.6333 121.353 31.28C121.353 31.0067 121.29 30.7833 121.163 30.61C121.037 30.43 120.87 30.2867 120.663 30.18C120.463 30.0667 120.24 29.9667 119.993 29.88C119.747 29.7933 119.5 29.7033 119.253 29.61C119.013 29.51 118.79 29.3867 118.583 29.24C118.377 29.0933 118.21 28.9067 118.083 28.68C117.963 28.4533 117.903 28.1633 117.903 27.81C117.903 27.4367 117.993 27.1167 118.173 26.85C118.353 26.5833 118.6 26.38 118.913 26.24C119.227 26.0933 119.583 26.02 119.983 26.02C120.43 26.02 120.827 26.1067 121.173 26.28C121.527 26.4533 121.82 26.6867 122.053 26.98L121.553 27.48C121.34 27.2267 121.107 27.0333 120.853 26.9C120.6 26.7667 120.303 26.7 119.963 26.7C119.563 26.7 119.243 26.7933 119.003 26.98C118.763 27.1667 118.643 27.4267 118.643 27.76C118.643 28.02 118.703 28.23 118.823 28.39C118.95 28.55 119.117 28.6833 119.323 28.79C119.53 28.8967 119.753 28.9933 119.993 29.08C120.24 29.16 120.487 29.25 120.733 29.35C120.98 29.45 121.203 29.5767 121.403 29.73C121.61 29.8833 121.777 30.08 121.903 30.32C122.03 30.5533 122.093 30.8533 122.093 31.22C122.093 31.8133 121.89 32.2767 121.483 32.61C121.083 32.9367 120.537 33.1 119.843 33.1ZM126.693 33.1C126.219 33.1 125.796 32.9933 125.423 32.78C125.049 32.5667 124.753 32.2733 124.533 31.9C124.319 31.5267 124.213 31.1067 124.213 30.64C124.213 30.18 124.319 29.7667 124.533 29.4C124.746 29.0267 125.036 28.7333 125.403 28.52C125.769 28.3067 126.179 28.2 126.633 28.2C127.059 28.2 127.436 28.2967 127.763 28.49C128.096 28.6833 128.356 28.9533 128.543 29.3C128.736 29.64 128.833 30.0333 128.833 30.48C128.833 30.5333 128.829 30.5967 128.823 30.67C128.816 30.7367 128.803 30.8167 128.783 30.91H124.713V30.31H128.403L128.153 30.53C128.159 30.1833 128.099 29.8867 127.973 29.64C127.853 29.3867 127.676 29.1933 127.443 29.06C127.216 28.92 126.939 28.85 126.613 28.85C126.273 28.85 125.976 28.9233 125.723 29.07C125.469 29.2167 125.269 29.4233 125.123 29.69C124.983 29.95 124.913 30.26 124.913 30.62C124.913 30.98 124.986 31.2967 125.132 31.57C125.286 31.8433 125.496 32.0567 125.763 32.21C126.036 32.3633 126.349 32.44 126.703 32.44C126.989 32.44 127.253 32.39 127.493 32.29C127.733 32.1833 127.936 32.0267 128.103 31.82L128.553 32.28C128.333 32.54 128.059 32.7433 127.733 32.89C127.413 33.03 127.066 33.1 126.693 33.1ZM131.203 33V28.3H131.903V33H131.203ZM131.903 30.26L131.613 30.13C131.613 29.5367 131.757 29.0667 132.043 28.72C132.337 28.3733 132.737 28.2 133.243 28.2C133.477 28.2 133.69 28.2433 133.883 28.33C134.077 28.41 134.257 28.54 134.423 28.72L133.963 29.21C133.85 29.0833 133.723 28.9933 133.583 28.94C133.45 28.8867 133.297 28.86 133.123 28.86C132.763 28.86 132.47 28.98 132.243 29.22C132.017 29.4533 131.903 29.8 131.903 30.26ZM138.001 33L135.831 28.3H136.611L138.441 32.41H138.001L139.841 28.3H140.601L138.411 33H138.001ZM142.778 33V28.3H143.488V33H142.778ZM143.128 27.28C142.995 27.28 142.881 27.2333 142.788 27.14C142.695 27.04 142.648 26.9233 142.648 26.79C142.648 26.65 142.695 26.5333 142.788 26.44C142.881 26.3467 142.995 26.3 143.128 26.3C143.275 26.3 143.391 26.3467 143.478 26.44C143.571 26.5333 143.618 26.65 143.618 26.79C143.618 26.9233 143.571 27.04 143.478 27.14C143.391 27.2333 143.275 27.28 143.128 27.28ZM148.347 33.1C147.887 33.1 147.47 32.9933 147.097 32.78C146.73 32.56 146.437 32.2633 146.217 31.89C146.004 31.5167 145.897 31.1 145.897 30.64C145.897 30.18 146.004 29.7667 146.217 29.4C146.437 29.0267 146.73 28.7333 147.097 28.52C147.47 28.3067 147.887 28.2 148.347 28.2C148.7 28.2 149.03 28.2667 149.337 28.4C149.644 28.5333 149.904 28.72 150.117 28.96L149.657 29.43C149.497 29.25 149.304 29.1133 149.077 29.02C148.85 28.92 148.607 28.87 148.347 28.87C148.014 28.87 147.717 28.9467 147.457 29.1C147.197 29.2533 146.994 29.4633 146.847 29.73C146.7 29.99 146.627 30.2933 146.627 30.64C146.627 30.98 146.7 31.2867 146.847 31.56C146.994 31.8267 147.197 32.0367 147.457 32.19C147.717 32.3433 148.014 32.42 148.347 32.42C148.614 32.42 148.86 32.3733 149.087 32.28C149.314 32.18 149.507 32.04 149.667 31.86L150.137 32.33C149.917 32.5767 149.65 32.7667 149.337 32.9C149.03 33.0333 148.7 33.1 148.347 33.1ZM154.501 33.1C154.028 33.1 153.604 32.9933 153.231 32.78C152.858 32.5667 152.561 32.2733 152.341 31.9C152.128 31.5267 152.021 31.1067 152.021 30.64C152.021 30.18 152.128 29.7667 152.341 29.4C152.554 29.0267 152.844 28.7333 153.211 28.52C153.578 28.3067 153.988 28.2 154.441 28.2C154.868 28.2 155.244 28.2967 155.571 28.49C155.904 28.6833 156.164 28.9533 156.351 29.3C156.544 29.64 156.641 30.0333 156.641 30.48C156.641 30.5333 156.638 30.5967 156.631 30.67C156.624 30.7367 156.611 30.8167 156.591 30.91H152.521V30.31H156.211L155.961 30.53C155.968 30.1833 155.908 29.8867 155.781 29.64C155.661 29.3867 155.484 29.1933 155.251 29.06C155.024 28.92 154.748 28.85 154.421 28.85C154.081 28.85 153.784 28.9233 153.531 29.07C153.278 29.2167 153.078 29.4233 152.931 29.69C152.791 29.95 152.721 30.26 152.721 30.62C152.721 30.98 152.794 31.2967 152.941 31.57C153.094 31.8433 153.304 32.0567 153.571 32.21C153.844 32.3633 154.158 32.44 154.511 32.44C154.798 32.44 155.061 32.39 155.301 32.29C155.541 32.1833 155.744 32.0267 155.911 31.82L156.361 32.28C156.141 32.54 155.868 32.7433 155.541 32.89C155.221 33.03 154.874 33.1 154.501 33.1Z" fill="black"/>
<path d="M0.4 20L6.06 5.94H8.28L13.92 20H11.02L6.66 8.46H7.66L3.24 20H0.4ZM3.4 17.38V15.1H10.96V17.38H3.4Z" fill="#00549E"/>
<path d="M15.131 20V8.704H17.643V20H15.131ZM17.067 20V17.792H22.651V20H17.067ZM24.0997 20V8.704H26.6117V20H24.0997ZM34.1472 20.176C33.3046 20.176 32.5206 20.032 31.7952 19.744C31.0806 19.4453 30.4512 19.0293 29.9072 18.496C29.3739 17.9627 28.9579 17.344 28.6592 16.64C28.3606 15.9253 28.2112 15.1573 28.2112 14.336C28.2112 13.5147 28.3606 12.752 28.6592 12.048C28.9579 11.3333 29.3739 10.7147 29.9072 10.192C30.4406 9.66933 31.0646 9.264 31.7792 8.976C32.5046 8.67733 33.2886 8.528 34.1312 8.528C35.0272 8.528 35.8219 8.672 36.5152 8.96C37.2192 9.248 37.8326 9.64267 38.3552 10.144L36.6752 11.84C36.3766 11.52 36.0139 11.2693 35.5872 11.088C35.1712 10.9067 34.6859 10.816 34.1312 10.816C33.6406 10.816 33.1872 10.9013 32.7712 11.072C32.3659 11.232 32.0139 11.4667 31.7152 11.776C31.4272 12.0853 31.1979 12.4587 31.0272 12.896C30.8672 13.3333 30.7872 13.8133 30.7872 14.336C30.7872 14.8693 30.8672 15.3547 31.0272 15.792C31.1979 16.2293 31.4272 16.6027 31.7152 16.912C32.0139 17.2213 32.3659 17.4613 32.7712 17.632C33.1872 17.8027 33.6406 17.888 34.1312 17.888C34.7072 17.888 35.2086 17.7973 35.6352 17.616C36.0619 17.4347 36.4299 17.184 36.7392 16.864L38.4352 18.56C37.8912 19.0613 37.2672 19.456 36.5632 19.744C35.8699 20.032 35.0646 20.176 34.1472 20.176ZM39.8185 20V8.704H42.3305V20H39.8185ZM43.658 20L48.138 8.704H50.41L54.842 20H52.186L48.794 10.624H49.706L46.266 20H43.658ZM46.202 17.952V15.904H52.362V17.952H46.202Z" fill="#00549E"/>
<path d="M70.003 20.2C68.9763 20.2 68.023 20.02 67.143 19.66C66.263 19.2867 65.4896 18.7733 64.823 18.12C64.1696 17.4533 63.663 16.68 63.303 15.8C62.9563 14.92 62.783 13.9733 62.783 12.96C62.783 11.9467 62.9563 11 63.303 10.12C63.663 9.24 64.1696 8.47333 64.823 7.82C65.4896 7.16667 66.2563 6.65333 67.123 6.28C68.003 5.90667 68.963 5.72 70.003 5.72C71.123 5.72 72.1096 5.90667 72.963 6.28C73.8163 6.64 74.5696 7.14 75.223 7.78L73.383 9.62C72.9963 9.19333 72.523 8.86 71.963 8.62C71.403 8.38 70.7496 8.26 70.003 8.26C69.3496 8.26 68.7496 8.37333 68.203 8.6C67.6696 8.81333 67.203 9.13333 66.803 9.56C66.403 9.97333 66.0963 10.4733 65.883 11.06C65.6696 11.6333 65.563 12.2667 65.563 12.96C65.563 13.6667 65.6696 14.3067 65.883 14.88C66.0963 15.4533 66.403 15.9533 66.803 16.38C67.203 16.7933 67.6696 17.1133 68.203 17.34C68.7496 17.5667 69.3496 17.68 70.003 17.68C70.7896 17.68 71.463 17.56 72.023 17.32C72.5963 17.08 73.0763 16.74 73.463 16.3L75.303 18.14C74.6496 18.7933 73.8896 19.3 73.023 19.66C72.1563 20.02 71.1496 20.2 70.003 20.2Z" fill="#00549E"/>
<path d="M75.6736 20L80.1536 8.704H82.4256L86.8576 20H84.2016L80.8096 10.624H81.7216L78.2816 20H75.6736ZM78.2176 17.952V15.904H84.3776V17.952H78.2176ZM89.9728 15.344V13.488H92.3568C92.8582 13.488 93.2422 13.36 93.5088 13.104C93.7862 12.848 93.9248 12.5013 93.9248 12.064C93.9248 11.6587 93.7915 11.3227 93.5248 11.056C93.2582 10.7893 92.8742 10.656 92.3728 10.656H89.9728V8.704H92.6608C93.4075 8.704 94.0635 8.848 94.6288 9.136C95.1942 9.41333 95.6368 9.80267 95.9568 10.304C96.2768 10.8053 96.4368 11.3813 96.4368 12.032C96.4368 12.6933 96.2768 13.2747 95.9568 13.776C95.6368 14.2667 95.1888 14.6507 94.6128 14.928C94.0368 15.2053 93.3595 15.344 92.5808 15.344H89.9728ZM88.0528 20V8.704H90.5648V20H88.0528ZM94.1968 20L90.6768 15.136L92.9808 14.512L97.1728 20H94.1968ZM100.665 20V8.864H103.177V20H100.665ZM97.1286 10.896V8.704H106.713V10.896H97.1286ZM108.115 20V8.704H110.627V20H108.115ZM110.035 20V17.824H116.227V20H110.035ZM110.035 15.28V13.184H115.667V15.28H110.035ZM110.035 10.864V8.704H116.147V10.864H110.035ZM119.879 15.344V13.488H122.263C122.764 13.488 123.148 13.36 123.415 13.104C123.692 12.848 123.831 12.5013 123.831 12.064C123.831 11.6587 123.698 11.3227 123.431 11.056C123.164 10.7893 122.78 10.656 122.279 10.656H119.879V8.704H122.567C123.314 8.704 123.97 8.848 124.535 9.136C125.1 9.41333 125.543 9.80267 125.863 10.304C126.183 10.8053 126.343 11.3813 126.343 12.032C126.343 12.6933 126.183 13.2747 125.863 13.776C125.543 14.2667 125.095 14.6507 124.519 14.928C123.943 15.2053 123.266 15.344 122.487 15.344H119.879ZM117.959 20V8.704H120.471V20H117.959ZM124.103 20L120.583 15.136L122.887 14.512L127.079 20H124.103Z" fill="#00549E"/>
<path d="M136.874 14.12V12H140.134C140.8 12 141.314 11.8333 141.674 11.5C142.047 11.1533 142.234 10.68 142.234 10.08C142.234 9.53333 142.047 9.08 141.674 8.72C141.314 8.34667 140.8 8.16 140.134 8.16H136.874V5.94H140.374C141.28 5.94 142.074 6.12 142.754 6.48C143.447 6.82667 143.98 7.30667 144.354 7.92C144.74 8.53333 144.934 9.24 144.934 10.04C144.934 10.8667 144.74 11.5867 144.354 12.2C143.98 12.8 143.447 13.2733 142.754 13.62C142.06 13.9533 141.254 14.12 140.334 14.12H136.874ZM134.874 20V5.94H137.594V20H134.874ZM142.554 20L137.914 13.92L140.414 13.14L145.854 20H142.554Z" fill="#00549E"/>
<path d="M147.315 20V8.704H149.827V20H147.315ZM149.235 20V17.824H155.427V20H149.235ZM149.235 15.28V13.184H154.867V15.28H149.235ZM149.235 10.864V8.704H155.347V10.864H149.235ZM156.31 20L160.79 8.704H163.062L167.494 20H164.838L161.446 10.624H162.358L158.918 20H156.31ZM158.854 17.952V15.904H165.014V17.952H158.854ZM168.69 20V8.704H171.202V20H168.69ZM170.626 20V17.792H176.21V20H170.626ZM179.254 20V8.864H181.766V20H179.254ZM175.718 10.896V8.704H185.302V10.896H175.718ZM189.63 15.792L185.278 8.704H188.19L191.534 14.432H189.662L193.006 8.704H195.854L191.47 15.792H189.63ZM189.326 20V14.64H191.838V20H189.326Z" fill="#00549E"/>
</svg>
