<svg width="60" height="60" viewBox="0 0 60 60" fill="none" xmlns="http://www.w3.org/2000/svg">
<path d="M44.0043 14.7004C44.0043 14.5871 43.9565 14.4911 43.8608 14.4275C43.7652 14.364 43.6386 14.3006 43.4754 14.252V15.0679C43.8299 15.0516 44.0043 14.9233 44.0043 14.7004ZM42.6764 12.5256C42.6764 12.6365 42.7073 12.7321 42.7889 12.7957C42.8677 12.8604 42.9802 12.924 43.1406 12.9727V12.1405C42.8367 12.1568 42.6764 12.3 42.6764 12.5256ZM44.5811 12.5878C44.5642 12.5715 44.5305 12.5405 44.4686 12.4919C44.4038 12.4446 44.3251 12.4119 44.2125 12.3647C44.1169 12.3163 43.9874 12.2676 43.8749 12.2204C43.7483 12.1717 43.6189 12.1405 43.4923 12.1244V13.0523L43.7174 13.101C43.9565 13.1632 44.1647 13.2279 44.3391 13.3078C44.5304 13.3888 44.6936 13.4833 44.8202 13.5793C44.9469 13.6927 45.0453 13.8195 45.1241 13.9805C45.1888 14.1397 45.2366 14.3316 45.2366 14.5558C45.2366 14.8113 45.1888 15.0355 45.0932 15.2111C44.9975 15.3881 44.8849 15.5473 44.7246 15.6596C44.5642 15.7715 44.4038 15.8675 44.1956 15.9147C44.0043 15.9797 43.7961 16.0121 43.5739 16.0121V16.7957H43.1068V15.9946C42.7889 15.9634 42.4851 15.8987 42.1812 15.8042C41.8745 15.7082 41.6044 15.5785 41.3484 15.403L41.8436 14.4275C41.8605 14.4439 41.9083 14.4911 41.9899 14.5398C42.0686 14.5871 42.1643 14.6518 42.2937 14.7004C42.4203 14.764 42.5497 14.8113 42.7073 14.8597C42.8677 14.9072 43.0281 14.9556 43.1884 14.972V14.0601L42.8677 13.9642C42.6454 13.8994 42.4513 13.8195 42.2937 13.7399C42.1334 13.6603 41.9899 13.5644 41.8942 13.4684C41.7789 13.3564 41.7001 13.2442 41.6522 13.101C41.6044 12.9564 41.5735 12.812 41.5735 12.6202C41.5735 12.381 41.6213 12.1717 41.7001 11.9961C41.7789 11.8042 41.8942 11.6596 42.0377 11.5164C42.1812 11.3881 42.3416 11.2773 42.5329 11.2126C42.7242 11.1329 42.9324 11.0843 43.1406 11.068V10.3817H43.6048V11.068C43.8918 11.1017 44.1816 11.1639 44.4348 11.2598C44.6936 11.3732 44.9159 11.4692 45.1072 11.58L44.5811 12.5878Z" fill="#00549E"/>
<path d="M13.1474 43.7805H52.9764V37.6546H13.1474V43.7805ZM53.4724 44.8032H12.6341C12.3474 44.8032 12.1238 44.5802 12.1238 44.2911V37.1411C12.1238 36.8546 12.3474 36.6304 12.6341 36.6304H53.4868C53.7764 36.6304 54 36.8546 54 37.1411V44.2911C53.9857 44.5802 53.762 44.8032 53.4724 44.8032Z" fill="#00549E"/>
<path d="M49.3951 44.8027C49.1081 44.8027 48.8835 44.5799 48.8835 44.2909V37.1409C48.8835 36.8544 49.1081 36.6302 49.3951 36.6302C49.6822 36.6302 49.9067 36.8544 49.9067 37.1409V44.2909C49.9067 44.5799 49.6822 44.8027 49.3951 44.8027Z" fill="#00549E"/>
<path d="M45.3163 44.8027C45.0289 44.8027 44.8064 44.5799 44.8064 44.2909V37.1407C44.8064 36.8542 45.0289 36.63 45.3163 36.63C45.6036 36.63 45.829 36.8542 45.829 37.1407V44.2909C45.829 44.5799 45.5895 44.8027 45.3163 44.8027Z" fill="#00549E"/>
<path d="M41.2203 44.8032C40.9327 44.8032 40.7065 44.5804 40.7065 44.2914V37.1412C40.7065 36.855 40.9327 36.6308 41.2203 36.6308C41.5079 36.6308 41.7312 36.855 41.7312 37.1412V44.2914C41.7312 44.5804 41.5079 44.8032 41.2203 44.8032Z" fill="#00549E"/>
<path d="M37.1414 44.8032C36.8536 44.8032 36.6267 44.5805 36.6267 44.2913V37.1412C36.6267 36.8548 36.8536 36.6307 37.1414 36.6307C37.4291 36.6307 37.6532 36.8548 37.6532 37.1412V44.2913C37.6532 44.5805 37.4291 44.8032 37.1414 44.8032Z" fill="#00549E"/>
<path d="M33.0652 44.803C32.7746 44.803 32.5525 44.5801 32.5525 44.2908V37.1409C32.5525 36.8543 32.7746 36.63 33.0652 36.63C33.3504 36.63 33.5752 36.8543 33.5752 37.1409V44.2908C33.5588 44.5801 33.3367 44.803 33.0652 44.803Z" fill="#00549E"/>
<path d="M28.9691 44.803C28.6811 44.803 28.4556 44.5802 28.4556 44.2911V37.141C28.4556 36.8546 28.6811 36.6302 28.9691 36.6302C29.2543 36.6302 29.4798 36.8546 29.4798 37.141V44.2911C29.4798 44.5802 29.2543 44.803 28.9691 44.803Z" fill="#00549E"/>
<path d="M24.8877 44.803C24.5996 44.803 24.3762 44.5801 24.3762 44.291V37.141C24.3762 36.8546 24.5996 36.6304 24.8877 36.6304C25.1784 36.6304 25.4018 36.8546 25.4018 37.141V44.291C25.4018 44.5801 25.1622 44.803 24.8877 44.803Z" fill="#00549E"/>
<path d="M20.7942 44.803C20.5062 44.803 20.2822 44.5801 20.2822 44.291V37.1408C20.2822 36.8547 20.5062 36.6304 20.7942 36.6304C21.0822 36.6304 21.3062 36.8547 21.3062 37.1408V44.291C21.3062 44.5801 21.0822 44.803 20.7942 44.803Z" fill="#00549E"/>
<path d="M16.7139 44.8032C16.4286 44.8032 16.2041 44.5803 16.2041 44.291V37.1411C16.2041 36.8548 16.4286 36.6305 16.7139 36.6305C17.0045 36.6305 17.2264 36.8548 17.2264 37.1411V44.291C17.2264 44.5803 17.0045 44.8032 16.7139 44.8032Z" fill="#00549E"/>
<path d="M7.02153 50.9302H46.8522V44.8028H7.02153V50.9302ZM47.3474 51.9529H6.50934C6.22355 51.9529 6 51.7299 6 51.4421V44.2909C6 44.0046 6.22355 43.7802 6.50934 43.7802H47.3644C47.653 43.7802 47.8765 44.0046 47.8765 44.2909V51.4421C47.8596 51.7152 47.636 51.9529 47.3474 51.9529Z" fill="#00549E"/>
<path d="M43.2656 51.9536C42.9795 51.9536 42.7551 51.7307 42.7551 51.4429V44.2916C42.7551 44.0052 42.9795 43.7809 43.2656 43.7809C43.5544 43.7809 43.7788 44.0052 43.7788 44.2916V51.4429C43.7788 51.7158 43.5544 51.9536 43.2656 51.9536Z" fill="#00549E"/>
<path d="M39.1896 51.9531C38.9033 51.9531 38.6782 51.7302 38.6782 51.4425V44.2911C38.6782 44.0048 38.9033 43.7805 39.1896 43.7805C39.4787 43.7805 39.7011 44.0048 39.7011 44.2911V51.4425C39.6844 51.7155 39.462 51.9531 39.1896 51.9531Z" fill="#00549E"/>
<path d="M35.0931 51.9534C34.8067 51.9534 34.5808 51.7305 34.5808 51.443V44.2914C34.5808 44.005 34.8067 43.7808 35.0931 43.7808C35.3824 43.7808 35.6055 44.005 35.6055 44.2914V51.443C35.6055 51.7157 35.3824 51.9534 35.0931 51.9534Z" fill="#00549E"/>
<path d="M31.0151 51.9536C30.7258 51.9536 30.502 51.7306 30.502 51.4429V44.2914C30.502 44.0051 30.7258 43.7808 31.0151 43.7808C31.3017 43.7808 31.5255 44.0051 31.5255 44.2914V51.4429C31.5255 51.7159 31.2853 51.9536 31.0151 51.9536Z" fill="#00549E"/>
<path d="M26.9208 51.9531C26.6314 51.9531 26.4097 51.7303 26.4097 51.4426V44.2911C26.4097 44.0048 26.6314 43.7806 26.9208 43.7806C27.2074 43.7806 27.4319 44.0048 27.4319 44.2911V51.4426C27.4319 51.7154 27.2074 51.9531 26.9208 51.9531Z" fill="#00549E"/>
<path d="M22.8426 51.9529C22.5532 51.9529 22.3308 51.73 22.3308 51.4422V44.2908C22.3308 44.0046 22.5532 43.7804 22.8426 43.7804C23.1292 43.7804 23.3543 44.0046 23.3543 44.2908V51.4422C23.3543 51.7152 23.1292 51.9529 22.8426 51.9529Z" fill="#00549E"/>
<path d="M18.7618 51.9531C18.4752 51.9531 18.2522 51.7302 18.2522 51.4424V44.2912C18.2522 44.0048 18.4752 43.7805 18.7618 43.7805C19.0511 43.7805 19.2741 44.0048 19.2741 44.2912V51.4424C19.2741 51.7156 19.0352 51.9531 18.7618 51.9531Z" fill="#00549E"/>
<path d="M14.668 51.9529C14.3814 51.9529 14.158 51.7302 14.158 51.4423V44.2909C14.158 44.0046 14.3814 43.7803 14.668 43.7803C14.9572 43.7803 15.1807 44.0046 15.1807 44.2909V51.4423C15.1807 51.7152 14.9572 51.9529 14.668 51.9529Z" fill="#00549E"/>
<path d="M10.5877 51.9534C10.2987 51.9534 10.0747 51.7305 10.0747 51.4427V44.2914C10.0747 44.005 10.2987 43.7808 10.5877 43.7808C10.8742 43.7808 11.1007 44.005 11.1007 44.2914V51.4427C11.1007 51.7156 10.8742 51.9534 10.5877 51.9534Z" fill="#00549E"/>
<path d="M43.2656 37.6548C42.9795 37.6548 42.7551 37.4304 42.7551 37.1413V29.9914C42.7551 29.705 42.9795 29.4792 43.2656 29.4792C43.5544 29.4792 43.7788 29.705 43.7788 29.9914V37.1413C43.7788 37.4304 43.5544 37.6548 43.2656 37.6548Z" fill="#00549E"/>
<path d="M39.1896 37.6545C38.9033 37.6545 38.6782 37.4302 38.6782 37.1412V29.9911C38.6782 29.7045 38.9033 29.4791 39.1896 29.4791C39.4787 29.4791 39.7011 29.7045 39.7011 29.9911V37.1412C39.6844 37.4302 39.462 37.6545 39.1896 37.6545Z" fill="#00549E"/>
<path d="M35.0931 37.6548C34.8067 37.6548 34.5808 37.4306 34.5808 37.1414V29.9915C34.5808 29.705 34.8067 29.4794 35.0931 29.4794C35.3824 29.4794 35.6055 29.705 35.6055 29.9915V37.1414C35.6055 37.4306 35.3824 37.6548 35.0931 37.6548Z" fill="#00549E"/>
<path d="M31.0151 37.6548C30.7258 37.6548 30.502 37.4307 30.502 37.1414V29.9915C30.502 29.7052 30.7258 29.4795 31.0151 29.4795C31.3017 29.4795 31.5255 29.7052 31.5255 29.9915V37.1414C31.5255 37.4307 31.2853 37.6548 31.0151 37.6548Z" fill="#00549E"/>
<path d="M26.9208 37.6548C26.6314 37.6548 26.4097 37.4306 26.4097 37.1415V29.9915C26.4097 29.7051 26.6314 29.4795 26.9208 29.4795C27.2074 29.4795 27.4319 29.7051 27.4319 29.9915V37.1415C27.4319 37.4306 27.2074 37.6548 26.9208 37.6548Z" fill="#00549E"/>
<path d="M22.8426 37.6541C22.5532 37.6541 22.3308 37.4298 22.3308 37.1404V29.9906C22.3308 29.7042 22.5532 29.4786 22.8426 29.4786C23.1292 29.4786 23.3543 29.7042 23.3543 29.9906V37.1404C23.3543 37.4298 23.1292 37.6541 22.8426 37.6541Z" fill="#00549E"/>
<path d="M18.7618 37.6541C18.4752 37.6541 18.2522 37.4298 18.2522 37.1407V29.9908C18.2522 29.7044 18.4752 29.4788 18.7618 29.4788C19.0511 29.4788 19.2741 29.7044 19.2741 29.9908V37.1407C19.2741 37.4298 19.0352 37.6541 18.7618 37.6541Z" fill="#00549E"/>
<path d="M14.668 37.6545C14.3814 37.6545 14.158 37.4303 14.158 37.1411V29.991C14.158 29.7047 14.3814 29.4791 14.668 29.4791C14.9572 29.4791 15.1807 29.7047 15.1807 29.991V37.1411C15.1807 37.4303 14.9572 37.6545 14.668 37.6545Z" fill="#00549E"/>
<path d="M10.5877 37.6548C10.2987 37.6548 10.0747 37.4306 10.0747 37.1415V29.9913C10.0747 29.7051 10.2987 29.4793 10.5877 29.4793C10.8742 29.4793 11.1007 29.7051 11.1007 29.9913V37.1415C11.1007 37.4306 10.8742 37.6548 10.5877 37.6548Z" fill="#00549E"/>
<path d="M26.3281 22.8419C26.3281 22.6177 26.2332 22.4259 26.0406 22.2976C25.8508 22.1691 25.6094 22.0571 25.2894 21.9464V23.5457C25.9945 23.5294 26.3281 23.2892 26.3281 22.8419ZM23.7381 18.6031C23.7381 18.8257 23.8195 19.0028 23.9768 19.1311C24.1368 19.2594 24.3619 19.3703 24.6819 19.4663V17.8182C24.0582 17.883 23.7381 18.1382 23.7381 18.6031ZM27.4482 18.7151C27.4183 18.6828 27.337 18.6191 27.2095 18.5382C27.0821 18.4585 26.9221 18.3788 26.7132 18.2828C26.5071 18.187 26.2956 18.1073 26.0406 18.0113C25.802 17.9316 25.5443 17.8667 25.3057 17.8342V19.658L25.7369 19.77C26.1871 19.8983 26.5993 20.0269 26.9681 20.1701C27.337 20.3146 27.6407 20.5063 27.8984 20.7144C28.1533 20.9386 28.3432 21.1938 28.4896 21.5141C28.6333 21.8181 28.6957 22.2016 28.6957 22.6339C28.6957 23.1446 28.6008 23.5769 28.4245 23.9294C28.2482 24.282 28.0096 24.5684 27.7031 24.8087C27.4021 25.033 27.0631 25.2087 26.6807 25.3207C26.2956 25.433 25.8806 25.4978 25.4657 25.5287V27.0808H24.5382V25.5125C23.9307 25.4653 23.3232 25.337 22.713 25.1452C22.1055 24.9532 21.5794 24.6967 21.0994 24.3767L22.0567 22.4731C22.0892 22.5219 22.1869 22.5867 22.3469 22.6974C22.5069 22.7934 22.6967 22.9054 22.9381 23.0177C23.1795 23.1297 23.4507 23.2406 23.7544 23.3377C24.0582 23.4337 24.3619 23.5134 24.6819 23.5606V21.7544L24.0419 21.5613C23.6107 21.4344 23.2256 21.2898 22.9056 21.1304C22.5883 20.9696 22.3143 20.7941 22.1055 20.5861C21.8994 20.3781 21.7367 20.1375 21.6418 19.8823C21.5468 19.6106 21.4817 19.3068 21.4817 18.9543C21.4817 18.4908 21.5631 18.0748 21.7231 17.7222C21.8831 17.3547 22.1055 17.0507 22.3605 16.7955C22.6344 16.5389 22.9544 16.3309 23.3232 16.1877C23.6893 16.0432 24.0907 15.9472 24.5219 15.8986V14.5559H25.4494V15.8986C26.0244 15.9472 26.5668 16.0755 27.0821 16.2835C27.5946 16.4901 28.0231 16.6995 28.4082 16.9064L27.4482 18.7151Z" fill="#00549E"/>
<path d="M20.554 29.4792H29.2246C32.5353 27.8162 34.5817 24.5066 34.5817 20.7946C34.5817 15.4518 30.2327 11.1022 24.8893 11.1022C19.5459 11.1022 15.1969 15.4518 15.1969 20.7946C15.1804 24.5066 17.2433 27.8338 20.554 29.4792ZM29.3348 30.5044H20.4273C20.3475 30.5044 20.2648 30.4868 20.2015 30.4559C18.4084 29.5924 16.9073 28.2483 15.8359 26.5679C14.7314 24.8415 14.1558 22.8587 14.1558 20.8106C14.1558 14.8927 18.9703 10.093 24.8728 10.093C30.7753 10.093 35.5898 14.9076 35.5898 20.8106C35.5898 22.8587 35.0141 24.8578 33.9097 26.5679C32.8382 28.2483 31.3371 29.5924 29.5441 30.4559C29.4973 30.4868 29.4174 30.5044 29.3348 30.5044Z" fill="#00549E"/>
<path d="M7.02153 36.63H46.8522V30.5037H7.02153V36.63ZM47.3474 37.6541H6.50934C6.22355 37.6541 6 37.4296 6 37.1405V29.9907C6 29.704 6.22355 29.4785 6.50934 29.4785H47.3644C47.653 29.4785 47.8765 29.704 47.8765 29.9907V37.1405C47.8596 37.4296 47.636 37.6541 47.3474 37.6541Z" fill="#00549E"/>
<path d="M43.2678 9.05419C40.7411 9.05419 38.6766 11.117 38.6766 13.6443C38.6766 16.1705 40.7411 18.2347 43.2678 18.2347C45.7946 18.2347 47.8562 16.1705 47.8562 13.6443C47.8562 11.117 45.7946 9.05419 43.2678 9.05419ZM43.2678 19.2749C40.1654 19.2749 37.6528 16.7473 37.6528 13.6608C37.6528 10.5578 40.1796 8.0466 43.2678 8.0466C46.3532 8.0466 48.8828 10.5725 48.8828 13.6608C48.8828 16.7473 46.3703 19.2749 43.2678 19.2749Z" fill="#00549E"/>
</svg>
