<svg width="60" height="60" viewBox="0 0 60 60" fill="none" xmlns="http://www.w3.org/2000/svg">
<path d="M38.683 17.635L42.1903 19.1277V14.4355H38.683V17.635ZM42.7122 20.438C42.6434 20.438 42.5747 20.4256 42.5077 20.3967L37.9565 18.4594C37.7661 18.3784 37.6409 18.1892 37.6409 17.9792V13.9127C37.6409 13.626 37.8737 13.3927 38.1611 13.3927H42.7122C43.0014 13.3927 43.2341 13.626 43.2341 13.9127V19.918C43.2341 20.0922 43.146 20.2555 43.0014 20.3514C42.915 20.4091 42.8127 20.438 42.7122 20.438Z" fill="#00549E"/>
<path d="M9.10533 23.3525V26.8361L13.8765 25.2116L28.8849 19.7922C28.9968 19.7523 29.1178 19.7511 29.2297 19.7895L44.249 24.9029L44.2725 24.9111L49.0183 26.7962V23.3525L29.0618 14.4839L9.10533 23.3525ZM8.58361 28.0861C8.4753 28.0861 8.3688 28.053 8.28034 27.9886C8.14315 27.8911 8.06192 27.7333 8.06192 27.5645V23.0151C8.06192 22.8078 8.18286 22.6212 8.3724 22.5376L28.8488 13.4356C28.9842 13.3753 29.1395 13.3753 29.273 13.4356L49.7512 22.5376C49.9408 22.6212 50.0617 22.8078 50.0617 23.0151V27.5645C50.0617 27.7389 49.9769 27.8994 49.8325 27.9967C49.6899 28.0942 49.5075 28.1148 49.3487 28.0503L43.8988 25.8866L29.0672 20.8364L14.2213 26.1967L8.7515 28.0586C8.69734 28.0778 8.64138 28.0861 8.58361 28.0861Z" fill="#00549E"/>
<path d="M14.5667 47.8266H43.557V25.7688L29.0663 20.8365L14.5667 26.0733V47.8266ZM44.0779 48.8694H14.0441C13.7571 48.8694 13.5214 48.6361 13.5214 48.3466V25.7071C13.5214 25.4862 13.6596 25.29 13.8669 25.2146L28.8838 19.7925C28.9954 19.7526 29.1177 19.7512 29.2293 19.7896L44.248 24.9031C44.457 24.9745 44.6005 25.1733 44.6005 25.3956V48.3466C44.6005 48.6361 44.3667 48.8694 44.0779 48.8694Z" fill="#00549E"/>
<path d="M18.5222 47.8266H29.3101V38.4957C29.3101 35.5211 26.8898 33.1009 23.9153 33.1009C20.9409 33.1009 18.5222 35.5226 18.5222 38.4957V47.8266ZM29.8305 48.8694H17.9984C17.7104 48.8694 17.478 48.6361 17.478 48.3466V38.4957C17.478 34.9462 20.3665 32.0568 23.9153 32.0568C27.4641 32.0568 30.3527 34.9462 30.3527 38.4957V48.3466C30.3527 48.6361 30.1202 48.8694 29.8305 48.8694Z" fill="#00549E"/>
<path d="M38.8701 29.9702H19.044C18.7552 29.9702 18.5221 29.7369 18.5221 29.4502C18.5221 29.1619 18.7552 28.9274 19.044 28.9274H38.8701C39.1589 28.9274 39.392 29.1619 39.392 29.4502C39.392 29.7369 39.1589 29.9702 38.8701 29.9702Z" fill="#00549E"/>
<path d="M32.6096 26.8401H25.3041C25.0166 26.8401 24.7835 26.6068 24.7835 26.3173C24.7835 26.0306 25.0166 25.7974 25.3041 25.7974H32.6096C32.8971 25.7974 33.1302 26.0306 33.1302 26.3173C33.1302 26.6068 32.8971 26.8401 32.6096 26.8401Z" fill="#00549E"/>
<path d="M11.2173 50.9559H46.6963V48.869H11.2173V50.9559ZM47.2192 52H10.6962C10.4078 52 10.175 51.7668 10.175 51.4786V48.3477C10.175 48.0595 10.4078 47.8263 10.6962 47.8263H47.2192C47.5058 47.8263 47.7404 48.0595 47.7404 48.3477V51.4786C47.7404 51.7668 47.5058 52 47.2192 52Z" fill="#00549E"/>
<path d="M52.4365 51.9998H6.52138C6.23335 51.9998 6 51.7664 6 51.4784C6 51.1902 6.23335 50.9556 6.52138 50.9556H52.4365C52.7245 50.9556 52.9579 51.1902 52.9579 51.4784C52.9579 51.7664 52.7245 51.9998 52.4365 51.9998Z" fill="#00549E"/>
<path d="M34.1725 39.478H39.3917V36.3484H34.1725V39.478ZM39.9121 40.522H33.6522C33.364 40.522 33.1301 40.2887 33.1301 40.0006V35.8256C33.1301 35.5375 33.3623 35.3042 33.6522 35.3042H39.9121C40.2002 35.3042 40.4342 35.5375 40.4342 35.8256V40.0006C40.4342 40.2887 40.2002 40.522 39.9121 40.522Z" fill="#00549E"/>
<path d="M34.1725 43.6532H39.3917V40.5222H34.1725V43.6532ZM39.9121 44.6958H33.6522C33.364 44.6958 33.1301 44.4613 33.1301 44.1744V40.0008C33.1301 39.7127 33.3623 39.4782 33.6522 39.4782H39.9121C40.2002 39.4782 40.4342 39.7127 40.4342 40.0008V44.1744C40.4342 44.4613 40.2002 44.6958 39.9121 44.6958Z" fill="#00549E"/>
<path d="M10.6952 12.3478C9.83266 12.3478 9.13128 13.0503 9.13128 13.9118C9.13128 14.7762 9.83266 15.4787 10.6952 15.4787C11.5593 15.4787 12.2607 14.7762 12.2607 13.9118C12.2607 13.0503 11.5593 12.3478 10.6952 12.3478ZM10.6952 16.5215C9.25765 16.5215 8.0871 15.3511 8.0871 13.9118C8.0871 12.474 9.25765 11.3037 10.6952 11.3037C12.1343 11.3037 13.3048 12.474 13.3048 13.9118C13.3048 15.3511 12.1343 16.5215 10.6952 16.5215Z" fill="#00549E"/>
<path d="M50.3486 9.21728C48.9107 9.21728 47.7399 10.3861 47.7399 11.8254C47.7399 13.2646 48.9107 14.435 50.3486 14.435C51.7865 14.435 52.9573 13.2646 52.9573 11.8254C52.9573 10.3861 51.7865 9.21728 50.3486 9.21728ZM50.3486 15.479C48.3345 15.479 46.6972 13.8395 46.6972 11.8254C46.6972 9.81273 48.3345 8.17308 50.3486 8.17308C52.3627 8.17308 54 9.81273 54 11.8254C54 13.8395 52.3627 15.479 50.3486 15.479Z" fill="#00549E"/>
</svg>
