<svg width="60" height="60" viewBox="0 0 60 60" fill="none" xmlns="http://www.w3.org/2000/svg">
<path d="M30 6.99126C17.3025 6.99126 6.97499 17.3189 6.97499 30.0172C6.97499 42.7126 17.3025 53.0402 30 53.0402C42.6976 53.0402 53.025 42.7126 53.025 30.0158C53.025 17.3044 42.6976 6.99126 30 6.99126ZM30 54C23.5882 54 17.5668 51.5064 13.0297 46.9701C8.49261 42.4341 6 36.4113 6 30C6 23.5901 8.49261 17.5673 13.0297 13.0313C17.5668 8.49242 23.5882 6.00018 30 6.00018C36.41 6.00018 42.4332 8.49242 46.9703 13.0313C51.5057 17.5673 54 23.5901 54 30C54 36.4113 51.5057 42.4341 46.9703 46.9701C42.4332 51.5064 36.41 54 30 54Z" fill="#00549E"/>
<path d="M29.9991 10.9093C19.47 10.9093 10.8934 19.473 10.8934 30.0175C10.8934 40.562 19.47 49.1086 29.9991 49.1086C40.5283 49.1086 49.1066 40.5451 49.1066 30.0004C49.1066 19.4559 40.5283 10.9093 29.9991 10.9093ZM29.9991 50.084C18.9279 50.084 9.91797 41.072 9.91797 30.0004C9.91797 18.9302 18.9279 9.91821 29.9991 9.91821C41.0704 9.91821 50.0803 18.9302 50.0803 30.0004C50.0803 41.072 41.0704 50.084 29.9991 50.084Z" fill="#00549E"/>
<path d="M29.9993 27.5536C28.6528 27.5536 27.5533 28.6533 27.5533 30.0001C27.5533 31.347 28.6528 32.4468 29.9993 32.4468C31.3457 32.4468 32.4453 31.347 32.4453 30.0001C32.4453 28.6533 31.3457 27.5536 29.9993 27.5536ZM29.9993 33.438C28.1104 33.438 26.5771 31.9054 26.5771 30.0159C26.5771 28.1265 28.1104 26.5939 29.9993 26.5939C31.8882 26.5939 33.4214 28.1265 33.4214 30.0159C33.4214 31.8897 31.8882 33.438 29.9993 33.438Z" fill="#00549E"/>
<path d="M36.8569 35.3892C36.7497 35.3892 36.6574 35.359 36.5651 35.2962L32.6462 32.3554C32.4302 32.1998 32.384 31.89 32.5538 31.6729C32.7088 31.4559 33.0188 31.4101 33.2347 31.5801L37.152 34.5221C37.3696 34.6764 37.4158 34.9864 37.2443 35.2034C37.152 35.3263 36.997 35.3892 36.8569 35.3892Z" fill="#00549E"/>
<path d="M30.0001 27.5537C29.7367 27.5537 29.5054 27.3367 29.5054 27.0595V18.2475C29.5054 17.9847 29.7206 17.7532 30.0001 17.7532C30.2796 17.7532 30.4948 17.9702 30.4948 18.2475V27.0595C30.4948 27.3367 30.2635 27.5537 30.0001 27.5537Z" fill="#00549E"/>
<path d="M18.278 18.667C18.1537 18.667 18.0294 18.6199 17.9389 18.527L15.8641 16.4361C15.6784 16.2518 15.6784 15.9419 15.8641 15.7391C16.0498 15.5536 16.3583 15.5536 16.5593 15.7391L18.6341 17.83C18.8213 18.0171 18.8213 18.3257 18.6341 18.527C18.542 18.6199 18.4023 18.667 18.278 18.667Z" fill="#00549E"/>
<path d="M30.0778 13.8352C29.7982 13.8352 29.5813 13.6183 29.5813 13.3411L29.5974 10.3976C29.5974 10.1348 29.8143 9.91769 30.0939 9.91769C30.3558 9.91769 30.5888 10.1348 30.5727 10.4132L30.5566 13.3554C30.5727 13.6183 30.3558 13.8352 30.0778 13.8352Z" fill="#00549E"/>
<path d="M41.8295 18.7747C41.7043 18.7747 41.5808 18.7276 41.4877 18.6361C41.3016 18.4505 41.3016 18.1405 41.4877 17.9392L43.5789 15.8639C43.765 15.6797 44.0747 15.6797 44.2743 15.8639C44.4621 16.0497 44.4621 16.3596 44.2743 16.561L42.1848 18.6361C42.0765 18.7276 41.953 18.7747 41.8295 18.7747Z" fill="#00549E"/>
<path d="M49.5864 30.5898L46.6445 30.5729C46.3804 30.5729 46.149 30.3573 46.1646 30.0774C46.1646 29.8145 46.3804 29.5975 46.6601 29.5975L49.6002 29.6146C49.8644 29.6146 50.0975 29.8302 50.0802 30.1088C50.0802 30.3716 49.8644 30.5898 49.5864 30.5898Z" fill="#00549E"/>
<path d="M43.7785 44.4155C43.655 44.4155 43.5315 44.3697 43.4385 44.2769L41.3636 42.1872C41.1776 42.0002 41.1776 41.6904 41.3636 41.4904C41.5496 41.3047 41.8591 41.3047 42.0603 41.4904L44.1336 43.5798C44.3213 43.7655 44.3213 44.0755 44.1336 44.2769C44.027 44.3697 43.9036 44.4155 43.7785 44.4155Z" fill="#00549E"/>
<path d="M29.9056 50.0837C29.6278 50.0837 29.4094 49.8666 29.4094 49.5868L29.4271 46.646C29.4271 46.3832 29.6423 46.1648 29.92 46.1648C30.185 46.1648 30.4162 46.3832 30.4002 46.6603L30.3857 49.6038C30.3857 49.8666 30.1689 50.0837 29.9056 50.0837Z" fill="#00549E"/>
<path d="M16.0796 44.2764C15.9554 44.2764 15.8326 44.2293 15.7391 44.1377C15.5534 43.9521 15.5534 43.6422 15.7391 43.4394L17.8299 41.3642C18.014 41.1798 18.3239 41.1798 18.5264 41.3642C18.7273 41.5512 18.712 41.8612 18.5264 42.0625L16.437 44.1377C16.3281 44.2293 16.2039 44.2764 16.0796 44.2764Z" fill="#00549E"/>
<path d="M13.3544 30.4028L10.4136 30.3872C10.1489 30.3872 9.91876 30.17 9.9338 29.8916C9.9338 29.6286 10.1489 29.4116 10.4287 29.4116L13.3709 29.4274C13.6341 29.4274 13.8658 29.6444 13.8507 29.9228C13.8357 30.1871 13.6176 30.4028 13.3544 30.4028Z" fill="#00549E"/>
<path d="M36.179 15.0269C36.1162 15.0269 36.0535 15.0125 35.9908 14.9968C35.7431 14.904 35.6193 14.6098 35.7134 14.3613L36.7965 11.6363C36.8889 11.3891 37.1845 11.2663 37.4305 11.359C37.6798 11.4507 37.8036 11.7462 37.7112 11.9932L36.6248 14.7183C36.5653 14.9197 36.3787 15.0269 36.179 15.0269Z" fill="#00549E"/>
<path d="M45.299 23.9299C45.1136 23.9299 44.9264 23.8226 44.8491 23.6358C44.741 23.3885 44.8646 23.0944 45.1136 22.9859L47.806 21.8246C48.0532 21.7175 48.3486 21.8404 48.4567 22.0875C48.5649 22.336 48.4413 22.6301 48.194 22.7386L45.4982 23.8999C45.4381 23.9155 45.3763 23.9299 45.299 23.9299Z" fill="#00549E"/>
<path d="M48.1925 37.7739C48.1307 37.7739 48.0688 37.7583 48.007 37.7413L45.282 36.6585C45.0346 36.5657 44.9109 36.2716 45.0037 36.023C45.0948 35.7759 45.3903 35.6517 45.6377 35.7459L48.3626 36.8286C48.6118 36.9214 48.7355 37.2157 48.641 37.4641C48.5637 37.6497 48.3781 37.7739 48.1925 37.7739Z" fill="#00549E"/>
<path d="M37.7107 48.5029C37.5238 48.5029 37.3369 48.3958 37.2608 48.2087L36.0997 45.515C35.9905 45.2679 36.1146 44.9736 36.3627 44.8651C36.6108 44.7566 36.9052 44.8808 37.0127 45.128L38.1738 47.823C38.2829 48.0701 38.1589 48.3643 37.9108 48.4728C37.8496 48.4885 37.7867 48.5029 37.7107 48.5029Z" fill="#00549E"/>
<path d="M22.7215 48.689C22.6603 48.689 22.5976 48.6745 22.5364 48.6588C22.2886 48.566 22.1647 48.2717 22.2572 48.0233L23.341 45.2983C23.4336 45.0511 23.7285 44.9282 23.9747 45.021C24.2241 45.1126 24.348 45.4081 24.2539 45.6552L23.1716 48.379C23.1089 48.566 22.9222 48.689 22.7215 48.689Z" fill="#00549E"/>
<path d="M11.9921 38.2065C11.806 38.2065 11.6199 38.0981 11.5428 37.9123C11.4354 37.6639 11.5594 37.3711 11.806 37.2612L14.5002 36.1013C14.7483 35.9928 15.0418 36.1158 15.1507 36.3642C15.2596 36.6114 15.1356 36.9054 14.8875 37.0141L12.1933 38.1764C12.1312 38.191 12.0526 38.2065 11.9921 38.2065Z" fill="#00549E"/>
<path d="M14.5465 24.3027C14.4845 24.3027 14.4225 24.2858 14.3606 24.2714L11.6365 23.1874C11.387 23.0946 11.2646 22.8004 11.3568 22.5532C11.4505 22.3047 11.7438 22.1806 11.9917 22.2734L14.7173 23.3575C14.9653 23.4501 15.0892 23.7457 14.997 23.9928C14.9184 24.1942 14.7324 24.3027 14.5465 24.3027Z" fill="#00549E"/>
<path d="M23.4337 15.1826C23.2489 15.1826 23.0625 15.0741 22.9857 14.8883L21.8234 12.1947C21.7154 11.9463 21.8391 11.6533 22.0882 11.5435C22.3341 11.4362 22.6286 11.5592 22.7367 11.8062L23.8989 14.5012C24.007 14.7497 23.8833 15.044 23.6358 15.1525C23.5747 15.1826 23.512 15.1826 23.4337 15.1826Z" fill="#00549E"/>
</svg>
