<svg width="60" height="60" viewBox="0 0 60 60" fill="none" xmlns="http://www.w3.org/2000/svg">
<path d="M40.1693 18.0727L43.8356 19.6328V14.728H40.1693V18.0727ZM44.382 21.0034C44.309 21.0034 44.2372 20.987 44.1684 20.959L39.4105 18.9335C39.2099 18.8493 39.0793 18.6528 39.0793 18.4329V14.1831C39.0793 13.8813 39.3231 13.6357 39.6243 13.6357H44.382C44.6818 13.6357 44.9272 13.8813 44.9272 14.1831V20.4584C44.9272 20.6409 44.8353 20.8116 44.6818 20.9122C44.5915 20.973 44.4867 21.0034 44.382 21.0034Z" fill="#00549E"/>
<path d="M9.24525 24.0491V27.6909L14.234 25.9928L29.9243 20.33C30.0403 20.2856 30.168 20.2855 30.2857 20.3253L45.986 25.67L46.0104 25.6794L50.9733 27.6512V24.0491L30.1093 14.7771L9.24525 24.0491ZM8.70026 28.9985C8.58822 28.9985 8.47641 28.9634 8.38309 28.8979C8.2397 28.795 8.15503 28.6289 8.15503 28.4535V23.6959C8.15503 23.4807 8.28274 23.2842 8.47922 23.1977L29.8885 13.6824C30.0288 13.6193 30.1895 13.6193 30.3315 13.6824L51.7408 23.1977C51.9373 23.2842 52.0633 23.4807 52.0633 23.6959V28.4535C52.0633 28.6336 51.9745 28.8043 51.8238 28.9049C51.6746 29.0078 51.484 29.0266 51.316 28.9611L45.6204 26.6969L30.1149 21.42L14.5953 27.0243L8.87663 28.9704C8.81909 28.9891 8.75897 28.9985 8.70026 28.9985Z" fill="#00549E"/>
<path d="M40.3623 30.001H19.6361C19.335 30.001 19.0896 29.7562 19.0896 29.4554C19.0896 29.1545 19.335 28.9098 19.6361 28.9098H40.3623C40.665 28.9098 40.9088 29.1545 40.9088 29.4554C40.9075 29.7562 40.665 30.001 40.3623 30.001Z" fill="#00549E"/>
<path d="M33.8175 26.7285H26.1811C25.8798 26.7285 25.6361 26.4838 25.6361 26.1826C25.6361 25.8813 25.8798 25.6366 26.1811 25.6366H33.8175C34.1188 25.6366 34.3626 25.8813 34.3626 26.1826C34.3626 26.4838 34.1188 26.7285 33.8175 26.7285Z" fill="#00549E"/>
<path d="M11.4554 52.9085H48.5471V50.7268H11.4554V52.9085ZM49.0915 53.9993H10.909C10.6093 53.9993 10.364 53.7557 10.364 53.4549V50.1804C10.364 49.8796 10.6093 49.636 10.909 49.636H49.0915C49.3922 49.636 49.6358 49.8796 49.6358 50.1804V53.4549C49.6358 53.7557 49.3922 53.9993 49.0915 53.9993Z" fill="#00549E"/>
<path d="M53.4542 54H6.54518C6.24391 54 6.00012 53.7566 6.00012 53.4545C6.00012 53.1524 6.24391 52.909 6.54518 52.909H53.4542C53.7542 52.909 53.9997 53.1524 53.9997 53.4545C53.9997 53.7566 53.7542 54 53.4542 54Z" fill="#00549E"/>
<path d="M51.2722 11.4547C50.3699 11.4547 49.6355 12.1883 49.6355 13.0918C49.6355 13.993 50.3684 14.729 51.2722 14.729C52.1745 14.729 52.9089 13.993 52.9089 13.0918C52.9089 12.1883 52.1745 11.4547 51.2722 11.4547ZM51.2722 15.8188C49.7676 15.8188 48.5454 14.5945 48.5454 13.0918C48.5454 11.5868 49.7676 10.3648 51.2722 10.3648C52.7753 10.3648 53.999 11.5868 53.999 13.0918C53.999 14.5945 52.7753 15.8188 51.2722 15.8188Z" fill="#00549E"/>
<path d="M8.18169 7.09266C7.58071 7.09266 7.09019 7.58175 7.09019 8.18297C7.09019 8.78419 7.58071 9.27328 8.18169 9.27328H9.91306C10.0894 9.27328 10.2559 9.35917 10.3592 9.50471C10.4608 9.64785 10.4868 9.83394 10.4265 10.0009C10.385 10.1202 10.3635 10.2419 10.3635 10.3636C10.3635 10.9648 10.8526 11.4539 11.455 11.4539H17.9999C18.6009 11.4539 19.09 10.9648 19.09 10.3636C19.09 9.76237 18.6009 9.27328 17.9999 9.27328H16.2686C16.0906 9.27328 15.9257 9.18739 15.8224 9.04185C15.7205 8.89632 15.6948 8.71262 15.7537 8.54562C15.7966 8.42633 15.8181 8.30465 15.8181 8.18297C15.8181 7.58175 15.329 7.09266 14.7281 7.09266H8.18169ZM17.9999 12.5442H11.455C10.2516 12.5442 9.27319 11.566 9.27319 10.3636H8.18169C6.97829 10.3636 6.00012 9.38541 6.00012 8.18297C6.00012 6.98053 6.97829 5.99997 8.18169 5.99997H14.7281C15.93 5.99997 16.9082 6.98053 16.9082 8.18297H17.9999C19.2033 8.18297 20.1815 9.16115 20.1815 10.3636C20.1815 11.566 19.2033 12.5442 17.9999 12.5442Z" fill="#00549E"/>
<path d="M21.8185 38.7266H15.2736C14.9709 38.7266 14.7285 38.4833 14.7285 38.1808C14.7285 37.8806 14.9709 37.6351 15.2736 37.6351H21.8185C22.1198 37.6351 22.3635 37.8806 22.3635 38.1808C22.3635 38.4811 22.1198 38.7266 21.8185 38.7266Z" fill="#00549E"/>
<path d="M18.5453 46.3628H15.2735C14.9709 46.3628 14.7285 46.1204 14.7285 45.818C14.7285 45.5177 14.9709 45.2732 15.2735 45.2732H18.5453C18.8464 45.2732 19.0903 45.5177 19.0903 45.818C19.0903 46.1204 18.8464 46.3628 18.5453 46.3628Z" fill="#00549E"/>
<path d="M14.9553 49.6368H41.7418C39.2904 48.2211 37.6367 45.5713 37.6367 42.5447C37.6367 38.2218 41.0103 34.6689 45.2647 34.3816V26.5748L30.115 21.4201L14.9553 26.892V49.6368ZM45.8096 50.7261H14.4104C14.1091 50.7261 13.8639 50.4825 13.8639 50.1814V26.5105C13.8639 26.2807 14.0073 26.0761 14.2238 25.9957L29.9243 20.3284C30.0404 20.2871 30.1681 20.2848 30.2856 20.3238L45.9861 25.6693C46.2069 25.7452 46.3547 25.952 46.3547 26.1864V34.9079C46.3547 35.209 46.1109 35.4526 45.811 35.4549C41.9053 35.4572 38.7283 38.6378 38.7283 42.5447C38.7283 46.4492 41.9053 49.6299 45.811 49.6368C46.1109 49.6368 46.3547 49.8804 46.3547 50.1814C46.3547 50.4825 46.1109 50.7261 45.8096 50.7261Z" fill="#00549E"/>
<path d="M45.8175 35.457C41.9075 35.457 38.7276 38.6353 38.7276 42.5457C38.7276 46.4561 41.9075 49.6367 45.8175 49.6367C49.7276 49.6367 52.9088 46.4561 52.9088 42.5457C52.9088 38.6353 49.7276 35.457 45.8175 35.457ZM45.8175 50.7271C41.3065 50.7271 37.6361 47.0577 37.6361 42.5457C37.6361 38.0359 41.3065 34.3643 45.8175 34.3643C50.3299 34.3643 53.999 38.0359 53.999 42.5457C53.999 47.0577 50.3286 50.7271 45.8175 50.7271Z" fill="#00549E"/>
<path d="M43.0917 45.8184C42.9525 45.8184 42.812 45.7638 42.7057 45.6569C42.4921 45.4452 42.4921 45.0983 42.7057 44.8866L48.1605 39.4316C48.3728 39.2178 48.7187 39.2178 48.9308 39.4316C49.1446 39.6433 49.1446 39.9902 48.9308 40.2041L43.476 45.6569C43.3713 45.7638 43.2307 45.8184 43.0917 45.8184Z" fill="#00549E"/>
<path d="M48.0023 46.3628C47.7024 46.3628 47.4573 46.1204 47.4573 45.818C47.4573 45.5177 47.7011 45.2732 48.0023 45.2732C48.3049 45.2732 48.5488 45.5177 48.5488 45.818C48.5488 46.1204 48.3049 46.3628 48.0023 46.3628Z" fill="#00549E"/>
<path d="M43.6405 39.8193C43.3378 39.8193 43.094 39.5724 43.094 39.2731C43.094 38.9716 43.3378 38.7268 43.6389 38.7268H43.6405C43.9402 38.7268 44.1856 38.9716 44.1856 39.2731C44.1856 39.5724 43.9402 39.8193 43.6405 39.8193Z" fill="#00549E"/>
<path d="M26.7278 49.6369H34.3629V41.4545C34.3629 39.3506 32.6503 37.6359 30.5447 37.6359C28.4406 37.6359 26.7265 39.3506 26.7265 41.4545L26.7278 49.6369ZM34.9081 50.7273H26.1813C25.8802 50.7273 25.6364 50.4833 25.6364 50.1821V41.4545C25.6364 38.7483 27.8396 36.5455 30.5462 36.5455C33.2527 36.5455 35.4544 38.7483 35.4544 41.4545V50.1821C35.4544 50.4833 35.2106 50.7273 34.9081 50.7273Z" fill="#00549E"/>
</svg>
