<svg width="60" height="60" viewBox="0 0 60 60" fill="none" xmlns="http://www.w3.org/2000/svg">
<path d="M8.59099 15.1034C7.74377 15.1034 7.06343 15.7834 7.06343 16.6299V43.3701C7.06343 44.2166 7.74377 44.8983 8.59099 44.8983H51.4066C52.2566 44.8983 52.9366 44.2166 52.9366 43.3701V16.6299C52.9366 15.7834 52.2566 15.1034 51.4066 15.1034H8.59099ZM51.4066 45.96H8.59099C7.163 45.96 6.00024 44.7995 6.00024 43.3701V16.6299C6.00024 15.2023 7.163 14.0401 8.59099 14.0401H51.4066C52.836 14.0401 54 15.2023 54 16.6299V43.3701C54 44.7995 52.836 45.96 51.4066 45.96Z" fill="#00549E"/>
<path d="M7.06308 26.7618H52.9359V21.4304H7.06308V26.7618ZM53.4667 27.842H6.53009C6.2313 27.842 6 27.6097 6 27.3096V20.9149C6 20.6164 6.2313 20.3841 6.53009 20.3841H53.4667C53.7652 20.3841 53.9992 20.6164 53.9992 20.9149V27.3096C53.9992 27.5928 53.7652 27.842 53.4667 27.842Z" fill="#00549E"/>
<path d="M43.3358 39.2026C43.5179 39.2026 43.6838 39.2848 43.7852 39.4346C44.283 40.1804 45.1125 40.6314 46.0097 40.6314C47.4884 40.6314 48.6836 39.4346 48.6836 37.9559C48.6836 36.4788 47.4884 35.2836 46.0097 35.2836C45.1125 35.2836 44.283 35.7298 43.7852 36.4788C43.6838 36.6286 43.5179 36.7107 43.3358 36.7107C43.1522 36.7107 42.9863 36.6286 42.8864 36.4788C42.3887 35.7298 41.5592 35.2836 40.662 35.2836C39.1833 35.2836 37.9881 36.4788 37.9881 37.9559C37.9881 39.4346 39.1833 40.6314 40.662 40.6314C41.5592 40.6314 42.3887 40.1804 42.8864 39.4346C42.9863 39.3009 43.1522 39.2026 43.3358 39.2026ZM45.992 41.709C44.9804 41.709 44.0156 41.295 43.3197 40.5975C42.6223 41.3111 41.6751 41.709 40.6442 41.709C38.5857 41.709 36.9072 40.0322 36.9072 37.9736C36.9072 35.9134 38.5857 34.2366 40.6442 34.2366C41.659 34.2366 42.6223 34.6522 43.3197 35.3496C44.0156 34.6344 44.9627 34.2366 45.992 34.2366C48.0522 34.2366 49.729 35.9134 49.729 37.9736C49.729 40.0322 48.0522 41.709 45.992 41.709Z" fill="#00549E"/>
<path d="M24.6669 38.5049H10.7988C10.4996 38.5049 10.2673 38.2726 10.2673 37.9735C10.2673 37.6743 10.4996 37.442 10.7988 37.442H24.6669C24.966 37.442 25.1983 37.6743 25.1983 37.9735C25.1983 38.2726 24.966 38.5049 24.6669 38.5049Z" fill="#00549E"/>
<path d="M32.1253 41.7097H10.7992C10.4991 41.7097 10.2681 41.4772 10.2681 41.177C10.2681 40.88 10.4991 40.6474 10.7992 40.6474H32.1426C32.4412 40.6474 32.6722 40.88 32.6722 41.177C32.6722 41.4599 32.4239 41.7097 32.1253 41.7097Z" fill="#00549E"/>
<path d="M10.8002 34.2361C10.4998 34.2361 10.2676 34.0039 10.2676 33.7051V32.6415C10.2676 32.3427 10.4998 32.1105 10.8002 32.1105C11.099 32.1105 11.3295 32.3427 11.3295 32.6415V33.7051C11.3295 34.0039 11.099 34.2361 10.8002 34.2361Z" fill="#00549E"/>
<path d="M14.0039 34.2361C13.7051 34.2361 13.4729 34.0039 13.4729 33.7051V32.6415C13.4729 32.3427 13.7051 32.1105 14.0039 32.1105C14.3027 32.1105 14.5365 32.3427 14.5365 32.6415V33.7051C14.5365 34.0039 14.2864 34.2361 14.0039 34.2361Z" fill="#00549E"/>
<path d="M17.195 34.2361C16.8946 34.2361 16.6624 34.0039 16.6624 33.7051V32.6415C16.6624 32.3427 16.8946 32.1105 17.195 32.1105C17.4937 32.1105 17.7243 32.3427 17.7243 32.6415V33.7051C17.7243 34.0039 17.4937 34.2361 17.195 34.2361Z" fill="#00549E"/>
<path d="M20.3984 34.2361C20.0996 34.2361 19.8674 34.0039 19.8674 33.7051V32.6415C19.8674 32.3427 20.0996 32.1105 20.3984 32.1105C20.6972 32.1105 20.931 32.3427 20.931 32.6415V33.7051C20.931 34.0039 20.6972 34.2361 20.3984 34.2361Z" fill="#00549E"/>
<path d="M23.604 34.2361C23.3052 34.2361 23.073 34.0039 23.073 33.7051V32.6415C23.073 32.3427 23.3052 32.1105 23.604 32.1105C23.9028 32.1105 24.135 32.3427 24.135 32.6415V33.7051C24.135 34.0039 23.8865 34.2361 23.604 34.2361Z" fill="#00549E"/>
<path d="M26.793 34.2361C26.4925 34.2361 26.262 34.0039 26.262 33.7051V32.6415C26.262 32.3427 26.4925 32.1105 26.793 32.1105C27.0917 32.1105 27.3256 32.3427 27.3256 32.6415V33.7051C27.3256 34.0039 27.0917 34.2361 26.793 34.2361Z" fill="#00549E"/>
<path d="M29.9985 34.2361C29.6997 34.2361 29.4675 34.0039 29.4675 33.7051V32.6415C29.4675 32.3427 29.6997 32.1105 29.9985 32.1105C30.2973 32.1105 30.5295 32.3427 30.5295 32.6415V33.7051C30.5295 34.0039 30.2973 34.2361 29.9985 34.2361Z" fill="#00549E"/>
</svg>
