<svg width="60" height="60" viewBox="0 0 60 60" fill="none" xmlns="http://www.w3.org/2000/svg">
<path d="M11.3445 36.0728C11.3445 35.9725 11.3114 35.8916 11.23 35.8414C11.1485 35.794 11.0504 35.7439 10.9194 35.6965V36.3655C11.1968 36.3655 11.3445 36.2512 11.3445 36.0728ZM10.2336 34.2747C10.2336 34.3722 10.2651 34.4363 10.3314 34.5032C10.3964 34.5506 10.4942 34.6008 10.6253 34.651V33.9485C10.3797 33.9624 10.2336 34.0795 10.2336 34.2747ZM11.8015 34.322C11.7861 34.3053 11.7529 34.2914 11.7033 34.2579C11.6551 34.2245 11.5737 34.191 11.4909 34.1436C11.4095 34.1102 11.3114 34.06 11.2135 34.0293C11.1154 33.9959 11.0008 33.9624 10.9029 33.9485V34.7151L11.0836 34.7653C11.2782 34.8127 11.4427 34.8796 11.6055 34.9437C11.7697 35.0107 11.8829 35.0915 11.9974 35.1723C12.1134 35.2699 12.1948 35.3842 12.243 35.5152C12.308 35.6463 12.3245 35.8108 12.3245 35.9892C12.3245 36.2038 12.2927 36.3823 12.2099 36.5467C12.1285 36.6917 12.0303 36.8227 11.9007 36.9231C11.7697 37.0207 11.6219 37.0848 11.4591 37.135C11.2963 37.1824 11.1154 37.2158 10.9358 37.2158V37.8682H10.5439V37.2158C10.2818 37.1991 10.0209 37.135 9.77525 37.0513C9.51431 36.9705 9.28516 36.8562 9.08917 36.7252L9.49787 35.925C9.51432 35.9418 9.5461 35.9724 9.61245 36.0226C9.67713 36.0728 9.75854 36.1035 9.85667 36.1536C9.9548 36.2038 10.0691 36.2512 10.2004 36.2847C10.3314 36.3321 10.4611 36.3655 10.5924 36.3823V35.6295L10.315 35.5487C10.1341 35.4985 9.97124 35.4344 9.84021 35.3703C9.7103 35.3034 9.59573 35.2225 9.49787 35.1417C9.41507 35.058 9.35011 34.9605 9.30188 34.8462C9.25198 34.7319 9.23553 34.6008 9.23553 34.4531C9.23553 34.2579 9.26871 34.0795 9.33367 33.9317C9.39974 33.784 9.49787 33.653 9.61245 33.5387C9.72703 33.4244 9.85666 33.3435 10.0209 33.2766C10.1837 33.2125 10.3465 33.179 10.5274 33.1623V32.5908H10.9194V33.1623C11.1636 33.179 11.3928 33.2432 11.6055 33.3268C11.8179 33.4076 12.0153 33.5052 12.1616 33.5861L11.8015 34.322Z" fill="#00549E"/>
<path d="M10.6898 31.5617C12.6995 31.5617 14.335 33.1945 14.335 35.2053C14.335 37.2133 12.6995 38.8488 10.6898 38.8488C8.68011 38.8488 7.04485 37.2133 7.04485 35.2053C7.04485 33.1945 8.68011 31.5617 10.6898 31.5617ZM10.6898 39.8962C13.2722 39.8962 15.3799 37.7874 15.3799 35.2053C15.3799 32.6232 13.2722 30.5143 10.6898 30.5143C8.10739 30.5143 5.99996 32.6232 5.99996 35.2053C5.99996 37.7874 8.10739 39.8962 10.6898 39.8962Z" fill="#00549E"/>
<path d="M27.0017 25.6461C27.0017 25.5457 26.9685 25.4648 26.8871 25.4146C26.8057 25.3673 26.7076 25.3171 26.5765 25.2697V25.9388C26.8539 25.9388 27.0017 25.8245 27.0017 25.6461ZM25.8908 23.8479C25.8908 23.9455 25.9222 24.0096 25.9886 24.0765C26.0536 24.1239 26.1514 24.1741 26.2824 24.2243V23.5217C26.0368 23.5357 25.8908 23.6528 25.8908 23.8479ZM27.4586 23.8953C27.4433 23.8785 27.4101 23.8646 27.3605 23.8312C27.3123 23.7977 27.2309 23.7643 27.1481 23.7169C27.0666 23.6834 26.9685 23.6332 26.8707 23.6026C26.7725 23.5691 26.658 23.5357 26.5601 23.5217V24.2884L26.7408 24.3386C26.9353 24.3859 27.0998 24.4529 27.2626 24.517C27.4268 24.5839 27.54 24.6647 27.6546 24.7456C27.7706 24.8431 27.852 24.9575 27.9002 25.0885C27.9652 25.2195 27.9816 25.384 27.9816 25.5624C27.9816 25.7771 27.9498 25.9555 27.867 26.12C27.7856 26.265 27.6875 26.396 27.5579 26.4963C27.4268 26.5939 27.2791 26.658 27.1163 26.7082C26.9535 26.7556 26.7725 26.7891 26.593 26.7891V27.4414H26.201V26.7891C25.939 26.7723 25.678 26.7082 25.4324 26.6246C25.1715 26.5437 24.9423 26.4294 24.7463 26.2984L25.155 25.4983C25.1715 25.515 25.2033 25.5457 25.2696 25.5959C25.3343 25.646 25.4157 25.6767 25.5138 25.7269C25.612 25.7771 25.7263 25.8245 25.8576 25.8579C25.9886 25.9053 26.1182 25.9388 26.2495 25.9555V25.2028L25.9722 25.1219C25.7912 25.0717 25.6284 25.0076 25.4974 24.9435C25.3675 24.8766 25.2529 24.7958 25.155 24.7149C25.0722 24.6313 25.0073 24.5337 24.959 24.4194C24.9091 24.3051 24.8927 24.1741 24.8927 24.0263C24.8927 23.8312 24.9259 23.6527 24.9908 23.505C25.0569 23.3572 25.155 23.2262 25.2696 23.1119C25.3842 22.9976 25.5138 22.9167 25.678 22.8498C25.8408 22.7857 26.0037 22.7523 26.1846 22.7355V22.164H26.5765V22.7355C26.8208 22.7523 27.0499 22.8164 27.2626 22.9C27.4751 22.9809 27.6724 23.0785 27.8188 23.1593L27.4586 23.8953Z" fill="#00549E"/>
<path d="M26.347 21.135C28.3567 21.135 29.9922 22.7677 29.9922 24.7785C29.9922 26.7865 28.3567 28.4221 26.347 28.4221C24.3373 28.4221 22.702 26.7865 22.702 24.7785C22.702 22.7677 24.3373 21.135 26.347 21.135ZM26.347 29.4695C28.9294 29.4695 31.0371 27.3607 31.0371 24.7785C31.0371 22.1964 28.9294 20.0876 26.347 20.0876C23.7646 20.0876 21.6571 22.1964 21.6571 24.7785C21.6571 27.3607 23.7646 29.4695 26.347 29.4695Z" fill="#00549E"/>
<path d="M42.642 15.2191C42.642 15.1187 42.6089 15.0378 42.5275 14.9876C42.4461 14.9403 42.3479 14.8901 42.2169 14.8427V15.5118C42.4943 15.5118 42.642 15.3975 42.642 15.2191ZM41.5311 13.4209C41.5311 13.5185 41.5626 13.5826 41.6289 13.6495C41.6939 13.6969 41.7918 13.7471 41.9228 13.7973V13.0947C41.6772 13.1087 41.5311 13.2258 41.5311 13.4209ZM43.099 13.4683C43.0836 13.4515 43.0505 13.4376 43.0008 13.4042C42.9526 13.3707 42.8712 13.3373 42.7884 13.2899C42.707 13.2564 42.6089 13.2062 42.511 13.1756C42.4129 13.1421 42.2983 13.1087 42.2005 13.0947V13.8614L42.3811 13.9116C42.5757 13.9589 42.7402 14.0259 42.903 14.09C43.0672 14.1569 43.1804 14.2377 43.295 14.3186C43.4109 14.4161 43.4923 14.5305 43.5406 14.6615C43.6055 14.7925 43.622 14.957 43.622 15.1354C43.622 15.3501 43.5902 15.5285 43.5074 15.693C43.426 15.838 43.3279 15.969 43.1982 16.0693C43.0672 16.1669 42.9194 16.231 42.7566 16.2812C42.5938 16.3286 42.4129 16.3621 42.2334 16.3621V17.0144H41.8414V16.3621C41.5793 16.3453 41.3184 16.2812 41.0728 16.1976C40.8118 16.1167 40.5827 16.0024 40.3867 15.8714L40.7954 15.0713C40.8118 15.088 40.8436 15.1187 40.91 15.1689C40.9746 15.219 41.0561 15.2497 41.1542 15.2999C41.2523 15.3501 41.3666 15.3975 41.4979 15.4309C41.6289 15.4783 41.7586 15.5118 41.8899 15.5285V14.7758L41.6125 14.6949C41.4316 14.6447 41.2688 14.5806 41.1377 14.5165C41.0078 14.4496 40.8932 14.3688 40.7954 14.2879C40.7126 14.2043 40.6476 14.1067 40.5994 13.9924C40.5495 13.8781 40.533 13.7471 40.533 13.5993C40.533 13.4042 40.5662 13.2257 40.6312 13.078C40.6973 12.9302 40.7954 12.7992 40.91 12.6849C41.0245 12.5706 41.1542 12.4897 41.3184 12.4228C41.4812 12.3587 41.644 12.3253 41.8249 12.3085V11.737H42.2169V12.3085C42.4611 12.3253 42.6903 12.3894 42.903 12.473C43.1154 12.5539 43.3128 12.6515 43.4592 12.7323L43.099 13.4683Z" fill="#00549E"/>
<path d="M41.9873 10.7075C43.997 10.7075 45.6326 12.3402 45.6326 14.351C45.6326 16.359 43.997 17.9946 41.9873 17.9946C39.9777 17.9946 38.3424 16.359 38.3424 14.351C38.3424 12.3402 39.9777 10.7075 41.9873 10.7075ZM41.9873 19.042C44.5698 19.042 46.6775 16.9332 46.6775 14.351C46.6775 11.7689 44.5698 9.66008 41.9873 9.66008C39.4049 9.66008 37.2975 11.7689 37.2975 14.351C37.2975 16.9332 39.4049 19.042 41.9873 19.042Z" fill="#00549E"/>
<path d="M52.9547 49.2925H38.3438V45.1249H52.9547V49.2925ZM37.8208 50.3396H53.4778C53.7716 50.3396 53.9995 50.1109 53.9995 49.8173V44.6027C53.9995 44.3091 53.7716 44.0804 53.4778 44.0804H37.8208C37.5267 44.0804 37.2975 44.3091 37.2975 44.6027V49.8173C37.2975 50.0954 37.542 50.3396 37.8208 50.3396Z" fill="#00549E"/>
<path d="M52.9552 44.0809H38.3444V39.9146H52.9552C52.9552 39.8962 52.9552 44.0809 52.9552 44.0809ZM37.8212 45.1277H53.4783C53.7721 45.1277 53.9999 44.8988 53.9999 44.6043V39.3912C53.9999 39.0966 53.7721 38.8678 53.4783 38.8678H37.8212C37.5271 38.8678 37.298 39.0966 37.298 39.3912V44.6043C37.298 44.8831 37.5424 45.1277 37.8212 45.1277Z" fill="#00549E"/>
<path d="M52.9549 38.8659H38.344V34.6835H52.9549V38.8659ZM37.8208 39.8962H53.4778C53.772 39.8962 53.9996 39.6673 53.9996 39.3744V34.159C53.9996 33.8661 53.772 33.6372 53.4778 33.6372H37.8208C37.5269 33.6372 37.2977 33.8661 37.2977 34.159V39.3744C37.2977 39.6673 37.5421 39.8962 37.8208 39.8962Z" fill="#00549E"/>
<path d="M52.9554 33.638H38.3446V29.4699H52.9554V33.638ZM37.8213 34.6833H53.4784C53.7723 34.6833 54 34.4544 54 34.1607V28.9472C54 28.6536 53.7723 28.4245 53.4784 28.4245H37.8213C37.5274 28.4245 37.2984 28.6536 37.2984 28.9472V34.1607C37.2984 34.4544 37.5425 34.6833 37.8213 34.6833Z" fill="#00549E"/>
<path d="M52.9545 28.4226H38.3436V24.2541H52.9545V28.4226ZM37.8207 29.4695H53.4777C53.7716 29.4695 53.9995 29.2405 53.9995 28.9461V23.7334C53.9995 23.439 53.7716 23.21 53.4777 23.21H37.8207C37.5265 23.21 37.2975 23.439 37.2975 23.7334V28.9461C37.2975 29.2405 37.5418 29.4695 37.8207 29.4695Z" fill="#00549E"/>
<path d="M37.2976 49.2925H22.6869V45.1249H37.2976V49.2925ZM22.1803 50.3396H37.8359C38.1313 50.3396 38.3605 50.1109 38.3605 49.8173V44.6027C38.3605 44.3091 38.1313 44.0804 37.8359 44.0804H22.1803C21.8861 44.0804 21.6572 44.3091 21.6572 44.6027V49.8173C21.6572 50.0954 21.8861 50.3396 22.1803 50.3396Z" fill="#00549E"/>
<path d="M37.298 44.0809H22.6872V39.9146H37.298V44.0809ZM22.1808 45.1277H37.8364C38.1318 45.1277 38.3609 44.8988 38.3609 44.6043V39.3912C38.3609 39.0966 38.1318 38.8678 37.8364 38.8678H22.1808C21.8868 38.8678 21.6577 39.0966 21.6577 39.3912V44.6043C21.6577 44.8831 21.8868 45.1277 22.1808 45.1277Z" fill="#00549E"/>
<path d="M37.2977 38.8659H22.6869V34.6835H37.2977V38.8659ZM22.1803 39.8962H37.836C38.1315 39.8962 38.3604 39.6673 38.3604 39.3744V34.159C38.3604 33.8661 38.1315 33.6372 37.836 33.6372H22.1803C21.8864 33.6372 21.6572 33.8661 21.6572 34.159V39.3744C21.6572 39.6673 21.8864 39.8962 22.1803 39.8962Z" fill="#00549E"/>
<path d="M21.6572 49.2925H7.04631V45.1249H21.6572V49.2925ZM6.52302 50.3396H22.1802C22.4741 50.3396 22.702 50.1109 22.702 49.8173V44.6027C22.702 44.3091 22.4741 44.0804 22.1802 44.0804H6.52302C6.22916 44.0804 6 44.3091 6 44.6027V49.8173C6 50.0954 6.22916 50.3396 6.52302 50.3396Z" fill="#00549E"/>
</svg>
