<svg width="60" height="60" viewBox="0 0 60 60" fill="none" xmlns="http://www.w3.org/2000/svg">
<path d="M26.0803 17.7436V20.4636C26.0803 22.335 27.5998 23.8727 29.4883 23.8727C31.3597 23.8727 32.8957 22.3525 32.8957 20.4636V17.7436H26.0803ZM29.4883 24.8955C27.0401 24.8955 25.0559 22.9119 25.0559 20.4636V17.2315C25.0559 16.945 25.2797 16.7194 25.5677 16.7194H33.3918C33.6798 16.7194 33.9035 16.945 33.9035 17.2315V20.4636C33.9199 22.9119 31.9357 24.8955 29.4883 24.8955Z" fill="#00549E"/>
<path d="M26.0803 42.2556H32.8958V39.5356C32.8958 37.6642 31.3761 36.1279 29.4883 36.1279C27.5999 36.1279 26.0803 37.6466 26.0803 39.5356V42.2556ZM33.4082 43.2798H25.5843C25.2962 43.2798 25.0718 43.0555 25.0718 42.7677V39.5356C25.0718 37.0886 27.056 35.1036 29.5041 35.1036C31.9522 35.1036 33.9358 37.0886 33.9358 39.5356V42.7677C33.92 43.0555 33.6799 43.2798 33.4082 43.2798Z" fill="#00549E"/>
<path d="M18.2555 47.3591H40.7196V41.2314C40.7196 36.2562 37.5196 31.9364 32.7677 30.4799C32.5597 30.4163 32.3995 30.2231 32.3995 29.984C32.3995 29.7597 32.5439 29.5678 32.7677 29.4867C37.5196 28.0315 40.7196 23.7117 40.7196 18.7352V12.6399H18.2555V18.769C18.2555 23.7441 21.4555 28.0639 26.2081 29.5205C26.4161 29.5827 26.5762 29.7759 26.5762 30.0164C26.5762 30.2393 26.4317 30.4326 26.2081 30.5123C21.4555 31.9675 18.2555 36.2873 18.2555 41.2638V47.3591ZM41.232 48.3833H17.7438C17.4557 48.3833 17.2319 48.1603 17.2319 47.8712V41.2314C17.2319 38.5587 18.0797 36.0157 19.68 33.8714C20.9437 32.177 22.6557 30.8312 24.5756 29.9988C22.6557 29.1516 20.9437 27.8072 19.68 26.1276C18.0797 23.9995 17.2319 21.4565 17.2319 18.769V12.1278C17.2319 11.84 17.4557 11.617 17.7438 11.617H41.232C41.5201 11.617 41.7439 11.84 41.7439 12.1278V18.769C41.7439 21.4403 40.8961 23.9833 39.2957 26.1276C38.032 27.8234 36.3201 29.1678 34.3995 29.9988C36.3201 30.8487 38.032 32.1918 39.2957 33.8714C40.8961 36.0009 41.7439 38.5587 41.7439 41.2314V47.8712C41.7439 48.1603 41.5201 48.3833 41.232 48.3833Z" fill="#00549E"/>
<path d="M14.1597 11.6168H44.7993V9.34271L42.0961 7.53616H16.8801L14.1597 9.34271V11.6168ZM45.3277 12.6396H13.6636C13.3755 12.6396 13.1519 12.4154 13.1519 12.1276V9.05627C13.1519 8.88061 13.2318 8.71982 13.3755 8.62388L16.4477 6.57545C16.5277 6.52681 16.6235 6.49574 16.7358 6.49574H42.2719C42.3677 6.49574 42.4635 6.52681 42.5593 6.57545L45.5999 8.64009C45.7436 8.73602 45.8237 8.89547 45.8237 9.07112V12.1438C45.8394 12.4154 45.5999 12.6396 45.3277 12.6396Z" fill="#00549E"/>
<path d="M16.8801 52.4802H41.1197L44.8158 50.6385V48.4009H14.1597V50.6871L16.8801 52.4802ZM41.2319 53.5044H16.72C16.6235 53.5044 16.5277 53.4706 16.4319 53.4233L13.3755 51.36C13.2318 51.2641 13.1519 51.1033 13.1519 50.9276V47.8564C13.1519 47.5686 13.3755 47.3443 13.6636 47.3443H45.3277C45.6157 47.3443 45.8394 47.5686 45.8394 47.8564V50.9276C45.8394 51.1195 45.7279 51.2952 45.5513 51.3911L41.4715 53.4395C41.392 53.4706 41.3113 53.5044 41.2319 53.5044Z" fill="#00549E"/>
<path d="M29.4882 36.1279C29.1995 36.1279 28.9758 35.9036 28.9758 35.6158V29.4868C28.9758 29.2003 29.1995 28.976 29.4882 28.976C29.7756 28.976 30 29.2003 30 29.4868V35.6158C30 35.9036 29.7756 36.1279 29.4882 36.1279Z" fill="#00549E"/>
<path d="M11.7762 35.0234C11.7762 34.9112 11.7282 34.8315 11.6481 34.768C11.5681 34.7031 11.4401 34.6545 11.3122 34.6072V35.3436C11.6161 35.3436 11.7762 35.2301 11.7762 35.0234ZM10.5761 33.0709C10.5761 33.1682 10.6082 33.2479 10.6882 33.3114C10.7518 33.3749 10.8641 33.4235 11.0078 33.4708V32.7196C10.7204 32.752 10.5761 32.8628 10.5761 33.0709ZM12.2722 33.1344C12.2557 33.1195 12.2242 33.0871 12.1599 33.0547C12.0956 33.0236 12.032 32.9749 11.9362 32.9439C11.8397 32.8952 11.7439 32.8628 11.6317 32.8142C11.5203 32.7682 11.408 32.752 11.2958 32.7344V33.5668L11.4881 33.6154C11.6961 33.6803 11.8883 33.7262 12.0478 33.8073C12.2079 33.8708 12.3522 33.9505 12.4802 34.0627C12.5918 34.1586 12.6883 34.287 12.7518 34.4316C12.8161 34.5761 12.8482 34.7518 12.8482 34.9436C12.8482 35.1842 12.7997 35.3747 12.7203 35.5355C12.6403 35.6949 12.5281 35.8395 12.3844 35.9354C12.2401 36.0476 12.0956 36.1111 11.904 36.1759C11.7282 36.2232 11.5359 36.2557 11.3437 36.2719V36.9907H10.9283V36.2719C10.6402 36.2381 10.3681 36.1908 10.0957 36.0962C9.8241 36.0003 9.56818 35.8868 9.34375 35.7422L9.79194 34.8626C9.80829 34.8788 9.85626 34.9112 9.91991 34.9585C9.98422 35.0072 10.08 35.0544 10.1922 35.1031C10.3043 35.1504 10.4323 35.199 10.5602 35.2477C10.704 35.295 10.8476 35.3274 10.9919 35.3436V34.5275L10.704 34.4478C10.4959 34.3829 10.3358 34.318 10.1758 34.2559C10.0321 34.191 9.90409 34.0951 9.80829 33.9992C9.71182 33.9032 9.64831 33.7911 9.60035 33.6803C9.55184 33.5506 9.53603 33.406 9.53603 33.2479C9.53603 33.0398 9.56819 32.8479 9.64831 32.6723C9.7283 32.5115 9.8241 32.3669 9.95206 32.2385C10.08 32.1277 10.2243 32.0318 10.4001 31.9669C10.5761 31.9021 10.7518 31.8561 10.9441 31.8399V31.2157H11.3602V31.8399C11.6317 31.871 11.872 31.9197 12.1121 32.0156C12.3522 32.1115 12.5438 32.2075 12.7203 32.3034L12.2722 33.1344Z" fill="#00549E"/>
<path d="M11.1042 29.9984C8.84766 29.9984 7.02421 31.8401 7.02421 34.0804C7.02421 36.3193 8.86401 38.1596 11.1042 38.1596C13.3437 38.1596 15.1841 36.3193 15.1841 34.0804C15.1841 31.8401 13.36 29.9984 11.1042 29.9984ZM11.1042 39.1987C8.28799 39.1987 6 36.9125 6 34.0952C6 31.2793 8.28799 28.9904 11.1042 28.9904C13.9197 28.9904 16.2077 31.2793 16.2077 34.0952C16.2077 36.9125 13.9197 39.1987 11.1042 39.1987Z" fill="#00549E"/>
<path d="M49.5681 26.8638C49.5681 26.7516 49.5201 26.6719 49.4401 26.6084C49.36 26.5436 49.232 26.4949 49.104 26.4476V27.184C49.4078 27.1678 49.5681 27.0557 49.5681 26.8638ZM48.3679 24.9113C48.3679 25.0086 48.4001 25.087 48.4801 25.1518C48.5437 25.2153 48.656 25.264 48.8003 25.3113V24.56C48.5116 24.5749 48.3679 24.6884 48.3679 24.9113ZM50.0798 24.96C50.0641 24.9437 50.0319 24.9113 49.9676 24.8802C49.904 24.8478 49.8403 24.7992 49.7439 24.7681C49.6481 24.7194 49.5522 24.6884 49.4401 24.6397C49.3278 24.6073 49.2157 24.5749 49.104 24.56V25.391L49.2957 25.4396C49.5036 25.5045 49.6959 25.5518 49.856 25.6315C50.0161 25.6964 50.1599 25.7761 50.2878 25.8869C50.4 25.9828 50.4958 26.1112 50.5601 26.2558C50.6238 26.399 50.6559 26.5746 50.6559 26.7679C50.6559 27.0084 50.6079 27.2003 50.528 27.3597C50.4478 27.5205 50.3357 27.6624 50.192 27.7596C50.0476 27.8718 49.904 27.9353 49.7117 27.9988C49.5359 28.0475 49.3443 28.0785 49.152 28.0961V28.8149H48.736V28.0961C48.4479 28.0637 48.1756 28.0164 47.904 27.9204C47.6316 27.8232 47.3757 27.711 47.1521 27.5678L47.6002 26.6881C47.616 26.7044 47.6638 26.7354 47.7281 26.7841C47.7918 26.8314 47.8882 26.88 47.9998 26.9287C48.112 26.9759 48.24 27.0232 48.3679 27.0705C48.5116 27.1192 48.656 27.1516 48.8003 27.1678V26.3517L48.5116 26.272C48.3043 26.2071 48.1442 26.1436 47.984 26.0788C47.8397 26.0166 47.7118 25.9207 47.616 25.8234C47.5202 25.7274 47.4559 25.6153 47.4079 25.5045C47.3601 25.3761 47.3443 25.2315 47.3443 25.0707C47.3443 24.864 47.3757 24.6721 47.4559 24.4951C47.5358 24.3357 47.6317 24.1925 47.7603 24.0628C47.8882 23.952 48.0319 23.856 48.2078 23.7912C48.3836 23.7277 48.5602 23.6804 48.7518 23.6628V23.0399H49.1677V23.6628C49.4401 23.6966 49.6802 23.7439 49.9198 23.8385C50.1599 23.9357 50.352 24.0317 50.528 24.1276L50.0798 24.96Z" fill="#00549E"/>
<path d="M48.8959 21.8236C46.6401 21.8236 44.816 23.6626 44.816 25.9029C44.816 28.1594 46.6558 29.9835 48.8959 29.9835C51.1518 29.9835 52.9759 28.1432 52.9759 25.9029C52.9759 23.6626 51.1518 21.8236 48.8959 21.8236ZM48.8959 31.0239C46.0797 31.0239 43.7917 28.735 43.7917 25.9204C43.7917 23.1032 46.0797 20.8156 48.8959 20.8156C51.7114 20.8156 54.0001 23.1032 54.0001 25.9204C54.0001 28.735 51.7114 31.0239 48.8959 31.0239Z" fill="#00549E"/>
</svg>
