<svg width="60" height="60" viewBox="0 0 60 60" fill="none" xmlns="http://www.w3.org/2000/svg">
<path d="M17.441 54H17.2924C17.0039 54 16.768 53.7714 16.7595 53.4832C16.7512 53.1949 16.9732 52.9508 17.2612 52.9352L17.2932 52.9326C17.309 52.93 17.3246 52.93 17.3397 52.93L17.3927 52.9326C17.409 52.9326 17.4254 52.9326 17.441 52.9326C17.736 52.9326 17.9752 53.1715 17.9752 53.4676C17.9752 53.7611 17.736 54 17.441 54Z" fill="#00549E"/>
<path d="M50.0689 53.9998H17.336C17.0416 53.9998 16.8027 53.7625 16.8027 53.4672C16.8027 53.1719 17.0416 52.9347 17.336 52.9347H50.0689C51.6484 52.9347 52.9336 51.7351 52.9336 50.2614C52.9336 48.7429 51.7541 47.6013 50.1889 47.6013H17.122C16.8272 47.6013 16.5889 47.3614 16.5889 47.0688C16.5889 46.7735 16.8272 46.5336 17.122 46.5336H50.1889C52.3262 46.5336 54 48.1708 54 50.2614C54 52.323 52.2363 53.9998 50.0689 53.9998Z" fill="#00549E"/>
<path d="M12.322 6.00109V48.134C12.322 50.8491 14.4213 52.8617 17.3161 52.9311C18.7853 52.8212 19.9329 51.653 19.9329 50.2621C19.9329 48.8829 18.6586 47.6887 17.0922 47.599C16.804 47.5846 16.5807 47.3417 16.5888 47.0525C16.5969 46.7634 16.8335 46.5349 17.122 46.5349H49.6555V6.00109H12.322ZM17.3291 53.998H17.3189C15.6742 53.9662 14.1556 53.3735 13.0426 52.3354C11.8903 51.2597 11.2553 49.7648 11.2553 48.134V5.46615C11.2553 5.17121 11.4939 4.93409 11.7888 4.93409H50.1887C50.4831 4.93409 50.7222 5.17121 50.7222 5.46615V47.067C50.7222 47.3619 50.4837 47.6019 50.1887 47.6019H19.7455C20.5158 48.2872 20.9993 49.2385 20.9993 50.2621C20.9993 52.2226 19.4032 53.8621 17.3646 53.998H17.3291Z" fill="#00549E"/>
<path d="M17.3625 14.4364H27.4128L22.388 10.416L17.3625 14.4364ZM28.9359 15.5024H28.9345H15.8423C15.6156 15.5024 15.4142 15.3592 15.3391 15.1471C15.2643 14.9322 15.3325 14.6943 15.5093 14.5539L22.055 9.31557C22.2493 9.16083 22.5264 9.16083 22.7212 9.31557L29.2382 14.531C29.3769 14.6256 29.4689 14.786 29.4689 14.9694C29.4689 15.2646 29.2299 15.5024 28.9359 15.5024Z" fill="#00549E"/>
<path d="M24.7757 23.6001H27.0908V15.5026H17.6846V23.6001H20.109V21.1352C20.109 19.8489 21.1559 18.8005 22.4425 18.8005C23.7291 18.8005 24.7757 19.8489 24.7757 21.1352V23.6001ZM27.624 24.6682H24.2425C23.9475 24.6682 23.7093 24.4302 23.7093 24.1356V21.1352C23.7093 20.4353 23.1406 19.8687 22.4425 19.8687C21.7438 19.8687 21.1758 20.4353 21.1758 21.1352V24.1356C21.1758 24.4302 20.9366 24.6682 20.6426 24.6682H17.1514C16.8573 24.6682 16.6182 24.4302 16.6182 24.1356V14.97C16.6182 14.6753 16.8573 14.4373 17.1514 14.4373H27.624C27.9189 14.4373 28.1578 14.6753 28.1578 14.97V24.1356C28.1578 24.4302 27.9189 24.6682 27.624 24.6682Z" fill="#00549E"/>
<path d="M9.73352 52.9314H6.53332C6.23923 52.9314 6 52.693 6 52.4001V8.6662C6 8.37039 6.23923 8.13203 6.53332 8.13203C6.82827 8.13203 7.06664 8.37039 7.06664 8.6662V51.8659H9.73352C10.0279 51.8659 10.2668 52.1043 10.2668 52.4001C10.2668 52.693 10.0279 52.9314 9.73352 52.9314Z" fill="#00549E"/>
<path d="M46.0008 12.3994H37.467C37.1729 12.3994 36.9339 12.1598 36.9339 11.866C36.9339 11.5722 37.1729 11.3326 37.467 11.3326H46.0008C46.2948 11.3326 46.5342 11.5722 46.5342 11.866C46.5342 12.1598 46.2948 12.3994 46.0008 12.3994Z" fill="#00549E"/>
<path d="M46.0007 15.5984H37.4667C37.1727 15.5984 36.9336 15.3605 36.9336 15.0659C36.9336 14.7713 37.1727 14.5333 37.4667 14.5333H46.0007C46.2947 14.5333 46.5338 14.7713 46.5338 15.0659C46.5338 15.3605 46.2947 15.5984 46.0007 15.5984Z" fill="#00549E"/>
<path d="M46.0004 18.8H37.4668C37.1723 18.8 36.9335 18.5609 36.9335 18.2684C36.9335 17.973 37.1723 17.7339 37.4668 17.7339H46.0004C46.2944 17.7339 46.5338 17.973 46.5338 18.2684C46.5338 18.5609 46.2944 18.8 46.0004 18.8Z" fill="#00549E"/>
<path d="M46.0008 21.999H37.4669C37.1728 21.999 36.934 21.7588 36.934 21.4655C36.934 21.1722 37.1728 20.9319 37.4669 20.9319H46.0008C46.295 20.9319 46.5341 21.1722 46.5341 21.4655C46.5341 21.7588 46.295 21.999 46.0008 21.999Z" fill="#00549E"/>
<path d="M46.0008 25.1978H37.467C37.1727 25.1978 36.9339 24.962 36.9339 24.6652C36.9339 24.3712 37.1727 24.1326 37.467 24.1326H46.0008C46.2948 24.1326 46.5342 24.3712 46.5342 24.6652C46.5342 24.962 46.2948 25.1978 46.0008 25.1978Z" fill="#00549E"/>
<path d="M46.0008 28.3987H37.4671C37.1727 28.3987 36.9339 28.1591 36.9339 27.8671C36.9339 27.5724 37.1727 27.3328 37.4671 27.3328H46.0008C46.2949 27.3328 46.534 27.5724 46.534 27.8671C46.534 28.1591 46.2949 28.3987 46.0008 28.3987Z" fill="#00549E"/>
<path d="M46.0005 31.5996H37.4666C37.1724 31.5996 36.9334 31.3617 36.9334 31.0664C36.9334 30.7711 37.1724 30.5332 37.4666 30.5332H46.0005C46.2947 30.5332 46.5337 30.7711 46.5337 31.0664C46.5337 31.3617 46.2947 31.5996 46.0005 31.5996Z" fill="#00549E"/>
<path d="M46.0005 34.8008H37.4666C37.1726 34.8008 36.9334 34.5619 36.9334 34.2659C36.9334 33.9727 37.1726 33.7338 37.4666 33.7338H46.0005C46.2946 33.7338 46.5337 33.9727 46.5337 34.2659C46.5337 34.5619 46.2946 34.8008 46.0005 34.8008Z" fill="#00549E"/>
<path d="M46.0004 38.0017H37.4667C37.1724 38.0017 36.9333 37.7618 36.9333 37.4681C36.9333 37.1716 37.1724 36.9344 37.4667 36.9344H46.0004C46.2945 36.9344 46.5335 37.1716 46.5335 37.4681C46.5335 37.7618 46.2945 38.0017 46.0004 38.0017Z" fill="#00549E"/>
<path d="M46.0009 41.2002H37.467C37.1727 41.2002 36.9337 40.9594 36.9337 40.6651C36.9337 40.3708 37.1727 40.1326 37.467 40.1326H46.0009C46.2949 40.1326 46.5341 40.3708 46.5341 40.6651C46.5341 40.9621 46.2949 41.2002 46.0009 41.2002Z" fill="#00549E"/>
<path d="M34.2667 41.2002H16.1335C15.8392 41.2002 15.6002 40.9594 15.6002 40.6651C15.6002 40.3708 15.8392 40.1326 16.1335 40.1326H34.2667C34.5615 40.1326 34.7999 40.3708 34.7999 40.6651C34.7999 40.9621 34.5615 41.2002 34.2667 41.2002Z" fill="#00549E"/>
<path d="M34.2664 38.0017H16.1334C15.839 38.0017 15.6 37.7618 15.6 37.4681C15.6 37.1716 15.839 36.9344 16.1334 36.9344H34.2664C34.5612 36.9344 34.7995 37.1716 34.7995 37.4681C34.7995 37.7618 34.5612 38.0017 34.2664 38.0017Z" fill="#00549E"/>
<path d="M34.2663 34.8008H16.1334C15.8391 34.8008 15.5999 34.5619 15.5999 34.2659C15.5999 33.9727 15.8391 33.7338 16.1334 33.7338H34.2663C34.5614 33.7338 34.7995 33.9727 34.7995 34.2659C34.7995 34.5619 34.5614 34.8008 34.2663 34.8008Z" fill="#00549E"/>
<path d="M34.2664 31.5996H16.1334C15.8391 31.5996 15.5999 31.3617 15.5999 31.0664C15.5999 30.7711 15.8391 30.5332 16.1334 30.5332H34.2664C34.5612 30.5332 34.7997 30.7711 34.7997 31.0664C34.7997 31.3617 34.5612 31.5996 34.2664 31.5996Z" fill="#00549E"/>
<path d="M34.2667 28.3987H16.1334C15.8393 28.3987 15.6002 28.1591 15.6002 27.8671C15.6002 27.5724 15.8393 27.3328 16.1334 27.3328H34.2667C34.5614 27.3328 34.7999 27.5724 34.7999 27.8671C34.7999 28.1591 34.5614 28.3987 34.2667 28.3987Z" fill="#00549E"/>
</svg>
