<svg width="60" height="60" viewBox="0 0 60 60" fill="none" xmlns="http://www.w3.org/2000/svg">
<path d="M20.6366 35.9544L28.5919 38.1906V30.5418L20.6366 27.8898V35.9544ZM29.1503 39.4866C29.0997 39.4866 29.0491 39.4796 28.9992 39.4658L19.9274 36.9131C19.686 36.8461 19.5201 36.629 19.5201 36.3749V27.1159C19.5201 26.9358 19.6063 26.7671 19.7521 26.6632C19.8974 26.5592 20.0847 26.5292 20.255 26.5869L29.327 29.6109C29.5548 29.6871 29.7086 29.8996 29.7086 30.1399V38.9298C29.7086 39.1031 29.6266 39.2671 29.4871 39.3734C29.3896 39.4473 29.2706 39.4866 29.1503 39.4866Z" fill="#00549E"/>
<path d="M29.7086 30.5418V38.1906L37.6637 35.9544V27.8898L29.7086 30.5418ZM29.1503 39.4866C29.0299 39.4866 28.9116 39.4473 28.8135 39.3734C28.6739 39.2671 28.5919 39.1031 28.5919 38.9298V30.1399C28.5919 29.8996 28.7458 29.6871 28.9735 29.6109L38.0463 26.5869C38.2165 26.5292 38.4036 26.5592 38.5492 26.6632C38.6942 26.7671 38.7797 26.9358 38.7797 27.1159V36.3772C38.7797 36.6266 38.6138 36.8461 38.3731 36.9131L29.3011 39.4658C29.2521 39.4796 29.2009 39.4866 29.1503 39.4866Z" fill="#00549E"/>
<path d="M17.3068 25.606L29.1495 29.5538L40.9927 25.606L29.1495 21.6582L17.3068 25.606ZM29.1495 30.6992C29.0896 30.6992 29.0305 30.6898 28.9727 30.671L15.365 26.1341C15.1371 26.059 14.9834 25.8454 14.9834 25.606C14.9834 25.3643 15.1371 25.1531 15.365 25.0756L28.9727 20.5387C29.0875 20.5011 29.2115 20.5011 29.326 20.5387L42.9347 25.0756C43.1623 25.1531 43.3163 25.3643 43.3163 25.606C43.3163 25.8454 43.1618 26.059 42.9347 26.1341L29.326 30.671C29.269 30.6898 29.2093 30.6992 29.1495 30.6992Z" fill="#00549E"/>
<path d="M42.7592 32.209C42.4507 32.209 42.2009 31.9608 42.2009 31.65V25.6038C42.2009 25.2954 42.4507 25.0449 42.7592 25.0449C43.0667 25.0449 43.3174 25.2954 43.3174 25.6038V31.65C43.3174 31.9608 43.0667 32.209 42.7592 32.209Z" fill="#00549E"/>
<path d="M42.7585 32.6844C42.1276 32.6844 41.6148 33.1972 41.6148 33.8263C41.6148 34.4553 42.1276 34.9704 42.7585 34.9704C43.388 34.9704 43.9008 34.4553 43.9008 33.8263C43.9008 33.1972 43.388 32.6844 42.7585 32.6844ZM42.7585 36.085C41.5125 36.085 40.4989 35.073 40.4989 33.8263C40.4989 32.5818 41.5125 31.5676 42.7585 31.5676C44.0039 31.5676 45.0172 32.5818 45.0172 33.8263C45.0172 35.073 44.0039 36.085 42.7585 36.085Z" fill="#00549E"/>
<path d="M30.0007 7.11569C17.3817 7.11569 7.11645 17.3812 7.11645 30C7.11645 42.6188 17.3825 52.8818 30.0007 52.8818C42.6185 52.8818 52.884 42.6188 52.884 30C52.884 17.3812 42.6185 7.11569 30.0007 7.11569ZM30.0007 54C23.5898 54 17.5627 51.503 13.0297 46.9695C8.49647 42.436 6 36.4093 6 30C6 23.5883 8.49647 17.5615 13.0297 13.028C17.5627 8.49694 23.5898 5.99998 30.0007 5.99998C36.4107 5.99998 42.4378 8.49694 46.9708 13.028C51.5033 17.5615 54 23.5883 54 30C54 36.4093 51.5033 42.436 46.9708 46.9695C42.4378 51.503 36.4107 54 30.0007 54Z" fill="#00549E"/>
<path d="M34.9117 47.7329C34.6695 47.7329 34.4453 47.5738 34.3757 47.3264C34.2915 47.0303 34.4625 46.7232 34.7595 46.6393C37.1584 45.9544 39.3415 44.779 41.2464 43.1462C41.4815 42.9474 41.8332 42.9739 42.0332 43.2081C42.234 43.4423 42.2071 43.7958 41.9726 43.9969C39.9433 45.7312 37.6199 46.9817 35.0648 47.7108C35.0142 47.7263 34.9632 47.7329 34.9117 47.7329Z" fill="#00549E"/>
<path d="M30.0009 48.4158C19.8444 48.4158 11.5823 40.1545 11.5823 29.9999C11.5823 29.6904 11.8314 29.4406 12.1398 29.4406C12.4481 29.4406 12.6979 29.6904 12.6979 29.9999C12.6979 39.5402 20.4604 47.3017 30.0009 47.3017C30.309 47.3017 30.5584 47.5493 30.5584 47.8588C30.5584 48.1682 30.3083 48.4158 30.0009 48.4158Z" fill="#00549E"/>
<path d="M47.8613 30.5576C47.5529 30.5576 47.3024 30.3054 47.3024 30.0004C47.3024 20.458 39.5414 12.6977 30.0002 12.6977C29.6921 12.6977 29.442 12.448 29.442 12.1381C29.442 11.8307 29.6921 11.5809 30.0002 11.5809C40.1568 11.5809 48.419 19.8431 48.419 30.0004C48.4197 30.3054 48.1697 30.5576 47.8613 30.5576Z" fill="#00549E"/>
</svg>
