<svg width="60" height="60" viewBox="0 0 60 60" fill="none" xmlns="http://www.w3.org/2000/svg">
<path fill-rule="evenodd" clip-rule="evenodd" d="M12.5677 43.6936H10.8014V44.3927H12.4234V44.983H10.8014V45.8423H12.6458V46.4326H10.1205V43.1048H12.5677V43.6936Z" fill="#00549E"/>
<path fill-rule="evenodd" clip-rule="evenodd" d="M16.3722 46.2965L16.01 45.9554C16.214 45.6954 16.3583 45.3153 16.3583 44.7682C16.3583 43.2067 15.1995 43.0171 14.7594 43.0171C14.3193 43.0171 13.1608 43.2067 13.1608 44.7682C13.1608 46.3308 14.3193 46.5199 14.7594 46.5199C14.9535 46.5199 15.2968 46.4835 15.6117 46.2965L16.0063 46.6726L16.3722 46.2965ZM14.801 45.5278L15.1346 45.8422C15.0097 45.9081 14.8743 45.931 14.7594 45.931C14.3838 45.931 13.8549 45.6997 13.8549 44.7682C13.8549 43.8368 14.3838 43.6055 14.7594 43.6055C15.1346 43.6055 15.663 43.8368 15.663 44.7682C15.663 45.0802 15.6028 45.3106 15.5102 45.483L15.1579 45.1541L14.801 45.5278Z" fill="#00549E"/>
<path fill-rule="evenodd" clip-rule="evenodd" d="M19.6304 45.2694C19.6304 46.1436 19.101 46.52 18.2624 46.52C17.9569 46.52 17.5026 46.4461 17.2058 46.1173C17.0255 45.9148 16.9556 45.6431 16.9469 45.3107V43.1049H17.6556V45.263C17.6556 45.7287 17.9243 45.9312 18.2482 45.9312C18.7261 45.9312 18.9201 45.6998 18.9201 45.2961V43.1049H19.6304V45.2694Z" fill="#00549E"/>
<path fill-rule="evenodd" clip-rule="evenodd" d="M20.8797 45.745H22.1082L22.3216 46.4326H23.0771L21.9052 43.1048H21.1029L19.9165 46.4326H20.6486L20.8797 45.745ZM21.4924 43.8558H21.5027L21.9144 45.1721H21.0651L21.4924 43.8558Z" fill="#00549E"/>
<path fill-rule="evenodd" clip-rule="evenodd" d="M24.3145 45.8301H25.9689V46.4326H23.6185V43.1048H24.3145V45.8301Z" fill="#00549E"/>
<path fill-rule="evenodd" clip-rule="evenodd" d="M28.6049 44.9395V46.4326H27.9108V43.1048H28.6049V44.3651H29.903V43.1048H30.5973V46.4326H29.903V44.9395H28.6049Z" fill="#00549E"/>
<path fill-rule="evenodd" clip-rule="evenodd" d="M31.2279 44.7684C31.2279 46.331 32.3872 46.52 32.8253 46.52C33.2679 46.52 34.4259 46.331 34.4259 44.7684C34.4259 43.2069 33.2679 43.0173 32.8253 43.0173C32.3872 43.0173 31.2279 43.2069 31.2279 44.7684ZM31.9223 44.7684C31.9223 43.837 32.4516 43.6056 32.8253 43.6056C33.2017 43.6056 33.7303 43.837 33.7303 44.7684C33.7303 45.6998 33.2017 45.9312 32.8253 45.9312C32.4516 45.9312 31.9223 45.6998 31.9223 44.7684Z" fill="#00549E"/>
<path fill-rule="evenodd" clip-rule="evenodd" d="M37.7443 45.2694C37.7443 46.1436 37.2152 46.52 36.3761 46.52C36.0701 46.52 35.617 46.4461 35.3195 46.1173C35.1387 45.9148 35.069 45.6431 35.0608 45.3107V43.1049H35.7688V45.263C35.7688 45.7287 36.0382 45.9312 36.3634 45.9312C36.8405 45.9312 37.0348 45.6998 37.0348 45.2961V43.1049H37.7443V45.2694Z" fill="#00549E"/>
<path fill-rule="evenodd" clip-rule="evenodd" d="M39.0165 45.408C39.0225 45.5926 39.1158 45.9459 39.722 45.9459C40.0507 45.9459 40.4176 45.867 40.4176 45.5132C40.4176 45.2553 40.1671 45.1849 39.8158 45.1018L39.4586 45.0182C38.919 44.8933 38.4006 44.7744 38.4006 44.042C38.4006 43.6708 38.6011 43.0173 39.6805 43.0173C40.7005 43.0173 40.9739 43.684 40.9788 44.092H40.3106C40.2925 43.945 40.2367 43.5917 39.6297 43.5917C39.366 43.5917 39.0506 43.6887 39.0506 43.99C39.0506 44.251 39.2643 44.3044 39.4019 44.337L40.2134 44.5363C40.6679 44.6475 41.0841 44.8336 41.0841 45.4306C41.0841 46.4327 40.0653 46.52 39.773 46.52C38.5595 46.52 38.3508 45.82 38.3508 45.408H39.0165Z" fill="#00549E"/>
<path fill-rule="evenodd" clip-rule="evenodd" d="M42.3491 46.4326H41.656V43.1048H42.3491V46.4326Z" fill="#00549E"/>
<path fill-rule="evenodd" clip-rule="evenodd" d="M45.1261 43.1048H45.7744V46.4326H45.0801L43.7228 44.0591H43.7113V46.4326H43.0633V43.1048H43.7954L45.1149 45.4224H45.1261V43.1048Z" fill="#00549E"/>
<path fill-rule="evenodd" clip-rule="evenodd" d="M48.101 44.6393H49.4901V46.4327H49.0274L48.9577 46.0163C48.7821 46.2178 48.5269 46.52 47.9196 46.52C47.1183 46.52 46.3911 45.9459 46.3911 44.7781C46.3911 43.8706 46.8966 43.0126 48.0171 43.0173C49.0383 43.0173 49.4416 43.679 49.4764 44.1393H48.7821C48.7821 44.0089 48.545 43.5917 48.0547 43.5917C47.5576 43.5917 47.0994 43.9343 47.0994 44.7863C47.0994 45.6956 47.5955 45.9312 48.0681 45.9312C48.2209 45.9312 48.7321 45.872 48.8744 45.199H48.101V44.6393Z" fill="#00549E"/>
<path fill-rule="evenodd" clip-rule="evenodd" d="M9.97253 49.824C9.97253 51.3853 11.1311 51.5771 11.5711 51.5771C12.0112 51.5771 13.1698 51.3853 13.1698 49.824C13.1698 48.2625 12.0112 48.0729 11.5711 48.0729C11.1311 48.0729 9.97253 48.2625 9.97253 49.824ZM10.6679 49.824C10.6679 48.8926 11.196 48.6605 11.5711 48.6605C11.9463 48.6605 12.4744 48.8926 12.4744 49.824C12.4744 50.7552 11.9463 50.9883 11.5711 50.9883C11.196 50.9883 10.6679 50.7552 10.6679 49.824Z" fill="#00549E"/>
<path fill-rule="evenodd" clip-rule="evenodd" d="M15.0743 50.2877H15.8709C16.7657 50.2877 16.9319 49.5272 16.9319 49.2264C16.9319 48.5734 16.5436 48.1604 15.8988 48.1604H14.3795V51.4883H15.0743V50.2877ZM15.0743 49.7123V48.7339H15.6259C16.0565 48.7339 16.2376 48.8694 16.2376 49.1938C16.2376 49.3421 16.2376 49.7123 15.7182 49.7123H15.0743Z" fill="#00549E"/>
<path fill-rule="evenodd" clip-rule="evenodd" d="M18.8184 50.2877H19.6155C20.5096 50.2877 20.6767 49.5272 20.6767 49.2264C20.6767 48.5734 20.2882 48.1604 19.6436 48.1604H18.1231V51.4883H18.8184V50.2877ZM18.8184 49.7123V48.7339H19.3689C19.8001 48.7339 19.9809 48.8694 19.9809 49.1938C19.9809 49.3421 19.9809 49.7123 19.4627 49.7123H18.8184Z" fill="#00549E"/>
<path fill-rule="evenodd" clip-rule="evenodd" d="M21.7198 49.824C21.7198 51.3853 22.8779 51.5771 23.319 51.5771C23.758 51.5771 24.9166 51.3853 24.9166 49.824C24.9166 48.2625 23.758 48.0729 23.319 48.0729C22.8779 48.0729 21.7198 48.2625 21.7198 49.824ZM22.4152 49.824C22.4152 48.8926 22.9421 48.6605 23.319 48.6605C23.6929 48.6605 24.222 48.8926 24.222 49.824C24.222 50.7552 23.6929 50.9883 23.319 50.9883C22.9421 50.9883 22.4152 50.7552 22.4152 49.824Z" fill="#00549E"/>
<path fill-rule="evenodd" clip-rule="evenodd" d="M26.1253 51.4883H26.8085V50.1857H27.5254C28.0404 50.1857 28.0688 50.3616 28.0688 50.8158C28.0688 51.1579 28.0949 51.3293 28.1414 51.4883H28.9111V51.3985C28.7631 51.344 28.7631 51.2226 28.7631 50.738C28.7631 50.1146 28.6146 50.014 28.3417 49.8931C28.6705 49.7827 28.8551 49.467 28.8551 49.1015C28.8551 48.8135 28.6939 48.1604 27.8088 48.1604H26.1253V51.4883ZM26.8085 49.625V48.7339H27.6737C28.0817 48.7339 28.1598 48.9946 28.1598 49.1707C28.1598 49.5001 27.9844 49.625 27.6227 49.625H26.8085Z" fill="#00549E"/>
<path fill-rule="evenodd" clip-rule="evenodd" d="M31.4451 51.4883H30.7503V48.7493H29.7452V48.1604H32.4516V48.7493H31.4451V51.4883Z" fill="#00549E"/>
<path fill-rule="evenodd" clip-rule="evenodd" d="M36.1815 50.3236C36.1815 51.1993 35.6534 51.5771 34.814 51.5771C34.5097 51.5771 34.0555 51.5005 33.758 51.1714C33.5773 50.9689 33.5074 50.6997 33.4992 50.3664V48.1605H34.2075V50.3194C34.2075 50.7828 34.4769 50.9883 34.8008 50.9883C35.278 50.9883 35.4723 50.7552 35.4723 50.3519V48.1605H36.1815V50.3236Z" fill="#00549E"/>
<path fill-rule="evenodd" clip-rule="evenodd" d="M39.5454 48.1604H40.1955V51.4883H39.4989L38.1408 49.1147H38.1336V51.4883H37.4833V48.1604H38.2152L39.5372 50.477H39.5454V48.1604Z" fill="#00549E"/>
<path fill-rule="evenodd" clip-rule="evenodd" d="M42.1565 51.4883H41.4592V48.1604H42.1565V51.4883Z" fill="#00549E"/>
<path fill-rule="evenodd" clip-rule="evenodd" d="M44.8701 51.4883H44.1751V48.7493H43.1713V48.1604H45.8764V48.7493H44.8701V51.4883Z" fill="#00549E"/>
<path fill-rule="evenodd" clip-rule="evenodd" d="M48.5042 51.4883H47.8082V50.2317L46.6596 48.1604H47.479L48.1699 49.6068L48.8294 48.1604H49.616L48.5042 50.2404V51.4883Z" fill="#00549E"/>
<path fill-rule="evenodd" clip-rule="evenodd" d="M44.6714 35.5234H14.7427V21.3132L29.7908 13.6227L44.6714 21.3132V35.5234ZM29.7908 8.43922L7.38602 19.474V24.6572H9.89365V40.2063H49.519V24.6572H52.5301V19.474L29.7908 8.43922Z" fill="#00549E"/>
<path fill-rule="evenodd" clip-rule="evenodd" d="M36.645 26.3279H22.7689V21.3134H36.645V26.3279Z" fill="#00549E"/>
<path fill-rule="evenodd" clip-rule="evenodd" d="M36.645 33.5205H22.7689V28.5023H36.645V33.5205Z" fill="#00549E"/>
</svg>
