<svg width="60" height="60" viewBox="0 0 60 60" fill="none" xmlns="http://www.w3.org/2000/svg">
<path d="M18.9378 21.5409H31.017L25.0093 17.2086L18.9378 21.5409ZM32.5906 22.5713H17.3488C17.1259 22.5713 16.9355 22.4307 16.8559 22.2224C16.792 22.0169 16.8716 21.7789 17.0463 21.6518L24.7077 16.1755C24.8823 16.0484 25.1209 16.0484 25.3113 16.1755L32.8768 21.6356C33.02 21.7302 33.1154 21.8898 33.1154 22.0656C33.0997 22.3333 32.8768 22.5713 32.5906 22.5713Z" fill="#00549E"/>
<path d="M27.457 31.1277H29.9842V22.5709H20.0349V31.1277H22.6736V28.5078C22.6736 27.1912 23.7543 26.1122 25.0735 26.1122C26.3927 26.1122 27.4733 27.1912 27.4733 28.5078V31.1277H27.457ZM30.4931 32.1426H26.9486C26.6625 32.1426 26.4403 31.9209 26.4403 31.6352V28.4918C26.4403 27.7306 25.8204 27.1271 25.0735 27.1271C24.31 27.1271 23.7067 27.7467 23.7067 28.4918V31.6352C23.7067 31.9209 23.4836 32.1426 23.1975 32.1426H19.5421C19.2562 32.1426 19.0337 31.9209 19.0337 31.6352V22.0475C19.0337 21.7617 19.2562 21.5401 19.5421 21.5401H30.5089C30.795 21.5401 31.0172 21.7617 31.0172 22.0475V31.6352C31.0017 31.9209 30.7629 32.1426 30.4931 32.1426Z" fill="#00549E"/>
<path d="M34.9915 39.5563L38.6313 43.1897L43.0656 38.7622L39.4413 35.1443C38.8535 35.9852 38.1859 36.7949 37.4393 37.5242C36.6921 38.2691 35.8657 38.9516 34.9915 39.5563ZM38.6313 44.4121C38.4879 44.4121 38.3608 44.3654 38.2657 44.2694L33.8306 39.8418C33.7199 39.7302 33.6724 39.5875 33.6879 39.4292C33.7035 39.2709 33.7831 39.1437 33.9265 39.0477C34.9431 38.3988 35.8813 37.6358 36.7397 36.7949C37.5661 35.9696 38.3132 35.0483 38.9486 34.0647C39.0281 33.9375 39.1716 33.8571 39.3299 33.8415C39.4892 33.8259 39.6324 33.8726 39.7433 33.9842L44.1617 38.3988C44.3683 38.6039 44.3683 38.9205 44.1617 39.1125L38.9962 44.2694C38.8855 44.3654 38.7576 44.4121 38.6313 44.4121Z" fill="#00549E"/>
<path d="M42.4612 47.0327L46.4984 51.0627C47.0864 51.6516 47.881 51.9855 48.7236 51.9855C49.5659 51.9855 50.3449 51.6516 50.9483 51.0627C51.5369 50.4765 51.8705 49.6837 51.8705 48.8425C51.8705 48.0013 51.5369 47.2239 50.9483 46.6198L46.9116 42.5872L42.4612 47.0327ZM48.7236 53C47.611 53 46.5617 52.5718 45.7827 51.779L41.3805 47.3819C41.174 47.1755 41.174 46.8568 41.3805 46.6682L46.5458 41.509C46.6413 41.4147 46.7682 41.3662 46.9116 41.3662C47.0545 41.3662 47.1817 41.4147 47.2774 41.509L51.6798 45.906C52.4586 46.6835 52.9037 47.7311 52.9037 48.8425C52.9037 49.9539 52.4741 51.0016 51.6798 51.779C50.8852 52.5718 49.8357 53 48.7236 53Z" fill="#00549E"/>
<path d="M38.2337 45.0174L40.6339 47.4126L47.309 40.7474L44.9091 38.3497L38.2337 45.0174ZM40.6339 48.6514C40.5067 48.6514 40.3796 48.605 40.2682 48.5071L37.1532 45.3806C37.0572 45.2853 37.0098 45.1591 37.0098 45.0174C37.0098 44.8732 37.0572 44.747 37.1532 44.6517L44.5439 37.2706C44.7508 37.0645 45.068 37.0645 45.2588 37.2706L48.3738 40.3817C48.4698 40.477 48.5175 40.6032 48.5175 40.7474C48.5175 40.889 48.4698 41.0152 48.3738 41.1105L40.9833 48.4917C40.8881 48.605 40.761 48.6514 40.6339 48.6514Z" fill="#00549E"/>
<path d="M24.9622 8.45988C20.5276 8.45988 16.347 10.1886 13.2164 13.3181C10.0695 16.4586 8.35275 20.6192 8.35275 25.0473C8.35275 29.4754 10.0852 33.6499 13.2164 36.7766C16.347 39.9033 20.5276 41.6348 24.9622 41.6348C28.1411 41.6348 31.2402 40.7304 33.9103 39.032C34.9277 38.3813 35.8651 37.6175 36.7234 36.7766C37.5498 35.9522 38.2969 35.0313 38.933 34.0469C43.1605 27.5233 42.2226 18.8077 36.7234 13.3016C33.5763 10.1749 29.412 8.45988 24.9622 8.45988ZM24.9622 42.666C20.2418 42.666 15.823 40.8407 12.485 37.5073C9.14734 34.1738 7.31934 29.7622 7.31934 25.0473C7.31934 20.349 9.14734 15.9209 12.485 12.5874C15.823 9.25394 20.2418 7.42867 24.9622 7.42867C29.6825 7.42867 34.1168 9.2705 37.4391 12.604C40.3154 15.477 42.1119 19.2682 42.525 23.302C42.922 27.2697 41.9529 31.3007 39.7908 34.6342C39.1078 35.682 38.3289 36.6497 37.4391 37.5403C36.5332 38.4447 35.5313 39.2526 34.4504 39.9364C31.6373 41.7148 28.3476 42.666 24.9622 42.666Z" fill="#00549E"/>
<path d="M24.9624 13.1271C21.7679 13.1271 18.7793 14.3659 16.5227 16.6197C14.2654 18.8735 13.0257 21.8723 13.0257 25.0483C13.0257 28.2217 14.2654 31.2231 16.5227 33.4769C18.7793 35.7308 21.7834 36.9668 24.9624 36.9668C27.2507 36.9668 29.4761 36.3174 31.3832 35.095C32.1146 34.6339 32.7977 34.08 33.4021 33.4769C34.0062 32.8739 34.5302 32.2218 34.9917 31.5069C38.0272 26.8247 37.3597 20.5571 33.4021 16.6033C31.1611 14.3659 28.1567 13.1271 24.9624 13.1271ZM24.9624 38.001C21.4974 38.001 18.2389 36.6503 15.7913 34.2055C13.3438 31.7607 11.9927 28.5082 11.9927 25.0483C11.9927 21.5885 13.3438 18.3333 15.7913 15.8884C18.2389 13.4436 21.4974 12.0957 24.9624 12.0957C28.4272 12.0957 31.6857 13.4436 34.1332 15.8884C36.2471 18.0004 37.5663 20.7945 37.8679 23.7468C38.1543 26.6664 37.4548 29.6187 35.8657 32.0635C35.3731 32.8248 34.7843 33.5397 34.1491 34.1918C33.4813 34.8576 32.7501 35.4443 31.9556 35.9518C29.8572 37.3024 27.4572 38.001 24.9624 38.001Z" fill="#00549E"/>
<path d="M31.0176 48.459H10.6101C10.3239 48.459 10.1016 48.2379 10.1016 47.9516C10.1016 47.6653 10.3239 47.4442 10.6101 47.4442H31.034C31.3202 47.4442 31.5423 47.6653 31.5423 47.9516C31.5267 48.2379 31.3039 48.459 31.0176 48.459Z" fill="#00549E"/>
<path d="M38.1697 51.5244H19.7966C19.5103 51.5244 19.2881 51.3001 19.2881 51.0159C19.2881 50.7292 19.5103 50.5073 19.7966 50.5073H38.1697C38.456 50.5073 38.6787 50.7292 38.6787 51.0159C38.6787 51.2851 38.456 51.5244 38.1697 51.5244Z" fill="#00549E"/>
<path d="M41.2368 7.68355C40.3946 7.68355 39.7115 8.36577 39.7115 9.2082C39.7115 10.0506 40.3946 10.7329 41.2368 10.7329H45.5921C45.7669 10.7329 45.9414 10.8268 46.0374 10.987C46.1325 11.1444 46.1325 11.335 46.0374 11.4952C45.8938 11.7328 45.8305 11.9869 45.8305 12.2576C45.8305 13.0972 46.5136 13.7795 47.3558 13.7795H51.4409C52.2837 13.7795 52.9665 13.0972 52.9665 12.2576C52.9665 11.4151 52.2837 10.7329 51.4409 10.7329H49.1204C48.9456 10.7329 48.7711 10.6362 48.6759 10.4788C48.58 10.3186 48.58 10.128 48.6759 9.97056C48.8184 9.73302 48.8817 9.47889 48.8817 9.2082C48.8817 8.36577 48.1986 7.68355 47.3558 7.68355H41.2368ZM51.4409 14.8125H47.3558C45.9414 14.8125 44.7975 13.669 44.7975 12.2576C44.7975 12.0808 44.8132 11.9068 44.845 11.7466H41.221C39.8066 11.7466 38.6621 10.6058 38.6621 9.19164C38.6621 7.78021 39.8066 6.63671 41.221 6.63671H47.3403C48.7545 6.63671 49.8993 7.78021 49.8993 9.19164C49.8993 9.36842 49.8835 9.54244 49.8517 9.69988H51.4409C52.8559 9.69988 53.9998 10.8434 53.9998 12.2576C53.9843 13.669 52.8396 14.8125 51.4409 14.8125Z" fill="#00549E"/>
<path d="M48.3729 28.0642C47.5308 28.0642 46.8472 28.7472 46.8472 29.5884C46.8472 30.4295 47.5308 31.1125 48.3729 31.1125C49.216 31.1125 49.8991 30.4295 49.8991 29.5884C49.8991 28.763 49.216 28.0642 48.3729 28.0642ZM48.3729 32.1436C46.9586 32.1436 45.814 31.0018 45.814 29.5884C45.814 28.1776 46.9586 27.0331 48.3729 27.0331C49.7876 27.0331 50.932 28.1776 50.932 29.5884C50.932 31.0018 49.7876 32.1436 48.3729 32.1436Z" fill="#00549E"/>
<path d="M8.5589 40.3033C7.71697 40.3033 7.03305 40.9848 7.03305 41.8276C7.03305 42.6679 7.71697 43.3494 8.5589 43.3494C9.40186 43.3494 10.085 42.6679 10.085 41.8276C10.085 40.9848 9.40186 40.3033 8.5589 40.3033ZM8.5589 44.3818C7.14464 44.3818 6 43.2392 6 41.8276C6 40.4135 7.14464 39.2709 8.5589 39.2709C9.97342 39.2709 11.1181 40.4135 11.1181 41.8276C11.1181 43.2392 9.97342 44.3818 8.5589 44.3818Z" fill="#00549E"/>
</svg>
