<svg width="60" height="60" viewBox="0 0 60 60" fill="none" xmlns="http://www.w3.org/2000/svg">
<path d="M38.6845 18.5469L42.1908 20.0396V15.3486H38.6845V18.5469ZM42.7111 21.3511C42.6429 21.3511 42.5718 21.3374 42.5093 21.3098L37.9565 19.3741C37.7632 19.2903 37.6409 19.1012 37.6409 18.8924V14.8274C37.6409 14.5379 37.874 14.3047 38.1613 14.3047H42.7111C43.0012 14.3047 43.2344 14.5379 43.2344 14.8274V20.8298C43.2344 21.0039 43.1462 21.1688 43.0012 21.2646C42.9131 21.3224 42.8135 21.3511 42.7111 21.3511Z" fill="#00549E"/>
<path d="M9.10418 24.2664V27.7498L13.8769 26.1256L28.8847 20.7062C28.9973 20.6664 29.1185 20.6649 29.231 20.7036L44.2475 25.8154L44.2735 25.8237L49.0173 27.7089V24.2664L29.0608 15.3967L9.10418 24.2664ZM8.58478 28.9999C8.47512 28.9999 8.36837 28.967 8.27892 28.9023C8.1433 28.8051 8.0625 28.6458 8.0625 28.4785V23.9276C8.0625 23.7219 8.1837 23.5352 8.37126 23.4501L28.8501 14.3499C28.9829 14.2895 29.1387 14.2895 29.2743 14.3499L49.7503 23.4501C49.9379 23.5352 50.0619 23.7219 50.0619 23.9276V28.4785C50.0619 28.6513 49.9753 28.8132 49.834 28.9107C49.6897 29.0068 49.5079 29.0273 49.3463 28.9627L43.8984 26.7993L29.0666 21.7502L14.2232 27.1093L8.75216 28.9725C8.69734 28.9915 8.6396 28.9999 8.58478 28.9999Z" fill="#00549E"/>
<path d="M14.566 48.7384H43.5572V26.6839L29.0658 21.7501L14.566 26.9857V48.7384ZM44.0791 49.7822H14.044C13.756 49.7822 13.5221 49.5492 13.5221 49.2612V26.6195C13.5221 26.3999 13.659 26.2036 13.8672 26.1295L28.8833 20.706C28.9974 20.6664 29.1172 20.6649 29.2284 20.7034L44.2445 25.8155C44.4584 25.8868 44.601 26.087 44.601 26.3092V49.2597C44.601 49.5492 44.3672 49.7822 44.0791 49.7822Z" fill="#00549E"/>
<path d="M38.8709 29.9561H19.0455C18.7579 29.9561 18.5238 29.7231 18.5238 29.4349C18.5238 29.1467 18.7579 28.9135 19.0455 28.9135H38.8709C39.1585 28.9135 39.3926 29.1467 39.3926 29.4349C39.3926 29.7231 39.1585 29.9561 38.8709 29.9561Z" fill="#00549E"/>
<path d="M32.6106 26.8267H25.3059C25.0194 26.8267 24.783 26.5936 24.783 26.304C24.783 26.0158 25.0194 25.7827 25.3059 25.7827H32.6106C32.8971 25.7827 33.1308 26.0158 33.1308 26.304C33.1308 26.5936 32.8971 26.8267 32.6106 26.8267Z" fill="#00549E"/>
<path d="M11.2182 51.8691H46.6933V49.7822H11.2182V51.8691ZM47.2159 52.9131H10.6957C10.4057 52.9131 10.1731 52.6785 10.1731 52.3902V49.2608C10.1731 48.9713 10.4057 48.7382 10.6957 48.7382H47.2159C47.5059 48.7382 47.7385 48.9713 47.7385 49.2608V52.3902C47.7385 52.6785 47.5059 52.9131 47.2159 52.9131Z" fill="#00549E"/>
<path d="M51.3922 52.9131H6.52169C6.2349 52.9131 6.00024 52.6784 6.00024 52.3905C6.00024 52.1022 6.2349 51.869 6.52169 51.869H51.3922C51.679 51.869 51.9137 52.1022 51.9137 52.3905C51.9137 52.6784 51.679 52.9131 51.3922 52.9131Z" fill="#00549E"/>
<path d="M50.3454 10.1299C48.9109 10.1299 47.7383 11.3013 47.7383 12.7393C47.7383 14.1785 48.908 15.3488 50.3454 15.3488C51.7857 15.3488 52.9554 14.1785 52.9554 12.7393C52.9554 11.3013 51.7857 10.1299 50.3454 10.1299ZM50.3454 16.3916C48.3348 16.3916 46.6937 14.752 46.6937 12.7393C46.6937 10.7252 48.3348 9.08702 50.3454 9.08702C52.3619 9.08702 54 10.7252 54 12.7393C54 14.752 52.3619 16.3916 50.3454 16.3916Z" fill="#00549E"/>
<path d="M8.08863 8.04261C7.51115 8.04261 7.04431 8.51052 7.04431 9.08665C7.04431 9.66142 7.51115 10.1293 8.08863 10.1293H9.74547C9.91278 10.1293 10.072 10.2116 10.1691 10.3503C10.2663 10.4901 10.2933 10.6671 10.2366 10.8263C10.1934 10.9416 10.1745 11.0568 10.1745 11.1734C10.1745 11.7484 10.6414 12.2177 11.2189 12.2177H17.4793C18.0541 12.2177 18.5236 11.7484 18.5236 11.1734C18.5236 10.5986 18.0541 10.1293 17.4793 10.1293H15.8224C15.6524 10.1293 15.4932 10.0484 15.3961 9.90995C15.2989 9.77125 15.2746 9.59423 15.3286 9.43394C15.3718 9.32007 15.3907 9.20322 15.3907 9.08665C15.3907 8.51187 14.9238 8.04261 14.3464 8.04261H8.08863ZM17.4793 13.2617H11.2189C10.0666 13.2617 9.13023 12.3245 9.13023 11.1734H8.08863C6.93638 11.1734 6 10.2378 6 9.08665C6 7.9371 6.93638 6.99992 8.08863 6.99992H14.3464C15.4986 6.99992 16.435 7.9371 16.435 9.08665H17.4793C18.6289 9.08665 19.5652 10.0238 19.5652 11.1734C19.5652 12.3245 18.6289 13.2617 17.4793 13.2617Z" fill="#00549E"/>
<path d="M24.7827 38.3047V40.9128C24.7827 43.5019 26.8897 45.6092 29.4775 45.6092C32.0679 45.6092 34.175 43.5019 34.175 40.9128V38.3047H24.7827ZM29.4775 46.6519C26.3141 46.6519 23.7404 44.0781 23.7404 40.9128V37.7835C23.7404 37.4954 23.9723 37.2607 24.2629 37.2607H34.6976C34.9854 37.2607 35.2174 37.4954 35.2174 37.7835V40.9128C35.2174 44.0781 32.6436 46.6519 29.4775 46.6519Z" fill="#00549E"/>
<path d="M25.8276 37.2608H33.1325V36.7381C33.1325 34.7253 31.4931 33.087 29.4801 33.087C27.467 33.087 25.8276 34.7253 25.8276 36.7381V37.2608ZM33.6539 38.3047H25.3063C25.0191 38.3047 24.7849 38.0716 24.7849 37.7833V36.7381C24.7849 34.149 26.8899 32.0432 29.4801 32.0432C32.0674 32.0432 34.1752 34.1504 34.1752 36.7381V37.7833C34.1752 38.0716 33.941 38.3047 33.6539 38.3047Z" fill="#00549E"/>
<path d="M44.0887 41.4341H39.9132C39.6251 41.4341 39.3912 41.2008 39.3912 40.9127C39.3912 40.6244 39.6251 40.3914 39.9132 40.3914H44.0887C44.3739 40.3914 44.6077 40.6229 44.6077 40.9127C44.6077 41.2008 44.3739 41.4341 44.0887 41.4341Z" fill="#00549E"/>
<path d="M21.1311 38.3047H14.8708C14.5807 38.3047 14.3475 38.0712 14.3475 37.7833C14.3475 37.4937 14.5807 37.2606 14.8708 37.2606H21.1311C21.4185 37.2606 21.6517 37.4937 21.6517 37.7833C21.6517 38.0712 21.4185 38.3047 21.1311 38.3047Z" fill="#00549E"/>
<path d="M18.0009 45.6089H14.87C14.582 45.6089 14.3478 45.3758 14.3478 45.0861C14.3478 44.798 14.582 44.5649 14.87 44.5649H18.0009C18.289 44.5649 18.5232 44.798 18.5232 45.0861C18.5232 45.3758 18.289 45.6089 18.0009 45.6089Z" fill="#00549E"/>
<path d="M29.4824 42.478C29.1951 42.478 28.963 42.2449 28.963 41.9567C28.963 41.6686 29.1923 41.4341 29.4824 41.4341C29.7724 41.4341 30.0045 41.6686 30.0045 41.9567C30.0045 42.2449 29.7724 42.478 29.4824 42.478Z" fill="#00549E"/>
</svg>
