<svg width="60" height="60" viewBox="0 0 60 60" fill="none" xmlns="http://www.w3.org/2000/svg">
<path d="M23.6994 27.2716C23.5072 27.6569 23.3932 28.0566 23.3932 28.4727C23.3932 30.727 26.3539 32.5506 29.9849 32.5506C33.6159 32.5506 36.5744 30.7109 36.5744 28.4727C36.5744 28.0566 36.4783 27.6569 36.2705 27.2716C34.8627 28.6483 32.5277 29.4951 29.9693 29.4951C27.4086 29.4951 25.1071 28.663 23.6994 27.2716ZM30.0006 33.5894C28.0007 33.5894 26.1282 33.0788 24.7071 32.1671C23.2189 31.2079 22.3855 29.8949 22.3855 28.4874C22.3855 27.6716 22.676 26.8558 23.2346 26.1372C23.3307 26.0087 23.4737 25.9452 23.6346 25.9452C23.7954 25.9452 23.9384 26.0237 24.0345 26.1372C25.1384 27.5608 27.4734 28.4874 29.9849 28.4874C32.5121 28.4874 34.8471 27.5608 35.9331 26.1372C36.0291 26.0087 36.1744 25.9452 36.333 25.9452C36.4939 25.9452 36.6391 26.0237 36.7352 26.1372C37.2938 26.8558 37.5821 27.6716 37.5821 28.4874C37.5821 29.8949 36.7665 31.2079 35.2627 32.1671C33.8706 33.0788 32.0004 33.5894 30.0006 33.5894Z" fill="#00549E"/>
<path d="M23.6994 31.3673C23.5072 31.7507 23.3932 32.1507 23.3932 32.5667C23.3932 34.8211 26.3539 36.6446 29.9849 36.6446C33.6159 36.6446 36.5744 34.8063 36.5744 32.5667C36.5744 32.1507 36.4783 31.7507 36.2705 31.3673C34.8627 32.7421 32.5277 33.5892 29.9693 33.5892C27.4421 33.5892 25.1071 32.7421 23.6994 31.3673ZM30.0006 37.6685C28.0007 37.6685 26.1282 37.1565 24.7071 36.2449C23.2189 35.2858 22.3855 33.9742 22.3855 32.5667C22.3855 31.7507 22.676 30.9349 23.2346 30.215C23.3307 30.0867 23.4737 30.0246 23.6346 30.0246C23.7954 30.0246 23.9384 30.1041 24.0345 30.215C25.1384 31.6388 27.4734 32.5667 29.9849 32.5667C32.5121 32.5667 34.8471 31.6388 35.9331 30.215C36.0291 30.0867 36.1744 30.0246 36.333 30.0246C36.4939 30.0246 36.6391 30.1041 36.7352 30.215C37.2938 30.9349 37.5821 31.7507 37.5821 32.5667C37.5821 33.9742 36.7665 35.2858 35.2627 36.2449C33.8706 37.1565 32.0004 37.6685 30.0006 37.6685Z" fill="#00549E"/>
<path d="M23.6994 35.447C23.5072 35.8293 23.3932 36.2291 23.3932 36.6451C23.3932 38.901 26.3539 40.7246 29.9849 40.7246C33.6159 40.7246 36.5744 38.8847 36.5744 36.6451C36.5744 36.2291 36.4783 35.8293 36.2705 35.447C34.8627 36.8207 32.5277 37.6689 29.9693 37.6689C27.4421 37.6689 25.1071 36.8368 23.6994 35.447ZM30.0006 41.7471C28.0007 41.7471 26.1282 41.2365 24.7071 40.3246C23.2189 39.3656 22.3855 38.0526 22.3855 36.6451C22.3855 35.8293 22.676 35.0133 23.2346 34.2949C23.3307 34.1664 23.4737 34.103 23.6346 34.103C23.7954 34.103 23.9384 34.1814 24.0345 34.2949C25.1384 35.7185 27.4734 36.6451 29.9849 36.6451C32.5121 36.6451 34.8471 35.7185 35.9331 34.2949C36.0291 34.1664 36.1744 34.103 36.333 34.103C36.4939 34.103 36.6391 34.1814 36.7352 34.2949C37.2938 35.0133 37.5821 35.8293 37.5821 36.6451C37.5821 38.0526 36.7665 39.3656 35.2627 40.3246C33.8706 41.2526 32.0004 41.7471 30.0006 41.7471Z" fill="#00549E"/>
<path d="M23.6994 39.5409C23.5072 39.9245 23.3932 40.3243 23.3932 40.739C23.3932 42.9949 26.3539 44.8185 29.9849 44.8185C33.6159 44.8185 36.5744 42.9786 36.5744 40.739C36.5744 40.3243 36.4783 39.9245 36.2705 39.5409C34.8627 40.9173 32.5277 41.7642 29.9693 41.7642C27.4421 41.7467 25.1071 40.9173 23.6994 39.5409ZM30.0006 45.8423C28.0007 45.8423 26.1282 45.3304 24.7071 44.4198C23.2189 43.4594 22.3855 42.1478 22.3855 40.739C22.3855 39.9245 22.676 39.1087 23.2346 38.3888C23.3307 38.2616 23.4737 38.1968 23.6346 38.1968C23.7954 38.1968 23.9384 38.2766 24.0345 38.3888C25.1384 39.8124 27.4734 40.739 29.9849 40.739C32.5121 40.739 34.8471 39.8124 35.9331 38.3888C36.0291 38.2616 36.1744 38.1968 36.333 38.1968C36.4939 38.1968 36.6391 38.2766 36.7352 38.3888C37.2938 39.1087 37.5821 39.9245 37.5821 40.739C37.5821 42.1478 36.7665 43.4594 35.2627 44.4198C33.8706 45.3304 32.0004 45.8423 30.0006 45.8423Z" fill="#00549E"/>
<path d="M23.6994 43.6191C23.5072 44.0028 23.3932 44.4027 23.3932 44.8188C23.3932 47.0732 26.3539 48.8967 29.9849 48.8967C33.6159 48.8967 36.5744 47.0584 36.5744 44.8188C36.5744 44.4027 36.4783 44.0028 36.2705 43.6191C34.8627 44.9944 32.5277 45.8426 29.9693 45.8426C27.4421 45.8426 25.1071 44.9944 23.6994 43.6191ZM30.0006 49.9219C28.0007 49.9219 26.1282 49.41 24.7071 48.497C23.2189 47.5377 22.3855 46.2263 22.3855 44.8188C22.3855 44.0028 22.676 43.1883 23.2346 42.4684C23.3307 42.3388 23.4737 42.2767 23.6346 42.2767C23.7954 42.2767 23.9384 42.3562 24.0345 42.4684C25.1384 43.8906 27.4734 44.8188 29.9849 44.8188C32.5121 44.8188 34.8471 43.8906 35.9331 42.4684C36.0291 42.3388 36.1744 42.2767 36.333 42.2767C36.4939 42.2767 36.6391 42.3562 36.7352 42.4684C37.2938 43.1883 37.5821 44.0028 37.5821 44.8188C37.5821 46.2263 36.7665 47.5377 35.2627 48.497C33.8706 49.41 32.0004 49.9219 30.0006 49.9219Z" fill="#00549E"/>
<path d="M23.6994 47.6981C23.5072 48.0818 23.3932 48.4815 23.3932 48.8962C23.3932 51.1519 26.3539 52.9755 29.9849 52.9755C33.6159 52.9755 36.5744 51.1358 36.5744 48.8962C36.5744 48.4815 36.4783 48.0818 36.2705 47.6981C34.8963 49.0893 32.559 49.9214 30.0006 49.9214C27.4421 49.9214 25.1071 49.0893 23.6994 47.6981ZM30.0006 53.9995C28.0007 53.9995 26.1282 53.4876 24.7071 52.5771C23.2189 51.6167 22.3855 50.305 22.3855 48.8962C22.3855 48.0818 22.676 47.2657 23.2346 46.5458C23.3307 46.4189 23.4737 46.3541 23.6346 46.3541C23.7954 46.3541 23.9384 46.4352 24.0345 46.5458C25.1384 47.9696 27.4734 48.8962 29.9849 48.8962C32.5121 48.8962 34.8471 47.9696 35.9331 46.5458C36.0291 46.4189 36.1744 46.3541 36.333 46.3541C36.4939 46.3541 36.6391 46.4352 36.7352 46.5458C37.2938 47.2657 37.5821 48.0818 37.5821 48.8962C37.5821 50.305 36.7665 51.6167 35.2627 52.5771C33.8706 53.5037 32.0004 53.9995 30.0006 53.9995Z" fill="#00549E"/>
<path d="M29.9995 20.3152C26.3681 20.3152 23.4117 22.1536 23.4117 24.3932C23.4117 25.001 23.6173 25.5767 24.0508 26.121C25.1547 27.5447 27.4877 28.4725 29.9995 28.4725C32.5269 28.4725 34.8621 27.5447 35.9503 26.121C36.366 25.5767 36.5895 24.9849 36.5895 24.3932C36.5895 22.1389 33.6308 20.3152 29.9995 20.3152ZM29.9995 29.4951C27.1369 29.4951 24.5447 28.4401 23.2329 26.7449C22.6743 26.0236 22.386 25.209 22.386 24.3932C22.386 22.9858 23.2039 21.674 24.7056 20.7152C26.1291 19.7871 28.0173 19.2915 29.9995 19.2915C31.9995 19.2915 33.8699 19.8034 35.2934 20.7152C36.7816 21.674 37.6129 22.9858 37.6129 24.3932C37.6129 25.209 37.3269 26.0236 36.766 26.7449C35.4542 28.4401 32.8643 29.4951 29.9995 29.4951Z" fill="#00549E"/>
<path d="M37.996 39.5408C37.8056 39.9244 37.6941 40.3243 37.6941 40.7391C37.6941 42.9948 40.6526 44.8184 44.2821 44.8184C47.914 44.8184 50.8725 42.9786 50.8725 40.7391C50.8725 40.3243 50.7773 39.9244 50.5683 39.5408C49.161 40.9174 46.8249 41.7643 44.2659 41.7643C41.7068 41.7643 39.4055 40.9174 37.996 39.5408ZM44.3007 45.8423C42.299 45.8423 40.4296 45.3302 39.0038 44.4199C37.5153 43.4595 36.6863 42.1479 36.6863 40.7391C36.6863 39.9244 36.9742 39.1086 37.5315 38.3888C37.6291 38.2617 37.7731 38.197 37.9333 38.197C38.0935 38.197 38.2375 38.2766 38.3327 38.3888C39.4357 39.8123 41.7719 40.7391 44.2821 40.7391C46.7947 40.7391 49.1448 39.8123 50.2316 38.3888C50.3291 38.2617 50.4731 38.197 50.6333 38.197C50.7935 38.197 50.9352 38.2766 51.0327 38.3888C51.5924 39.1086 51.8803 39.9244 51.8803 40.7391C51.8803 42.1479 51.0652 43.4595 49.5605 44.4199C48.1695 45.3302 46.2815 45.8423 44.3007 45.8423Z" fill="#00549E"/>
<path d="M37.996 43.619C37.8056 44.0026 37.6941 44.4025 37.6941 44.8186C37.6941 47.073 40.6526 48.8966 44.2821 48.8966C47.914 48.8966 50.8725 47.0582 50.8725 44.8186C50.8725 44.4025 50.7773 44.0026 50.5683 43.619C49.161 44.9942 46.8249 45.8425 44.2659 45.8425C41.7068 45.8425 39.4055 44.9942 37.996 43.619ZM44.3007 49.9219C42.299 49.9219 40.4296 49.4098 39.0038 48.4967C37.5153 47.5377 36.6863 46.2261 36.6863 44.8186C36.6863 44.0026 36.9742 43.1882 37.5315 42.4681C37.6291 42.3385 37.7731 42.2763 37.9333 42.2763C38.0935 42.2763 38.2375 42.3562 38.3327 42.4681C39.4357 43.8905 41.7719 44.8186 44.2821 44.8186C46.7947 44.8186 49.1448 43.8905 50.2316 42.4681C50.3291 42.3385 50.4731 42.2763 50.6333 42.2763C50.7935 42.2763 50.9352 42.3562 51.0327 42.4681C51.5924 43.1882 51.8803 44.0026 51.8803 44.8186C51.8803 46.2261 51.0652 47.5377 49.5605 48.4967C48.1695 49.4098 46.2815 49.9219 44.3007 49.9219Z" fill="#00549E"/>
<path d="M37.996 47.6985C37.8056 48.0821 37.6941 48.482 37.6941 48.8968C37.6941 51.1525 40.6526 52.9759 44.2821 52.9759C47.914 52.9759 50.8725 51.1363 50.8725 48.8968C50.8725 48.482 50.7773 48.0821 50.5683 47.6985C49.161 49.0737 46.8249 49.922 44.2659 49.922C41.7068 49.922 39.4055 49.0897 37.996 47.6985ZM44.3007 54C42.299 54 40.4296 53.488 39.0038 52.5774C37.5153 51.6172 36.6863 50.3056 36.6863 48.8968C36.6863 48.0821 36.9742 47.2664 37.5315 46.5462C37.6291 46.4192 37.7731 46.3544 37.9333 46.3544C38.0935 46.3544 38.2375 46.4355 38.3327 46.5462C39.4357 47.97 41.7719 48.8968 44.2821 48.8968C46.7947 48.8968 49.1448 47.97 50.2316 46.5462C50.3291 46.4192 50.4731 46.3544 50.6333 46.3544C50.7935 46.3544 50.9352 46.4355 51.0327 46.5462C51.5924 47.2664 51.8803 48.0821 51.8803 48.8968C51.8803 50.3056 51.0652 51.6172 49.5605 52.5774C48.1695 53.5042 46.2815 54 44.3007 54Z" fill="#00549E"/>
<path d="M44.3007 32.5671C40.6685 32.5671 37.7097 34.4055 37.7097 36.645C37.7097 37.253 37.9187 37.8285 38.3484 38.3729C39.4515 39.7965 41.7878 40.7245 44.3007 40.7245C46.8112 40.7245 49.1614 39.7965 50.2483 38.3729C50.6663 37.8285 50.8893 37.2368 50.8893 36.645C50.8893 34.3907 47.9306 32.5671 44.3007 32.5671ZM44.3007 41.7471C41.4348 41.7471 38.8454 40.692 37.5332 38.9969C36.9735 38.277 36.6855 37.4611 36.6855 36.645C36.6855 35.2377 37.503 33.926 39.0056 32.9671C40.4292 32.039 42.3173 31.5432 44.3007 31.5432C46.284 31.5432 48.1697 32.0553 49.5934 32.9671C51.082 33.926 51.9134 35.2377 51.9134 36.645C51.9134 37.4611 51.6255 38.277 51.0658 38.9969C49.7536 40.692 47.1618 41.7471 44.3007 41.7471Z" fill="#00549E"/>
<path d="M9.49395 43.6193C9.30284 44.0028 9.19117 44.4026 9.19117 44.8188C9.19117 47.073 12.1502 48.8965 15.7813 48.8965C19.4124 48.8965 22.3715 47.0582 22.3715 44.8188C22.3715 44.4026 22.2748 44.0028 22.0665 43.6193C20.66 44.9942 18.3259 45.8426 15.7663 45.8426C13.2367 45.8426 10.9005 44.9942 9.49395 43.6193ZM15.7964 49.9219C13.7972 49.9219 11.9269 49.41 10.5032 48.4969C9.0151 47.5377 8.18408 46.2261 8.18408 44.8188C8.18408 44.0028 8.47182 43.1883 9.03228 42.4683C9.12676 42.3386 9.27062 42.2765 9.43167 42.2765C9.59057 42.2765 9.73444 42.3562 9.83106 42.4683C10.9348 43.8907 13.2711 44.8188 15.7813 44.8188C18.2915 44.8188 20.6429 43.8907 21.7316 42.4683C21.8282 42.3386 21.9721 42.2765 22.131 42.2765C22.292 42.2765 22.4337 42.3562 22.5304 42.4683C23.0908 43.1883 23.3786 44.0028 23.3786 44.8188C23.3786 46.2261 22.5626 47.5377 21.0594 48.4969C19.668 49.41 17.7955 49.9219 15.7964 49.9219Z" fill="#00549E"/>
<path d="M9.49395 47.6982C9.30284 48.0817 9.19117 48.4815 9.19117 48.8962C9.19117 51.1522 12.1502 52.9757 15.7813 52.9757C19.4124 52.9757 22.3715 51.1358 22.3715 48.8962C22.3715 48.4815 22.2748 48.0817 22.0665 47.6982C20.66 49.0733 18.3259 49.9215 15.7663 49.9215C13.2367 49.9215 10.9005 49.0894 9.49395 47.6982ZM15.7964 53.9995C13.7972 53.9995 11.9269 53.4876 10.5032 52.5771C9.0151 51.6168 8.18408 50.305 8.18408 48.8962C8.18408 48.0817 8.47182 47.2659 9.03228 46.5459C9.12676 46.419 9.27062 46.3542 9.43167 46.3542C9.59057 46.3542 9.73444 46.4351 9.83106 46.5459C10.9348 47.9696 13.2711 48.8962 15.7813 48.8962C18.2915 48.8962 20.6429 47.9696 21.7316 46.5459C21.8282 46.419 21.9721 46.3542 22.131 46.3542C22.292 46.3542 22.4337 46.4351 22.5304 46.5459C23.0908 47.2659 23.3786 48.0817 23.3786 48.8962C23.3786 50.305 22.5626 51.6168 21.0594 52.5771C19.668 53.5037 17.7955 53.9995 15.7964 53.9995Z" fill="#00549E"/>
<path d="M15.7966 36.6444C12.1673 36.6444 9.20795 38.4841 9.20795 40.7236C9.20795 41.3303 9.41628 41.9069 9.84793 42.4513C10.9518 43.8751 13.2861 44.8015 15.7966 44.8015C18.3264 44.8015 20.6607 43.8751 21.7474 42.4513C22.164 41.9069 22.3873 41.3152 22.3873 40.7236C22.3873 38.4841 19.4281 36.6444 15.7966 36.6444ZM15.7966 45.8418C12.9361 45.8418 10.344 44.7867 9.03187 43.0917C8.47136 42.3716 8.18359 41.5558 8.18359 40.7386C8.18359 39.3309 8.99965 38.0207 10.5029 37.0603C11.9267 36.1337 13.8144 35.6367 15.7966 35.6367C17.7809 35.6367 19.6686 36.1485 21.0924 37.0603C22.5806 38.0207 23.4117 39.3309 23.4117 40.7386C23.4117 41.5558 23.1218 42.3716 22.5634 43.0917C21.2685 44.7867 18.6614 45.8418 15.7966 45.8418Z" fill="#00549E"/>
<path d="M30.3053 14.4613C30.5116 14.4775 30.7045 14.4775 30.8974 14.4775C32.8958 14.4775 34.6072 13.821 35.8385 12.5889C37.182 11.2463 37.8369 9.29455 37.6777 7.05635C37.4691 7.03863 37.2785 7.03863 37.0856 7.03863C35.0871 7.03863 33.3736 7.69512 32.1444 8.92715C30.7987 10.2698 30.1438 12.2379 30.3053 14.4613ZM30.8974 15.5C30.5273 15.5 30.1438 15.4852 29.7759 15.4365C29.5359 15.404 29.3453 15.2284 29.3296 14.9893C29.0403 12.2689 29.7759 9.8537 31.4402 8.19103C32.8644 6.76724 34.8314 5.99994 37.1035 5.99994C37.4691 5.99994 37.8526 6.01474 38.2227 6.06342C38.4627 6.09594 38.6533 6.27156 38.669 6.512C38.9584 9.23107 38.2227 11.6462 36.5585 13.3089C35.1185 14.7488 33.1672 15.5 30.8974 15.5Z" fill="#00549E"/>
<path d="M21.8426 7.05666C21.698 9.29497 22.3531 11.2467 23.6984 12.5893C24.9297 13.8213 26.6387 14.4777 28.6412 14.4777C28.8319 14.4777 29.0378 14.4777 29.2328 14.4615C29.3752 12.2221 28.7201 10.2702 27.3748 8.91133C26.1457 7.67934 24.4323 7.02292 22.4342 7.02292C22.2435 7.03913 22.0507 7.03913 21.8426 7.05666ZM28.6412 15.5005C26.3692 15.5005 24.4017 14.7494 22.9775 13.3095C21.3146 11.6465 20.5784 9.23143 20.8676 6.51242C20.8983 6.27185 21.0736 6.08014 21.3146 6.06393C21.698 6.01529 22.0661 6.00038 22.4342 6.00038C24.7062 6.00038 26.6715 6.75145 28.0957 8.19136C29.7608 9.8541 30.4948 12.2694 30.2078 14.9898C30.1771 15.2288 29.9996 15.4207 29.7608 15.437C29.3752 15.4856 29.0071 15.5005 28.6412 15.5005Z" fill="#00549E"/>
<path d="M29.8237 24.3931C29.5346 24.3931 29.3113 24.1688 29.3113 23.881V14.9403C29.3113 14.6526 29.5346 14.4285 29.8237 14.4285C30.1128 14.4285 30.3362 14.6526 30.3362 14.9403V23.881C30.3362 24.1688 30.1128 24.3931 29.8237 24.3931Z" fill="#00549E"/>
<path d="M46.1068 15.7399C46.1068 15.6277 46.0609 15.5318 45.9645 15.4685C45.8682 15.4035 45.7397 15.34 45.5814 15.2927V16.1074C45.9324 16.0911 46.1068 15.964 46.1068 15.7399ZM44.7784 13.5652C44.7784 13.676 44.8105 13.7719 44.8931 13.8366C44.9734 13.9001 45.0835 13.9648 45.2441 14.0123V13.1802C44.939 13.1963 44.7784 13.3247 44.7784 13.5652ZM46.6666 13.6285C46.6505 13.6125 46.6207 13.5799 46.5564 13.5312C46.4922 13.4842 46.4119 13.4516 46.2995 13.4044C46.2031 13.3557 46.0769 13.3085 45.9645 13.2598C45.836 13.2126 45.7076 13.1802 45.5814 13.1653V14.0919L45.8039 14.1406C46.0265 14.2041 46.2513 14.2674 46.428 14.3487C46.6207 14.4283 46.779 14.5242 46.9075 14.6201C47.0359 14.7323 47.13 14.8591 47.2126 15.02C47.2906 15.1794 47.3227 15.3712 47.3227 15.5953C47.3227 15.8521 47.2745 16.0762 47.1782 16.2517C47.0841 16.4275 46.9717 16.5869 46.8111 16.6989C46.6505 16.8124 46.4922 16.907 46.2834 16.9556C46.0769 17.0029 45.8842 17.0515 45.6594 17.0515V17.835H45.196V17.0352C44.8771 17.0028 44.5719 16.9393 44.2668 16.8434C43.964 16.7475 43.6909 16.6193 43.4363 16.4435L43.9318 15.4685C43.9479 15.4845 43.9961 15.5318 44.0764 15.5804C44.1567 15.6277 44.253 15.6912 44.3815 15.7399C44.5077 15.8048 44.6362 15.8521 44.7968 15.9007C44.9551 15.9466 45.118 15.9952 45.274 16.0113V15.0996L44.9551 15.0037C44.7325 14.9401 44.5398 14.8591 44.3815 14.7795C44.2209 14.6999 44.0764 14.6038 43.98 14.5079C43.8699 14.3959 43.7896 14.2837 43.7414 14.1406C43.691 13.996 43.6611 13.8515 43.6611 13.6611C43.6611 13.4207 43.7093 13.2126 43.7896 13.0357C43.8699 12.8453 43.98 12.7005 44.1245 12.5576C44.2668 12.4291 44.4274 12.3169 44.6201 12.2536C44.8105 12.1726 45.0193 12.1237 45.2281 12.109V11.4215H45.6915V12.109C45.9806 12.1414 46.2674 12.2049 46.522 12.3008C46.779 12.4128 47.0015 12.5087 47.1942 12.6195L46.6666 13.6285Z" fill="#00549E"/>
<path d="M45.3733 10.0937C42.8457 10.0937 40.7816 12.1576 40.7816 14.6835C40.7816 17.2122 42.8457 19.2736 45.3733 19.2736C47.9008 19.2736 49.9626 17.2122 49.9626 14.6835C49.9626 12.1576 47.9008 10.0937 45.3733 10.0937ZM45.3733 20.3149C42.2689 20.3149 39.7576 17.7877 39.7576 14.7C39.7576 11.6132 42.2851 9.08612 45.3733 9.08612C48.4591 9.08612 50.9866 11.6132 50.9866 14.7C50.9866 17.7877 48.4591 20.3149 45.3733 20.3149Z" fill="#00549E"/>
<path d="M14.4521 26.9695C14.4521 26.8561 14.4059 26.7601 14.3093 26.6979C14.2148 26.633 14.0867 26.5684 13.9271 26.5196V27.337C14.2778 27.3206 14.4521 27.1923 14.4521 26.9695ZM13.127 24.7934C13.127 24.9055 13.1584 25.0013 13.2383 25.0647C13.3181 25.1296 13.4315 25.1932 13.589 25.2418V24.4097C13.2866 24.4246 13.127 24.5691 13.127 24.7934ZM15.0128 24.8568C14.9981 24.8406 14.9645 24.8096 14.9015 24.7609C14.8385 24.7136 14.7587 24.6813 14.6453 24.634C14.5487 24.5853 14.4227 24.538 14.3093 24.4895C14.1833 24.4408 14.0531 24.4097 13.9271 24.3935V25.3216L14.1497 25.3701C14.3744 25.4322 14.597 25.4971 14.7734 25.5767C14.9645 25.6565 15.1262 25.7523 15.2543 25.8482C15.3803 25.9619 15.4769 26.0887 15.5567 26.2481C15.6218 26.4087 15.6701 26.6007 15.6701 26.825C15.6701 27.0801 15.6218 27.3044 15.5252 27.48C15.4307 27.657 15.3173 27.8164 15.1577 27.9285C14.9981 28.0407 14.8385 28.1364 14.6306 28.1837C14.4374 28.2486 14.2295 28.2811 14.0069 28.2811V29.0645H13.526V28.2635C13.2068 28.2324 12.9022 28.1675 12.5977 28.0718C12.2953 27.9758 12.0223 27.8475 11.7661 27.6719L12.2638 26.6979C12.2785 26.7128 12.3247 26.7601 12.4045 26.8088C12.4864 26.8561 12.583 26.9207 12.7111 26.9695C12.8392 27.0329 12.9653 27.0801 13.127 27.1288C13.2866 27.1761 13.4462 27.2248 13.6058 27.241V26.4088L13.2865 26.313C13.0618 26.2481 12.8707 26.1685 12.7111 26.0887C12.5494 26.0091 12.4045 25.9131 12.31 25.8172C12.1987 25.705 12.1189 25.5931 12.0706 25.4499C12.0223 25.3052 11.9908 25.1607 11.9908 24.969C11.9908 24.73 12.037 24.5206 12.1189 24.3448C12.1987 24.1531 12.31 24.0099 12.4549 23.8667C12.5977 23.7371 12.7594 23.6262 12.9505 23.5613C13.1416 23.4817 13.3517 23.4332 13.5575 23.4183V22.7307H14.0216V23.4183C14.3093 23.4506 14.597 23.5128 14.8553 23.61C15.1094 23.7222 15.3341 23.8181 15.5252 23.9288L15.0128 24.8568Z" fill="#00549E"/>
<path d="M13.7007 21.3378C11.1749 21.3378 9.11183 23.4019 9.11183 25.9277C9.11183 28.4564 11.1749 30.5191 13.7007 30.5191C16.2286 30.5191 18.2916 28.4564 18.2916 25.9277C18.3086 23.3856 16.2456 21.3378 13.7007 21.3378ZM13.7007 31.543C10.5997 31.543 8.08667 29.0157 8.08667 25.9277C8.08667 22.8414 10.6146 20.3152 13.7007 20.3152C16.7889 20.3152 19.3168 22.8414 19.3168 25.9277C19.3317 29.0157 16.8038 31.543 13.7007 31.543Z" fill="#00549E"/>
</svg>
