<svg width="60" height="60" viewBox="0 0 60 60" fill="none" xmlns="http://www.w3.org/2000/svg">
<path d="M21.6608 51.6186C22.0098 51.9363 22.4555 52.1106 22.9173 52.1106C23.3629 52.1106 23.7925 51.9363 24.1092 51.6186L25.014 50.7617C24.5066 50.6491 24.0287 50.4116 23.6341 50.0617C23.6153 50.047 23.6153 50.047 23.6018 50.0309L21.293 47.664L15.9694 42.3462L11.3572 46.8865C11.0404 47.2042 10.8659 47.6332 10.8659 48.1094C10.8659 48.5853 11.0404 49.0145 11.3572 49.3309C11.6767 49.6488 12.1196 49.8244 12.5814 49.8244C13.0431 49.8244 13.4888 49.6488 13.8083 49.3309L15.9694 47.2364C16.1734 47.0461 16.4929 47.0461 16.6835 47.2512C16.8741 47.4589 16.8741 47.7756 16.6835 47.9673C16.015 48.6338 16.015 49.6649 16.6835 50.3311C17.0003 50.6491 17.446 50.8247 17.9077 50.8247C18.3695 50.8247 18.8151 50.6491 19.1319 50.3311L20.9306 48.5383C21.1346 48.3319 21.4541 48.3319 21.6447 48.5383C21.8354 48.7437 21.8515 49.0614 21.6447 49.2518C21.0246 49.8727 21.0246 50.9038 21.6608 51.6186ZM22.9173 53.127C22.2005 53.127 21.5025 52.8575 20.9602 52.3494C20.9441 52.3331 20.944 52.3331 20.9306 52.3159C20.5011 51.8572 20.2621 51.2845 20.1977 50.7135L19.8809 51.0312C19.3708 51.5395 18.6728 51.8237 17.9399 51.8237C17.2097 51.8237 16.509 51.5395 15.9989 51.0312C15.5398 50.57 15.2687 49.9826 15.2069 49.3952L14.5546 50.0309C14.0445 50.5392 13.3626 50.8247 12.6136 50.8247C11.8673 50.8247 11.1827 50.5392 10.6753 50.0309C10.1652 49.5212 9.87793 48.8241 9.87793 48.0933C9.87793 47.3463 10.1652 46.6637 10.6753 46.157L15.6499 41.2665C15.8566 41.0748 16.1734 41.0748 16.3667 41.2665L22.0582 46.9495L24.3482 49.3161C24.6972 49.6341 25.175 49.8083 25.6368 49.8083C25.8247 49.8083 26.0153 49.7775 26.1925 49.7132C26.4127 49.6341 26.6677 49.7132 26.7966 49.9196C26.9227 50.1261 26.8932 50.3955 26.716 50.5539L24.8395 52.3494C24.316 52.8414 23.6341 53.127 22.9173 53.127Z" fill="#00549E"/>
<path d="M33.792 47.5544C33.7454 47.9338 33.6168 48.3159 33.428 48.6499L34.1587 47.9029C34.1423 47.8868 34.1259 47.872 34.1259 47.872L33.792 47.5544ZM26.8429 50.5058C26.5419 51.1574 26.6842 51.9673 27.1932 52.4754C27.5135 52.7933 27.9569 52.9676 28.4167 52.9676C28.8792 52.9676 29.3226 52.7933 29.6428 52.4754L32.5357 49.5549C32.0896 49.8244 31.5833 49.9665 31.0578 49.9665C30.3435 49.9665 29.6592 49.6809 29.1337 49.1728L28.2743 48.3159C28.2278 48.9517 27.9568 49.5549 27.4806 50.031C27.3848 50.1423 27.1303 50.365 26.8429 50.5058ZM28.4358 54C27.6859 54 27.0017 53.7144 26.4953 53.2063C25.6195 52.3333 25.4279 50.9188 26.0492 49.8566C26.1122 49.744 26.2079 49.665 26.3338 49.6342C26.4488 49.6019 26.6705 49.4436 26.78 49.331C27.4505 48.6647 27.4642 47.6011 26.8265 46.8544C26.6541 46.6492 26.6705 46.3313 26.8758 46.1572C27.0838 45.9666 27.3848 45.9814 27.5764 46.1719L29.8809 48.4741C30.1984 48.792 30.6281 48.9678 31.0742 48.9678C31.5203 48.9678 31.9637 48.792 32.3305 48.4741C32.9654 47.7755 32.9654 46.7284 32.3305 46.1088C32.1225 45.9024 32.1225 45.5845 32.3305 45.394C32.5357 45.1877 32.8532 45.1877 33.0448 45.394L34.8402 47.1882C34.936 47.2835 35.0647 47.4109 35.144 47.459C35.2891 47.5369 35.3986 47.6643 35.415 47.8239C35.4451 47.9822 35.3821 48.1415 35.2699 48.2678L30.3736 53.221C29.8645 53.7144 29.1666 54 28.4358 54Z" fill="#00549E"/>
<path d="M14.2672 39.2033L22.0254 46.9511L24.3286 49.3324C24.6469 49.6502 25.0768 49.8258 25.5542 49.8258C26.0316 49.8258 26.4615 49.6502 26.7798 49.3324C27.447 48.666 27.461 47.6027 26.8244 46.8558C26.6514 46.6506 26.6681 46.3328 26.8747 46.1585C27.0813 45.9829 27.3828 45.9829 27.5726 46.1733L29.8786 48.4756C30.1968 48.7934 30.6268 48.9691 31.0707 48.9691C31.5173 48.9691 31.9612 48.7934 32.3269 48.4756C32.9635 47.7769 32.9635 46.7459 32.3269 46.1103C32.1204 45.9037 32.1204 45.5858 32.3269 45.3954C32.5335 45.1891 32.8518 45.1891 33.0416 45.3954L34.8395 47.1895C35.1578 47.5073 35.6016 47.6819 36.0623 47.6819C36.5257 47.6819 36.9696 47.5073 37.2879 47.1895C37.6061 46.872 37.782 46.4429 37.782 45.999C37.782 45.5538 37.6061 45.142 37.2879 44.8069C37.098 44.6179 37.0813 44.2838 37.2879 44.0934C37.4777 43.8868 37.8127 43.8868 38.0025 44.0787L40.1661 46.1585C40.5012 46.4911 40.9283 46.6654 41.3889 46.6654C41.8524 46.6654 42.2962 46.4911 42.6145 46.1733C43.2817 45.5067 43.2817 44.3951 42.6145 43.7274L40.8166 41.9815L28.4157 29.6117C28.1952 29.6761 27.9551 29.7402 27.7318 29.8033C26.1125 30.2471 24.4235 30.7085 22.8992 30.7085C21.9445 30.7085 21.1349 30.5343 20.4509 30.1682C20.3392 30.1373 20.2443 30.0728 20.1326 30.0098L13.5497 36.6475L14.2672 39.2033ZM25.5402 50.8262C24.7921 50.8262 24.1081 50.5407 23.6 50.0324L21.2912 47.6509L13.4548 39.8228C13.3906 39.7584 13.3431 39.6792 13.3264 39.6L12.4861 36.6299C12.4358 36.4557 12.4861 36.2653 12.6117 36.1379L19.7195 28.9627C19.8144 28.8662 19.9428 28.8191 20.0852 28.8032C20.2275 28.8032 20.356 28.85 20.4509 28.9451C20.5458 29.0418 20.7049 29.1369 20.8334 29.184C20.8641 29.1999 20.8976 29.1999 20.9115 29.2161C21.4531 29.5164 22.1036 29.6599 22.8992 29.6599C24.2979 29.6599 25.906 29.2161 27.461 28.7884C27.796 28.6917 28.1282 28.6114 28.4464 28.5174C28.6223 28.4706 28.8122 28.5174 28.9406 28.6448L41.5341 41.2198L43.3292 42.935C44.3789 43.9822 44.3789 45.7601 43.3292 46.8248C42.8211 47.3331 42.1232 47.6189 41.3889 47.6189C40.6408 47.6189 39.9596 47.3331 39.4515 46.8248L38.7982 46.1892C38.734 46.8089 38.4632 47.3813 38.0193 47.8252C37.5084 48.3334 36.8105 48.6192 36.0791 48.6192C35.3476 48.6192 34.6497 48.3334 34.1416 47.8252L33.8233 47.5073C33.7591 48.0786 33.5051 48.6513 33.0919 49.1113C33.0751 49.1272 33.0751 49.1272 33.0612 49.1433C32.5196 49.6502 31.8189 49.9212 31.1042 49.9212C30.3867 49.9212 29.7055 49.6354 29.1807 49.1272L28.3208 48.269C28.2733 48.9047 28.0026 49.508 27.528 49.9842C26.9696 50.5555 26.2856 50.8262 25.5402 50.8262Z" fill="#00549E"/>
<path d="M12.6906 31.1995C12.6308 31.1995 12.5657 31.2315 12.5163 31.2798C12.4695 31.3256 12.4382 31.3898 12.4382 31.4542C12.4382 31.5173 12.4695 31.5802 12.5163 31.6286C12.6126 31.7237 12.7895 31.7237 12.8832 31.6286C12.93 31.5802 12.9638 31.5173 12.9638 31.4542C12.9638 31.3898 12.93 31.3256 12.8832 31.2798C12.8181 31.2154 12.7557 31.1995 12.6906 31.1995ZM12.6906 32.2158C12.4851 32.2158 12.2951 32.1368 12.152 31.9931C12.0089 31.851 11.9282 31.6595 11.9282 31.4542C11.9282 31.2463 12.0089 31.0561 12.152 30.9137C12.2951 30.7716 12.4851 30.6913 12.6906 30.6913C12.8988 30.6913 13.0913 30.7716 13.2319 30.9137C13.3776 31.0561 13.4556 31.2463 13.4556 31.4542C13.4556 31.6595 13.3776 31.851 13.2319 31.9931C13.0913 32.1368 12.8988 32.2158 12.6906 32.2158Z" fill="#00549E"/>
<path d="M28.5762 28.5322C28.7024 28.5322 28.8482 28.5804 28.9435 28.6756L41.1835 40.9021L44.6018 37.5525L45.286 34.9471L34.2377 23.9113L33.632 24.2292C33.489 24.3096 33.3152 24.3096 33.1553 24.2292C32.1851 23.7372 31.3579 23.4997 30.612 23.4997C29.4651 23.4997 28.7023 24.0872 27.9088 24.7066C27.1292 25.2939 26.3329 25.9133 25.2056 25.9441C21.6107 26.1038 20.1161 27.0881 19.9422 27.8831C19.8329 28.3578 20.1974 28.8501 20.8984 29.2321C21.4368 29.5339 22.0902 29.6759 22.9006 29.6759C24.2999 29.6759 25.9066 29.2321 27.4629 28.803C27.7966 28.7078 28.1303 28.6289 28.4472 28.5322C28.4808 28.5322 28.5285 28.5322 28.5762 28.5322ZM41.1695 42.125C41.0405 42.125 40.9144 42.0768 40.8022 41.9816L28.4163 29.6115C28.1948 29.6759 27.9564 29.7403 27.7181 29.8033C26.0945 30.2472 24.412 30.7084 22.8838 30.7084C21.8995 30.7084 21.0891 30.5169 20.4049 30.1371C19.2917 29.5499 18.7337 28.5966 18.9412 27.6753C19.2917 26.1038 21.5658 25.1035 25.1579 24.9452C25.9683 24.9293 26.574 24.4518 27.2891 23.9113C28.1471 23.2449 29.1314 22.4994 30.626 22.4994C31.47 22.4994 32.3758 22.7369 33.3937 23.2289L34.0919 22.8494C34.2826 22.7369 34.5378 22.785 34.6976 22.9447L46.2254 34.455C46.3516 34.5825 46.3992 34.7729 46.3516 34.9471L45.558 37.9656C45.5412 38.0608 45.4935 38.1398 45.415 38.2017L41.5172 42.0138C41.4219 42.0768 41.2957 42.125 41.1695 42.125Z" fill="#00549E"/>
<path d="M34.9043 23.1346L46.9245 35.1369L51.7411 30.3271L39.7238 18.3233L34.9043 23.1346ZM46.9245 36.376C46.7965 36.376 46.6713 36.3291 46.5603 36.2339L33.8232 23.4991C33.6156 23.2928 33.6156 22.9749 33.8232 22.7845L39.371 17.2439C39.4677 17.1488 39.5958 17.1005 39.738 17.1005C39.8803 17.1005 40.0083 17.1488 40.105 17.2439L52.8563 29.9773C53.0612 30.1836 53.0612 30.5015 52.8563 30.6919L47.3057 36.2339C47.1948 36.3291 47.0667 36.376 46.9245 36.376Z" fill="#00549E"/>
<path d="M46.6385 30.0577C46.5907 30.1032 46.5739 30.1675 46.5739 30.2467C46.5739 30.3273 46.6048 30.3902 46.6554 30.4545C46.765 30.5645 46.9253 30.5805 47.0349 30.4853L46.7032 30.1032L47.0659 30.4693C47.1137 30.4211 47.1474 30.3419 47.1474 30.263C47.1474 30.1838 47.1137 30.1206 47.0659 30.0577C47.0209 30.0094 46.9393 29.9772 46.8606 29.9772C46.7819 29.9626 46.7032 29.9934 46.6385 30.0577ZM46.8606 30.9775C46.6694 30.9775 46.4783 30.8984 46.3349 30.7549C46.1915 30.6128 46.1128 30.4385 46.1128 30.2318C46.1128 30.0415 46.1915 29.85 46.3349 29.7076C46.3517 29.6916 46.3518 29.6916 46.3686 29.6756C46.512 29.5641 46.6863 29.5013 46.8606 29.5013C47.0518 29.5013 47.243 29.5804 47.3695 29.7076C47.5129 29.85 47.5916 30.024 47.5916 30.2318C47.5916 30.4211 47.5129 30.5968 47.3835 30.7389C47.257 30.8984 47.0659 30.9775 46.8606 30.9775Z" fill="#00549E"/>
<path d="M7.76561 31.3415L12.5815 36.1539L12.5976 36.1365L19.3555 29.3259C18.9269 28.7869 18.7822 28.1661 18.9724 27.564C19.1974 26.8332 20.1027 25.546 23.633 25.1183L23.8526 24.8487C23.8714 24.8326 23.8714 24.8326 23.8875 24.8152L24.1071 24.594C24.1419 24.5619 24.1874 24.5309 24.2357 24.4988L24.616 24.1019L19.784 19.2744L7.76561 31.3415ZM12.5815 37.3916C12.4396 37.3916 12.311 37.3435 12.2173 37.2482L6.68349 31.6914C6.47725 31.4849 6.47725 31.1671 6.68349 30.9766L19.4331 18.1791C19.5295 18.0838 19.6581 18.0354 19.8001 18.0354C19.942 18.0354 20.0706 18.0838 20.1643 18.1791L25.7142 23.721C25.9044 23.9101 25.9205 24.2278 25.7303 24.4357L24.8866 25.3248C24.8383 25.3716 24.7928 25.4037 24.7285 25.4361L24.6482 25.5153L24.3 25.9283C24.2196 26.0235 24.0937 26.0864 23.9651 26.1024C21.3268 26.3881 20.1644 27.1981 19.9742 27.8644C19.8322 28.3405 20.1965 28.7535 20.4349 28.944C20.5474 29.0405 20.609 29.1665 20.609 29.3099C20.609 29.4535 20.5635 29.5956 20.467 29.6908L12.9806 37.2335C12.8521 37.3287 12.7262 37.3916 12.5815 37.3916Z" fill="#00549E"/>
<path d="M9.57633 16.2574C8.7333 16.2574 8.04852 16.94 8.04852 17.7822C8.04852 18.6243 8.7333 19.3066 9.57633 19.3066C10.4168 19.3066 11.1016 18.6243 11.1016 17.7822C11.1171 16.94 10.4349 16.2574 9.57633 16.2574ZM9.57633 20.3379C8.16004 20.3379 7.01611 19.1955 7.01611 17.7822C7.01611 16.3688 8.16004 15.2251 9.57633 15.2251C10.99 15.2251 12.1365 16.3688 12.1365 17.7822C12.1365 19.1955 10.99 20.3379 9.57633 20.3379Z" fill="#00549E"/>
<path d="M49.911 9.11262C48.7846 9.11262 47.8772 10.0353 47.8772 11.1454C47.8772 12.2746 48.7988 13.1796 49.911 13.1796C51.0403 13.1796 51.9477 12.257 51.9477 11.1454C51.9619 10.0353 51.0403 9.11262 49.911 9.11262ZM49.911 14.2256C48.2271 14.2256 46.8418 12.8618 46.8418 11.1616C46.8418 9.47878 48.21 8.09764 49.911 8.09764C51.5978 8.09764 52.9802 9.46401 52.9802 11.1616C52.9802 12.8618 51.612 14.2256 49.911 14.2256Z" fill="#00549E"/>
<path d="M53.4924 48.8877H46.337C46.0519 48.8877 45.8267 48.6651 45.8267 48.3795C45.8267 48.0937 46.0519 47.8725 46.337 47.8725H53.4924C53.7775 47.8725 53.9998 48.0937 53.9998 48.3795C53.9998 48.6651 53.7775 48.8877 53.4924 48.8877Z" fill="#00549E"/>
<path d="M53.4924 51.9531H46.337C46.0519 51.9531 45.8267 51.7291 45.8267 51.4449C45.8267 51.158 46.0519 50.9368 46.337 50.9368H53.4924C53.7775 50.9368 53.9998 51.158 53.9998 51.4449C53.9998 51.7291 53.7775 51.9531 53.4924 51.9531Z" fill="#00549E"/>
<path d="M9.43475 38.6934H6.50838C6.22193 38.6934 6 38.4707 6 38.1851C6 37.8993 6.22193 37.6769 6.50838 37.6769H9.43475C9.71862 37.6769 9.94313 37.8993 9.94313 38.1851C9.95862 38.4707 9.71862 38.6934 9.43475 38.6934Z" fill="#00549E"/>
<path d="M9.43475 41.7588H6.50838C6.22193 41.7588 6 41.5361 6 41.2493C6 40.9637 6.22193 40.7411 6.50838 40.7411H9.43475C9.71862 40.7411 9.94313 40.9637 9.94313 41.2493C9.95862 41.5201 9.71862 41.7588 9.43475 41.7588Z" fill="#00549E"/>
<path d="M24.3179 11.0656H33.9345L29.118 7.22244L24.3179 11.0656ZM35.3975 12.082H22.8521C22.6302 12.082 22.4384 11.9397 22.3754 11.7482C22.296 11.543 22.3754 11.3203 22.5343 11.1769L28.8001 6.17534C28.9919 6.03306 29.244 6.03306 29.4358 6.17534L35.6687 11.1608C35.7948 11.256 35.8907 11.3994 35.8907 11.5739C35.9071 11.8607 35.6852 12.082 35.3975 12.082Z" fill="#00549E"/>
<path d="M31.4075 18.3069H33.615V12.0823H24.6157V18.2908H26.9406V16.7662C26.9406 15.5433 27.9406 14.5281 29.1645 14.5281C30.3885 14.5281 31.4075 15.5286 31.4075 16.7662V18.3069ZM34.1424 19.3232H30.8966C30.6125 19.3232 30.3885 19.1006 30.3885 18.8149V16.7662C30.3885 16.0996 29.8503 15.5591 29.1809 15.5591C28.5116 15.5591 27.9706 16.0996 27.9706 16.7662V18.7988C27.9706 19.0845 27.7493 19.3071 27.4625 19.3071H24.1239C23.837 19.3071 23.6157 19.0845 23.6157 18.7988V11.574C23.6157 11.2887 23.837 11.066 24.1239 11.066H34.1424C34.4265 11.066 34.6505 11.2887 34.6505 11.574V18.7988C34.6505 19.0845 34.4265 19.3232 34.1424 19.3232Z" fill="#00549E"/>
</svg>
