<svg width="60" height="60" viewBox="0 0 60 60" fill="none" xmlns="http://www.w3.org/2000/svg">
<path d="M12.2731 41.4687H41.4855V37.3043H12.2731V41.4687ZM41.9918 42.5156H11.7499C11.4557 42.5156 11.2273 42.2851 11.2273 41.9911V36.7798C11.2273 36.4859 11.4557 36.2574 11.7499 36.2574H41.9918C42.286 36.2574 42.5144 36.4859 42.5144 36.7798V41.9911C42.5144 42.2851 42.286 42.5156 41.9918 42.5156Z" fill="#00549E"/>
<path d="M17.3538 52.9544H36.3718L39.2145 42.531H14.5109L17.3538 52.9544ZM36.7796 54H16.962C16.7335 54 16.521 53.8375 16.4554 53.6084L13.3351 42.1394C13.2861 41.9749 13.3182 41.8124 13.4168 41.6812C13.5147 41.552 13.6615 41.4687 13.825 41.4687H39.9008C40.0641 41.4687 40.211 41.552 40.3089 41.6812C40.4072 41.8124 40.4395 41.9749 40.3905 42.1394L37.2864 53.6084C37.2214 53.8375 37.009 54 36.7796 54Z" fill="#00549E"/>
<path d="M49.2956 53.999H10.7049C10.4107 53.999 10.1816 53.7716 10.1816 53.4758C10.1816 53.1819 10.4107 52.9545 10.7049 52.9545H49.2956C49.5896 52.9545 49.8181 53.1819 49.8181 53.4758C49.8181 53.7555 49.5896 53.999 49.2956 53.999Z" fill="#00549E"/>
<path d="M36.7798 49.8169H20.0991C19.8048 49.8169 19.5757 49.5886 19.5757 49.2951C19.5757 49.0016 19.8048 48.7733 20.0991 48.7733H36.7798C37.0739 48.7733 37.303 49.0016 37.303 49.2951C37.303 49.5886 37.0739 49.8169 36.7798 49.8169Z" fill="#00549E"/>
<path d="M28.4641 15.3437C28.4641 15.1818 28.3984 15.0335 28.2518 14.9537C28.1204 14.8556 27.9247 14.7712 27.6962 14.6914V15.8842C28.2027 15.85 28.4641 15.6721 28.4641 15.3437ZM26.5524 12.2077C26.5524 12.3719 26.6174 12.5019 26.7321 12.6C26.8466 12.698 27.0263 12.7801 27.2546 12.844V11.6352C26.7811 11.6694 26.5524 11.8656 26.5524 12.2077ZM29.2809 12.2898C29.2647 12.2556 29.1992 12.2236 29.1014 12.1598C29.0028 12.0913 28.8888 12.0275 28.7415 11.9636C28.5948 11.8975 28.4313 11.8313 28.2518 11.7675C28.0714 11.7013 27.8919 11.6512 27.6962 11.6352V12.9763L28.0064 13.0561C28.3496 13.1542 28.6436 13.2545 28.921 13.3503C29.1992 13.4644 29.4275 13.5967 29.6077 13.7609C29.7874 13.9228 29.9341 14.1189 30.0486 14.3493C30.1464 14.5774 30.1954 14.8556 30.1954 15.1818C30.1954 15.5581 30.1304 15.8843 29.9997 16.1443C29.8691 16.4065 29.6889 16.6187 29.477 16.7988C29.248 16.9608 29.0028 17.0931 28.7086 17.1752C28.4144 17.2573 28.1204 17.3052 27.8102 17.3211V18.4661H27.1242V17.3052C26.6664 17.271 26.2256 17.1752 25.768 17.0269C25.3269 16.8809 24.9184 16.6848 24.5752 16.4544L25.2943 15.0518C25.3269 15.0837 25.3922 15.1316 25.5067 15.2137C25.6211 15.2958 25.768 15.362 25.9482 15.46C26.1277 15.5399 26.3234 15.6242 26.5524 15.7041C26.7811 15.7862 27.0095 15.8341 27.2387 15.8683V14.5591L26.765 14.4291C26.4379 14.3311 26.1599 14.217 25.9313 14.103C25.703 13.9889 25.4907 13.8589 25.3431 13.7107C25.1965 13.5624 25.0658 13.3846 25.0001 13.1884C24.9184 12.9923 24.8854 12.7619 24.8854 12.5019C24.8854 12.1598 24.9511 11.8473 25.0658 11.5873C25.1796 11.325 25.3431 11.0969 25.5395 10.9008C25.735 10.7046 25.9804 10.5564 26.2584 10.4446C26.5357 10.3283 26.83 10.2622 27.1401 10.2303V9.23356H27.8269V10.2303C28.2518 10.2622 28.6598 10.3625 29.0357 10.5245C29.4115 10.6727 29.7384 10.8347 30.0157 10.9829L29.2809 12.2898Z" fill="#00549E"/>
<path d="M12.6653 22.4839C12.2567 22.0749 12.2567 21.4205 12.6653 21.0136C13.0741 20.6046 13.7275 20.6046 14.1361 21.0136C14.544 21.4205 14.544 22.0749 14.1361 22.4839C13.7275 22.8908 13.0741 22.8908 12.6653 22.4839Z" fill="#00549E"/>
<path d="M11.0152 32.3013C10.6066 31.8926 10.6066 31.241 11.0152 30.8302C11.4241 30.4237 12.0773 30.4237 12.4859 30.8302C12.8941 31.241 12.8941 31.8926 12.4859 32.3013C12.0773 32.7121 11.4241 32.7121 11.0152 32.3013Z" fill="#00549E"/>
<path d="M41.2572 16.6491C40.8485 16.2425 40.8485 15.5887 41.2572 15.1797C41.6652 14.7708 42.319 14.7708 42.7273 15.1797C43.136 15.5887 43.136 16.2425 42.7273 16.6491C42.319 17.058 41.6652 17.058 41.2572 16.6491Z" fill="#00549E"/>
<path d="M16.2269 16.6491C15.8182 16.2425 15.8182 15.5887 16.2269 15.1797C16.6349 14.7708 17.289 14.7708 17.697 15.1797C18.1057 15.5887 18.1057 16.2425 17.697 16.6491C17.289 17.058 16.6349 17.058 16.2269 16.6491Z" fill="#00549E"/>
<path d="M38.1363 30.2125C37.728 29.8036 37.728 29.1502 38.1363 28.7413C38.545 28.3324 39.1982 28.3324 39.6069 28.7413C40.0151 29.1502 40.0151 29.8036 39.6069 30.2125C39.1982 30.6193 38.5283 30.6193 38.1363 30.2125Z" fill="#00549E"/>
<path d="M27.3853 7.06279C23.6441 7.06279 20.6054 10.0996 20.6054 13.8403C20.6054 17.5834 23.6441 20.6225 27.3853 20.6225C31.1267 20.6225 34.1661 17.5834 34.1661 13.8403C34.1661 10.0996 31.1267 7.06279 27.3853 7.06279ZM27.3853 21.6509C23.0726 21.6509 19.5596 18.1402 19.5596 13.8266C19.5596 9.51293 23.0726 5.99991 27.3853 5.99991C31.6989 5.99991 35.2112 9.51293 35.2112 13.8266C35.2112 18.1563 31.6989 21.6509 27.3853 21.6509Z" fill="#00549E"/>
<path d="M27.3857 37.3018C27.0917 37.3018 26.8633 37.074 26.8633 36.7799V21.1283C26.8633 20.8343 27.0917 20.6043 27.3857 20.6043C27.6798 20.6043 27.9084 20.8343 27.9084 21.1283V36.7799C27.9084 37.074 27.6798 37.3018 27.3857 37.3018Z" fill="#00549E"/>
<path d="M27.9412 28.954H31.5687C33.9862 28.954 35.9796 27.1239 36.2416 24.7875H32.614C30.1961 24.7875 28.2033 26.6154 27.9412 28.954ZM31.5687 29.9995H27.3858C27.0917 29.9995 26.8633 29.7694 26.8633 29.4757C26.8633 26.3064 29.4447 23.7421 32.598 23.7421H36.7641C37.0584 23.7421 37.2868 23.97 37.2868 24.2637C37.3035 27.433 34.7218 29.9995 31.5687 29.9995Z" fill="#00549E"/>
<path d="M18.5634 27.9244C18.8247 30.262 20.818 32.0913 23.236 32.0913H26.863C26.6016 29.7558 24.6082 27.9244 22.1902 27.9244H18.5634ZM27.4022 33.1362C27.3855 33.1362 27.3855 33.1362 27.4022 33.1362H23.236C20.0663 33.1362 17.5015 30.5553 17.5015 27.403C17.5015 27.1075 17.7298 26.8794 18.024 26.8794H22.1902C25.3431 26.8794 27.8921 29.4278 27.9249 32.5649C27.9249 32.5801 27.9249 32.5975 27.9249 32.6127C27.9082 32.8929 27.6796 33.1362 27.4022 33.1362Z" fill="#00549E"/>
</svg>
