<svg width="60" height="60" viewBox="0 0 60 60" fill="none" xmlns="http://www.w3.org/2000/svg">
<path d="M9.60332 40.7255L14.2719 48.8117L17.1669 47.7979C17.2819 47.7518 17.404 47.7589 17.506 47.8011L33.8762 52.8546L49.4821 43.8445C50.557 43.2239 50.9212 41.8569 50.3005 40.782C49.6799 39.707 48.3169 39.3439 47.242 39.9646L36.4241 46.2103C36.2094 46.4927 35.946 46.7257 35.6397 46.9194C34.8681 47.4054 33.9169 47.5161 33.0677 47.2544L23.5551 44.248C23.2631 44.1569 23.106 43.8497 23.196 43.5616C23.2871 43.2696 23.5943 43.1125 23.8863 43.2035L33.3886 46.1923C33.9473 46.3655 34.5617 46.2906 35.0613 45.9819C35.2106 45.8958 35.3423 45.7793 35.45 45.6563C35.481 45.5406 35.5585 45.4352 35.6799 45.3651C35.8426 45.1329 35.9424 44.8561 35.9792 44.5752C36.1308 43.6345 35.5724 42.7023 34.674 42.3846C34.674 42.3846 34.674 42.3846 34.6653 42.3694L17.9728 35.8934L9.60332 40.7255ZM13.5392 49.7507L8.37123 40.7995C8.21644 40.5314 8.30489 40.1997 8.573 40.0449L17.6608 34.7981C17.8101 34.7119 17.979 34.695 18.1366 34.7635L35.0668 41.3417C36.4017 41.8256 37.2274 43.1564 37.0963 44.5474L46.69 39.0085C48.2885 38.0856 50.3366 38.6365 51.2566 40.23C52.1795 41.8285 51.6311 43.8752 50.0326 44.7981L34.2168 53.9293C34.0827 54.0067 33.9288 54.0147 33.7881 53.9812L17.3726 48.9135L14.2262 50.0117C13.9534 50.0883 13.6692 49.9758 13.5392 49.7507Z" fill="#00549E"/>
<path d="M16.8516 48.5969L13.7751 43.2684C13.6202 42.9999 13.7101 42.6717 13.9785 42.5168C14.2469 42.3618 14.5761 42.448 14.7311 42.7164L17.8076 48.045C17.9625 48.3134 17.8726 48.6416 17.6042 48.7966C17.3499 48.9434 17.0066 48.8654 16.8516 48.5969Z" fill="#00549E"/>
<path d="M31.718 22.0068C31.718 21.8161 31.632 21.6607 31.4763 21.558C31.3208 21.4554 31.1141 21.3527 30.8565 21.2647V22.608C31.4414 22.5758 31.718 22.3851 31.718 22.0068ZM29.5631 18.4579C29.5631 18.6456 29.6329 18.7834 29.7538 18.9066C29.8904 19.0093 30.0796 19.1119 30.3386 19.197V17.8185C29.8221 17.8537 29.5631 18.0766 29.5631 18.4579ZM32.6477 18.5605C32.6304 18.5253 32.5621 18.4755 32.4585 18.4227C32.3553 18.3523 32.2172 18.2848 32.0438 18.1998C31.8722 18.1118 31.6831 18.0443 31.4939 17.9739C31.2859 17.9065 31.0806 17.8537 30.8727 17.8185V19.3349L31.2349 19.4228C31.6133 19.5255 31.9582 19.6457 32.2693 19.766C32.5794 19.8862 32.8369 20.0417 33.0434 20.2323C33.2516 20.42 33.4217 20.6283 33.5449 20.904C33.6622 21.1621 33.715 21.473 33.715 21.8337C33.715 22.2649 33.6476 22.6256 33.4921 22.9189C33.3367 23.2122 33.146 23.4527 32.8894 23.6434C32.6477 23.8311 32.3553 23.9719 32.028 24.0745C31.6992 24.1772 31.3557 24.23 31.0108 24.2476V25.5381H30.2353V24.23C29.7188 24.1772 29.2182 24.0745 28.719 23.9191C28.2198 23.7636 27.7717 23.5407 27.3584 23.265L28.1676 21.6607C28.2025 21.6959 28.2708 21.7663 28.4093 21.8513C28.5474 21.9364 28.7017 22.0244 28.9082 22.127C29.1164 22.2121 29.339 22.3177 29.598 22.4027C29.8555 22.4878 30.1145 22.5582 30.3735 22.5934V21.1093L29.8394 20.9538C29.4772 20.8512 29.1499 20.7133 28.8923 20.5931C28.6158 20.4552 28.4093 20.3174 28.2198 20.1443C28.0468 19.9742 27.9101 19.7836 27.8227 19.5607C27.7368 19.3348 27.7018 19.0767 27.7018 18.7834C27.7018 18.4051 27.7716 18.0619 27.9101 17.7511C28.0468 17.4578 28.2198 17.1996 28.4442 16.9767C28.668 16.7509 28.9431 16.5955 29.2531 16.4752C29.5631 16.355 29.8904 16.2699 30.2526 16.2347V15.1143H31.0284V16.2347C31.51 16.2846 31.9582 16.3901 32.3887 16.5602C32.821 16.7333 33.1812 16.9063 33.4921 17.0794L32.6477 18.5605Z" fill="#00549E"/>
<path d="M30.5118 7.10281C23.2408 7.10281 17.3126 13.0298 17.3126 20.3017C17.3126 27.5707 23.2408 33.4977 30.5118 33.4977C37.7829 33.4977 43.7108 27.5707 43.7108 20.3017C43.7108 13.0298 37.7829 7.10281 30.5118 7.10281ZM30.5118 34.6006C22.6194 34.6006 16.2097 28.1924 16.2097 20.3017C16.2097 12.4081 22.6194 5.9999 30.5118 5.9999C38.4028 5.9999 44.8137 12.4081 44.8137 20.3017C44.8137 28.1924 38.4028 34.6006 30.5118 34.6006Z" fill="#00549E"/>
<path d="M30.5104 12.5999C26.2703 12.5999 22.8087 16.0456 22.8087 20.304C22.8087 24.5417 26.2544 28.0051 30.5104 28.0051C34.7652 28.0051 38.2116 24.5594 38.2116 20.304C38.2116 16.0456 34.7478 12.5999 30.5104 12.5999ZM30.5104 29.1074C25.6518 29.1074 21.7058 25.1623 21.7058 20.304C21.7058 15.4428 25.6518 11.4976 30.5104 11.4976C35.3687 11.4976 39.3138 15.4428 39.3138 20.304C39.3138 25.1623 35.3687 29.1074 30.5104 29.1074Z" fill="#00549E"/>
</svg>
