<svg width="60" height="60" viewBox="0 0 60 60" fill="none" xmlns="http://www.w3.org/2000/svg">
<path d="M15.398 27.3683C14.503 27.3683 13.7778 28.0958 13.7778 28.9885C13.7778 29.8835 14.503 30.6088 15.398 30.6088C16.293 30.6088 17.0183 29.8835 17.0183 28.9885C17.0183 28.0958 16.293 27.3683 15.398 27.3683ZM15.398 31.6897C13.8971 31.6897 12.683 30.4734 12.683 28.9725C12.683 27.4715 13.8971 26.2552 15.398 26.2552C16.9012 26.2552 18.1153 27.4715 18.1153 28.9725C18.1153 30.4734 16.8828 31.6897 15.398 31.6897Z" fill="#00549E"/>
<path d="M47.4302 8.09714C45.9284 8.09714 44.7123 9.31322 44.7123 10.815C44.7123 12.3168 45.9284 13.5329 47.4302 13.5329C48.932 13.5329 50.1481 12.3168 50.1481 10.815C50.1481 9.31322 48.932 8.09714 47.4302 8.09714ZM47.4302 14.6121C45.338 14.6121 43.6331 12.9072 43.6331 10.815C43.6331 8.72053 45.338 7.01801 47.4302 7.01801C49.5223 7.01801 51.2295 8.72053 51.2295 10.815C51.2295 12.9072 49.5223 14.6121 47.4302 14.6121Z" fill="#00549E"/>
<path d="M32.5301 11.8942C27.0093 11.8942 22.5039 16.3831 22.5039 21.9204C22.5039 27.4554 26.9927 31.9443 32.5301 31.9443C38.0651 31.9443 42.554 27.4554 42.554 21.9204C42.554 16.402 38.0462 11.8942 32.5301 11.8942ZM32.5301 33.0234C26.4024 33.0234 21.4224 28.0457 21.4224 21.9204C21.4224 15.7928 26.4024 10.8151 32.5301 10.8151C38.6554 10.8151 43.6331 15.7928 43.6331 21.9204C43.6331 28.0457 38.6554 33.0234 32.5301 33.0234Z" fill="#00549E"/>
<path d="M33.8965 23.8436C33.8965 23.6247 33.8103 23.4546 33.6263 23.3381C33.4562 23.2193 33.221 23.1005 32.9182 23.0004V24.5028C33.575 24.4679 33.8965 24.2489 33.8965 23.8436ZM31.467 19.8418C31.467 20.0468 31.5322 20.2145 31.6836 20.3333C31.8373 20.4521 32.0563 20.5709 32.3428 20.6547V19.1197C31.7535 19.1686 31.467 19.4225 31.467 19.8418ZM34.926 19.9629C34.9074 19.928 34.8236 19.8767 34.7048 19.7929C34.5883 19.7253 34.4345 19.6415 34.2505 19.5553C34.0642 19.4714 33.8452 19.3876 33.6263 19.3037C33.3887 19.2175 33.1697 19.1686 32.9344 19.1337V20.8388L33.3398 20.9413C33.7614 21.0577 34.1481 21.1765 34.4858 21.3302C34.8236 21.463 35.1287 21.6331 35.364 21.8357C35.6016 22.0384 35.7856 22.2923 35.9207 22.5788C36.0558 22.8653 36.1233 23.2193 36.1233 23.6246C36.1233 24.0975 36.0395 24.5028 35.8694 24.8406C35.7017 25.1783 35.4828 25.4462 35.1963 25.6675C34.9074 25.8865 34.5883 26.0379 34.2342 26.1567C33.8615 26.2568 33.4912 26.3244 33.0859 26.3407V27.7942H32.224V26.3244C31.651 26.2731 31.078 26.1567 30.5189 25.9703C29.9645 25.784 29.4567 25.5487 29.0025 25.2459L29.8946 23.4546C29.9296 23.4896 30.0134 23.5734 30.1672 23.6573C30.3163 23.7598 30.5049 23.8599 30.7216 23.9624C30.9405 24.0626 31.1944 24.1651 31.4833 24.2652C31.7698 24.3677 32.0563 24.4353 32.3591 24.4679V22.7977L31.7535 22.63C31.3482 22.5112 30.9918 22.3761 30.689 22.2224C30.3861 22.071 30.1322 21.9033 29.9459 21.7169C29.7619 21.5329 29.6081 21.2953 29.508 21.0577C29.4055 20.8038 29.3542 20.5173 29.3542 20.1795C29.3542 19.744 29.4241 19.3549 29.5755 19.0172C29.7269 18.6794 29.9296 18.3929 30.1835 18.139C30.4351 17.9038 30.7402 17.7011 31.078 17.566C31.432 17.4309 31.8024 17.3447 32.1914 17.2935V16.0286H33.0533V17.2935C33.5937 17.3447 34.0968 17.4635 34.5883 17.6662C35.0588 17.8525 35.4828 18.0552 35.8368 18.2555L34.926 19.9629Z" fill="#00549E"/>
<path d="M7.30015 44.1205L14.9121 51.7325L17.8486 49.7406C17.9514 49.6739 18.0514 49.6406 18.1681 49.6406L37.6453 50.3657L52.1609 35.8501C52.6498 35.3612 52.936 34.7028 52.936 33.9944C52.936 33.2859 52.6665 32.6275 52.1609 32.1386C51.1302 31.1079 49.4772 31.1079 48.4466 32.1386L38.4065 42.1814C38.2537 42.5509 38.0342 42.8898 37.7453 43.176C37.0564 43.9177 36.0924 44.3067 35.0811 44.2733L23.7715 43.7844C23.4687 43.7677 23.2492 43.5121 23.2492 43.226C23.2659 42.9232 23.5187 42.7037 23.8048 42.7204L35.1145 43.2093C35.8062 43.2427 36.4813 42.9732 36.9536 42.4676C37.0897 42.3148 37.223 42.1453 37.3064 41.9619C37.3064 41.8258 37.3592 41.6925 37.4592 41.5897C37.562 41.2674 37.612 40.9146 37.562 40.5757C37.4453 39.4644 36.5313 38.5699 35.4006 38.4671C35.4006 38.4671 35.4006 38.4671 35.3839 38.4671L15.1316 36.2557L7.30015 44.1205ZM14.8455 52.9827C14.7093 52.9827 14.5732 52.9327 14.4565 52.8299L6.1528 44.5261C6.05001 44.4261 6 44.29 6 44.1372C6 43.9872 6.05001 43.8511 6.1528 43.751L14.5732 35.3278C14.6927 35.2112 14.8455 35.1584 15.0121 35.175L35.5367 37.4031C37.1564 37.5392 38.4565 38.806 38.6566 40.4257L47.6882 31.3941C49.1383 29.9439 51.4858 29.9439 52.9193 31.3941C53.6111 32.0886 54 33.0331 54 34.011C54 35.0084 53.6111 35.9362 52.9193 36.628L38.2371 51.3102C38.1343 51.413 37.9843 51.4797 37.8315 51.463L18.3042 50.738L15.1483 52.8799C15.0649 52.9493 14.9455 52.9827 14.8455 52.9827Z" fill="#00549E"/>
<path d="M18.1532 50.7197C18.0161 50.7197 17.8817 50.6687 17.7635 50.5692L12.8342 45.64C12.6326 45.4357 12.6326 45.0836 12.8342 44.8793C13.0385 44.6778 13.3933 44.6778 13.5948 44.8793L18.5241 49.8086C18.7284 50.0102 18.7284 50.365 18.5241 50.5692C18.422 50.6687 18.2876 50.7197 18.1532 50.7197Z" fill="#00549E"/>
</svg>
