<svg width="197" height="25" viewBox="0 0 197 25" fill="none" xmlns="http://www.w3.org/2000/svg">
<path d="M0.4 20L6.06 5.94H8.28L13.92 20H11.02L6.66 8.46H7.66L3.24 20H0.4ZM3.4 17.38V15.1H10.96V17.38H3.4Z" fill="#00549E"/>
<path d="M15.131 20V8.704H17.643V20H15.131ZM17.067 20V17.792H22.651V20H17.067ZM24.0997 20V8.704H26.6117V20H24.0997ZM34.1472 20.176C33.3046 20.176 32.5206 20.032 31.7952 19.744C31.0806 19.4453 30.4512 19.0293 29.9072 18.496C29.3739 17.9627 28.9579 17.344 28.6592 16.64C28.3606 15.9253 28.2112 15.1573 28.2112 14.336C28.2112 13.5147 28.3606 12.752 28.6592 12.048C28.9579 11.3333 29.3739 10.7147 29.9072 10.192C30.4406 9.66933 31.0646 9.264 31.7792 8.976C32.5046 8.67733 33.2886 8.528 34.1312 8.528C35.0272 8.528 35.8219 8.672 36.5152 8.96C37.2192 9.248 37.8326 9.64267 38.3552 10.144L36.6752 11.84C36.3766 11.52 36.0139 11.2693 35.5872 11.088C35.1712 10.9067 34.6859 10.816 34.1312 10.816C33.6406 10.816 33.1872 10.9013 32.7712 11.072C32.3659 11.232 32.0139 11.4667 31.7152 11.776C31.4272 12.0853 31.1979 12.4587 31.0272 12.896C30.8672 13.3333 30.7872 13.8133 30.7872 14.336C30.7872 14.8693 30.8672 15.3547 31.0272 15.792C31.1979 16.2293 31.4272 16.6027 31.7152 16.912C32.0139 17.2213 32.3659 17.4613 32.7712 17.632C33.1872 17.8027 33.6406 17.888 34.1312 17.888C34.7072 17.888 35.2086 17.7973 35.6352 17.616C36.0619 17.4347 36.4299 17.184 36.7392 16.864L38.4352 18.56C37.8912 19.0613 37.2672 19.456 36.5632 19.744C35.8699 20.032 35.0646 20.176 34.1472 20.176ZM39.8185 20V8.704H42.3305V20H39.8185ZM43.658 20L48.138 8.704H50.41L54.842 20H52.186L48.794 10.624H49.706L46.266 20H43.658ZM46.202 17.952V15.904H52.362V17.952H46.202Z" fill="#00549E"/>
<path d="M70.003 20.2C68.9763 20.2 68.023 20.02 67.143 19.66C66.263 19.2867 65.4896 18.7733 64.823 18.12C64.1696 17.4533 63.663 16.68 63.303 15.8C62.9563 14.92 62.783 13.9733 62.783 12.96C62.783 11.9467 62.9563 11 63.303 10.12C63.663 9.24 64.1696 8.47333 64.823 7.82C65.4896 7.16667 66.2563 6.65333 67.123 6.28C68.003 5.90667 68.963 5.72 70.003 5.72C71.123 5.72 72.1096 5.90667 72.963 6.28C73.8163 6.64 74.5696 7.14 75.223 7.78L73.383 9.62C72.9963 9.19333 72.523 8.86 71.963 8.62C71.403 8.38 70.7496 8.26 70.003 8.26C69.3496 8.26 68.7496 8.37333 68.203 8.6C67.6696 8.81333 67.203 9.13333 66.803 9.56C66.403 9.97333 66.0963 10.4733 65.883 11.06C65.6696 11.6333 65.563 12.2667 65.563 12.96C65.563 13.6667 65.6696 14.3067 65.883 14.88C66.0963 15.4533 66.403 15.9533 66.803 16.38C67.203 16.7933 67.6696 17.1133 68.203 17.34C68.7496 17.5667 69.3496 17.68 70.003 17.68C70.7896 17.68 71.463 17.56 72.023 17.32C72.5963 17.08 73.0763 16.74 73.463 16.3L75.303 18.14C74.6496 18.7933 73.8896 19.3 73.023 19.66C72.1563 20.02 71.1496 20.2 70.003 20.2Z" fill="#00549E"/>
<path d="M75.6736 20L80.1536 8.704H82.4256L86.8576 20H84.2016L80.8096 10.624H81.7216L78.2816 20H75.6736ZM78.2176 17.952V15.904H84.3776V17.952H78.2176ZM89.9728 15.344V13.488H92.3568C92.8582 13.488 93.2422 13.36 93.5088 13.104C93.7862 12.848 93.9248 12.5013 93.9248 12.064C93.9248 11.6587 93.7915 11.3227 93.5248 11.056C93.2582 10.7893 92.8742 10.656 92.3728 10.656H89.9728V8.704H92.6608C93.4075 8.704 94.0635 8.848 94.6288 9.136C95.1942 9.41333 95.6368 9.80267 95.9568 10.304C96.2768 10.8053 96.4368 11.3813 96.4368 12.032C96.4368 12.6933 96.2768 13.2747 95.9568 13.776C95.6368 14.2667 95.1888 14.6507 94.6128 14.928C94.0368 15.2053 93.3595 15.344 92.5808 15.344H89.9728ZM88.0528 20V8.704H90.5648V20H88.0528ZM94.1968 20L90.6768 15.136L92.9808 14.512L97.1728 20H94.1968ZM100.665 20V8.864H103.177V20H100.665ZM97.1286 10.896V8.704H106.713V10.896H97.1286ZM108.115 20V8.704H110.627V20H108.115ZM110.035 20V17.824H116.227V20H110.035ZM110.035 15.28V13.184H115.667V15.28H110.035ZM110.035 10.864V8.704H116.147V10.864H110.035ZM119.879 15.344V13.488H122.263C122.764 13.488 123.148 13.36 123.415 13.104C123.692 12.848 123.831 12.5013 123.831 12.064C123.831 11.6587 123.698 11.3227 123.431 11.056C123.164 10.7893 122.78 10.656 122.279 10.656H119.879V8.704H122.567C123.314 8.704 123.97 8.848 124.535 9.136C125.1 9.41333 125.543 9.80267 125.863 10.304C126.183 10.8053 126.343 11.3813 126.343 12.032C126.343 12.6933 126.183 13.2747 125.863 13.776C125.543 14.2667 125.095 14.6507 124.519 14.928C123.943 15.2053 123.266 15.344 122.487 15.344H119.879ZM117.959 20V8.704H120.471V20H117.959ZM124.103 20L120.583 15.136L122.887 14.512L127.079 20H124.103Z" fill="#00549E"/>
<path d="M136.874 14.12V12H140.134C140.8 12 141.314 11.8333 141.674 11.5C142.047 11.1533 142.234 10.68 142.234 10.08C142.234 9.53333 142.047 9.08 141.674 8.72C141.314 8.34667 140.8 8.16 140.134 8.16H136.874V5.94H140.374C141.28 5.94 142.074 6.12 142.754 6.48C143.447 6.82667 143.98 7.30667 144.354 7.92C144.74 8.53333 144.934 9.24 144.934 10.04C144.934 10.8667 144.74 11.5867 144.354 12.2C143.98 12.8 143.447 13.2733 142.754 13.62C142.06 13.9533 141.254 14.12 140.334 14.12H136.874ZM134.874 20V5.94H137.594V20H134.874ZM142.554 20L137.914 13.92L140.414 13.14L145.854 20H142.554Z" fill="#00549E"/>
<path d="M147.315 20V8.704H149.827V20H147.315ZM149.235 20V17.824H155.427V20H149.235ZM149.235 15.28V13.184H154.867V15.28H149.235ZM149.235 10.864V8.704H155.347V10.864H149.235ZM156.31 20L160.79 8.704H163.062L167.494 20H164.838L161.446 10.624H162.358L158.918 20H156.31ZM158.854 17.952V15.904H165.014V17.952H158.854ZM168.69 20V8.704H171.202V20H168.69ZM170.626 20V17.792H176.21V20H170.626ZM179.254 20V8.864H181.766V20H179.254ZM175.718 10.896V8.704H185.302V10.896H175.718ZM189.63 15.792L185.278 8.704H188.19L191.534 14.432H189.662L193.006 8.704H195.854L191.47 15.792H189.63ZM189.326 20V14.64H191.838V20H189.326Z" fill="#00549E"/>
</svg>
