<svg width="60" height="60" viewBox="0 0 60 60" fill="none" xmlns="http://www.w3.org/2000/svg">
<path d="M37.4701 11.9828L40.8462 13.4199V10.5892C40.8462 9.65936 40.0896 8.90096 39.1581 8.90096C38.2267 8.90096 37.4701 9.65936 37.4701 10.5892V11.9828ZM41.3484 14.6816C41.282 14.6816 41.2157 14.6684 41.1515 14.6418L36.771 12.7768C36.5852 12.6974 36.4657 12.5166 36.4657 12.3157V10.5892C36.4657 9.10583 37.6714 7.89722 39.1581 7.89722C40.6426 7.89722 41.8506 9.10583 41.8506 10.5892V14.1797C41.8506 14.3474 41.7665 14.5058 41.6272 14.5982C41.5409 14.6524 41.4457 14.6816 41.3484 14.6816Z" fill="#00549E"/>
<path d="M8.98894 17.4889V20.8415L13.5822 19.2775L28.0331 14.0623C28.139 14.0215 28.2583 14.0215 28.3665 14.0585L42.8242 18.9803L42.8467 18.9896L47.4174 20.8032V17.4902L28.2043 8.94895L8.98894 17.4889ZM8.4866 22.0462C8.38297 22.0462 8.2816 22.0147 8.19375 21.9525C8.06309 21.8588 7.98425 21.7068 7.98425 21.5443V17.1627C7.98425 16.9633 8.10139 16.7835 8.28385 16.7029L27.9993 7.94109C28.1299 7.88297 28.2764 7.88297 28.4093 7.94109L48.1247 16.7029C48.3049 16.7835 48.4221 16.9633 48.4221 17.1627V21.5443C48.4221 21.7108 48.341 21.8654 48.2035 21.9591C48.0639 22.0528 47.8904 22.0728 47.7327 22.0106L42.4885 19.9274L28.2088 15.0663L13.9155 20.2261L8.64879 22.0199C8.59698 22.0384 8.54291 22.0462 8.4866 22.0462Z" fill="#00549E"/>
<path d="M18.0557 41.0508H28.4423V32.0682C28.4423 29.2045 26.1137 26.8743 23.2511 26.8743C20.3864 26.8743 18.0557 29.2045 18.0557 32.0682V41.0508ZM28.9443 42.0562H17.5537C17.2781 42.0562 17.0516 41.8314 17.0516 41.5541V32.0682C17.0516 28.6495 19.8309 25.8705 23.2511 25.8705C26.667 25.8705 29.4484 28.6495 29.4484 32.0682V41.5541C29.4484 41.8314 29.222 42.0562 28.9443 42.0562Z" fill="#00549E"/>
<path d="M37.648 23.8608H18.5585C18.2827 23.8608 18.0571 23.6351 18.0571 23.3577C18.0571 23.0802 18.2827 22.8556 18.5585 22.8556H37.648C37.926 22.8556 38.1494 23.0802 38.1494 23.3577C38.1494 23.6351 37.926 23.8608 37.648 23.8608Z" fill="#00549E"/>
<path d="M31.619 20.8457H24.5883C24.3085 20.8457 24.0846 20.6212 24.0846 20.345C24.0846 20.0677 24.3085 19.8419 24.5883 19.8419H31.619C31.8967 19.8419 32.1227 20.0677 32.1227 20.345C32.1227 20.6212 31.8988 20.8457 31.619 20.8457Z" fill="#00549E"/>
<path d="M10.5199 45.0708H6.50377C6.22659 45.0708 6 44.8462 6 44.5674C6 44.2902 6.22659 44.0657 6.50377 44.0657H10.5199C10.7971 44.0657 11.0237 44.2902 11.0237 44.5674C11.0237 44.8462 10.7971 45.0708 10.5199 45.0708Z" fill="#00549E"/>
<path d="M14.2477 41.0507H36.0744C35.8479 40.5289 35.6792 39.9767 35.5481 39.3639C35.2018 37.7325 35.1396 35.7339 35.1352 32.1382C35.1352 31.532 35.1374 30.8832 35.1374 30.1924C35.1374 29.5796 35.1396 28.9337 35.1396 28.248C35.1396 28.0988 35.2062 27.9574 35.3195 27.8623C35.4349 27.7673 35.5859 27.7275 35.7347 27.754C36.5274 27.9005 37.3112 27.9744 38.0661 27.9744C39.4894 27.9744 40.8638 27.7118 42.1606 27.1953V19.8162L28.2097 15.0663L14.2477 20.1068V41.0507ZM36.8782 42.0559H13.7458C13.4661 42.0559 13.2418 41.8314 13.2418 41.5541V19.7542C13.2418 19.5428 13.375 19.3539 13.5749 19.2813L28.032 14.0622C28.1386 14.0213 28.2563 14.0213 28.3651 14.0582L42.8245 18.9802C43.0287 19.0501 43.1642 19.2404 43.1642 19.4569V27.5281C43.1642 27.7289 43.0465 27.9098 42.8622 27.9891C41.3523 28.6455 39.7381 28.9785 38.0661 28.9785C37.44 28.9785 36.796 28.9323 36.1455 28.8384C36.1455 29.3087 36.1432 29.7592 36.1432 30.1938C36.141 30.8848 36.141 31.532 36.141 32.1382C36.1454 35.6627 36.2032 37.6124 36.5296 39.1565C36.7028 39.9663 36.9514 40.6517 37.3156 41.3096C37.4044 41.4668 37.4 41.6545 37.3089 41.809C37.2201 41.9622 37.0558 42.0559 36.8782 42.0559Z" fill="#00549E"/>
<path d="M11.0247 44.0653H38.1031C37.4322 43.3044 36.9724 42.6966 36.6051 42.0877L36.5875 42.0547H11.0247V44.0653ZM39.2469 45.0703H10.5209C10.2438 45.0703 10.0194 44.8459 10.0194 44.567V41.5541C10.0194 41.2767 10.2438 41.0508 10.5209 41.0508H36.8778C37.0626 41.0508 37.2298 41.1511 37.3178 41.311C37.3662 41.3968 37.4146 41.4828 37.4652 41.5673C37.9205 42.3202 38.543 43.0904 39.6121 44.2223C39.7506 44.369 39.788 44.5815 39.7089 44.7665C39.6297 44.9502 39.4471 45.0703 39.2469 45.0703Z" fill="#00549E"/>
<path d="M42.5056 47.1797H46.652C46.8715 46.9526 47.0819 46.7333 47.2855 46.522C47.5645 46.234 47.8321 45.9591 48.0859 45.6989C50.9721 42.7255 52.1659 41.4956 52.6485 39.1576C53.0098 37.4126 53.0052 34.9383 52.9915 30.8435C52.9915 30.2093 52.9892 29.5369 52.9892 28.8197C52.2254 28.9082 51.4912 28.9544 50.8051 28.9544C49.593 28.9544 48.4724 28.8144 47.4753 28.5356C46.3752 28.2292 45.3941 27.7471 44.5479 27.101C42.5537 28.3481 40.3764 28.9795 38.0711 28.9795C37.4422 28.9795 36.7973 28.932 36.1455 28.8396C36.1455 29.3084 36.1455 29.7601 36.1432 30.1949C36.1432 30.8844 36.1432 31.5316 36.1432 32.1379C36.1455 35.6621 36.205 37.612 36.532 39.1562C36.7264 40.077 37.0169 40.8207 37.4674 41.5683C38.2473 42.8616 39.5417 44.1746 41.5016 46.1588L41.8561 46.5181C42.0642 46.7305 42.2815 46.9526 42.5056 47.1797ZM46.8646 48.1851H42.2952C42.1626 48.1851 42.0299 48.1309 41.9362 48.0343C41.6594 47.7517 41.3964 47.4823 41.1403 47.2234L40.7858 46.8641C38.7755 44.8284 37.4491 43.4823 36.6052 42.0875C36.1021 41.25 35.7659 40.3848 35.5486 39.3637C35.2033 37.7321 35.1415 35.7335 35.1369 32.1379C35.1346 31.5316 35.1369 30.883 35.1392 30.1921C35.1392 29.5792 35.1415 28.9334 35.1415 28.2477C35.1415 28.0984 35.2078 27.957 35.3222 27.8619C35.4365 27.7668 35.5852 27.7272 35.7338 27.7535C36.5274 27.9003 37.3142 27.9742 38.0689 27.9742C40.2941 27.9742 42.3913 27.3322 44.3032 26.0641C44.4885 25.9413 44.7332 25.9559 44.9047 26.0984C45.7006 26.7696 46.6565 27.2636 47.7451 27.5673C48.6531 27.821 49.6822 27.9493 50.8051 27.9493C51.6124 27.9493 52.4952 27.8818 53.4192 27.7496C53.5633 27.7299 53.7074 27.7734 53.8194 27.8685C53.9292 27.9637 53.9932 28.1023 53.9932 28.2477C53.9932 29.1803 53.9955 30.043 53.9955 30.8393C54.0092 35.0017 54.0161 37.513 53.6319 39.3609C53.0899 41.9857 51.7474 43.3689 48.804 46.3991C48.5524 46.6594 48.2872 46.9327 48.0081 47.2206C47.7589 47.4784 47.5004 47.7478 47.2283 48.0305C47.1345 48.1295 47.0042 48.1851 46.8646 48.1851Z" fill="#00549E"/>
<path d="M32.6231 49.0891H11.5248C11.2484 49.0891 11.0239 48.8646 11.0239 48.5872C11.0239 48.3085 11.2484 48.084 11.5248 48.084H32.6231C32.8994 48.084 33.1261 48.3085 33.1261 48.5872C33.1261 48.8646 32.9016 49.0891 32.6231 49.0891Z" fill="#00549E"/>
<path d="M39.6584 52.103H30.617C30.3396 52.103 30.115 51.8771 30.115 51.5999C30.115 51.3224 30.3396 51.0978 30.617 51.0978H39.6584C39.9337 51.0978 40.1605 51.3224 40.1605 51.5999C40.1605 51.8771 39.9337 52.103 39.6584 52.103Z" fill="#00549E"/>
<path d="M47.4426 42.0557C47.2791 42.0557 47.1179 41.9751 47.0203 41.8298C46.8704 41.5973 46.9318 41.2856 47.1656 41.1335C50.1487 39.1748 48.9727 33.6795 48.9613 33.6252C48.9 33.3544 49.0703 33.0863 49.3427 33.0254C49.6129 32.9648 49.8808 33.1364 49.9421 33.4059C49.9965 33.6608 51.2815 39.6331 47.7172 41.9723C47.6332 42.0293 47.5356 42.0557 47.4426 42.0557Z" fill="#00549E"/>
</svg>
