<svg width="60" height="60" viewBox="0 0 60 60" fill="none" xmlns="http://www.w3.org/2000/svg">
<path d="M24.1269 20.2197C23.9446 20.2197 23.7453 20.1204 23.6628 19.9381C23.529 19.6734 23.6286 19.3568 23.8791 19.2235L32.5376 14.5956C32.8052 14.4624 33.1184 14.562 33.2522 14.8115C33.386 15.0595 33.2864 15.3914 33.0358 15.5247L24.3746 20.154C24.292 20.2044 24.2094 20.2197 24.1269 20.2197Z" fill="#00549E"/>
<path d="M41.4476 20.2197C41.3664 20.2197 41.2823 20.204 41.1982 20.1539L32.5374 15.5242C32.2735 15.3913 32.1749 15.0589 32.3228 14.811C32.4736 14.5618 32.7869 14.4455 33.0363 14.5955L41.6971 19.2234C41.9639 19.3565 42.0625 19.6886 41.9146 19.9378C41.8305 20.1202 41.6478 20.2197 41.4476 20.2197Z" fill="#00549E"/>
<path d="M38.8597 29.4617H26.7323C26.4352 29.4617 26.2016 29.2292 26.2016 28.9307V18.5271C26.2016 18.2286 26.4352 17.9961 26.7323 17.9961C27.0322 17.9961 27.2629 18.2286 27.2629 18.5271V28.3995H38.3291V18.5271C38.3291 18.2286 38.5627 17.9961 38.8597 17.9961C39.1597 17.9961 39.3904 18.2286 39.3904 18.5271V28.9307C39.3904 29.2292 39.1424 29.4617 38.8597 29.4617Z" fill="#00549E"/>
<path d="M31.2947 28.3993H34.2654V24.6005C34.2654 23.7865 33.6021 23.1054 32.7729 23.1054C31.9609 23.1054 31.2775 23.7696 31.2775 24.6005L31.2947 28.3993ZM34.8115 29.4612H30.7657C30.4655 29.4612 30.2339 29.2287 30.2339 28.9302V24.6005C30.2339 23.188 31.3776 22.0435 32.79 22.0435C34.1996 22.0435 35.3433 23.188 35.3433 24.6005V28.9302C35.3433 29.2287 35.1117 29.4612 34.8115 29.4612Z" fill="#00549E"/>
<path d="M13.0606 52.9211H41.8624V48.6572H17.8551C17.5558 48.6572 17.3262 48.4262 17.3262 48.1263V12.3883H13.0606V52.9211ZM42.3941 54H12.5317C12.2325 54 12 53.7687 12 53.4688V11.8571C12 11.5587 12.2325 11.3262 12.5317 11.3262H17.8551C18.1544 11.3262 18.3868 11.5587 18.3868 11.8571V47.5952H42.3767C42.676 47.5952 42.9084 47.8279 42.9084 48.1263V53.452C42.9259 53.7504 42.676 54 42.3941 54Z" fill="#00549E"/>
<path d="M18.3887 47.595H47.1912V13.1515L41.0998 7.06217H18.3887V47.595ZM47.7201 48.657H17.8569C17.5572 48.657 17.325 48.4257 17.325 48.126V6.53091C17.325 6.23266 17.5572 5.99995 17.8569 5.99995H41.3172C41.4671 5.99995 41.5993 6.04901 41.6992 6.1498L48.1021 12.5532C48.202 12.6528 48.2519 12.7859 48.2519 12.9358V48.1413C48.2519 48.4257 48.0198 48.657 47.7201 48.657Z" fill="#00549E"/>
<path d="M47.7201 13.4668H41.3172C41.0175 13.4668 40.7854 13.2344 40.7854 12.9358V6.53095C40.7854 6.2327 41.0175 6 41.3172 6C41.617 6 41.8491 6.2327 41.8491 6.53095V12.4049H47.7201C48.0198 12.4049 48.2519 12.6373 48.2519 12.9358C48.2519 13.2173 48.0198 13.4668 47.7201 13.4668Z" fill="#00549E"/>
<path d="M43.4578 33.7236H22.1197C21.8226 33.7236 21.5897 33.4924 21.5897 33.1942C21.5897 32.8957 21.8226 32.663 22.1197 32.663H43.4578C43.7549 32.663 43.9879 32.8957 43.9879 33.1942C43.9879 33.4924 43.7549 33.7236 43.4578 33.7236Z" fill="#00549E"/>
<path d="M43.4578 37.9888H22.1197C21.8226 37.9888 21.5897 37.7561 21.5897 37.4576C21.5897 37.1591 21.8226 36.9267 22.1197 36.9267H43.4578C43.7549 36.9267 43.9879 37.1591 43.9879 37.4576C43.9879 37.7561 43.7549 37.9888 43.4578 37.9888Z" fill="#00549E"/>
<path d="M43.4578 42.2524H34.9307C34.6307 42.2524 34.3978 42.02 34.3978 41.7215C34.3978 41.4245 34.6307 41.1918 34.9307 41.1918H43.4578C43.7548 41.1918 43.9878 41.4245 43.9878 41.7215C43.9878 42.02 43.7548 42.2524 43.4578 42.2524Z" fill="#00549E"/>
</svg>
