<svg width="60" height="60" viewBox="0 0 60 60" fill="none" xmlns="http://www.w3.org/2000/svg">
<path d="M15.9125 7.04467C13.8989 7.04467 12.2609 8.68268 12.2609 10.6963V49.3053C12.2609 51.3189 13.8989 52.9569 15.9125 52.9569H44.0862C46.0998 52.9569 47.7378 51.3189 47.7378 49.3053V15.0867L39.6958 7.04467H15.9125ZM44.0862 54H15.9125C13.3246 54 11.2178 51.8946 11.2178 49.3053V10.6963C11.2178 8.10698 13.3246 6.00018 15.9125 6.00018H39.9124C40.0508 6.00018 40.1838 6.05638 40.2811 6.1537L48.6288 14.5014C48.7275 14.5987 48.7823 14.733 48.7823 14.8715V49.3053C48.7823 51.8946 46.6755 54 44.0862 54Z" fill="#00549E"/>
<path d="M48.2599 15.3921H39.9123C39.6244 15.3921 39.39 15.1577 39.39 14.8712V6.52218C39.39 6.23433 39.623 5.99993 39.9123 5.99993C40.2001 5.99993 40.4331 6.23296 40.4331 6.52218V14.349H48.2599C48.5478 14.349 48.7822 14.582 48.7822 14.8712C48.7822 15.1577 48.5478 15.3921 48.2599 15.3921Z" fill="#00549E"/>
<path d="M37.8261 32.0879H27.3894C27.1029 32.0879 26.8685 31.8535 26.8685 31.567C26.8685 31.2778 27.1029 31.0448 27.3894 31.0448H37.8261C38.1139 31.0448 38.3469 31.2778 38.3469 31.567C38.3469 31.8535 38.1139 32.0879 37.8261 32.0879Z" fill="#00549E"/>
<path d="M43.0433 35.2183H27.3911C27.1033 35.2183 26.8702 34.9852 26.8702 34.696C26.8702 34.4082 27.1033 34.1738 27.3911 34.1738H43.0433C43.3312 34.1738 43.5656 34.4068 43.5656 34.696C43.5656 34.9852 43.3312 35.2183 43.0433 35.2183Z" fill="#00549E"/>
<path d="M37.8264 42.5229H16.9572C16.668 42.5229 16.4349 42.2886 16.4349 42.0007C16.4349 41.7115 16.668 41.4785 16.9572 41.4785H37.8264C38.1142 41.4785 38.3472 41.7115 38.3472 42.0007C38.3472 42.2886 38.1142 42.5229 37.8264 42.5229Z" fill="#00549E"/>
<path d="M43.0433 45.6533H16.9572C16.668 45.6533 16.4349 45.4189 16.4349 45.1311C16.4349 44.8432 16.668 44.6088 16.9572 44.6088H43.0433C43.3312 44.6088 43.5656 44.8432 43.5656 45.1311C43.5656 45.4189 43.3312 45.6533 43.0433 45.6533Z" fill="#00549E"/>
<path d="M48.2599 49.8271H26.3476C26.0597 49.8271 25.8253 49.5928 25.8253 49.3049C25.8253 49.0157 26.0597 48.7827 26.3476 48.7827H48.2599C48.5477 48.7827 48.7821 49.0157 48.7821 49.3049C48.7821 49.5928 48.5477 49.8271 48.2599 49.8271Z" fill="#00549E"/>
<path d="M23.2171 49.8271C23.08 49.8271 22.9457 49.771 22.8483 49.6723C22.751 49.5749 22.6948 49.4406 22.6948 49.3049C22.6948 49.1665 22.751 49.0335 22.8483 48.9348C22.9457 48.8375 23.08 48.7827 23.2171 48.7827C23.3555 48.7827 23.4885 48.8375 23.5872 48.9348C23.6831 49.0335 23.7379 49.1665 23.7379 49.3049C23.7379 49.4406 23.6831 49.5749 23.5872 49.6723C23.4885 49.771 23.3555 49.8271 23.2171 49.8271Z" fill="#00549E"/>
<path d="M20.0863 49.8271C19.9492 49.8271 19.8149 49.771 19.7176 49.6723C19.6203 49.5749 19.5654 49.4406 19.5654 49.3049C19.5654 49.1665 19.6203 49.0335 19.7176 48.9348C19.8149 48.8375 19.9492 48.7827 20.0863 48.7827C20.2247 48.7827 20.3591 48.8375 20.455 48.9348C20.5537 49.0321 20.6085 49.1665 20.6085 49.3049C20.6085 49.442 20.5524 49.5749 20.455 49.6723C20.3591 49.771 20.2234 49.8271 20.0863 49.8271Z" fill="#00549E"/>
<path d="M20.6088 11.2181C18.8817 11.2181 17.4781 12.6218 17.4781 14.3489C17.4781 16.0746 18.8817 17.4782 20.6088 17.4782C22.3345 17.4782 23.7395 16.0746 23.7395 14.3489C23.7395 12.6218 22.3345 11.2181 20.6088 11.2181ZM20.6088 18.5227C18.3073 18.5227 16.4349 16.6489 16.4349 14.3489C16.4349 12.0474 18.3073 10.175 20.6088 10.175C22.9102 10.175 24.7826 12.0474 24.7826 14.3489C24.7826 16.6489 22.9102 18.5227 20.6088 18.5227Z" fill="#00549E"/>
<path d="M20.6088 22.6954C18.8817 22.6954 17.4781 24.1004 17.4781 25.8275C17.4781 27.5519 18.8817 28.9569 20.6088 28.9569C22.3345 28.9569 23.7395 27.5519 23.7395 25.8275C23.7395 24.1004 22.3345 22.6954 20.6088 22.6954ZM20.6088 30C18.3073 30 16.4349 28.1276 16.4349 25.8275C16.4349 23.5247 18.3073 21.6537 20.6088 21.6537C22.9102 21.6537 24.7826 23.5247 24.7826 25.8275C24.7826 28.1276 22.9102 30 20.6088 30Z" fill="#00549E"/>
<path d="M17.9999 12.2615C17.712 12.2615 17.4777 12.0284 17.4777 11.7392V6.52227C17.4777 6.23442 17.712 6.00002 17.9999 6.00002C18.2878 6.00002 18.5208 6.23442 18.5208 6.52227V11.7392C18.5208 12.0284 18.2878 12.2615 17.9999 12.2615Z" fill="#00549E"/>
<path d="M17.9999 33.1304C17.712 33.1304 17.4777 32.8973 17.4777 32.6095V28.4343C17.4777 28.1464 17.712 27.9134 17.9999 27.9134C18.2878 27.9134 18.5208 28.1464 18.5208 28.4343V32.6095C18.5208 32.8973 18.2878 33.1304 17.9999 33.1304Z" fill="#00549E"/>
<path d="M18.0003 23.7402C17.855 23.7402 17.7097 23.6799 17.6069 23.562C14.4392 19.9365 17.5945 16.6262 17.6274 16.5919C17.8276 16.3877 18.1579 16.3836 18.3649 16.5851C18.5705 16.7852 18.5746 17.1142 18.3745 17.3212C18.2689 17.4308 15.8688 19.9858 18.3937 22.8753C18.5828 23.0919 18.5595 23.4222 18.343 23.6114C18.2443 23.6978 18.1223 23.7402 18.0003 23.7402Z" fill="#00549E"/>
<path d="M21.1295 25.8271C20.9924 25.8271 20.8581 25.771 20.7608 25.6736C20.6635 25.5763 20.6086 25.442 20.6086 25.3049C20.6086 25.1665 20.6635 25.0335 20.7608 24.9348C20.8581 24.8375 20.9924 24.7827 21.1295 24.7827C21.268 24.7827 21.4023 24.8375 21.4996 24.9348C21.5969 25.0321 21.6518 25.1665 21.6518 25.3049C21.6518 25.442 21.5969 25.5763 21.4982 25.6736C21.4023 25.771 21.268 25.8271 21.1295 25.8271Z" fill="#00549E"/>
<path d="M21.1295 14.3489C20.9938 14.3489 20.8595 14.2927 20.7608 14.1954C20.6635 14.098 20.6086 13.9637 20.6086 13.8266C20.6086 13.6896 20.6635 13.5552 20.7608 13.4565C20.8581 13.3606 20.9924 13.3044 21.1295 13.3044C21.268 13.3044 21.4023 13.3606 21.4996 13.4565C21.5969 13.5552 21.6518 13.6882 21.6518 13.8266C21.6518 13.9637 21.5969 14.098 21.4996 14.1954C21.4009 14.2927 21.2666 14.3489 21.1295 14.3489Z" fill="#00549E"/>
<path d="M31.5649 21.6533H27.3911C27.1033 21.6533 26.8702 21.4189 26.8702 21.1311C26.8702 20.8419 27.1033 20.6102 27.3911 20.6102H31.5649C31.8528 20.6102 32.0872 20.8419 32.0872 21.1311C32.0872 21.4189 31.8528 21.6533 31.5649 21.6533Z" fill="#00549E"/>
<path d="M35.7382 21.6533H34.6951C34.4072 21.6533 34.1729 21.4189 34.1729 21.1311C34.1729 20.8419 34.4059 20.6102 34.6951 20.6102H35.7382C36.0261 20.6102 36.2605 20.8419 36.2605 21.1311C36.2605 21.4189 36.0261 21.6533 35.7382 21.6533Z" fill="#00549E"/>
<path d="M42.0001 21.6533H38.8694C38.5802 21.6533 38.3472 21.4189 38.3472 21.1311C38.3472 20.8419 38.5802 20.6102 38.8694 20.6102H42.0001C42.2866 20.6102 42.521 20.8419 42.521 21.1311C42.521 21.4189 42.288 21.6533 42.0001 21.6533Z" fill="#00549E"/>
<path d="M31.5649 24.7827H27.3911C27.1033 24.7827 26.8702 24.5483 26.8702 24.2605C26.8702 23.974 27.1033 23.7396 27.3911 23.7396H31.5649C31.8528 23.7396 32.0872 23.974 32.0872 24.2605C32.0872 24.5483 31.8528 24.7827 31.5649 24.7827Z" fill="#00549E"/>
<path d="M37.8258 24.7827H34.6951C34.4072 24.7827 34.1729 24.5483 34.1729 24.2605C34.1729 23.974 34.4059 23.7396 34.6951 23.7396H37.8258C38.1137 23.7396 38.3467 23.974 38.3467 24.2605C38.3467 24.5483 38.1137 24.7827 37.8258 24.7827Z" fill="#00549E"/>
</svg>
