<svg width="60" height="60" viewBox="0 0 60 60" fill="none" xmlns="http://www.w3.org/2000/svg">
<path d="M37.9705 12.7241L41.4071 14.1875V11.3103C41.4071 10.3568 40.6437 9.59343 39.6874 9.59343C38.7367 9.59343 37.9705 10.3568 37.9705 11.3103V12.7241ZM41.9142 15.4607C41.8508 15.4607 41.7709 15.4441 41.7075 15.4111L37.2567 13.5205C37.0638 13.4406 36.9398 13.2505 36.9398 13.0438V11.2938C36.9398 9.78359 38.1634 8.55998 39.6736 8.55998C41.1839 8.55998 42.4075 9.78359 42.4075 11.2938V14.9371C42.4075 15.1107 42.3275 15.2705 42.1842 15.3642C42.1209 15.4276 42.0272 15.4607 41.9142 15.4607Z" fill="#00549E"/>
<path d="M28.5593 9.64004L10.0206 17.8773C9.41427 18.1474 9.03394 18.7344 9.03394 19.4041C9.03394 20.3246 9.7808 21.0714 10.704 21.0714C10.8776 21.0714 11.0705 21.0411 11.2442 20.9777L13.7107 20.1344L28.3995 14.8238C28.5124 14.7908 28.6227 14.777 28.7357 14.8238L43.4245 19.8312C43.441 19.8312 43.441 19.8312 43.441 19.8478L45.9048 20.8344C46.0977 20.9143 46.2878 20.9446 46.4945 20.9446C46.9079 20.9446 47.3047 20.7875 47.6079 20.4844C47.911 20.1813 48.0846 19.7844 48.0846 19.3545C48.0846 18.7344 47.7181 18.164 47.1476 17.9077L28.5593 9.64004ZM10.6875 22.0911C9.21032 22.0911 8.00049 20.8812 8.00049 19.4041C8.00049 18.3376 8.62056 17.384 9.59063 16.9541L28.3361 8.62312C28.4628 8.55973 28.6227 8.55973 28.7522 8.62312L47.5445 16.9707C48.4815 17.384 49.0878 18.321 49.0878 19.3545C49.0878 20.071 48.7984 20.7242 48.3079 21.2147C47.8146 21.6915 47.1614 21.9615 46.4945 21.9615C46.1583 21.9615 45.8414 21.8982 45.5244 21.7714L43.0607 20.8013L28.5593 15.8573L14.0276 21.1045L11.5473 21.9478C11.2772 22.0415 10.9906 22.0911 10.6875 22.0911Z" fill="#00549E"/>
<path d="M24.0282 42.2671H31.5166V33.6499C31.5166 31.5818 29.8327 29.8978 27.7645 29.8978C25.6964 29.8978 24.0124 31.5818 24.0124 33.6499V42.2671H24.0282ZM32.0245 43.2854H23.5046C23.2178 43.2854 22.9941 43.0617 22.9941 42.7749V33.6499C22.9941 31.0266 25.1412 28.8795 27.7645 28.8795C30.3879 28.8795 32.5349 31.0266 32.5349 33.6499V42.7749C32.5507 43.0617 32.3113 43.2854 32.0245 43.2854Z" fill="#00549E"/>
<path d="M38.165 24.7903H18.7658C18.4809 24.7903 18.2572 24.5693 18.2572 24.2817C18.2572 23.9968 18.4809 23.7732 18.7658 23.7732H38.165C38.4499 23.7732 38.6735 23.9968 38.6735 24.2817C38.6735 24.5693 38.4499 24.7903 38.165 24.7903Z" fill="#00549E"/>
<path d="M32.024 21.7258H24.8702C24.5859 21.7258 24.3634 21.5006 24.3634 21.2164C24.3634 20.9295 24.5859 20.7069 24.8702 20.7069H32.024C32.3109 20.7069 32.5335 20.9295 32.5335 21.2164C32.5496 21.5006 32.3109 21.7258 32.024 21.7258Z" fill="#00549E"/>
<path d="M10.5949 46.3511H6.50857C6.22012 46.3511 6 46.1284 6 45.8425C6 45.5566 6.22012 45.3339 6.50857 45.3339H10.5949C10.8809 45.3339 11.1035 45.5566 11.1035 45.8425C11.1035 46.1132 10.8657 46.3511 10.5949 46.3511Z" fill="#00549E"/>
<path d="M13.868 43.2847C13.5826 43.2847 13.3597 43.0618 13.3597 42.7764V20.6106C13.3597 20.3877 13.4875 20.1975 13.694 20.1323L28.3861 14.8218C28.4975 14.7919 28.609 14.7756 28.7204 14.8218L43.4098 19.8306C43.619 19.8958 43.7604 20.1024 43.7604 20.3089V31.5332C43.7604 31.8212 43.5375 32.0414 43.2521 32.0414C42.9668 32.0414 42.7439 31.8212 42.7439 31.5332V20.6731L28.5601 15.8573L14.3626 20.9775V42.7764C14.3762 43.0618 14.137 43.2847 13.868 43.2847Z" fill="#00549E"/>
<path d="M32.0259 50.4373H10.594C10.3084 50.4373 10.0854 50.2168 10.0854 49.9287C10.0854 49.6431 10.3084 49.4202 10.594 49.4202H32.0435C32.3291 49.4202 32.552 49.6431 32.552 49.9287C32.552 50.1993 32.314 50.4373 32.0259 50.4373Z" fill="#00549E"/>
<path d="M11.1025 45.3345H35.6197V43.2825H11.1025V45.3345ZM36.1142 46.3516H10.5927C10.3072 46.3516 10.0854 46.1298 10.0854 45.8443V42.7752C10.0854 42.4871 10.3072 42.2654 10.5927 42.2654H36.1295C36.4175 42.2654 36.6367 42.4871 36.6367 42.7752V45.8443C36.6214 46.1145 36.3997 46.3516 36.1142 46.3516Z" fill="#00549E"/>
<path d="M36.621 49.4209H38.6554V34.5703C38.6554 34.2849 38.878 34.0624 39.166 34.0624H49.8798V32.028H36.6053L36.621 49.4209ZM39.1791 50.4395H36.1131C35.8251 50.4395 35.6025 50.2169 35.6025 49.9315V31.5017C35.6025 31.2163 35.8251 30.9938 36.1131 30.9938H50.4061C50.6915 30.9938 50.914 31.2163 50.914 31.5017V34.5703C50.914 34.8583 50.6915 35.0808 50.4061 35.0808H39.6896V49.9315C39.6896 50.2012 39.4671 50.4395 39.1791 50.4395Z" fill="#00549E"/>
<path d="M39.6887 52.4739H52.9666V35.0813H39.6887V52.4739ZM53.476 53.4929H39.1792C38.8959 53.4929 38.6724 53.2694 38.6724 52.9834V34.5718C38.6724 34.2858 38.8959 34.0623 39.1792 34.0623H53.476C53.762 34.0623 53.9829 34.2858 53.9829 34.5718V52.9834C53.9829 53.2694 53.762 53.4929 53.476 53.4929Z" fill="#00549E"/>
<path d="M49.3901 41.2471H43.2679C42.9836 41.2471 42.7607 41.0242 42.7607 40.7399C42.7607 40.453 42.9836 40.2301 43.2679 40.2301H49.3901C49.677 40.2301 49.8999 40.453 49.8999 40.7399C49.8999 41.0088 49.677 41.2471 49.3901 41.2471Z" fill="#00549E"/>
<path d="M49.3893 44.3005H43.2661C42.9813 44.3005 42.7601 44.0793 42.7601 43.792C42.7601 43.5046 42.9813 43.2834 43.2661 43.2834H49.3893C49.6766 43.2834 49.8979 43.5046 49.8979 43.792C49.8979 44.0793 49.6766 44.3005 49.3893 44.3005Z" fill="#00549E"/>
<path d="M49.3875 47.3689H43.2667C42.9815 47.3689 42.7594 47.1468 42.7594 46.8616C42.7594 46.5738 42.9815 46.3517 43.2667 46.3517H49.3875C49.6752 46.3517 49.8999 46.5738 49.8999 46.8616C49.8999 47.1468 49.6752 47.3689 49.3875 47.3689Z" fill="#00549E"/>
<path d="M49.3895 50.4373H47.3553C47.0672 50.4373 46.8467 50.2168 46.8467 49.9287C46.8467 49.6431 47.0672 49.4202 47.3553 49.4202H49.3895C49.675 49.4202 49.898 49.6431 49.898 49.9287C49.898 50.1993 49.675 50.4373 49.3895 50.4373Z" fill="#00549E"/>
<path d="M51.4405 11.6273C50.5982 11.6273 49.9151 12.3104 49.9151 13.1526C49.9151 13.9948 50.5982 14.6807 51.4405 14.6807C52.2827 14.6807 52.9685 13.9948 52.9685 13.1526C52.9685 12.3104 52.2827 11.6273 51.4405 11.6273ZM51.4405 15.7122C50.0249 15.7122 48.8809 14.5682 48.8809 13.1526C48.8809 11.737 50.0249 10.593 51.4405 10.593C52.8561 10.593 54.0001 11.737 54.0001 13.1526C53.9863 14.5682 52.8396 15.7122 51.4405 15.7122Z" fill="#00549E"/>
<path d="M10.085 7.53947C8.95827 7.53947 8.05021 8.46137 8.05021 9.57429C8.05021 10.7038 8.97211 11.6091 10.085 11.6091C11.198 11.6091 12.1199 10.6872 12.1199 9.57429C12.1199 8.46137 11.198 7.53947 10.085 7.53947ZM10.085 12.6445C8.39904 12.6445 7.01758 11.2769 7.01758 9.57429C7.01758 7.87445 8.3852 6.50684 10.085 6.50684C11.7876 6.50684 13.1386 7.89108 13.1386 9.59092C13.1386 11.2935 11.771 12.6445 10.085 12.6445Z" fill="#00549E"/>
</svg>
