<svg width="60" height="60" viewBox="0 0 60 60" fill="none" xmlns="http://www.w3.org/2000/svg">
<path d="M16.2118 17.7249C16.0278 17.7249 15.8262 17.6226 15.7415 17.4386C15.6042 17.1669 15.7064 16.8456 15.9606 16.7112L28.8222 9.8583C29.0909 9.72393 29.4122 9.82617 29.5641 10.0774C29.6985 10.349 29.5992 10.6704 29.345 10.8048L16.4834 17.6576C16.3812 17.7073 16.2994 17.7249 16.2118 17.7249Z" fill="#00549E"/>
<path d="M41.9348 17.7231C41.8482 17.7231 41.7646 17.7082 41.681 17.6574L28.8205 10.8047C28.5517 10.6703 28.4472 10.3329 28.5995 10.0791C28.7369 9.80734 29.0743 9.7088 29.3251 9.85809L42.1857 16.7109C42.4574 16.8482 42.5589 17.1857 42.4066 17.4365C42.3051 17.6216 42.12 17.7231 41.9348 17.7231Z" fill="#00549E"/>
<path d="M38.0703 31.6484H20.0778C19.7727 31.6484 19.5358 31.4115 19.5358 31.1094V15.4803C19.5358 15.1752 19.7727 14.9413 20.0778 14.9413C20.3828 14.9413 20.6168 15.1752 20.6168 15.4803V30.5674H37.5283V15.4803C37.5283 15.1752 37.7653 14.9413 38.0703 14.9413C38.3724 14.9413 38.6094 15.1752 38.6094 15.4803V31.1094C38.6094 31.4115 38.3724 31.6484 38.0703 31.6484Z" fill="#00549E"/>
<path d="M26.6097 30.5672H31.5207V24.3224C31.5207 23.0588 30.4912 22.0116 29.2071 22.0116H28.9058C27.6393 22.0116 26.5922 23.0412 26.5922 24.3224V30.5672H26.6097ZM32.0794 31.6465H26.0686C25.7673 31.6465 25.5304 31.4125 25.5304 31.1083V24.3224C25.5304 22.4504 27.0484 20.9294 28.9204 20.9294H29.2246C31.0995 20.9294 32.6176 22.4504 32.6176 24.3224V31.1083C32.6176 31.4125 32.3807 31.6465 32.0794 31.6465Z" fill="#00549E"/>
<path d="M10.5055 29.1706C9.91625 29.1706 9.42664 29.6602 9.42664 30.2523C9.42664 30.8416 9.91625 31.3312 10.5055 31.3312C11.0976 31.3312 11.5872 30.8416 11.5872 30.2523C11.5872 29.6602 11.0976 29.1706 10.5055 29.1706ZM10.5055 32.4299C9.30709 32.4299 8.32788 31.4507 8.32788 30.2523C8.32788 29.0539 9.30709 28.0747 10.5055 28.0747C11.7039 28.0747 12.6831 29.0539 12.6831 30.2523C12.666 31.4507 11.7039 32.4299 10.5055 32.4299Z" fill="#00549E"/>
<path d="M43.7829 8.15108C42.8872 8.15108 42.1634 8.87788 42.1634 9.77357C42.1634 10.6662 42.8872 11.3931 43.7829 11.3931C44.6785 11.3931 45.4023 10.6662 45.4023 9.77357C45.4023 8.89598 44.6785 8.15108 43.7829 8.15108ZM43.7829 12.5059C42.281 12.5059 41.0656 11.2905 41.0656 9.78865C41.0656 8.28679 42.281 7.07144 43.7829 7.07144C45.2847 7.07144 46.5001 8.28679 46.5001 9.78865C46.482 11.2905 45.2666 12.5059 43.7829 12.5059Z" fill="#00549E"/>
<path d="M7.30015 44.0663L14.9121 51.6783L17.8486 49.6864C17.9514 49.6197 18.0514 49.5864 18.1681 49.5864L37.6453 50.3115L52.1609 35.7959C52.6498 35.307 52.936 34.6486 52.936 33.9402C52.936 33.2317 52.6665 32.5733 52.1609 32.0844C51.1302 31.0537 49.4772 31.0537 48.4466 32.0844L38.4065 42.1272C38.2537 42.4967 38.0342 42.8356 37.7453 43.1218C37.0564 43.8635 36.0924 44.2525 35.0811 44.2191L23.7715 43.7302C23.4687 43.7135 23.2492 43.4579 23.2492 43.1718C23.2659 42.869 23.5187 42.6495 23.8048 42.6662L35.1145 43.1551C35.8062 43.1885 36.4813 42.919 36.9536 42.4134C37.0897 42.2606 37.223 42.0911 37.3064 41.9077C37.3064 41.7716 37.3592 41.6383 37.4592 41.5355C37.562 41.2132 37.612 40.8604 37.562 40.5215C37.4453 39.4102 36.5313 38.5157 35.4006 38.4129C35.4006 38.4129 35.4006 38.4129 35.3839 38.4129L15.1316 36.2015L7.30015 44.0663ZM14.8455 52.9285C14.7093 52.9285 14.5732 52.8785 14.4565 52.7757L6.1528 44.4719C6.05001 44.3719 6 44.2358 6 44.083C6 43.933 6.05001 43.7969 6.1528 43.6968L14.5732 35.2736C14.6927 35.157 14.8455 35.1042 15.0121 35.1208L35.5367 37.3489C37.1564 37.485 38.4565 38.7518 38.6566 40.3715L47.6882 31.3399C49.1383 29.8897 51.4858 29.8897 52.9193 31.3399C53.6111 32.0344 54 32.979 54 33.9568C54 34.9542 53.6111 35.882 52.9193 36.5738L38.2371 51.256C38.1343 51.3588 37.9843 51.4255 37.8315 51.4088L18.3042 50.6838L15.1483 52.8257C15.0649 52.8951 14.9455 52.9285 14.8455 52.9285Z" fill="#00549E"/>
<path d="M18.1532 50.6655C18.0161 50.6655 17.8818 50.6145 17.7635 50.515L12.8343 45.5858C12.6327 45.3815 12.6327 45.0294 12.8343 44.8251C13.0385 44.6236 13.3933 44.6236 13.5949 44.8251L18.5241 49.7544C18.7284 49.956 18.7284 50.3108 18.5241 50.515C18.422 50.6145 18.2876 50.6655 18.1532 50.6655Z" fill="#00549E"/>
</svg>
