<svg width="60" height="60" viewBox="0 0 60 60" fill="none" xmlns="http://www.w3.org/2000/svg">
<path d="M15.1897 52.9675H44.8103V15.2403H15.1897V52.9675ZM45.3031 54H14.6808C14.3948 54 14.1719 53.7774 14.1719 53.4904V14.7321C14.1719 14.4465 14.3948 14.2239 14.6808 14.2239H45.3192C45.6052 14.2239 45.8281 14.4465 45.8281 14.7321V53.4904C45.8281 53.7613 45.5891 54 45.3031 54Z" fill="#00549E"/>
<path d="M49.3885 49.9189H45.3026C45.0166 49.9189 44.7937 49.6977 44.7937 49.4107C44.7937 49.1265 45.0166 48.9039 45.3026 48.9039H48.8796V11.1606H19.2751V14.7329C19.2751 15.0198 19.0522 15.2411 18.7662 15.2411C18.4802 15.2411 18.2573 15.0198 18.2573 14.7329V10.6524C18.2573 10.3654 18.4802 10.1442 18.7662 10.1442H49.3885C49.6745 10.1442 49.8988 10.3654 49.8988 10.6524V49.4107C49.8988 49.6803 49.6745 49.9189 49.3885 49.9189Z" fill="#00549E"/>
<path d="M53.4764 45.8379H49.3892C49.1045 45.8379 48.8803 45.6153 48.8803 45.331C48.8803 45.0441 49.1045 44.8228 49.3892 44.8228H52.9675V7.07955H23.3617V10.6518C23.3617 10.9374 23.1401 11.16 22.8541 11.16C22.5668 11.16 22.3452 10.9374 22.3452 10.6518V6.56999C22.3452 6.28571 22.5668 6.06312 22.8541 6.06312H53.4925C53.7785 6.06312 54.0001 6.28571 54.0001 6.56999V45.331C53.9853 45.6005 53.7624 45.8379 53.4764 45.8379Z" fill="#00549E"/>
<path d="M7.0178 43.1864L8.54314 47.0121L10.0698 43.1864V20.8451C10.0698 20.003 9.38637 19.3218 8.54314 19.3218C7.70125 19.3218 7.0178 20.003 7.0178 20.8451V43.1864ZM8.54314 48.8867C8.33636 48.8867 8.14569 48.7593 8.06647 48.5689L6.03089 43.472C6.00001 43.4077 6 43.3446 6 43.2816V20.8451C6 19.4318 7.14401 18.288 8.55925 18.288C9.97449 18.288 11.1185 19.4318 11.1185 20.8451V43.2816C11.1185 43.3446 11.1037 43.4077 11.0876 43.472L9.05204 48.5689C8.94059 48.7593 8.74992 48.8867 8.54314 48.8867Z" fill="#00549E"/>
<path d="M10.5948 24.418H6.5089C6.2229 24.418 6 24.1967 6 23.9098C6 23.6241 6.2229 23.4015 6.5089 23.4015H10.5948C10.8808 23.4015 11.1037 23.6241 11.1037 23.9098C11.1037 24.1967 10.8647 24.418 10.5948 24.418Z" fill="#00549E"/>
<path d="M20.214 23.3058H29.832L25.0304 19.4627L20.214 23.3058ZM31.2956 24.3223H18.7665C18.545 24.3223 18.353 24.1801 18.2899 23.9884C18.2106 23.7832 18.2899 23.5606 18.4483 23.4171L24.7135 18.4168C24.9042 18.2733 25.1579 18.2733 25.3486 18.4168L31.5816 23.401C31.7091 23.4962 31.8045 23.6397 31.8045 23.814C31.8045 24.101 31.5816 24.3223 31.2956 24.3223Z" fill="#00549E"/>
<path d="M27.3052 32.0709H29.5153V24.3216H20.5163V32.0709H22.8366V29.7041C22.8366 28.4825 23.8396 27.4647 25.0789 27.4647C26.3196 27.4647 27.3052 28.4664 27.3052 29.7041V32.0709ZM30.0403 33.0859H26.7963C26.5103 33.0859 26.2874 32.8647 26.2874 32.5777V29.7041C26.2874 29.0377 25.7476 28.4986 25.0789 28.4986C24.4116 28.4986 23.8705 29.0377 23.8705 29.7041V32.5777C23.8705 32.8647 23.6476 33.0859 23.3616 33.0859H20.0222C19.7362 33.0859 19.5146 32.8647 19.5146 32.5777V23.8134C19.5146 23.5291 19.7362 23.3052 20.0222 23.3052H30.0564C30.3424 23.3052 30.564 23.5291 30.564 23.8134V32.5777C30.5492 32.8647 30.3263 33.0859 30.0403 33.0859Z" fill="#00549E"/>
<path d="M41.2329 22.3701H35.1114C34.8254 22.3701 34.6025 22.1475 34.6025 21.8619C34.6025 21.5763 34.8254 21.3537 35.1114 21.3537H41.2329C41.5189 21.3537 41.7418 21.5763 41.7418 21.8619C41.7418 22.1475 41.5028 22.3701 41.2329 22.3701Z" fill="#00549E"/>
<path d="M41.2329 25.4346H35.1114C34.8254 25.4346 34.6025 25.212 34.6025 24.9277C34.6025 24.6407 34.8254 24.4181 35.1114 24.4181H41.2329C41.5189 24.4181 41.7418 24.6407 41.7418 24.9277C41.7418 25.212 41.5028 25.4346 41.2329 25.4346Z" fill="#00549E"/>
<path d="M41.2329 28.5H35.1114C34.8254 28.5 34.6025 28.2774 34.6025 27.9918C34.6025 27.7048 34.8254 27.4836 35.1114 27.4836H41.2329C41.5189 27.4836 41.7418 27.7048 41.7418 27.9918C41.7418 28.2613 41.5028 28.5 41.2329 28.5Z" fill="#00549E"/>
<path d="M41.2329 31.5635H35.1114C34.8254 31.5635 34.6025 31.3409 34.6025 31.0553C34.6025 30.7683 34.8254 30.547 35.1114 30.547H41.2329C41.5189 30.547 41.7418 30.7683 41.7418 31.0553C41.7418 31.3409 41.5028 31.5635 41.2329 31.5635Z" fill="#00549E"/>
<path d="M41.2333 38.6914H18.7519C18.4646 38.6914 18.2417 38.4702 18.2417 38.1845C18.2417 37.8989 18.4646 37.6763 18.7519 37.6763H41.2172C41.5032 37.6763 41.7261 37.8989 41.7261 38.1845C41.7422 38.4702 41.5032 38.6914 41.2333 38.6914Z" fill="#00549E"/>
<path d="M41.2331 41.7568H29.9918C29.7058 41.7568 29.4829 41.5342 29.4829 41.2486C29.4829 40.963 29.7058 40.7404 29.9918 40.7404H41.2331C41.5191 40.7404 41.742 40.963 41.742 41.2486C41.742 41.5342 41.503 41.7568 41.2331 41.7568Z" fill="#00549E"/>
<path d="M27.9559 44.8223H18.7662C18.4802 44.8223 18.2573 44.5997 18.2573 44.3127C18.2573 44.0271 18.4802 43.8045 18.7662 43.8045H27.9559C28.2432 43.8045 28.4661 44.0271 28.4661 44.3127C28.4661 44.5836 28.2271 44.8223 27.9559 44.8223Z" fill="#00549E"/>
<path d="M41.2332 44.8223H36.1295C35.8435 44.8223 35.6206 44.5997 35.6206 44.3127C35.6206 44.0271 35.8435 43.8045 36.1295 43.8045H41.2332C41.5192 43.8045 41.7421 44.0271 41.7421 44.3127C41.7421 44.5836 41.5031 44.8223 41.2332 44.8223Z" fill="#00549E"/>
<path d="M23.8699 41.7568H18.7662C18.4802 41.7568 18.2573 41.5342 18.2573 41.2486C18.2573 40.963 18.4802 40.7404 18.7662 40.7404H23.8699C24.1559 40.7404 24.3788 40.963 24.3788 41.2486C24.3788 41.5195 24.1412 41.7568 23.8699 41.7568Z" fill="#00549E"/>
<path d="M41.2333 47.8691H18.7519C18.4646 47.8691 18.2417 47.6479 18.2417 47.3623C18.2417 47.0766 18.4646 46.8541 18.7519 46.8541H41.2172C41.5032 46.8541 41.7261 47.0766 41.7261 47.3623C41.7422 47.6479 41.5032 47.8691 41.2333 47.8691Z" fill="#00549E"/>
</svg>
