<svg width="60" height="60" viewBox="0 0 60 60" fill="none" xmlns="http://www.w3.org/2000/svg">
<path d="M31.1013 22.9265C31.1013 22.7501 31.0218 22.6062 30.8776 22.5112C30.7338 22.4162 30.5424 22.3212 30.3041 22.2397V23.483C30.8453 23.4531 31.1013 23.2767 31.1013 22.9265ZM29.107 19.6419C29.107 19.8157 29.1716 19.9432 29.2834 20.0572C29.4099 20.1522 29.585 20.2473 29.8247 20.326V19.0502C29.3466 19.0827 29.107 19.289 29.107 19.6419ZM31.9618 19.7369C31.9458 19.7044 31.8826 19.6582 31.7867 19.6093C31.6912 19.5442 31.5633 19.4818 31.4029 19.403C31.2441 19.3216 31.069 19.2592 30.8939 19.194C30.7015 19.1316 30.5114 19.0827 30.319 19.0502V20.4536L30.6542 20.535C31.0044 20.63 31.3236 20.7413 31.6116 20.8526C31.8986 20.9639 32.1369 21.1078 32.328 21.2842C32.5208 21.4579 32.6782 21.6507 32.7922 21.9059C32.9008 22.1447 32.9496 22.4325 32.9496 22.7663C32.9496 23.1654 32.8872 23.4993 32.7433 23.7707C32.5995 24.0422 32.423 24.2648 32.1855 24.4412C31.9618 24.6149 31.6912 24.7453 31.3883 24.8403C31.084 24.9353 30.7661 24.9841 30.4468 25.0004V26.1948H29.7291V24.9841C29.2511 24.9353 28.7877 24.8403 28.3257 24.6964C27.8637 24.5525 27.4489 24.3462 27.0664 24.0911L27.8154 22.6062C27.8477 22.6388 27.9109 22.7039 28.0391 22.7826C28.1669 22.8614 28.3097 22.9428 28.5008 23.0378C28.6935 23.1165 28.8995 23.2143 29.1392 23.293C29.3776 23.3717 29.6173 23.4368 29.857 23.4694V22.0959L29.3627 21.952C29.0274 21.857 28.7245 21.7294 28.4861 21.6181C28.2302 21.4905 28.0391 21.3629 27.8637 21.2028C27.7035 21.0453 27.577 20.8689 27.4962 20.6626C27.4166 20.4536 27.3843 20.2147 27.3843 19.9432C27.3843 19.593 27.4489 19.2755 27.577 18.9877C27.7035 18.7163 27.8637 18.4774 28.0713 18.2711C28.2785 18.0621 28.5331 17.9182 28.82 17.8069C29.1069 17.6956 29.4099 17.6169 29.7451 17.5843V16.5473H30.4631V17.5843C30.9089 17.6305 31.3236 17.7282 31.7221 17.8856C32.1223 18.0458 32.4556 18.2059 32.7433 18.3661L31.9618 19.7369Z" fill="#00549E"/>
<path d="M19.3001 52.0293H27.9434V43.0662L15.0269 32.684C15.0269 32.684 15.0269 32.684 15.011 32.684C14.3401 32.1109 13.337 32.0947 12.6502 32.6542C12.4426 32.8299 12.2677 33.0354 12.1558 33.2597C12.1558 33.3868 12.1088 33.4976 12.0279 33.5787C11.9806 33.7219 11.9647 33.8814 11.9485 34.0409C11.9322 34.5842 12.1558 35.1086 12.5545 35.4762L19.3487 41.712C19.556 41.9012 19.5709 42.2202 19.3795 42.4283C19.1884 42.6364 18.8692 42.6526 18.6619 42.4607L11.869 36.2249C11.2468 35.6519 10.9113 34.8545 10.9438 34.0085C10.96 33.6733 11.0232 33.3543 11.1511 33.0516V21.4909C11.1511 20.3421 10.2258 19.4177 9.07843 19.4177C7.92992 19.4177 7.00469 20.3421 7.00469 21.4909V38.1873L18.6308 48.9668C18.7103 49.0452 18.7573 49.1425 18.7898 49.2371L19.3001 52.0293ZM28.4538 53.0483H18.8854C18.647 53.0483 18.4235 52.8754 18.3911 52.6348L17.8175 49.6047L6.16027 38.7928C6.04837 38.6981 5.99999 38.5549 5.99999 38.4251V21.5233C5.99999 19.815 7.38716 18.4284 9.09329 18.4284C10.801 18.4284 12.1882 19.815 12.1882 21.5233V31.7758C13.24 31.027 14.6917 31.0757 15.6964 31.919L28.8054 42.4445C28.9319 42.5418 28.9952 42.6851 28.9952 42.8445V52.5537C28.9644 52.8267 28.7408 53.0483 28.4538 53.0483Z" fill="#00549E"/>
<path d="M23.9567 49.8621H18.2646C17.9752 49.8621 17.7513 49.6381 17.7513 49.3512C17.7513 49.0644 17.9752 48.8404 18.2646 48.8404H23.9567C24.2436 48.8404 24.4676 49.0644 24.4676 49.3512C24.4676 49.623 24.2436 49.8621 23.9567 49.8621Z" fill="#00549E"/>
<path d="M32.0266 52.0287H40.6683L41.1955 49.2392C41.2117 49.1256 41.2739 49.031 41.3549 48.9689L52.9809 38.1862V21.5082C52.9809 20.3593 52.0538 19.4349 50.905 19.4349C49.7561 19.4349 48.8344 20.3593 48.8344 21.5082V33.0693C48.9614 33.372 49.0263 33.691 49.0398 34.0262C49.0723 34.8695 48.7209 35.6832 48.1181 36.2427L41.3063 42.476C41.0982 42.668 40.7792 42.6517 40.59 42.4463C40.3981 42.2382 40.4143 41.9192 40.6224 41.7273L47.4153 35.494C47.8126 35.1263 48.037 34.5992 48.0208 34.0559C48.0208 33.8964 47.9883 33.7369 47.9397 33.5937C47.8613 33.5153 47.8126 33.4045 47.8126 33.2747C47.7018 33.0368 47.5261 32.8287 47.3179 32.6692C46.6341 32.1124 45.6285 32.1286 44.9582 32.7017C44.9582 32.7017 44.9582 32.7017 44.9419 32.7017L32.0266 43.0842V52.0287ZM41.0819 53.0505H31.5157C31.2292 53.0505 31.0043 52.8262 31.0043 52.5396V42.8274C31.0043 42.668 31.0689 42.5247 31.1967 42.4301L44.304 31.9042C45.3096 31.0582 46.7584 31.0122 47.8126 31.761V21.5082C47.8126 19.7998 49.202 18.4131 50.905 18.4131C52.6133 18.4131 54 19.7998 54 21.5082V38.4106C54 38.5538 53.9351 38.6809 53.8432 38.7782L42.1848 49.5906L41.609 52.6207C41.5441 52.8748 41.3225 53.0505 41.0819 53.0505Z" fill="#00549E"/>
<path d="M41.69 49.8621H35.9953C35.7084 49.8621 35.487 49.6381 35.487 49.3512C35.487 49.0644 35.7084 48.8404 35.9953 48.8404H41.69C41.9768 48.8404 42.1983 49.0644 42.1983 49.3512C42.1983 49.623 41.9768 49.8621 41.69 49.8621Z" fill="#00549E"/>
<path d="M29.9851 9.1319C23.2556 9.1319 17.7689 14.6174 17.7689 21.3478C17.7689 28.0755 23.2556 33.561 29.9851 33.561C36.7147 33.561 42.2011 28.0755 42.2011 21.3478C42.2011 14.6174 36.7147 9.1319 29.9851 9.1319ZM29.9851 34.5818C22.6805 34.5818 16.7482 28.6508 16.7482 21.3478C16.7482 14.0421 22.6805 8.11113 29.9851 8.11113C37.2884 8.11113 43.2219 14.0421 43.2219 21.3478C43.2219 28.6508 37.2884 34.5818 29.9851 34.5818Z" fill="#00549E"/>
<path d="M29.9839 14.2197C26.0597 14.2197 22.8558 17.4088 22.8558 21.35C22.8558 25.2721 26.0449 28.4776 29.9839 28.4776C33.9219 28.4776 37.1116 25.2885 37.1116 21.35C37.1116 17.4088 33.9058 14.2197 29.9839 14.2197ZM29.9839 29.4978C25.4872 29.4978 21.8351 25.8465 21.8351 21.35C21.8351 16.8508 25.4872 13.1995 29.9839 13.1995C34.4804 13.1995 38.1317 16.8508 38.1317 21.35C38.1317 25.8465 34.4804 29.4978 29.9839 29.4978Z" fill="#00549E"/>
<path d="M11.2886 8.02486C10.4415 8.02486 9.75197 8.71303 9.75197 9.56146C9.75197 10.4086 10.4415 11.0967 11.2886 11.0967C12.1357 11.0967 12.8252 10.4086 12.8252 9.56146C12.8252 8.71303 12.1357 8.02486 11.2886 8.02486ZM11.2886 12.1216C9.87586 12.1216 8.7271 10.9728 8.7271 9.56146C8.7271 8.14875 9.87586 6.99999 11.2886 6.99999C12.6999 6.99999 13.8487 8.14875 13.8487 9.56146C13.8487 10.9728 12.6999 12.1216 11.2886 12.1216Z" fill="#00549E"/>
<path d="M48.5645 8.02502C47.4346 8.02502 46.5162 8.94348 46.5162 10.0734C46.5162 11.2033 47.4346 12.1218 48.5645 12.1218C49.6944 12.1218 50.6129 11.2033 50.6129 10.0734C50.6129 8.94348 49.6944 8.02502 48.5645 8.02502ZM48.5645 13.1453C46.8704 13.1453 45.4927 11.7662 45.4927 10.0734C45.4927 8.3792 46.8704 7.00015 48.5645 7.00015C50.2587 7.00015 51.6378 8.3792 51.6378 10.0734C51.6378 11.7662 50.2587 13.1453 48.5645 13.1453Z" fill="#00549E"/>
</svg>
