<svg width="60" height="60" viewBox="0 0 60 60" fill="none" xmlns="http://www.w3.org/2000/svg">
<path d="M19.3001 52.8379H27.9434V43.8748L15.0269 33.4926C15.0269 33.4926 15.0269 33.4926 15.011 33.4926C14.3401 32.9195 13.337 32.9033 12.6502 33.4628C12.4426 33.6385 12.2677 33.844 12.1558 34.0683C12.1558 34.1954 12.1088 34.3062 12.0279 34.3873C11.9806 34.5305 11.9647 34.69 11.9485 34.8495C11.9322 35.3928 12.1558 35.9172 12.5545 36.2848L19.3487 42.5206C19.5561 42.7098 19.5709 43.0287 19.3795 43.2369C19.1884 43.445 18.8692 43.4612 18.6619 43.2693L11.869 37.0335C11.2468 36.4605 10.9113 35.6631 10.9438 34.817C10.96 34.4819 11.0232 34.1629 11.1511 33.8602V22.2995C11.1511 21.1507 10.2259 20.2263 9.07843 20.2263C7.92993 20.2263 7.0047 21.1507 7.0047 22.2995V38.9959L18.6308 49.7754C18.7103 49.8538 18.7573 49.9511 18.7898 50.0457L19.3001 52.8379ZM28.4538 53.8569H18.8855C18.647 53.8569 18.4235 53.6839 18.3911 53.4434L17.8175 50.4133L6.16028 39.6013C6.04838 39.5067 6 39.3635 6 39.2337V22.3319C6 20.6236 7.38716 19.237 9.09329 19.237C10.801 19.237 12.1882 20.6236 12.1882 22.3319V32.5844C13.24 31.8356 14.6917 31.8843 15.6964 32.7276L28.8054 43.2531C28.9319 43.3504 28.9952 43.4936 28.9952 43.6531V53.3623C28.9644 53.6353 28.7408 53.8569 28.4538 53.8569Z" fill="#00549E"/>
<path d="M23.9567 50.6704H18.2646C17.9752 50.6704 17.7513 50.4465 17.7513 50.1596C17.7513 49.8727 17.9752 49.6488 18.2646 49.6488H23.9567C24.2436 49.6488 24.4676 49.8727 24.4676 50.1596C24.4676 50.4314 24.2436 50.6704 23.9567 50.6704Z" fill="#00549E"/>
<path d="M32.0266 52.8373H40.6683L41.1955 50.0478C41.2117 49.9342 41.2739 49.8396 41.3549 49.7775L52.9809 38.9948V22.3168C52.9809 21.1679 52.0538 20.2435 50.905 20.2435C49.7561 20.2435 48.8344 21.1679 48.8344 22.3168V33.8779C48.9614 34.1806 49.0263 34.4996 49.0398 34.8348C49.0723 35.6781 48.7209 36.4918 48.1181 37.0513L41.3063 43.2846C41.0982 43.4766 40.7792 43.4603 40.59 43.2549C40.3981 43.0467 40.4143 42.7278 40.6224 42.5359L47.4153 36.3026C47.8126 35.9349 48.037 35.4078 48.0208 34.8645C48.0208 34.705 47.9883 34.5455 47.9397 34.4023C47.8613 34.3239 47.8126 34.2131 47.8126 34.0833C47.7018 33.8454 47.5261 33.6373 47.3179 33.4778C46.6341 32.921 45.6285 32.9372 44.9582 33.5102C44.9582 33.5102 44.9582 33.5102 44.9419 33.5102L32.0266 43.8928V52.8373ZM41.0819 53.8591H31.5157C31.2292 53.8591 31.0043 53.6348 31.0043 53.3482V43.636C31.0043 43.4766 31.0689 43.3333 31.1967 43.2387L44.304 32.7128C45.3096 31.8668 46.7584 31.8208 47.8126 32.5696V22.3168C47.8126 20.6084 49.202 19.2217 50.905 19.2217C52.6133 19.2217 54 20.6084 54 22.3168V39.2192C54 39.3624 53.9351 39.4895 53.8432 39.5868L42.1848 50.3992L41.609 53.4293C41.5441 53.6834 41.3225 53.8591 41.0819 53.8591Z" fill="#00549E"/>
<path d="M41.6899 50.6704H35.9953C35.7084 50.6704 35.487 50.4465 35.487 50.1596C35.487 49.8727 35.7084 49.6488 35.9953 49.6488H41.6899C41.9768 49.6488 42.1983 49.8727 42.1983 50.1596C42.1983 50.4314 41.9768 50.6704 41.6899 50.6704Z" fill="#00549E"/>
<path d="M44.2564 17.3645C43.9722 17.3645 43.7433 17.1342 43.7433 16.8514V14.0704L30.245 8.07211L16.7468 14.0704V16.8514C16.7468 17.1342 16.5192 17.3645 16.2351 17.3645C15.9523 17.3645 15.7233 17.1342 15.7233 16.8514V13.7391C15.7233 13.5358 15.8432 13.3526 16.0277 13.2705L30.0376 7.04456C30.1696 6.9853 30.3205 6.9853 30.4524 7.04456L44.4624 13.2705C44.6483 13.3526 44.7668 13.5358 44.7668 13.7391V16.8514C44.7681 17.1342 44.5378 17.3645 44.2564 17.3645Z" fill="#00549E"/>
<path d="M34.8549 31.7032H40.0074V16.8811L30.2504 13.5601L20.484 17.0858V31.7032H25.7362V25.4746C25.7362 22.9616 27.7819 20.9159 30.2949 20.9159C32.8092 20.9159 34.8549 22.9616 34.8549 25.4746V31.7032ZM40.5192 32.728H34.3431C34.059 32.728 33.83 32.4991 33.83 32.2163V25.4746C33.83 23.5259 32.2449 21.9408 30.2949 21.9408C28.3462 21.9408 26.7597 23.5259 26.7597 25.4746V32.2163C26.7597 32.4991 26.5308 32.728 26.248 32.728H19.9722C19.6894 32.728 19.4591 32.4991 19.4591 32.2163V16.7263C19.4591 16.5108 19.5952 16.3182 19.7985 16.2455L30.0713 12.5352C30.1818 12.4948 30.3016 12.4948 30.4107 12.5312L40.6848 16.0287C40.8922 16.1 41.031 16.294 41.031 16.5148V32.2163C41.031 32.4991 40.8034 32.728 40.5192 32.728Z" fill="#00549E"/>
<path d="M9.06648 12.2431C8.21939 12.2431 7.52987 12.9313 7.52987 13.7797C7.52987 14.6268 8.21939 15.315 9.06648 15.315C9.91357 15.315 10.6031 14.6268 10.6031 13.7797C10.6031 12.9313 9.91357 12.2431 9.06648 12.2431ZM9.06648 16.3398C7.65376 16.3398 6.505 15.1911 6.505 13.7797C6.505 12.367 7.65376 11.2183 9.06648 11.2183C10.4778 11.2183 11.6266 12.367 11.6266 13.7797C11.6266 15.1911 10.4778 16.3398 9.06648 16.3398Z" fill="#00549E"/>
<path d="M50.5483 8.14635C49.4184 8.14635 48.4999 9.06481 48.4999 10.1947C48.4999 11.3246 49.4184 12.2431 50.5483 12.2431C51.6782 12.2431 52.5966 11.3246 52.5966 10.1947C52.5966 9.06481 51.6782 8.14635 50.5483 8.14635ZM50.5483 13.2666C48.8541 13.2666 47.4764 11.8875 47.4764 10.1947C47.4764 8.50054 48.8541 7.12149 50.5483 7.12149C52.2424 7.12149 53.6215 8.50054 53.6215 10.1947C53.6215 11.8875 52.2424 13.2666 50.5483 13.2666Z" fill="#00549E"/>
</svg>
