<svg width="60" height="60" viewBox="0 0 60 60" fill="none" xmlns="http://www.w3.org/2000/svg">
<path d="M31.3876 31.3022C31.3876 31.0986 31.3078 30.9432 31.1356 30.8172C30.9634 30.6912 30.745 30.5967 30.4784 30.5023V31.9133C31.0894 31.8986 31.3876 31.6949 31.3876 31.3022ZM29.0989 27.5417C29.0989 27.7453 29.1619 27.9028 29.3025 28.012C29.4432 28.1212 29.6469 28.2304 29.9304 28.3101V26.8529C29.3823 26.8991 29.0989 27.1343 29.0989 27.5417ZM32.3744 27.6508C32.3597 27.6214 32.282 27.5731 32.1707 27.4955C32.0616 27.4178 31.9041 27.3548 31.7319 27.2603C31.5597 27.1805 31.3561 27.1028 31.1356 27.023C30.9172 26.9453 30.6988 26.8991 30.4784 26.8676V28.4655L30.8542 28.56C31.2616 28.6713 31.6227 28.7952 31.9356 28.9212C32.2652 29.0471 32.5319 29.2172 32.7503 29.4083C32.9687 29.5931 33.1408 29.8303 33.2689 30.1117C33.3949 30.3931 33.4558 30.7227 33.4558 31.0986C33.4558 31.5521 33.376 31.9301 33.2206 32.2429C33.0652 32.5579 32.8616 32.8224 32.5949 33.0114C32.3282 33.2151 32.0301 33.3705 31.6857 33.465C31.3393 33.5741 30.9802 33.6224 30.6044 33.6392V35.002H29.7897V33.6224C29.2395 33.5741 28.7083 33.4649 28.175 33.2928C27.6417 33.1206 27.1734 32.8854 26.7325 32.6041L27.5787 30.9117C27.6102 30.9579 27.6879 31.0209 27.8306 31.0986C27.9713 31.1931 28.1435 31.2875 28.3619 31.3799C28.5823 31.4765 28.8175 31.5689 29.0842 31.6634C29.3487 31.7579 29.6322 31.8209 29.9157 31.8524V30.2839L29.3487 30.1117C28.9582 29.9878 28.6306 29.8618 28.3472 29.719C28.0637 29.5805 27.8306 29.423 27.6417 29.234C27.4527 29.0471 27.312 28.8414 27.2343 28.6062C27.1419 28.3731 27.0936 28.0897 27.0936 27.7768C27.0936 27.3695 27.1734 27.0104 27.312 26.6808C27.4527 26.3658 27.6417 26.0844 27.8936 25.864C28.1288 25.6309 28.4102 25.4566 28.7398 25.3327C29.0674 25.2068 29.4117 25.1123 29.7897 25.0808V23.8902H30.6044V25.0808C31.1209 25.1291 31.5912 25.2383 32.0448 25.4272C32.5004 25.6141 32.8909 25.7863 33.2206 25.9752L32.3744 27.6508Z" fill="#00549E"/>
<path d="M51.1176 29.9873C50.8341 29.9873 50.6166 29.7676 50.6166 29.4841C50.6166 18.1702 41.4165 8.97005 30.1025 8.97005C24.4928 8.97005 19.2588 11.1959 15.3564 15.2236C15.1696 15.4279 14.8554 15.4279 14.651 15.239C14.4467 15.0522 14.4467 14.738 14.6357 14.5336C18.7271 10.3038 24.2115 7.98345 30.1025 7.98345C35.8551 7.98345 41.2451 10.2247 45.3189 14.2831C49.3795 18.3416 51.6186 23.7491 51.6186 29.4995C51.6186 29.7676 51.3989 29.9873 51.1176 29.9873Z" fill="#00549E"/>
<path d="M30.1039 51C24.3515 51 18.9611 48.7598 14.8862 44.6994C10.8278 40.6411 8.5856 35.2341 8.5856 29.4858C8.5856 29.2024 8.80692 28.9831 9.08824 28.9831C9.37162 28.9831 9.58881 29.2024 9.58881 29.4858C9.58881 40.7983 18.7873 49.9968 30.1039 49.9968C35.8067 49.9968 41.1186 47.709 45.0363 43.5555C45.2266 43.3528 45.5389 43.3528 45.7416 43.5411C45.9464 43.7293 45.9464 44.0416 45.7582 44.2464C43.7683 46.3625 41.4164 48.0235 38.7667 49.1818C36.0425 50.3898 33.1281 51 30.1039 51Z" fill="#00549E"/>
<path d="M51.0224 30.3928C50.8975 30.3928 50.7726 30.347 50.6622 30.2534L48.1561 27.7451C47.9667 27.5578 47.9667 27.2289 48.1561 27.0415C48.3434 26.8521 48.6723 26.8521 48.8596 27.0415L51.0078 29.1876L53.1539 27.0415C53.3412 26.8521 53.6701 26.8521 53.8595 27.0415C54.0469 27.2289 54.0469 27.5578 53.8595 27.7451L51.3533 30.2534C51.2721 30.347 51.1472 30.3928 51.0224 30.3928Z" fill="#00549E"/>
<path d="M11.5021 30.3925C11.3751 30.3925 11.2502 30.3467 11.142 30.2531L8.99379 28.107L6.84772 30.2531C6.6583 30.4404 6.32941 30.4404 6.14207 30.2531C5.95264 30.0657 5.95264 29.7347 6.14207 29.5474L8.64826 27.0412C8.83768 26.8518 9.16655 26.8518 9.35389 27.0412L11.8622 29.5474C12.0495 29.7347 12.0495 30.0657 11.8622 30.2531C11.7518 30.3467 11.627 30.3925 11.5021 30.3925Z" fill="#00549E"/>
<path d="M30.1034 14.9871C22.1114 14.9871 15.593 21.4926 15.593 29.4975C15.593 37.5068 22.0963 44.0102 30.1034 44.0102C38.0954 44.0102 44.6139 37.5068 44.6139 29.4975C44.6139 21.4926 38.1106 14.9871 30.1034 14.9871ZM30.1034 44.9976C21.5475 44.9976 14.5905 38.0405 14.5905 29.4846C14.5905 20.9265 21.5475 13.9694 30.1034 13.9694C38.6594 13.9694 45.6186 20.9265 45.6186 29.4846C45.6186 38.0405 38.6594 44.9976 30.1034 44.9976Z" fill="#00549E"/>
<path d="M30.1046 20.9885C25.4179 20.9885 21.5955 24.7981 21.5955 29.4976C21.5955 34.1843 25.4009 38.0089 30.1046 38.0089C34.7892 38.0089 38.6138 34.2013 38.6138 29.4976C38.6138 24.7981 34.8041 20.9885 30.1046 20.9885ZM30.1046 38.9963C24.87 38.9963 20.608 34.7322 20.608 29.4976C20.608 24.2651 24.87 20.0031 30.1046 20.0031C35.3371 20.0031 39.6012 24.2651 39.6012 29.4976C39.6161 34.7322 35.3541 38.9963 30.1046 38.9963Z" fill="#00549E"/>
<path d="M23.5072 27.8851H25.5119V29.8918H23.5072V27.8851Z" fill="#00549E"/>
<path d="M34.5079 27.8851H36.5125V29.8918H34.5079V27.8851Z" fill="#00549E"/>
</svg>
