<svg width="60" height="60" viewBox="0 0 60 60" fill="none" xmlns="http://www.w3.org/2000/svg">
<path d="M14.678 27.5092C13.8352 27.5092 13.1474 28.1965 13.1474 29.0411C13.1474 29.8873 13.8352 30.5734 14.678 30.5734C15.5234 30.5734 16.2113 29.8873 16.2113 29.0411C16.2113 28.1965 15.5234 27.5092 14.678 27.5092ZM14.678 31.5955C13.2707 31.5955 12.126 30.45 12.126 29.0411C12.126 27.6326 13.2707 26.4887 14.678 26.4887C16.0879 26.4887 17.2326 27.6326 17.2326 29.0411C17.2326 30.45 16.0879 31.5955 14.678 31.5955Z" fill="#00549E"/>
<path d="M9.65776 23.4245C8.76735 23.4245 8.03908 24.151 8.03908 25.044V44.2746C8.03908 45.1661 8.76735 45.8927 9.65776 45.8927H50.3379C51.2283 45.8927 51.9537 45.1661 51.9537 44.2746V25.044C51.9537 24.151 51.2283 23.4245 50.3379 23.4245H9.65776ZM50.3379 46.9146H9.65776C8.20409 46.9146 7.01783 45.73 7.01783 44.2746V25.044C7.01783 23.5883 8.20409 22.4041 9.65776 22.4041H50.3379C51.7916 22.4041 52.9778 23.5883 52.9778 25.044V44.2746C52.9778 45.73 51.7916 46.9146 50.3379 46.9146Z" fill="#00549E"/>
<path d="M45.3167 27.5092C44.4727 27.5092 43.7862 28.1968 43.7862 29.0414C43.7862 29.8874 44.4727 30.5736 45.3167 30.5736C46.1608 30.5736 46.8501 29.8874 46.8501 29.0414C46.8501 28.1968 46.1608 27.5092 45.3167 27.5092ZM45.3167 31.5955C43.91 31.5955 42.7621 30.4501 42.7621 29.0414C42.7621 27.6327 43.91 26.4888 45.3167 26.4888C46.7263 26.4888 47.8713 27.6327 47.8713 29.0414C47.8713 30.4501 46.7263 31.5955 45.3167 31.5955Z" fill="#00549E"/>
<path d="M45.3166 27.509C45.0365 27.509 44.8069 27.2807 44.8069 26.9987V13.7224C44.8069 13.4403 45.0365 13.2121 45.3166 13.2121C45.5995 13.2121 45.8292 13.4403 45.8292 13.7224V26.9987C45.8292 27.2807 45.5995 27.509 45.3166 27.509Z" fill="#00549E"/>
<path d="M14.6783 27.5088C14.3961 27.5088 14.1688 27.2804 14.1688 26.9985V13.7214C14.1688 13.4392 14.3961 13.2119 14.6783 13.2119C14.9605 13.2119 15.1904 13.4392 15.1904 13.7214V26.9985C15.1904 27.2804 14.9605 27.5088 14.6783 27.5088Z" fill="#00549E"/>
<path d="M20.8053 42.8298H7.5315C7.24789 42.8298 7.01729 42.6016 7.01729 42.3183C7.01729 42.0362 7.24789 41.8094 7.5315 41.8094H20.8053C21.0889 41.8094 21.3169 42.0362 21.3169 42.3183C21.3169 42.6016 21.0889 42.8298 20.8053 42.8298Z" fill="#00549E"/>
<path d="M52.4658 42.8298H28.9766C28.6949 42.8298 28.4674 42.6014 28.4674 42.3181C28.4674 42.0362 28.6949 41.8091 28.9766 41.8091H52.4658C52.7474 41.8091 52.9778 42.0362 52.9778 42.3181C52.9778 42.6014 52.7474 42.8298 52.4658 42.8298Z" fill="#00549E"/>
<path d="M12.1284 11.1691C11.0012 11.1691 10.0835 12.0847 10.0835 13.2114C10.0835 14.3366 11.0012 15.254 12.1284 15.254H47.8741C48.9984 15.254 49.9133 14.3366 49.9133 13.2114C49.9133 12.0847 48.9984 11.1691 47.8741 11.1691H12.1284ZM47.8741 16.2759H12.1284C10.4376 16.2759 9.06392 14.9008 9.06392 13.2114C9.06392 11.5223 10.4376 10.1472 12.1284 10.1472H47.8741C49.5621 10.1472 50.9357 11.5223 50.9357 13.2114C50.9357 14.9008 49.5621 16.2759 47.8741 16.2759Z" fill="#00549E"/>
<path d="M53.4897 51H6.51032C6.22807 51 6 50.7702 6 50.4883C6 50.2063 6.22807 49.9782 6.51032 49.9782H53.4897C53.7691 49.9782 54 50.2063 54 50.4883C54 50.7702 53.7691 51 53.4897 51Z" fill="#00549E"/>
<path d="M13.1948 39.2463V34.176H16.6372V35.2045H14.3667V36.2963H16.2387V37.2469H14.3667V39.2463H13.1948Z" fill="#00549E"/>
<path d="M18.0442 36.7181C18.0442 36.9143 18.0734 37.1022 18.1291 37.2861C18.1875 37.4687 18.2698 37.6327 18.3812 37.7763C18.4954 37.9173 18.6334 38.0327 18.8006 38.1174C18.9678 38.2033 19.1562 38.2464 19.3712 38.2464C19.5941 38.2464 19.7905 38.202 19.9577 38.1107C20.1249 38.0207 20.263 37.9027 20.3718 37.7575C20.4806 37.6112 20.5629 37.4485 20.6159 37.2646C20.6717 37.082 20.7009 36.8941 20.7009 36.7033C20.7009 36.5101 20.6717 36.3206 20.6133 36.1366C20.5575 35.954 20.47 35.7916 20.3585 35.6507C20.2417 35.5111 20.1037 35.3983 19.9392 35.3163C19.7746 35.2329 19.5862 35.1913 19.3712 35.1913C19.1482 35.1913 18.9545 35.2343 18.7899 35.3229C18.6254 35.4115 18.4874 35.5257 18.3759 35.6695C18.2644 35.8118 18.1822 35.9742 18.1264 36.1582C18.0707 36.3407 18.0442 36.5289 18.0442 36.7181ZM19.3659 39.2883C18.989 39.2883 18.6466 39.2159 18.3361 39.068C18.0256 38.9192 17.7628 38.727 17.5425 38.4852C17.3249 38.245 17.1551 37.9708 17.033 37.6609C16.9109 37.3519 16.8498 37.0324 16.8498 36.7033C16.8498 36.3705 16.9135 36.0509 17.0409 35.7393C17.1657 35.4304 17.3408 35.1578 17.5664 34.9213C17.7947 34.6878 18.0627 34.4986 18.3706 34.359C18.6811 34.2178 19.0182 34.148 19.3845 34.148C19.7613 34.148 20.1037 34.2217 20.4142 34.3696C20.7247 34.5161 20.9875 34.712 21.2051 34.9551C21.4254 35.1968 21.5953 35.4734 21.7147 35.7823C21.8315 36.0923 21.8925 36.4065 21.8925 36.7264C21.8925 37.0592 21.8288 37.3801 21.7014 37.689C21.5767 37.9993 21.4015 38.2718 21.1786 38.5067C20.953 38.7432 20.6876 38.9324 20.3771 39.0749C20.0692 39.2172 19.7321 39.2883 19.3659 39.2883Z" fill="#00549E"/>
<path d="M23.7404 36.5904H24.814C24.9509 36.5904 25.069 36.5246 25.171 36.3944C25.2677 36.2626 25.3187 36.0949 25.3187 35.8909C25.3187 35.6813 25.2623 35.5135 25.1469 35.3898C25.0341 35.2676 24.9107 35.2045 24.7765 35.2045H23.7404V36.5904ZM22.5701 39.2463V34.176H24.857C25.0932 34.176 25.3133 34.227 25.5146 34.3263C25.7186 34.4259 25.893 34.5574 26.0407 34.7184C26.1883 34.8808 26.3037 35.0636 26.3869 35.269C26.4701 35.4732 26.5104 35.6812 26.5104 35.8893C26.5104 36.0479 26.4916 36.1982 26.454 36.3432C26.4165 36.4884 26.3601 36.6253 26.2903 36.7541C26.2178 36.8832 26.132 36.9986 26.03 37.0993C25.928 37.2026 25.8098 37.2888 25.6837 37.3612L26.7976 39.2463H25.477L24.5053 37.6109H23.7404V39.2463H22.5701Z" fill="#00549E"/>
<path d="M30.1877 36.5909H31.2581C31.397 36.5909 31.5168 36.525 31.6149 36.3948C31.7157 36.2633 31.7647 36.0952 31.7647 35.8912C31.7647 35.6818 31.7075 35.514 31.5958 35.3904C31.4787 35.2681 31.3561 35.2051 31.2227 35.2051H30.1877V36.5909ZM29.0192 39.2468V34.1764H31.3017C31.5386 34.1764 31.7592 34.2276 31.9635 34.3267C32.1651 34.4261 32.3394 34.5577 32.4865 34.7189C32.6363 34.8816 32.7507 35.064 32.8324 35.2694C32.9168 35.4737 32.9577 35.6818 32.9577 35.8899C32.9577 36.0484 32.9386 36.1987 32.9005 36.3436C32.8651 36.4888 32.8079 36.6258 32.737 36.7546C32.6662 36.8835 32.5791 36.999 32.4756 37.0997C32.3748 37.2032 32.2577 37.289 32.1296 37.3615L33.2436 39.2468H31.9227L30.9503 37.6115H30.1877V39.2468H29.0192Z" fill="#00549E"/>
<path d="M37.3651 38.2177V39.2461H33.8025V34.1759H37.3019V35.2043H34.9735V36.1901H36.972V37.1393H34.9735V38.2177H37.3651Z" fill="#00549E"/>
<path d="M39.2479 36.3482V39.2473H38.0773V34.1768H38.9921L41.3529 37.1538V34.1768H42.5263V39.2473H41.5809L39.2479 36.3482Z" fill="#00549E"/>
<path d="M47.3613 35.2048H45.8185V39.2466H44.6466V35.2048H43.0981V34.1762H47.3613V35.2048Z" fill="#00549E"/>
</svg>
