<svg width="60" height="60" viewBox="0 0 60 60" fill="none" xmlns="http://www.w3.org/2000/svg">
<path d="M42.2546 51.7021H12.6396C12.3578 51.7021 12.1282 51.4725 12.1282 51.1908V13.4058C12.1282 13.1223 12.3578 12.8944 12.6396 12.8944H16.7254C17.0072 12.8944 17.2351 13.1223 17.2351 13.4058C17.2351 13.6858 17.0072 13.9154 16.7254 13.9154H13.151V50.6794H41.7449V47.1049C41.7449 46.8231 41.9728 46.5935 42.2546 46.5935C42.5363 46.5935 42.766 46.8231 42.766 47.1049V51.1908C42.7642 51.4725 42.5363 51.7021 42.2546 51.7021Z" fill="#00549E"/>
<path d="M48.3821 43.5325H16.7234C16.4426 43.5325 16.2134 43.3033 16.2134 43.0225C16.2134 42.74 16.4426 42.5107 16.7234 42.5107H48.3821C48.6628 42.5107 48.8921 42.74 48.8921 43.0225C48.8921 43.3033 48.6628 43.5325 48.3821 43.5325Z" fill="#00549E"/>
<path d="M17.2351 46.5941H47.8721V13.6187L42.0436 7.79018H17.2351V46.5941ZM48.3821 47.6177H16.7234C16.4426 47.6177 16.2134 47.3884 16.2134 47.1059V7.27841C16.2134 6.99765 16.4426 6.76841 16.7234 6.76841H42.2551C42.3919 6.76841 42.5198 6.82171 42.6158 6.91767L48.7428 13.0447C48.8388 13.1407 48.8921 13.2704 48.8921 13.4072V47.1059C48.8921 47.3884 48.6628 47.6177 48.3821 47.6177Z" fill="#00549E"/>
<path d="M23.874 16.8921C23.7127 16.8921 23.5513 16.8149 23.4535 16.6724C23.2939 16.4407 23.3522 16.1215 23.5839 15.9619L30.8486 10.942C31.022 10.8219 31.2537 10.8219 31.4287 10.942L38.6951 15.9619C38.9268 16.1215 38.9852 16.4407 38.8256 16.6724C38.6642 16.9041 38.3467 16.9624 38.115 16.8028L31.1387 11.982L24.164 16.8028C24.0748 16.8629 23.9735 16.8921 23.874 16.8921Z" fill="#00549E"/>
<path d="M36.2132 23.1074H25.8017C25.5208 23.1074 25.291 22.8793 25.291 22.5967V15.0503C25.291 14.7677 25.5208 14.5379 25.8017 14.5379C26.0843 14.5379 26.3141 14.7677 26.3141 15.0503V22.0877H35.7025V14.9413C35.7025 14.6588 35.9306 14.4306 36.2132 14.4306C36.494 14.4306 36.7239 14.6588 36.7239 14.9413V22.5967C36.7239 22.8793 36.494 23.1074 36.2132 23.1074Z" fill="#00549E"/>
<path d="M32.2765 19.6506H29.7626C29.4807 19.6506 29.2524 19.4224 29.2524 19.1405C29.2524 18.8585 29.4807 18.6303 29.7626 18.6303H32.2765C32.5602 18.6303 32.7884 18.8585 32.7884 19.1405C32.7884 19.4224 32.5602 19.6506 32.2765 19.6506Z" fill="#00549E"/>
<path d="M51.4467 7.78878C50.6022 7.78878 49.915 8.47414 49.915 9.31863C49.915 10.1649 50.6022 10.8521 51.4467 10.8521C52.2911 10.8521 52.9783 10.1649 52.9783 9.31863C52.9783 8.47414 52.2911 7.78878 51.4467 7.78878ZM51.4467 11.8738C50.0398 11.8738 48.8933 10.7273 48.8933 9.31863C48.8933 7.91175 50.0398 6.76708 51.4467 6.76708C52.8553 6.76708 54 7.91356 54 9.31863C54 10.7273 52.8553 11.8738 51.4467 11.8738Z" fill="#00549E"/>
<path d="M8.04325 33.3202C7.47916 33.3202 7.02162 33.7778 7.02162 34.3419C7.02162 34.9044 7.47916 35.3619 8.04325 35.3619C8.60734 35.3619 9.06488 34.9044 9.06488 34.3419C9.06488 33.7778 8.60734 33.3202 8.04325 33.3202ZM8.04325 36.3835C6.9182 36.3835 6 35.4669 6 34.3419C6 33.2137 6.9182 32.2986 8.04325 32.2986C9.16986 32.2986 10.0849 33.2137 10.0849 34.3419C10.0849 35.4669 9.16986 36.3835 8.04325 36.3835Z" fill="#00549E"/>
<path d="M21.8327 39.4468H20.811C20.5285 39.4468 20.2993 39.2176 20.2993 38.9335C20.2993 38.6526 20.5285 38.4234 20.811 38.4234H21.8327C22.1136 38.4234 22.3428 38.6526 22.3428 38.9335C22.3428 39.2176 22.1136 39.4468 21.8327 39.4468Z" fill="#00549E"/>
<path d="M44.297 39.4482H24.8944C24.6123 39.4482 24.3828 39.2187 24.3828 38.9349C24.3828 38.6546 24.6123 38.4251 24.8944 38.4251H44.297C44.5791 38.4251 44.8086 38.6546 44.8086 38.9349C44.8086 39.2187 44.5791 39.4482 44.297 39.4482Z" fill="#00549E"/>
<path d="M21.8327 36.3818H20.811C20.5285 36.3818 20.2993 36.1543 20.2993 35.8718C20.2993 35.5877 20.5285 35.3601 20.811 35.3601H21.8327C22.1136 35.3601 22.3428 35.5877 22.3428 35.8718C22.3428 36.1543 22.1136 36.3818 21.8327 36.3818Z" fill="#00549E"/>
<path d="M44.297 36.3823H24.8944C24.6123 36.3823 24.3828 36.1546 24.3828 35.8725C24.3828 35.5887 24.6123 35.361 24.8944 35.361H44.297C44.5791 35.361 44.8086 35.5887 44.8086 35.8725C44.8086 36.1546 44.5791 36.3823 44.297 36.3823Z" fill="#00549E"/>
<path d="M21.8327 33.3184H20.811C20.5285 33.3184 20.2993 33.0891 20.2993 32.8083C20.2993 32.5242 20.5285 32.295 20.811 32.295H21.8327C22.1136 32.295 22.3428 32.5242 22.3428 32.8083C22.3428 33.0891 22.1136 33.3184 21.8327 33.3184Z" fill="#00549E"/>
<path d="M44.297 33.3198H24.8944C24.6123 33.3198 24.3828 33.0903 24.3828 32.8083C24.3828 32.5262 24.6123 32.2967 24.8944 32.2967H44.297C44.5791 32.2967 44.8086 32.5262 44.8086 32.8083C44.8086 33.0903 44.5791 33.3198 44.297 33.3198Z" fill="#00549E"/>
<path d="M21.8327 30.2546H20.811C20.5285 30.2546 20.2993 30.027 20.2993 29.7446C20.2993 29.4621 20.5285 29.2329 20.811 29.2329H21.8327C22.1136 29.2329 22.3428 29.4621 22.3428 29.7446C22.3428 30.027 22.1136 30.2546 21.8327 30.2546Z" fill="#00549E"/>
<path d="M44.297 30.2559H24.8944C24.6123 30.2559 24.3828 30.0281 24.3828 29.7461C24.3828 29.4622 24.6123 29.2327 24.8944 29.2327H44.297C44.5791 29.2327 44.8086 29.4622 44.8086 29.7461C44.8086 30.0281 44.5791 30.2559 44.297 30.2559Z" fill="#00549E"/>
<path d="M21.8327 27.1909H20.811C20.5285 27.1909 20.2993 26.9633 20.2993 26.6793C20.2993 26.3984 20.5285 26.1692 20.811 26.1692H21.8327C22.1136 26.1692 22.3428 26.3984 22.3428 26.6793C22.3428 26.9633 22.1136 27.1909 21.8327 27.1909Z" fill="#00549E"/>
<path d="M44.297 27.1919H24.8944C24.6123 27.1919 24.3828 26.9641 24.3828 26.6821C24.3828 26.4 24.6123 26.1705 24.8944 26.1705H44.297C44.5791 26.1705 44.8086 26.4 44.8086 26.6821C44.8086 26.9641 44.5791 27.1919 44.297 27.1919Z" fill="#00549E"/>
<path d="M37.1492 23.1062H24.8938C24.6136 23.1062 24.3831 22.8773 24.3831 22.5955C24.3831 22.3154 24.6136 22.0865 24.8938 22.0865H37.1492C37.431 22.0865 37.6599 22.3154 37.6599 22.5955C37.6599 22.8773 37.431 23.1062 37.1492 23.1062Z" fill="#00549E"/>
</svg>
