<svg width="60" height="60" viewBox="0 0 60 60" fill="none" xmlns="http://www.w3.org/2000/svg">
<path d="M16.0379 21.3189C15.5581 21.3189 15.1678 21.7092 15.1678 22.189V42.9196C15.1678 43.3994 15.5581 43.7882 16.0379 43.7882H51.0649C51.5447 43.7882 51.9334 43.3994 51.9334 42.9196V22.189C51.9334 21.7092 51.5447 21.3189 51.0649 21.3189H16.0379ZM51.0649 44.8096H16.0379C14.9954 44.8096 14.1464 43.9606 14.1464 42.9196V22.189C14.1464 21.1465 14.9954 20.2991 16.0379 20.2991H51.0649C52.1058 20.2991 52.9548 21.1465 52.9548 22.189V42.9196C52.9548 43.9606 52.1058 44.8096 51.0649 44.8096Z" fill="#00549E"/>
<path d="M21.8071 25.4046C20.9616 25.4046 20.2762 26.0916 20.2762 26.9355C20.2762 27.7795 20.9616 28.4681 21.8071 28.4681C22.6527 28.4681 23.3381 27.7795 23.3381 26.9355C23.3381 26.0916 22.6527 25.4046 21.8071 25.4046ZM21.8071 29.4897C20.3995 29.4897 19.2529 28.3448 19.2529 26.9355C19.2529 25.5279 20.3995 24.3829 21.8071 24.3829C23.2148 24.3829 24.3598 25.5279 24.3598 26.9355C24.3598 28.3448 23.2148 29.4897 21.8071 29.4897Z" fill="#00549E"/>
<path d="M45.2947 25.4046C44.4507 25.4046 43.7638 26.0916 43.7638 26.9355C43.7638 27.7795 44.4507 28.4681 45.2947 28.4681C46.1418 28.4681 46.8272 27.7795 46.8272 26.9355C46.8272 26.0916 46.1418 25.4046 45.2947 25.4046ZM45.2947 29.4897C43.8887 29.4897 42.7421 28.3448 42.7421 26.9355C42.7421 25.5279 43.8887 24.3829 45.2947 24.3829C46.7039 24.3829 47.8489 25.5279 47.8489 26.9355C47.8489 28.3448 46.7039 29.4897 45.2947 29.4897Z" fill="#00549E"/>
<path d="M45.296 25.4038C45.015 25.4038 44.7861 25.175 44.7861 24.8922V11.6163C44.7861 11.3353 45.015 11.1064 45.296 11.1064C45.5787 11.1064 45.8076 11.3353 45.8076 11.6163V24.8922C45.8076 25.175 45.5787 25.4038 45.296 25.4038Z" fill="#00549E"/>
<path d="M21.8088 25.4038C21.5244 25.4038 21.2972 25.175 21.2972 24.8922V11.6163C21.2972 11.3353 21.5244 11.1064 21.8088 11.1064C22.0899 11.1064 22.3187 11.3353 22.3187 11.6163V24.8922C22.3187 25.175 22.0899 25.4038 21.8088 25.4038Z" fill="#00549E"/>
<path d="M20.785 40.7241H14.6589C14.377 40.7241 14.1464 40.495 14.1464 40.2131C14.1464 39.9312 14.377 39.7021 14.6589 39.7021H20.785C21.0669 39.7021 21.296 39.9297 21.296 40.2131C21.2975 40.495 21.0669 40.7241 20.785 40.7241Z" fill="#00549E"/>
<path d="M52.4433 40.7241H28.955C28.6746 40.7241 28.444 40.495 28.444 40.2131C28.444 39.9312 28.6746 39.7021 28.955 39.7021H52.4433C52.7252 39.7021 52.9544 39.9297 52.9544 40.2131C52.9544 40.495 52.7267 40.7241 52.4433 40.7241Z" fill="#00549E"/>
<path d="M17.2113 16.2135H49.8926V14.1691H17.2113V16.2135ZM50.4021 17.2324H16.7019C16.4196 17.2324 16.1908 17.0053 16.1908 16.723V13.658C16.1908 13.3774 16.4196 13.1485 16.7019 13.1485H50.4021C50.6843 13.1485 50.9132 13.3774 50.9132 13.658V16.723C50.9132 17.0053 50.6843 17.2324 50.4021 17.2324Z" fill="#00549E"/>
<path d="M19.2539 14.1689H7.51028C7.22816 14.1689 7 13.9401 7 13.6578C7 13.3772 7.22816 13.1484 7.51028 13.1484H19.2539C19.5362 13.1484 19.765 13.3772 19.765 13.6578C19.765 13.9401 19.5362 14.1689 19.2539 14.1689Z" fill="#00549E"/>
<path d="M10.5742 54C10.2908 54 10.0625 53.7703 10.0625 53.4892V6.51082C10.0625 6.22798 10.2908 6 10.5742 6C10.8548 6 11.0843 6.22798 11.0843 6.51082V53.4892C11.0843 53.7703 10.8548 54 10.5742 54Z" fill="#00549E"/>
<path d="M26.1662 32.6166C26.1474 32.5916 26.0865 32.5478 25.9787 32.4838C25.8724 32.4181 25.7396 32.3509 25.5802 32.2791C25.4193 32.2088 25.2443 32.1447 25.0552 32.0931C24.8646 32.0385 24.6755 32.0119 24.4865 32.0119C23.9661 32.0119 23.7036 32.1869 23.7036 32.5369C23.7036 32.6431 23.7318 32.7322 23.7896 32.8025C23.8443 32.8744 23.9286 32.9385 24.038 32.9932C24.1474 33.0494 24.2849 33.1025 24.4505 33.1494C24.6161 33.1978 24.8083 33.251 25.0287 33.3088C25.3318 33.3932 25.6021 33.4838 25.8459 33.5807C26.0881 33.6791 26.2959 33.801 26.4631 33.9447C26.6318 34.0901 26.7631 34.2666 26.8537 34.4744C26.9459 34.6823 26.9928 34.9291 26.9928 35.2198C26.9928 35.5745 26.9256 35.876 26.7928 36.1214C26.66 36.3682 26.4834 36.5667 26.2631 36.7167C26.0443 36.8682 25.7927 36.9776 25.5084 37.0464C25.224 37.1136 24.9318 37.1479 24.6287 37.1479C24.3974 37.1479 24.1599 37.1308 23.9177 37.0964C23.6755 37.0589 23.438 37.0089 23.2067 36.9386C22.9755 36.8714 22.752 36.7917 22.5364 36.6964C22.3192 36.6011 22.1192 36.4901 21.9364 36.3667L22.5755 35.0963C22.6005 35.1245 22.677 35.1807 22.8067 35.2635C22.9364 35.3479 23.0989 35.4323 23.2911 35.5135C23.4833 35.5963 23.6989 35.6698 23.9365 35.7354C24.1724 35.7995 24.413 35.8338 24.6552 35.8338C25.1709 35.8338 25.4287 35.676 25.4287 35.362C25.4287 35.2448 25.3896 35.1463 25.313 35.0698C25.2365 34.9916 25.1287 34.9229 24.9927 34.8604C24.8552 34.7979 24.6958 34.7401 24.5099 34.687C24.3224 34.6338 24.1193 34.576 23.9005 34.5104C23.6099 34.4213 23.3583 34.3244 23.1458 34.2197C22.9317 34.1182 22.7552 33.9963 22.6161 33.8604C22.477 33.7244 22.3739 33.5682 22.3052 33.39C22.238 33.2119 22.202 33.0041 22.202 32.7666C22.202 32.4369 22.2661 32.1416 22.3895 31.8884C22.5145 31.6337 22.6817 31.4181 22.8958 31.2447C23.1083 31.0697 23.3567 30.9384 23.638 30.8494C23.9193 30.7587 24.2161 30.715 24.5302 30.715C24.7505 30.715 24.9677 30.7353 25.1802 30.7775C25.3927 30.8181 25.5974 30.8728 25.7927 30.9384C25.9881 31.0025 26.1709 31.0775 26.3396 31.1587C26.5068 31.2431 26.6631 31.3244 26.8053 31.4072L26.1662 32.6166Z" fill="#00549E"/>
<path d="M28.9648 33.9326C28.9648 34.1747 28.9991 34.4107 29.071 34.6372C29.1413 34.8653 29.2476 35.07 29.3866 35.2466C29.5241 35.4247 29.6991 35.5684 29.9054 35.6731C30.1132 35.7809 30.3507 35.834 30.6178 35.834C30.8959 35.834 31.1381 35.7778 31.3459 35.6637C31.5537 35.5512 31.724 35.4059 31.8615 35.2247C31.9975 35.0435 32.1006 34.8403 32.1693 34.6122C32.2365 34.3841 32.2693 34.1513 32.2693 33.9138C32.2693 33.6701 32.2349 33.4357 32.1631 33.2076C32.0928 32.9811 31.9865 32.7779 31.8443 32.6029C31.7006 32.4279 31.5287 32.2889 31.324 32.1858C31.1194 32.0826 30.8834 32.0311 30.6178 32.0311C30.3382 32.0311 30.096 32.0842 29.8929 32.1951C29.6882 32.3045 29.5163 32.4467 29.3788 32.6264C29.2382 32.8029 29.1351 33.006 29.0663 33.2342C28.9976 33.4623 28.9648 33.6951 28.9648 33.9326ZM30.6085 37.1309C30.1413 37.1309 29.7147 37.0387 29.3288 36.8559C28.9429 36.6715 28.6164 36.4309 28.3414 36.1309C28.0711 35.8325 27.8586 35.4903 27.7086 35.1044C27.5555 34.72 27.4805 34.3232 27.4805 33.9154C27.4805 33.4998 27.5586 33.0998 27.7164 32.7154C27.8726 32.3295 28.0914 31.9905 28.3742 31.6983C28.6539 31.4045 28.9882 31.1702 29.3726 30.9952C29.7585 30.8202 30.1788 30.7327 30.635 30.7327C31.1022 30.7327 31.5287 30.8249 31.9146 31.0093C32.3006 31.1921 32.6271 31.4358 32.9005 31.7373C33.1724 32.0389 33.3833 32.3842 33.5318 32.7686C33.6786 33.1545 33.7552 33.5451 33.7552 33.9404C33.7552 34.356 33.6755 34.756 33.5193 35.1403C33.363 35.5262 33.1443 35.8653 32.8662 36.159C32.5881 36.4512 32.2553 36.6871 31.8709 36.8637C31.485 37.0418 31.0647 37.1309 30.6085 37.1309Z" fill="#00549E"/>
<path d="M34.5967 37.0776V30.7695H36.0542V35.7982H39.1114V37.0776H34.5967Z" fill="#00549E"/>
<path d="M43.8121 33.9142C43.8121 33.6361 43.7746 33.3846 43.6996 33.155C43.6262 32.9269 43.5184 32.73 43.3762 32.5644C43.2341 32.3989 43.0591 32.2708 42.8529 32.1817C42.6436 32.0927 42.4108 32.0489 42.1499 32.0489H41.2532V35.7982H42.1499C42.417 35.7982 42.6529 35.7513 42.8623 35.6576C43.0685 35.5623 43.2419 35.4295 43.3809 35.2592C43.5199 35.0921 43.6277 34.8937 43.7012 34.6656C43.7746 34.4375 43.8121 34.1876 43.8121 33.9142ZM39.7957 37.0776V30.7695H42.1499C42.6717 30.7695 43.1278 30.8523 43.5184 31.0179C43.9089 31.1835 44.237 31.4084 44.4995 31.6927C44.765 31.9786 44.9619 32.3114 45.0962 32.6925C45.229 33.0753 45.2946 33.483 45.2946 33.9142C45.2946 34.3953 45.2212 34.8281 45.0728 35.2171C44.9259 35.6045 44.7135 35.9357 44.4385 36.2122C44.1636 36.4871 43.8308 36.7011 43.4434 36.8511C43.0544 37.0027 42.6248 37.0776 42.1499 37.0776H39.7957Z" fill="#00549E"/>
</svg>
