<?xml version="1.0" encoding="UTF-8"?>
<svg xmlns="http://www.w3.org/2000/svg" xmlns:xlink="http://www.w3.org/1999/xlink" viewBox="0 0 700 400">
  <defs>
    <style>
      .cls-1 {
        fill: #eb7a7a;
      }

      .cls-2 {
        clip-path: url(#clippath-21);
      }

      .cls-3 {
        clip-path: url(#clippath-6);
      }

      .cls-4 {
        clip-path: url(#clippath-7);
      }

      .cls-5 {
        clip-path: url(#clippath-17);
      }

      .cls-6 {
        fill: #bad1e5;
      }

      .cls-7 {
        clip-path: url(#clippath-15);
      }

      .cls-8 {
        clip-path: url(#clippath-18);
      }

      .cls-9, .cls-10, .cls-11, .cls-12 {
        fill: #fdc26e;
      }

      .cls-9, .cls-13, .cls-14, .cls-15, .cls-11, .cls-12, .cls-16 {
        mix-blend-mode: multiply;
      }

      .cls-17 {
        clip-path: url(#clippath-4);
      }

      .cls-18 {
        fill: #fedba9;
      }

      .cls-19 {
        clip-path: url(#clippath-22);
      }

      .cls-13 {
        fill: url(#_Áåçûìÿííûé_ãðàäèåíò_2);
      }

      .cls-13, .cls-15, .cls-11 {
        opacity: .5;
      }

      .cls-20, .cls-16 {
        fill: #5990c0;
      }

      .cls-14, .cls-21 {
        fill: #874910;
      }

      .cls-22 {
        fill: #d6e4ef;
      }

      .cls-23 {
        fill: #fff;
      }

      .cls-24 {
        fill: #001e38;
      }

      .cls-15 {
        fill: #fdb44c;
      }

      .cls-25 {
        fill: #00549e;
      }

      .cls-26 {
        clip-path: url(#clippath-11);
      }

      .cls-27 {
        fill: none;
      }

      .cls-28 {
        clip-path: url(#clippath-1);
      }

      .cls-12 {
        opacity: .7;
      }

      .cls-29 {
        isolation: isolate;
      }

      .cls-30 {
        clip-path: url(#clippath-5);
      }

      .cls-31 {
        clip-path: url(#clippath-20);
      }

      .cls-32 {
        clip-path: url(#clippath-8);
      }

      .cls-33 {
        clip-path: url(#clippath-3);
      }

      .cls-34 {
        clip-path: url(#clippath-12);
      }

      .cls-35 {
        clip-path: url(#clippath-14);
      }

      .cls-36 {
        clip-path: url(#clippath-19);
      }

      .cls-37 {
        fill: #1c67a9;
      }

      .cls-38 {
        fill: #fbe4e4;
      }

      .cls-39 {
        clip-path: url(#clippath-16);
      }

      .cls-40 {
        fill: #ee8f8f;
      }

      .cls-41 {
        clip-path: url(#clippath-2);
      }

      .cls-42 {
        clip-path: url(#clippath-13);
      }

      .cls-43 {
        clip-path: url(#clippath);
      }
    </style>
    <clipPath id="clippath">
      <path class="cls-20" d="M168.94,399.53s31.2-31.9,35.03-17.46c4.03,15.22-24.58,7.88-35.03,17.46Z"/>
    </clipPath>
    <clipPath id="clippath-1">
      <path id="SVGID" class="cls-27" d="M169.05,399.08s-.09,0-.13-.03c-.1-.05-.16-.15-.17-.26-.03-.67-.62-16.44,1.1-20.51,1.09-2.57,2.1-2.78,3.09-2.99.6-.13,1.17-.25,1.79-.98.3-.35.86-1.65,1.58-3.29,3.24-7.39,10.84-24.71,23.42-24.71,5.99,0,9.02,2.04,9.02,6.06,0,10.61-12.56,17.69-20.87,22.38-3.23,1.82-6.28,3.54-6.28,4.4,0,1.6.23,2.42.48,3.3.25.88.5,1.78.5,3.46,0,3.33-11.99,12.11-13.35,13.1-.05.04-.11.06-.18.06Z"/>
    </clipPath>
    <clipPath id="clippath-2">
      <path id="SVGID-2" data-name="SVGID" class="cls-27" d="M547.27,384.12s-.08,0-.12-.02c-.09-.04-.15-.11-.17-.2-.01-.05-1.19-4.95-.73-11.39.43-5.95,2.38-14.49,9.27-21.34,2.82-2.81,8.17-2.85,12.44-.1,3.74,2.41,6.87,7.34,4.41,13.95-.82,2.22-3.58,3.35-7.08,4.79-5.24,2.16-12.43,5.12-16.83,13.62-.03.05-.07.09-.12.12l-.93.53s-.1.04-.15.04Z"/>
    </clipPath>
    <clipPath id="clippath-3">
      <rect id="SVGID-3" data-name="SVGID" class="cls-27" x="515.42" y="388.51" width="45.44" height="11.24" transform="translate(1076.28 788.26) rotate(180)"/>
    </clipPath>
    <clipPath id="clippath-4">
      <rect id="SVGID-4" data-name="SVGID" class="cls-27" x="517.89" y="377.27" width="45.44" height="11.24" transform="translate(1081.22 765.78) rotate(180)"/>
    </clipPath>
    <clipPath id="clippath-5">
      <rect id="SVGID-5" data-name="SVGID" class="cls-27" x="503.53" y="366.02" width="48.36" height="11.24" transform="translate(1055.43 743.29) rotate(180)"/>
    </clipPath>
    <clipPath id="clippath-6">
      <polygon id="SVGID-6" data-name="SVGID" class="cls-27" points="503.53 377.27 503.53 366.02 551.89 366.02 551.89 377.27 563.33 377.27 563.33 388.51 560.86 388.51 560.86 399.75 515.42 399.75 515.42 388.51 517.89 388.51 517.89 377.27 503.53 377.27"/>
    </clipPath>
    <clipPath id="clippath-7">
      <path id="SVGID-8" data-name="SVGID" class="cls-1" d="M294.04,322.29h-45.78c-1.85,0-2.76-2.25-1.44-3.54l13.48-13.11h33.73v16.65Z"/>
    </clipPath>
    <clipPath id="clippath-8">
      <path id="SVGID-10" data-name="SVGID" class="cls-40" d="M417.17,322.29h45.87c1.82,0,2.71-2.21,1.41-3.48l-13.55-13.17h-33.73v16.65Z"/>
    </clipPath>
    <clipPath id="clippath-11">
      <path id="SVGID-13" data-name="SVGID" class="cls-40" d="M358.86,242.86l-69.1,59.43c-1.34,1.15-.53,3.36,1.24,3.36h135.71c1.77,0,2.59-2.2,1.24-3.36l-69.1-59.43Z"/>
    </clipPath>
    <clipPath id="clippath-12">
      <path id="SVGID-15" data-name="SVGID" class="cls-21" d="M214.83,244.81c-3.22,7.86-7.08,10.44-7.08,10.44,0,0,1.04,3.5,3.83,4.54,2.79,1.04,5.96.54,5.63-1-.63-3-.95-4.69,3.06-7.49,2.77-1.93-5.44-6.49-5.44-6.49Z"/>
    </clipPath>
    <clipPath id="clippath-13">
      <path class="cls-10" d="M214.9,399.41c0-3.78-9.88-5.34-10.47-6.54-.45-.92.12-2.24,1.07-4.29.06-.14-.04-.3-.19-.3h-6.07c-.21,0-.41.12-.5.32-2.76,5.79-4.78,10.82-4.78,10.82h20.94Z"/>
    </clipPath>
    <clipPath id="clippath-14">
      <path class="cls-21" d="M211.58,376.81h-6.98c-.84,2.73-2.85,7.19-4.89,11.46h5.52c1.45-3.09,3.72-7.1,6.35-11.46Z"/>
    </clipPath>
    <clipPath id="clippath-15">
      <path id="SVGID-17" data-name="SVGID" class="cls-25" d="M231.58,342.67c0-4.92-26.93-33.77-37.19-47.66,0,0-29.49,3.63-15.6,19.02,13.89,15.39,40.82,29.71,40.82,29.71,0,0-1.07.85-3.85,5.13-2.78,4.27-10.28,21.73-12.2,28.14-.02.05,8.23.68,8.23.68,8.27-13.73,19.79-31.84,19.79-35.02Z"/>
    </clipPath>
    <clipPath id="clippath-16">
      <path class="cls-21" d="M116.82,387.94l5.58.15c1.69-2.8,4.62-6.84,7.57-10.85l-6.91-2.97c-2.18,4.58-4.33,9.53-6.24,13.67Z"/>
    </clipPath>
    <clipPath id="clippath-17">
      <path class="cls-10" d="M111.41,399.41h19.33c0-3.91-8.85-5.07-10.02-6.73-.34-.48.7-2.14,2.19-4.61.06-.1,0-.24-.13-.24l-5.9-.13c-.26,0-.51.15-.61.39-2.96,6.43-4.86,11.33-4.86,11.33Z"/>
    </clipPath>
    <clipPath id="clippath-18">
      <path class="cls-25" d="M189.26,285.18c-3.59,3.13-11.11,3.63-19.45,11.97-14,14-21.44,42.35-23.04,44.27-1.6,1.92-6.6,4.03-11.09,10.02-1.52,2.02-9.51,14.17-13.5,22.55l8.37,3.7c6.96-9.46,18.75-24.31,23.27-28.42,5.93-5.4,45.93-51.14,51.7-58.41l-16.25-5.68Z"/>
    </clipPath>
    <clipPath id="clippath-19">
      <path class="cls-10" d="M187.42,284.58c6.13-5.34,14.67-30.89,23.43-30.89s10.2,17.56,10.2,20.44c0,6.35-12.32,21.16-15.09,24.65l-18.53-14.2Z"/>
    </clipPath>
    <clipPath id="clippath-20">
      <path class="cls-21" d="M269.4,304.48c-1.15-.65-4.45-1.51-6.56-1.47-.76.01-2.26-.09-3.33-.18-2.1-.18-4.97-3.13-8.63-7.01l-2.71,4.43c4.54,2.98,7.6,5.05,7.71,5.74.37,2.23,2.38,2.84,3.06,4.18.67,1.31.73,3.58,1.65,2.48.77-.91.24-2.72-.39-4.13-.72-1.6,1.25-2.68,2.42-2.88,3.43-.58,5.76-.04,8.23-.33l-1.45-.82Z"/>
    </clipPath>
    <clipPath id="clippath-21">
      <path class="cls-21" d="M251.34,318.11c-.47-2.44-1.13-4.13-2.16-5.44-1.2-1.54-2.52-4.3-4.22-7.66l-4.63,3.01c3.05,3.85,5.02,6.62,5.02,7.53,0,1.92-1.75,4.66-1.75,6.8s6.93,7.02,6.93,4.4c0-2.29-2.93-2.85-2.93-4.23,0-1.76,1.31-3.46,1.31-3.46,0,0,2.57,3.4,4.13,2.47.28-.17-1.35-1.55-1.71-3.43Z"/>
    </clipPath>
    <clipPath id="clippath-22">
      <path id="SVGID-19" data-name="SVGID" class="cls-21" d="M229.51,242.57c-.51,1.31.7,4.55.62,5.19-.05.4-1.28.51-1.62,1.07-.74,1.26-1.13,3.32-1.65,4.22-1.15,1.99-4.87,1.4-7.43-2.71-3.64-5.81-4.63-8.46-3.76-14.5.74-5.13,10.59-7.04,13.39-2.41,2.2,3.65,1.91,5.41.45,9.15Z"/>
    </clipPath>
    <radialGradient id="_Áåçûìÿííûé_ãðàäèåíò_2" data-name="Áåçûìÿííûé ãðàäèåíò 2" cx="-4316.21" cy="4793.43" fx="-4316.21" fy="4793.43" r="3.73" gradientTransform="translate(-2341.29 -6749.97) rotate(177.6) scale(.53 -1.48) skewX(.02)" gradientUnits="userSpaceOnUse">
      <stop offset="0" stop-color="#f4b3b3"/>
      <stop offset=".04" stop-color="#f4b8b8"/>
      <stop offset=".39" stop-color="#fadede"/>
      <stop offset=".67" stop-color="#fdf6f6"/>
      <stop offset=".85" stop-color="#fff"/>
    </radialGradient>
  </defs>
  <g class="cls-29">
    <g id="_Ñëîé_1" data-name="Ñëîé 1">
      <g>
        <g>
          <path class="cls-22" d="M576.36,275.33c-40.18,115.1-231.64,112.63-350.86,95.51-79.11-11.36-113.22-59.97-113.22-106.76,0-77.26,70.98-75.33,139.39-118.24,80.01-50.18,103.08-95.85,207.76-95.85s154.34,118.14,116.92,225.33Z"/>
          <g>
            <g>
              <path class="cls-23" d="M476.18,110.26c-.78-.71-1.56-1.3-2.34-1.86-.52-.39-1.03-.7-1.55-1.04-.52-.33-1.03-.62-1.55-.93-2.07-1.15-4.14-2.05-6.2-2.73-4.14-1.38-8.28-1.97-12.41-1.97-4.14.02-8.27.61-12.41,1.99-2.07.68-4.14,1.58-6.21,2.73-1.03.59-2.07,1.21-3.1,1.96-.78.55-1.56,1.14-2.34,1.84h48.12Z"/>
              <path class="cls-23" d="M489.95,110.56h-88c-.17,0-.3-.13-.3-.3s.13-.3.3-.3h88c.17,0,.3.13.3.3s-.13.3-.3.3Z"/>
            </g>
            <g>
              <path class="cls-23" d="M299.7,162.25h82.17c-1.37-.98-2.73-1.81-4.1-2.58-.88-.52-1.76-.94-2.64-1.4-.88-.45-1.76-.83-2.64-1.24-3.52-1.54-7.04-2.77-10.57-3.68-7.04-1.85-14.09-2.64-21.14-2.64-7.04.03-14.09.82-21.13,2.68-3.52.91-7.04,2.14-10.57,3.68-1.76.79-3.52,1.63-5.28,2.63-1.37.76-2.73,1.58-4.1,2.56Z"/>
              <path class="cls-23" d="M405.94,162.55h-155.89c-.17,0-.3-.13-.3-.3s.13-.3.3-.3h155.89c.17,0,.3.13.3.3s-.13.3-.3.3Z"/>
            </g>
            <g>
              <path class="cls-23" d="M450.74,223.17c-.79-.7-1.58-1.3-2.37-1.85-.52-.38-1.03-.69-1.55-1.02-.52-.33-1.04-.6-1.55-.91-2.07-1.13-4.14-2.02-6.2-2.69-4.14-1.36-8.27-1.94-12.41-1.93-4.14.02-8.27.6-12.41,1.96-2.07.67-4.14,1.55-6.21,2.69-1.03.58-2.07,1.19-3.1,1.93-.79.55-1.58,1.14-2.36,1.84h48.17Z"/>
              <path class="cls-23" d="M466.4,223.47h-91.23c-.17,0-.3-.13-.3-.3s.13-.3.3-.3h91.23c.17,0,.3.13.3.3s-.13.3-.3.3Z"/>
            </g>
          </g>
          <g>
            <path class="cls-22" d="M177.27,110.2c.79-.7,1.58-1.3,2.37-1.85.52-.38,1.03-.69,1.55-1.02.52-.33,1.03-.6,1.55-.91,2.07-1.13,4.14-2.02,6.2-2.69,4.14-1.36,8.27-1.94,12.41-1.93,4.14.02,8.27.6,12.41,1.96,2.07.67,4.14,1.55,6.21,2.69,1.03.58,2.07,1.19,3.1,1.93.79.55,1.58,1.14,2.36,1.84h-48.17Z"/>
            <path class="cls-22" d="M244.1,110.5h-82.48c-.17,0-.3-.13-.3-.3s.13-.3.3-.3h82.48c.17,0,.3.13.3.3s-.13.3-.3.3Z"/>
          </g>
        </g>
        <g>
          <path class="cls-20" d="M478.12,399.61V141.82c0-1.1.89-1.98,1.98-1.98h3.69c1.1,0,1.98.89,1.98,1.98v257.79h-7.65Z"/>
          <path class="cls-23" d="M479.53,399.61V141.82c0-1.1,1.06-1.98,2.36-1.98h1.52c1.3,0,2.36.89,2.36,1.98v257.79h-6.24Z"/>
          <g>
            <path class="cls-25" d="M464.94,154.86h66.12c.72,0,1.42.21,2.01.62l24.84,16.76c2.12,1.43,2.12,4.54,0,5.97l-24.84,16.76c-.59.4-1.3.62-2.01.62h-66.12c-1.99,0-3.6-1.61-3.6-3.6v-33.53c0-1.99,1.61-3.6,3.6-3.6Z"/>
            <g>
              <path class="cls-23" d="M484.65,174.35c0,1.49-1.21,2.71-2.71,2.71s-2.71-1.21-2.71-2.71,1.21-2.71,2.71-2.71,2.71,1.21,2.71,2.71Z"/>
              <path class="cls-20" d="M482.87,176.14c-1.49,0-2.71-1.21-2.71-2.71,0-.51.14-.99.39-1.4-.78.47-1.31,1.33-1.31,2.32,0,1.49,1.21,2.71,2.71,2.71.98,0,1.84-.53,2.32-1.31-.41.25-.88.39-1.4.39Z"/>
            </g>
            <g>
              <path class="cls-23" d="M522.44,184.31h-21.27c-.25,0-.45-.2-.45-.45s.2-.45.45-.45h21.27c.25,0,.45.2.45.45s-.2.45-.45.45Z"/>
              <path class="cls-23" d="M524.54,186.4h-25.46c-.25,0-.45-.2-.45-.45s.2-.45.45-.45h25.46c.25,0,.45.2.45.45s-.2.45-.45.45Z"/>
              <path class="cls-23" d="M511.81,169.15c-.95,0-1.72-.68-1.72-1.52s.77-1.52,1.72-1.52,1.72.68,1.72,1.52-.77,1.52-1.72,1.52ZM511.81,167.01c-.45,0-.82.28-.82.62s.38.62.82.62.82-.28.82-.62-.38-.62-.82-.62Z"/>
              <path class="cls-23" d="M523.71,170.84h-23.8c-.2,0-.38-.13-.43-.32-.06-.19.02-.4.19-.5l11.9-7.5c.15-.09.33-.09.48,0l11.9,7.5c.17.11.25.31.19.5-.06.19-.23.32-.43.32ZM501.46,169.95h20.69l-10.35-6.53-10.35,6.53Z"/>
              <path class="cls-23" d="M519.92,181.91c-.25,0-.45-.2-.45-.45v-9.08c0-.25.2-.45.45-.45s.45.2.45.45v9.08c0,.25-.2.45-.45.45Z"/>
              <path class="cls-23" d="M514.52,181.91c-.25,0-.45-.2-.45-.45v-9.08c0-.25.2-.45.45-.45s.45.2.45.45v9.08c0,.25-.2.45-.45.45Z"/>
              <path class="cls-23" d="M509.11,181.91c-.25,0-.45-.2-.45-.45v-9.08c0-.25.2-.45.45-.45s.45.2.45.45v9.08c0,.25-.2.45-.45.45Z"/>
              <path class="cls-23" d="M503.7,181.91c-.25,0-.45-.2-.45-.45v-9.08c0-.25.2-.45.45-.45s.45.2.45.45v9.08c0,.25-.2.45-.45.45Z"/>
            </g>
            <path class="cls-23" d="M557.92,172.69c-.09,0-.17-.02-.25-.08l-24.84-16.76c-.52-.35-1.13-.54-1.76-.54h-66.12c-.25,0-.45-.2-.45-.45s.2-.45.45-.45h66.12c.81,0,1.59.24,2.26.69l24.84,16.76c.21.14.26.42.12.62-.09.13-.23.2-.37.2Z"/>
          </g>
        </g>
        <g>
          <path class="cls-24" d="M487.12,400H137.69c-.17,0-.3-.13-.3-.3s.13-.3.3-.3h349.43c.17,0,.3.13.3.3s-.13.3-.3.3Z"/>
          <path class="cls-24" d="M586.72,400h-17.71c-.17,0-.3-.13-.3-.3s.13-.3.3-.3h17.71c.17,0,.3.13.3.3s-.13.3-.3.3Z"/>
        </g>
        <g>
          <g>
            <path class="cls-20" d="M168.94,399.53s31.2-31.9,35.03-17.46c4.03,15.22-24.58,7.88-35.03,17.46Z"/>
            <g class="cls-43">
              <path class="cls-23" d="M167.94,401.17c-.07,0-.15-.03-.2-.08-.12-.11-.13-.3-.01-.42,16.54-17.65,37.2-19.64,37.41-19.66.16-.02.31.11.32.27.01.16-.11.31-.27.32-.2.02-20.64,1.99-37.02,19.47-.06.06-.14.09-.22.09Z"/>
              <path class="cls-23" d="M203.06,391.15s-.07,0-.11-.02c-5.84-2.32-8.97-4.71-9.57-7.29-.55-2.35,1.17-4.24,2.3-5.5.23-.26.44-.48.59-.67.1-.13.29-.15.42-.05.13.1.15.29.05.42-.17.21-.37.44-.62.71-1.05,1.16-2.64,2.91-2.16,4.96.54,2.35,3.64,4.66,9.21,6.87.15.06.23.23.17.39-.05.12-.16.19-.28.19Z"/>
              <path class="cls-23" d="M195.06,392.78s-.06,0-.08-.01c-5.56-1.64-8.63-3.88-9.12-6.63-.66-3.66,3.45-6.79,3.62-6.92.13-.1.32-.07.42.06.1.13.07.32-.06.42-.04.03-3.99,3.05-3.39,6.34.46,2.52,3.38,4.59,8.71,6.17.16.05.25.21.2.37-.04.13-.16.21-.29.21Z"/>
            </g>
          </g>
          <g>
            <g class="cls-28">
              <path class="cls-20" d="M169.04,401.98s-.03,0-.05,0h-.03c-.14-.04-.24-.16-.22-.29.98-8.39,3.45-16.35,7.36-23.67.02-.04.02-.08.01-.12-.01-.04-.04-.07-.08-.09-.46-.22-.9-.47-1.3-.76-2.43-1.75-3.63-4.88-3.2-8.37.01-.12.12-.21.26-.21.02,0,.03,0,.05,0,.16.02.27.15.25.29-.4,3.32.71,6.28,2.98,7.91.36.26.76.49,1.21.7.02,0,.04.01.06.01.05,0,.1-.03.13-.08,2.3-4.19,5.08-8.17,8.25-11.81.05-.06.05-.15-.01-.21l-.08-.07c-2.78-2.66-3.45-6.91-2.3-14.67.02-.12.13-.2.26-.2.02,0,.04,0,.06,0,.16.03.26.16.25.29-1.12,7.59-.5,11.72,2.14,14.25.03.03.06.04.1.04h0s.08-.02.11-.05c.7-.79,1.42-1.56,2.13-2.29,2.42-2.48,5.06-4.79,7.84-6.87.06-.05.08-.14.04-.2-2.68-4.08-.25-9.46,2.78-14.66.04-.08.13-.12.24-.12.05,0,.1.01.14.03.07.04.13.1.15.17.02.06.01.12-.02.17-2.78,4.78-5.3,10.19-2.88,14.08.02.04.06.06.1.07,0,0,.02,0,.03,0,.03,0,.06,0,.09-.03,7.67-5.58,16.05-9.18,24.24-10.42.02,0,.03,0,.05,0,.14,0,.26.08.3.2.02.06.01.12-.02.18-.04.06-.11.1-.18.11-8.12,1.23-16.44,4.81-24.06,10.36-.03.02-.06.06-.06.1,0,.04,0,.08.03.11,2.64,3.15,10.12,4.89,22.23,5.17.16,0,.29.12.3.25,0,.06-.02.12-.06.16-.05.05-.12.08-.21.08h-.54c-4.24-.11-9.52-.23-13.93-1.33-4.16-1.03-6.77-2.32-8.22-4.05-.03-.04-.07-.05-.11-.05-.03,0-.06,0-.09.03-2.74,2.05-5.34,4.33-7.72,6.77-.71.73-1.44,1.51-2.14,2.31-.03.03-.04.07-.04.11,0,.04.02.08.06.1,3.64,2.78,10.58,3.35,19.89,3.35h.75c.16,0,.29.11.31.24,0,.06-.01.12-.06.17-.05.05-.13.09-.21.09h-.74c-7.2,0-11.73-.36-15.15-1.21-2.17-.54-3.86-1.28-5.15-2.27-.03-.02-.06-.03-.09-.03-.04,0-.08.02-.11.05-3.12,3.6-5.86,7.51-8.13,11.65-.02.04-.02.08,0,.13.02.04.05.07.09.09,1.14.4,2.46.6,3.93.6,1.8,0,3.86-.3,6.12-.9.03,0,.05,0,.08,0,.12,0,.24.07.29.17.03.06.03.13,0,.19-.03.06-.09.11-.17.13-2.32.61-4.44.92-6.29.92-1.17,0-2.26-.12-3.24-.37-.34-.08-.68-.19-1-.31-.02,0-.03,0-.05,0-.05,0-.11.03-.13.08-3.89,7.28-6.36,15.21-7.33,23.56-.01.12-.12.21-.26.21Z"/>
            </g>
            <path class="cls-20" d="M169.05,399.08s-.09,0-.13-.03c-.1-.05-.16-.15-.17-.26-.03-.67-.62-16.44,1.1-20.51,1.09-2.57,2.1-2.78,3.09-2.99.6-.13,1.17-.25,1.79-.98.3-.35.86-1.65,1.58-3.29,3.24-7.39,10.84-24.71,23.42-24.71,5.99,0,9.02,2.04,9.02,6.06,0,10.61-12.56,17.69-20.87,22.38-3.23,1.82-6.28,3.54-6.28,4.4,0,1.6.23,2.42.48,3.3.25.88.5,1.78.5,3.46,0,3.33-11.99,12.11-13.35,13.1-.05.04-.11.06-.18.06ZM199.73,346.91c-12.19,0-19.68,17.07-22.87,24.35-.8,1.82-1.32,3.02-1.67,3.43-.75.89-1.48,1.05-2.12,1.18-.91.19-1.7.36-2.66,2.64-1.49,3.52-1.17,16.79-1.07,19.69,3.92-2.88,12.65-9.83,12.65-12.29,0-1.6-.23-2.42-.48-3.3-.25-.88-.5-1.78-.5-3.46,0-1.16,2.14-2.42,6.59-4.92,8.19-4.62,20.57-11.6,20.57-21.86,0-3.68-2.76-5.47-8.43-5.47Z"/>
          </g>
        </g>
        <g>
          <g class="cls-41">
            <path class="cls-20" d="M549.63,402.56s.04,0,.07,0c0,0,.03,0,.03,0,.1-.02.17-.08.22-.16.04-.06.04-.14.02-.2-1.88-5.76-2.53-11.7-1.96-17.65.29-.02.57-.06.85-.11,2.05-.36,4.35-1.47,6.81-3.29.08-.06.12-.14.12-.22,0-.08-.03-.15-.1-.21-.06-.05-.13-.07-.22-.07s-.16.03-.23.07c-2.66,1.96-5.08,3.05-7.18,3.24.38-3.4,1.15-6.8,2.31-10.1.57.12,1.19.18,1.86.18.8,0,1.69-.09,2.65-.25,2.83-.5,6.41-1.71,11.96-4.05.09-.04.16-.11.19-.19.02-.07.01-.15-.02-.21-.05-.09-.16-.14-.28-.14-.05,0-.1.01-.15.03-5.23,2.21-10.57,4.25-14.29,4.25-.61,0-1.19-.05-1.71-.16.27-.74.55-1.46.84-2.15.98-2.33,2.16-4.61,3.52-6.79.87.38,1.96.57,3.31.57,1.14,0,2.45-.13,4-.41,3.56-.63,7.45-2.16,10.57-3.39l.39-.16c.09-.04.16-.1.19-.19.03-.07.02-.15-.02-.21-.05-.09-.16-.15-.28-.15-.05,0-.1,0-.14.03-6.54,2.58-11.51,3.88-14.79,3.88-1.18,0-2.15-.17-2.91-.5,3.82-5.95,8.74-10.82,14.26-14.09.08-.05.14-.13.15-.21.01-.08-.01-.15-.07-.21-.06-.06-.15-.1-.24-.1-.07,0-.14.02-.2.05-5.59,3.32-10.59,8.25-14.46,14.27-2.93-1.77-2.78-6.05-2.24-10.01,0-.07-.01-.14-.06-.2-.06-.07-.15-.11-.25-.11-.18,0-.33.12-.35.27-.6,4.38-.7,8.68,2.57,10.58-1.38,2.21-2.59,4.54-3.58,6.9-.29.7-.58,1.43-.85,2.17,0,0-.01,0-.02,0-2.67-.84-4.38-3.34-5.91-8.62-.04-.12-.16-.2-.3-.2-.03,0-.06,0-.09.01-.1.02-.18.08-.22.16-.04.06-.05.14-.03.2,1.58,5.48,3.41,8.09,6.29,9,.03,0,.05.02.08.02-1.18,3.37-1.97,6.83-2.35,10.29-.39,0-.76-.03-1.1-.09-2.12-.37-3.81-1.95-4.54-4.21-.04-.12-.16-.2-.3-.2-.03,0-.07,0-.1.01-.09.02-.17.08-.22.16-.04.06-.04.14-.02.2.79,2.46,2.66,4.18,5.01,4.59.39.07.79.1,1.2.11-.58,6.01.09,12,1.98,17.81.04.12.16.2.3.2Z"/>
          </g>
          <path class="cls-20" d="M547.27,384.12s-.08,0-.12-.02c-.09-.04-.15-.11-.17-.2-.01-.05-1.19-4.95-.73-11.39.43-5.95,2.38-14.49,9.27-21.34,2.82-2.81,8.17-2.85,12.44-.1,3.74,2.41,6.87,7.34,4.41,13.95-.82,2.22-3.58,3.35-7.08,4.79-5.24,2.16-12.43,5.12-16.83,13.62-.03.05-.07.09-.12.12l-.93.53s-.1.04-.15.04ZM561.28,349.62c-2.1,0-4.02.66-5.34,1.97-11.91,11.84-9.03,28.97-8.46,31.77l.5-.29c4.51-8.63,11.78-11.63,17.1-13.82,3.36-1.38,6.01-2.48,6.74-4.45,1.98-5.34.42-10.29-4.18-13.24-2.01-1.29-4.27-1.94-6.35-1.94Z"/>
        </g>
        <g>
          <g>
            <g class="cls-33">
              <rect class="cls-10" x="515.42" y="388.51" width="45.44" height="11.24" transform="translate(1076.28 788.26) rotate(180)"/>
              <path class="cls-18" d="M556.2,400c-.25,0-.45-.2-.45-.45v-11.04c0-.25.2-.45.45-.45s.45.2.45.45v11.04c0,.25-.2.45-.45.45Z"/>
              <path class="cls-18" d="M551.79,400c-.25,0-.45-.2-.45-.45v-11.04c0-.25.2-.45.45-.45s.45.2.45.45v11.04c0,.25-.2.45-.45.45Z"/>
              <path class="cls-9" d="M524.41,400c-.25,0-.45-.2-.45-.45v-11.04c0-.25.2-.45.45-.45s.45.2.45.45v11.04c0,.25-.2.45-.45.45Z"/>
              <path class="cls-9" d="M520,400c-.25,0-.45-.2-.45-.45v-11.04c0-.25.2-.45.45-.45s.45.2.45.45v11.04c0,.25-.2.45-.45.45Z"/>
            </g>
            <g class="cls-17">
              <rect class="cls-10" x="517.89" y="377.27" width="45.44" height="11.24" transform="translate(1081.22 765.78) rotate(180)"/>
              <rect class="cls-12" x="517.89" y="377.27" width="45.44" height="11.24" transform="translate(1081.22 765.78) rotate(180)"/>
              <path class="cls-18" d="M558.67,388.76c-.25,0-.45-.2-.45-.45v-11.04c0-.25.2-.45.45-.45s.45.2.45.45v11.04c0,.25-.2.45-.45.45Z"/>
              <path class="cls-18" d="M554.27,388.76c-.25,0-.45-.2-.45-.45v-11.04c0-.25.2-.45.45-.45s.45.2.45.45v11.04c0,.25-.2.45-.45.45Z"/>
              <path class="cls-9" d="M526.88,388.76c-.25,0-.45-.2-.45-.45v-11.04c0-.25.2-.45.45-.45s.45.2.45.45v11.04c0,.25-.2.45-.45.45Z"/>
              <path class="cls-9" d="M522.48,388.76c-.25,0-.45-.2-.45-.45v-11.04c0-.25.2-.45.45-.45s.45.2.45.45v11.04c0,.25-.2.45-.45.45Z"/>
            </g>
            <g class="cls-30">
              <rect class="cls-10" x="503.53" y="366.02" width="48.36" height="11.24" transform="translate(1055.43 743.29) rotate(180)"/>
              <path class="cls-18" d="M547.23,377.52c-.25,0-.45-.2-.45-.45v-11.04c0-.25.2-.45.45-.45s.45.2.45.45v11.04c0,.25-.2.45-.45.45Z"/>
              <path class="cls-18" d="M542.83,377.52c-.25,0-.45-.2-.45-.45v-11.04c0-.25.2-.45.45-.45s.45.2.45.45v11.04c0,.25-.2.45-.45.45Z"/>
              <path class="cls-9" d="M512.52,377.52c-.25,0-.45-.2-.45-.45v-11.04c0-.25.2-.45.45-.45s.45.2.45.45v11.04c0,.25-.2.45-.45.45Z"/>
              <path class="cls-9" d="M508.12,377.52c-.25,0-.45-.2-.45-.45v-11.04c0-.25.2-.45.45-.45s.45.2.45.45v11.04c0,.25-.2.45-.45.45Z"/>
            </g>
            <g class="cls-3">
              <circle class="cls-15" cx="518.38" cy="374.21" r="25.54" transform="translate(-72.47 618.44) rotate(-58.28)"/>
            </g>
          </g>
          <g>
            <circle class="cls-10" cx="510.25" cy="374.21" r="25.54" transform="translate(46.29 804.49) rotate(-79.1)"/>
            <circle class="cls-9" cx="510.25" cy="374.21" r="25.54" transform="translate(46.29 804.49) rotate(-79.1)"/>
            <circle class="cls-10" cx="513.04" cy="374.21" r="25.54" transform="translate(-75.01 613.9) rotate(-58.28)"/>
            <path class="cls-23" d="M513.04,396.32c-12.19,0-22.11-9.92-22.11-22.11s9.92-22.11,22.11-22.11,22.11,9.92,22.11,22.11-9.92,22.11-22.11,22.11ZM513.04,353c-11.69,0-21.21,9.51-21.21,21.21s9.51,21.21,21.21,21.21,21.21-9.51,21.21-21.21-9.51-21.21-21.21-21.21Z"/>
            <g>
              <path class="cls-23" d="M513.68,362.65c-3.54,0-5.84,1.73-5.84,4.48,0,8.02,13.12,3.88,13.06,13.6,0,4.07-3.1,6.71-7.76,6.71-2.97,0-6-1.54-7.95-3.81l.7-1.39c1.82,2.22,4.66,3.58,7.28,3.58,3.83,0,6.29-1.96,6.29-5.05.06-8.25-13.06-4.03-13.06-13.52,0-3.81,2.94-6.25,7.34-6.25,2.27,0,4.73.87,6.38,2.15l-.61,1.43c-1.66-1.28-3.93-1.92-5.84-1.92Z"/>
              <path class="cls-23" d="M513.04,391.31c-.33,0-.6-.27-.6-.6v-33.25c0-.33.27-.6.6-.6s.6.27.6.6v33.25c0,.33-.27.6-.6.6Z"/>
            </g>
          </g>
        </g>
        <g>
          <g>
            <g>
              <rect class="cls-6" x="294.04" y="293.67" width="123.13" height="87.06"/>
              <g>
                <rect class="cls-6" x="250.26" y="322.29" width="43.78" height="58.44"/>
                <rect class="cls-23" x="257.45" y="326.39" width="36.59" height="54.34"/>
                <g>
                  <rect class="cls-6" x="269.12" y="329.24" width="13.89" height="8.78" rx="4.39" ry="4.39"/>
                  <rect class="cls-6" x="269.12" y="339.15" width="13.89" height="17.06" rx="6.22" ry="6.22"/>
                </g>
                <g>
                  <path id="SVGID-7" data-name="SVGID" class="cls-1" d="M294.04,322.29h-45.78c-1.85,0-2.76-2.25-1.44-3.54l13.48-13.11h33.73v16.65Z"/>
                  <g class="cls-4">
                    <g>
                      <path class="cls-38" d="M288.8,322.29c1.67-.29,3.42-.58,5.24-.88v-.61c-3.11.5-6,1-8.66,1.48h3.42Z"/>
                      <path class="cls-38" d="M294.04,315.69v-.6c-15.29,1.99-29.01,4.41-40.72,6.48-1.41.25-2.78.49-4.14.73h3.45c.26-.05.53-.09.79-.14,11.68-2.06,25.37-4.47,40.61-6.46Z"/>
                      <path class="cls-38" d="M294.04,311.21v-.62c-4.03,1.14-10.48,2.63-20.03,4.37-8.41,1.53-18.73,3.13-27.46,4.11-.14.2-.23.42-.29.64,7.84-.87,17.53-2.3,27.28-4.06,3.97-.72,13.96-2.59,20.5-4.44Z"/>
                      <path class="cls-38" d="M269.76,310.1c-.27-1.54-4.15-2.35-11.54-2.43l-.61.59c10.35.05,11.48,1.46,11.56,1.94.1.59-1.08,1.4-2.25,1.78-1.15.38-7.45,1.88-16.18,2.95l-.71.69c8.57-1,15.13-2.43,17.08-3.08,1.01-.33,2.86-1.27,2.65-2.45Z"/>
                    </g>
                  </g>
                </g>
              </g>
              <g>
                <rect class="cls-23" x="417.17" y="322.29" width="44.29" height="58.44"/>
                <polygon class="cls-6" points="424.13 380.73 417.17 380.73 417.17 322.29 461.54 322.29 461.54 326.18 424.13 326.18 424.13 380.73"/>
                <g>
                  <rect class="cls-6" x="435.42" y="329.24" width="13.89" height="8.78" rx="4.39" ry="4.39" transform="translate(884.74 667.26) rotate(180)"/>
                  <rect class="cls-6" x="435.42" y="339.15" width="13.89" height="17.06" rx="6.22" ry="6.22" transform="translate(884.74 695.35) rotate(180)"/>
                </g>
                <g>
                  <path id="SVGID-9" data-name="SVGID" class="cls-40" d="M417.17,322.29h45.87c1.82,0,2.71-2.21,1.41-3.48l-13.55-13.17h-33.73v16.65Z"/>
                  <g class="cls-32">
                    <g>
                      <path class="cls-38" d="M417.91,318.4c-.25-.06-.49-.11-.73-.16v.61c.2.04.4.09.6.14,4.43.99,10.53,2.36,18.46,3.31h6.01c-10.88-.87-18.89-2.67-24.35-3.89Z"/>
                      <path class="cls-38" d="M421.29,310.29c-1.38.16-2.75.3-4.12.43v.6c1.39-.14,2.79-.28,4.19-.44,4.45-.52,9.9-1.4,15.66-2.34,4.51-.73,9.42-1.53,14.55-2.27l-.54-.53c-4.96.72-9.73,1.49-14.1,2.2-5.76.94-11.19,1.82-15.63,2.33Z"/>
                      <path class="cls-38" d="M438.99,312.63c-1.77.38-4.64.66-7.42.94-6.13.6-8.64.93-8.71,1.84-.03.29.07.56.28.77.94.95,4.26.69,8.11.38,1.55-.12,3.16-.25,4.57-.28,2.01-.05,3.41.34,5.17.84,2.54.71,5.65,1.58,12.04,1.58.62,0,1.26,0,1.94-.03,3.17-.08,6.17-.19,9.01-.31l-.59-.57c-2.65.11-5.46.21-8.43.29-7.63.19-11.06-.77-13.81-1.54-1.64-.46-3.08-.86-4.99-.86-.12,0-.23,0-.35,0-1.43.04-3.04.16-4.6.28-3.23.25-6.9.54-7.64-.21-.08-.08-.11-.17-.11-.28.37-.55,4.88-.99,8.18-1.32,2.79-.27,5.68-.55,7.48-.95,1.01-.22,2.05-.59,3.24-1.01,2.46-.88,5.91-2.1,12.14-3.07l-.53-.52c-6,.97-9.38,2.16-11.8,3.03-1.23.44-2.19.78-3.17.99Z"/>
                      <path class="cls-38" d="M453.78,313.45c-.07.33.17.6.7.8,1.82.68,4.05,1.01,6.41,1.1l-.67-.65c-2.06-.12-3.97-.43-5.53-1.01-.18-.07-.27-.12-.3-.15.24-.31,1.58-.71,3.51-1.1l-.53-.52c-2.05.45-3.47.97-3.58,1.53Z"/>
                    </g>
                  </g>
                </g>
              </g>
              <rect class="cls-23" x="300.54" y="309.71" width="116.63" height="71.01"/>
              <rect class="cls-25" x="250.25" y="366.56" width="211.21" height="20.84"/>
              <rect id="SVGID-11" data-name="SVGID" class="cls-37" x="294.04" y="366.56" width="123.13" height="20.84"/>
            </g>
            <g>
              <path class="cls-20" d="M307.92,282.05v-27.6c0-1.22.99-2.21,2.21-2.21h8.59c1.22,0,2.21.99,2.21,2.21v27.6c0,.25-.2.46-.46.46h-12.1c-.25,0-.46-.21-.46-.46ZM320.02,254.46c0-.71-.58-1.3-1.3-1.3h-8.59c-.71,0-1.3.58-1.3,1.3v27.14h11.18v-27.14Z"/>
              <path class="cls-20" d="M287.92,220.84c.22-4.48,5.8-4.78,12.26-5.12,7.26-.39,16.29-.87,20.45-7.48,3.05-4.84,3.67-9.24,1.79-12.74-2.01-3.75-6.98-6.26-12.65-6.39-4.82-.11-9.1,1.52-11.73,4.33-.07.05-.28.3-.6.04-.27-.22.03-.6.11-.68,2.79-2.92,7.24-4.61,12.24-4.5,6.04.14,11.15,2.74,13.34,6.81,1.41,2.62,2.24,7.1-1.82,13.54-4.39,6.96-13.64,7.45-21.08,7.85-6.32.34-11.32.6-11.5,4.37-.3,6.16,8.13,9.81,15.58,13.02,5.82,2.52,10.86,4.69,11.45,7.79.25,1.33-.32,2.68-1.77,4.12-.08.08-.18.12-.28.12s-.2-.04-.28-.12c-.16-.16-.16-.41,0-.56,1.24-1.24,1.75-2.36,1.55-3.41-.51-2.68-5.6-4.88-10.98-7.21-7.68-3.32-16.39-7.08-16.05-13.79Z"/>
              <path class="cls-1" d="M351.01,242.86l-69.1,59.43c-1.34,1.15-.53,3.36,1.24,3.36h135.71c1.77,0,2.59-2.2,1.24-3.36l-61.26-59.43h-7.84Z"/>
              <g>
                <path id="SVGID-12" data-name="SVGID" class="cls-40" d="M358.86,242.86l-69.1,59.43c-1.34,1.15-.53,3.36,1.24,3.36h135.71c1.77,0,2.59-2.2,1.24-3.36l-69.1-59.43Z"/>
                <g class="cls-26">
                  <g>
                    <path class="cls-38" d="M296.04,296.88l-.62.53c19.35,2.27,35.16,5.52,48.39,8.23h2.98c-.93-.19-1.88-.39-2.84-.58-13.12-2.69-28.78-5.91-47.91-8.18Z"/>
                    <path class="cls-38" d="M421.92,301.8c-27.22.69-50.52-2.13-65.93-3.99-6.08-.74-10.89-1.32-14.33-1.49-22.06-1.14-35.7-4.74-35.77-6.82,0-.17.28-.77,4.22-1.39,2.77-.43,6.65-.78,10.76-1.15,6.29-.56,13.43-1.2,18.95-2.34l1.61-.33c10.31-2.13,29.19-6.02,56.08-8.18l-.64-.55c-26.61,2.17-45.32,6.03-55.56,8.14l-1.61.33c-5.48,1.13-12.6,1.76-18.88,2.33-10.24.92-15.59,1.48-15.53,3.16.1,3.05,16.4,6.37,36.33,7.4,3.42.18,8.21.76,14.29,1.49,13.81,1.67,33.93,4.1,57.55,4.1,2.78,0,5.6-.03,8.47-.11,2.06-.05,4.03-.12,5.92-.2l-.66-.57c-1.7.07-3.45.13-5.27.18Z"/>
                    <path class="cls-38" d="M381.73,284.79c-3.6.42-7.2.72-10.67,1.02-8.74.75-15.64,1.34-17.06,3.19-.25.32-.34.68-.27,1.06.4,2.21,4.56,2.12,9.84,2,3.15-.07,6.72-.15,9.55.35,1.41.25,3.12.63,5.09,1.07,7.49,1.68,19.75,4.42,37.63,4.42,1.01,0,2.03,0,3.07-.03,1.3-.02,2.57-.05,3.8-.09l-.67-.58c-1.03.03-2.07.05-3.14.07-19.48.34-32.67-2.62-40.56-4.38-1.98-.44-3.69-.83-5.12-1.08-1.85-.32-3.99-.41-6.13-.41-1.2,0-2.4.03-3.54.05-4.59.1-8.93.2-9.24-1.51-.04-.21.01-.4.15-.59,1.26-1.64,8.38-2.25,16.63-2.96,3.48-.3,7.08-.61,10.69-1.02,4.45-.52,9.89-1.4,15.66-2.34,2.19-.36,4.48-.73,6.84-1.1l-.59-.51c-2.19.35-4.31.69-6.34,1.02-5.76.94-11.19,1.82-15.63,2.33Z"/>
                    <path class="cls-38" d="M399.43,287.13c-1.77.38-4.64.66-7.42.94-6.13.6-8.64.93-8.71,1.84-.03.29.07.56.28.77.94.95,4.26.69,8.11.38,1.55-.12,3.16-.25,4.57-.28,2.01-.05,3.41.34,5.17.84,2.54.71,5.65,1.58,12.04,1.58.62,0,1.27,0,1.95-.03.63-.02,1.25-.03,1.87-.05l-.67-.58c-.4.01-.8.02-1.21.03-7.64.2-11.06-.77-13.81-1.54-1.64-.46-3.08-.86-4.99-.86-.12,0-.23,0-.35,0-1.43.04-3.04.16-4.6.28-3.23.25-6.9.54-7.64-.21-.08-.08-.11-.17-.11-.28.37-.55,4.88-.99,8.18-1.32,2.79-.27,5.68-.55,7.48-.95,1.01-.22,2.05-.59,3.24-1.01,1.33-.47,2.95-1.05,5.13-1.63l-.55-.47c-2.01.55-3.53,1.09-4.79,1.54-1.23.44-2.19.78-3.17.99Z"/>
                    <path class="cls-38" d="M392.18,271.52l-.65-.56c-26.77,1.94-50.27,6.09-68.76,9.35-3.27.58-6.4,1.13-9.38,1.64l-.88.76c3.28-.56,6.73-1.17,10.36-1.81,18.61-3.28,42.31-7.46,69.3-9.39Z"/>
                    <path class="cls-38" d="M377.2,258.64c-4.82-.17-10.71-.49-17.08-.83-5.61-.3-11.58-.63-17.61-.89l-.66.57c6.24.27,12.43.61,18.24.92,6.69.36,12.87.7,17.83.86l-.72-.62Z"/>
                    <path class="cls-38" d="M369.55,267.36c.11-.23.08-.46-.08-.66l-.19-.24c-2.04-2.61-3.43-4.38-32.45-4.66l-.69.59c29.39.25,30.71,1.94,32.67,4.43l.2.26c-.05.8-6.9,3.23-25.55,6.63-7.61,1.39-16.79,2.83-24.93,3.82l-.82.71c7.46-.88,16.34-2.22,25.27-3.83,5.96-1.08,25.5-4.77,26.56-7.05Z"/>
                    <path class="cls-38" d="M339.21,268.86c-.22-1.26-2.87-2.04-7.89-2.32l-.66.57c7.02.32,7.89,1.44,7.96,1.86.1.59-1.08,1.4-2.25,1.78-1,.33-5.88,1.5-12.85,2.51l-.86.74c6.99-.95,12.2-2.12,13.9-2.68,1.01-.33,2.86-1.27,2.65-2.45Z"/>
                    <path class="cls-38" d="M353.55,247.63c5.19.31,8.95.63,11.97.95l-.79-.68c-2.81-.29-6.26-.57-10.75-.84l-.65.56c.08,0,.15,0,.23.01Z"/>
                  </g>
                </g>
              </g>
            </g>
            <g>
              <rect class="cls-25" x="348.75" y="320.06" width="22.64" height="53.99"/>
              <rect class="cls-25" x="344.22" y="374.05" width="31.71" height="6.68"/>
              <rect class="cls-25" x="339.87" y="380.73" width="40.4" height="6.68"/>
              <path class="cls-23" d="M374.3,381.33h-28.45c-.33,0-.6-.27-.6-.6s.27-.6.6-.6h28.45c.33,0,.6.27.6.6s-.27.6-.6.6Z"/>
              <path class="cls-23" d="M350.43,371.82v-49.53c0-.3.24-.54.54-.54h18.19c.3,0,.54.24.54.54v49.53c0,.3-.24.54-.54.54h-18.19c-.3,0-.54-.24-.54-.54ZM368.62,322.83h-17.1v48.45h17.1v-48.45Z"/>
              <path class="cls-23" d="M364.74,346.9c0,.64.52,1.16,1.16,1.16s1.16-.52,1.16-1.16-.52-1.16-1.16-1.16-1.16.52-1.16,1.16Z"/>
            </g>
            <g>
              <rect class="cls-6" x="311.79" y="315.19" width="12.86" height="11.43" rx="5.71" ry="5.71"/>
              <rect class="cls-6" x="311.79" y="328.09" width="12.86" height="22.21" rx="6.43" ry="6.43"/>
              <rect class="cls-6" x="326.62" y="315.19" width="12.86" height="11.43" rx="5.71" ry="5.71"/>
              <rect class="cls-6" x="326.62" y="328.09" width="12.86" height="22.21" rx="6.43" ry="6.43"/>
            </g>
            <g>
              <rect class="cls-6" x="381.31" y="315.19" width="12.86" height="11.43" rx="5.71" ry="5.71"/>
              <rect class="cls-6" x="381.31" y="328.09" width="12.86" height="22.21" rx="6.43" ry="6.43"/>
              <rect class="cls-6" x="396.15" y="315.19" width="12.86" height="11.43" rx="5.71" ry="5.71"/>
              <rect class="cls-6" x="396.15" y="328.09" width="12.86" height="22.21" rx="6.43" ry="6.43"/>
            </g>
          </g>
          <g>
            <g>
              <g>
                <path class="cls-20" d="M437.46,395.18c0,2.34-1.89,4.23-4.23,4.23s-4.23-1.89-4.23-4.23,1.89-4.23,4.23-4.23,4.23,1.89,4.23,4.23Z"/>
                <circle class="cls-23" cx="433.23" cy="395.18" r="1.48"/>
                <circle class="cls-20" cx="456.05" cy="395.18" r="4.23" transform="translate(-33.33 748.24) rotate(-76.72)"/>
                <path class="cls-23" d="M456.05,396.66c-.82,0-1.48-.67-1.48-1.48s.67-1.48,1.48-1.48,1.48.67,1.48,1.48-.67,1.48-1.48,1.48Z"/>
              </g>
              <g>
                <circle class="cls-20" cx="250.22" cy="395.18" r="4.23" transform="translate(-172.57 595.24) rotate(-82.98)"/>
                <circle class="cls-23" cx="250.22" cy="395.18" r="1.48"/>
                <circle class="cls-20" cx="273.03" cy="395.18" r="4.23" transform="translate(-174.3 570.11) rotate(-76.72)"/>
                <path class="cls-23" d="M273.03,396.66c-.82,0-1.48-.67-1.48-1.48s.67-1.48,1.48-1.48,1.48.67,1.48,1.48-.67,1.48-1.48,1.48Z"/>
              </g>
            </g>
            <path class="cls-24" d="M470.33,388.58c.13-1.09,0-1.21-3.29-1.21h-224.88c-3.03,0-3.06.03-3.06,1.25,0,2.23,1.39,4.46,3.06,4.46h224.88c1.71,0,3.03-2.31,3.29-4.5Z"/>
          </g>
          <g>
            <g>
              <path id="SVGID-14" data-name="SVGID" class="cls-21" d="M214.83,244.81c-3.22,7.86-7.08,10.44-7.08,10.44,0,0,1.04,3.5,3.83,4.54,2.79,1.04,5.96.54,5.63-1-.63-3-.95-4.69,3.06-7.49,2.77-1.93-5.44-6.49-5.44-6.49Z"/>
              <g class="cls-34">
                <path class="cls-24" d="M219.71,254.26c.56-1.38.76-.93,1.58-1.99,1.4-1.81.52-3.02-1.82-3.39l-.91.04s-.69,2.36,1.15,5.34Z"/>
              </g>
            </g>
            <g>
              <g>
                <g>
                  <path class="cls-10" d="M214.9,399.41c0-3.78-9.88-5.34-10.47-6.54-.45-.92.12-2.24,1.07-4.29.06-.14-.04-.3-.19-.3h-6.07c-.21,0-.41.12-.5.32-2.76,5.79-4.78,10.82-4.78,10.82h20.94Z"/>
                  <g class="cls-42">
                    <path class="cls-23" d="M202.25,401.44c-.17,0-.3-.13-.3-.3,0-4.83-3.27-7-6.51-7-.17,0-.3-.13-.3-.3s.13-.3.3-.3c3.54,0,7.11,2.35,7.11,7.6,0,.17-.13.3-.3.3Z"/>
                  </g>
                </g>
                <g>
                  <path class="cls-10" d="M205.24,391.99c-.07,0-.14-.03-.2-.08-.11-.1-.13-.26-.05-.38,2.29-3.71,4.92-6.06,7.41-6.63,1.26-.29,2.41-.11,3.43.54.88.56,1.27,1.12,1.18,1.7-.21,1.36-2.92,2.17-7.02,3.25-2.01.53-3.91,1.03-4.56,1.53-.05.04-.12.06-.18.06ZM213.52,385.37c-.32,0-.65.04-.99.12-2.09.48-4.4,2.44-6.44,5.44.94-.36,2.27-.72,3.74-1.1,2.71-.71,6.41-1.69,6.58-2.77.06-.4-.46-.82-.91-1.11-.6-.38-1.27-.58-1.98-.58Z"/>
                  <path class="cls-10" d="M216.48,395.86c-3.4,0-9.59-2.78-10.43-3.17-.11-.05-.18-.16-.17-.28,0-.12.08-.23.2-.27,4.36-1.6,8.32-1.91,10.59-.83.94.45,1.57,1.12,1.87,2,.32.92.23,1.62-.26,2.06-.39.35-1.02.49-1.79.49ZM206.98,392.45c3.09,1.35,9.48,3.74,10.89,2.47.3-.27.33-.75.1-1.42-.25-.72-.77-1.27-1.56-1.65-1.98-.94-5.54-.71-9.42.6Z"/>
                </g>
                <g>
                  <path class="cls-21" d="M211.58,376.81h-6.98c-.84,2.73-2.85,7.19-4.89,11.46h5.52c1.45-3.09,3.72-7.1,6.35-11.46Z"/>
                  <g class="cls-35">
                    <polygon class="cls-14" points="204.05 375.6 202.59 379.78 212.03 379.68 213.78 374.77 204.05 375.6"/>
                  </g>
                </g>
                <g>
                  <path id="SVGID-16" data-name="SVGID" class="cls-25" d="M231.58,342.67c0-4.92-26.93-33.77-37.19-47.66,0,0-29.49,3.63-15.6,19.02,13.89,15.39,40.82,29.71,40.82,29.71,0,0-1.07.85-3.85,5.13-2.78,4.27-10.28,21.73-12.2,28.14-.02.05,8.23.68,8.23.68,8.27-13.73,19.79-31.84,19.79-35.02Z"/>
                  <g class="cls-7">
                    <path class="cls-16" d="M200.84,299.76s-10.51,10.8-10.95,26.71c-.1,3.72-13.21-11.02-13.21-11.02l21.16-18.39,2.99,2.7Z"/>
                    <path class="cls-23" d="M182.12,318.79c-.07,0-.14-.02-.2-.07-.12-.11-.14-.3-.03-.42l16.68-19.24c.11-.12.3-.14.42-.03.12.11.14.3.03.42l-16.68,19.24c-.06.07-.14.1-.23.1Z"/>
                  </g>
                </g>
              </g>
              <g>
                <g>
                  <path class="cls-21" d="M116.82,387.94l5.58.15c1.69-2.8,4.62-6.84,7.57-10.85l-6.91-2.97c-2.18,4.58-4.33,9.53-6.24,13.67Z"/>
                  <g class="cls-39">
                    <polygon class="cls-14" points="120.43 377.69 128.75 380.02 131.67 375.35 122.47 371.88 120.43 377.69"/>
                  </g>
                </g>
                <g>
                  <path class="cls-10" d="M111.41,399.41h19.33c0-3.91-8.85-5.07-10.02-6.73-.34-.48.7-2.14,2.19-4.61.06-.1,0-.24-.13-.24l-5.9-.13c-.26,0-.51.15-.61.39-2.96,6.43-4.86,11.33-4.86,11.33Z"/>
                  <g class="cls-5">
                    <path class="cls-23" d="M118.87,401.44c-.17,0-.3-.13-.3-.3,0-1.97-1.62-6.71-5.64-6.71-.17,0-.3-.13-.3-.3s.13-.3.3-.3c4.15,0,6.23,4.68,6.23,7.3,0,.17-.13.3-.3.3Z"/>
                  </g>
                </g>
                <g>
                  <path class="cls-10" d="M122.45,392.18c-.1,0-.19-.05-.25-.13-.07-.1-.07-.23,0-.33,2.77-4.47,6.18-7.5,8.5-7.54.86-.02,1.57.37,2.07,1.11.44.66.53,1.33.25,2-1.27,3.04-10.13,4.81-10.51,4.88-.02,0-.04,0-.06,0ZM130.75,384.77s-.03,0-.04,0c-1.99.03-5.07,2.74-7.62,6.66,2.12-.48,8.43-2.09,9.38-4.38.2-.47.13-.94-.19-1.43-.38-.57-.88-.85-1.52-.85Z"/>
                  <path class="cls-10" d="M130.9,394.32c-3.35,0-7.37-1.35-7.6-1.43-.13-.04-.21-.17-.2-.31.01-.14.12-.25.26-.27,1.94-.26,4.03-.92,5.87-1.5,2.67-.85,4.78-1.51,5.73-.78.35.27.52.7.49,1.28-.04.97-.44,1.72-1.19,2.24-.84.57-2.05.78-3.36.78ZM124.69,392.69c2.27.64,7.16,1.78,9.23.36.59-.4.89-.98.93-1.77.02-.38-.07-.64-.26-.78-.71-.54-2.88.15-5.19.88-1.48.47-3.11.98-4.71,1.31Z"/>
                </g>
                <g>
                  <path class="cls-25" d="M189.26,285.18c-3.59,3.13-11.11,3.63-19.45,11.97-14,14-21.44,42.35-23.04,44.27-1.6,1.92-6.6,4.03-11.09,10.02-1.52,2.02-9.51,14.17-13.5,22.55l8.37,3.7c6.96-9.46,18.75-24.31,23.27-28.42,5.93-5.4,45.93-51.14,51.7-58.41l-16.25-5.68Z"/>
                  <g class="cls-8">
                    <path class="cls-16" d="M158.67,299.03c23.64-12.99,39.7-3.79,41.74,2.77,1.86,5.99,9.49-2.04,9.49-2.04l-21.16-25.25-30.06,24.52Z"/>
                  </g>
                </g>
              </g>
              <g>
                <path class="cls-10" d="M187.42,284.58c6.13-5.34,14.67-30.89,23.43-30.89s10.2,17.56,10.2,20.44c0,6.35-12.32,21.16-15.09,24.65l-18.53-14.2Z"/>
                <g class="cls-36">
                  <path class="cls-11" d="M217.04,287.83s-16.02-20.21-11-29.25,23.84,9.79,23.84,9.79l-12.84,19.45Z"/>
                </g>
              </g>
              <g>
                <g>
                  <path class="cls-21" d="M269.4,304.48c-1.15-.65-4.45-1.51-6.56-1.47-.76.01-2.26-.09-3.33-.18-2.1-.18-4.97-3.13-8.63-7.01l-2.71,4.43c4.54,2.98,7.6,5.05,7.71,5.74.37,2.23,2.38,2.84,3.06,4.18.67,1.31.73,3.58,1.65,2.48.77-.91.24-2.72-.39-4.13-.72-1.6,1.25-2.68,2.42-2.88,3.43-.58,5.76-.04,8.23-.33l-1.45-.82Z"/>
                  <g class="cls-31">
                    <polygon class="cls-14" points="253.08 294.02 250.12 303.84 243.99 298.98 250.12 291.78 253.08 294.02"/>
                    <path class="cls-14" d="M270.24,305.58c-1.93-.73-5.76-2.02-9.3-.32-1.22.59-1.71,1.97.4,4.96,2.12,2.99,8.9-4.65,8.9-4.65Z"/>
                  </g>
                </g>
                <path class="cls-10" d="M234.95,281.85s-19.13-24.4-20.25-25.48c-2.5-2.43-8.17.13-8.17,3.98,0,13.13,27.74,32.06,41.62,41.17l3.13-5.36c-5.05-5.36-11.37-12.38-16.33-14.3Z"/>
              </g>
              <g>
                <g>
                  <path class="cls-21" d="M251.34,318.11c-.47-2.44-1.13-4.13-2.16-5.44-1.2-1.54-2.52-4.3-4.22-7.66l-4.63,3.01c3.05,3.85,5.02,6.62,5.02,7.53,0,1.92-1.75,4.66-1.75,6.8s6.93,7.02,6.93,4.4c0-2.29-2.93-2.85-2.93-4.23,0-1.76,1.31-3.46,1.31-3.46,0,0,2.57,3.4,4.13,2.47.28-.17-1.35-1.55-1.71-3.43Z"/>
                  <g class="cls-2">
                    <polygon class="cls-14" points="246.19 305.3 241.12 313.33 233.24 309.54 244.04 300.34 246.19 305.3"/>
                    <path class="cls-14" d="M250.35,329.02c-.62-2.59-3.5-4.23-4.12-6.31-.62-2.08,2.69-3.64,2.69-3.64l2.86,5.22-1.42,4.73Z"/>
                  </g>
                </g>
                <path class="cls-10" d="M231.97,286.14s-13.43-32.34-19.84-32.34c-2.78,0-6.47,1.96-6.47,7.73,0,7.09,23.42,35.11,34,48.45l5.44-4.97c-2.85-5.62-6.79-12.91-13.13-18.87Z"/>
                <path class="cls-23" d="M241.92,299.39c-.1,0-.2-.05-.26-.15-3.06-5.28-6.3-9.49-9.9-12.89-.03-.03-.06-.06-.07-.1-4.62-11.12-14.65-32.16-19.56-32.16-.17,0-.3-.13-.3-.3s.13-.3.3-.3c6.46,0,19.26,30.47,20.09,32.47,3.63,3.43,6.89,7.67,9.96,12.98.08.14.03.33-.11.41-.05.03-.1.04-.15.04Z"/>
              </g>
            </g>
            <g>
              <g>
                <path id="SVGID-18" data-name="SVGID" class="cls-21" d="M229.51,242.57c-.51,1.31.7,4.55.62,5.19-.05.4-1.28.51-1.62,1.07-.74,1.26-1.13,3.32-1.65,4.22-1.15,1.99-4.87,1.4-7.43-2.71-3.64-5.81-4.63-8.46-3.76-14.5.74-5.13,10.59-7.04,13.39-2.41,2.2,3.65,1.91,5.41.45,9.15Z"/>
                <g class="cls-19">
                  <path class="cls-24" d="M227.92,251.09s-.07,0-.1-.02c-.85-.32-1.44-1.26-1.47-1.3-.09-.14-.04-.32.1-.41.14-.09.32-.04.41.1,0,0,.51.81,1.17,1.05.15.06.23.23.18.38-.05.12-.16.19-.28.19Z"/>
                  <path class="cls-24" d="M227.9,244.5c-.18.3-.56.4-.86.22-.3-.18-.4-.56-.22-.86.18-.3.56-.4.86-.22.3.18.4.56.22.86Z"/>
                  <path class="cls-13" d="M228.26,247.56c.14,3.28,1.06,5.91,2.05,5.87,1-.04,1.69-2.74,1.56-6.02-.14-3.28-1.06-5.91-2.05-5.87-1,.04-1.69,2.74-1.56,6.02Z"/>
                </g>
              </g>
              <path class="cls-24" d="M227.82,229.94c3.66,2.66,5.82,4.29,5.74,7.93-.01.7-.48,2.5-.75,3.5-.11.4-.5.65-.9.59-1.34-.21-4.75-.86-6.72-1.62-1.14-.44-2.31.84-3.65,3.54-.35.7-2.91,2.41-2.91,2.41,0,0-1.98,7.33-7.09,8.85-8.92,2.67-12.98,18.93-12.98,18.93l-17.13-8.92c0-15.89,16.26-15.07,19.59-21.36,1.53-2.89,4.8-8.59,7.48-12.27,4.81-6.62,11.74-7.12,19.33-1.59Z"/>
              <g>
                <path class="cls-21" d="M221.38,245.52c-.75,1.03-2.19,1.26-3.22.51-1.03-.75-1.26-2.19-.51-3.22.75-1.03,2.19-1.26,3.22-.51,1.03.75,1.26,2.19.51,3.22Z"/>
                <path class="cls-24" d="M220.27,244.92c-.15,0-.28-.11-.3-.26-.06-.5-.52-.86-1.02-.79-.16.02-.31-.1-.33-.26-.02-.16.1-.31.26-.33.83-.11,1.58.48,1.69,1.31.02.16-.1.31-.26.33-.01,0-.03,0-.04,0Z"/>
              </g>
              <path class="cls-24" d="M178.66,262.55c-.17,0-.3-.13-.3-.3,0-8.75,8.5-12.28,14.7-14.86,2.71-1.12,5.05-2.1,5.95-3.21,1.04-1.29,2.26-3.34,3.54-5.51,1.25-2.11,2.55-4.3,3.86-6.11,2.69-3.7,6.54-6.06,10.56-6.48,3.69-.39,7.25.86,10.29,3.61.36.32,1.05.6,1.85.92,1.42.57,3.18,1.28,4.23,2.71,2.72,3.72,1.34,7.28,1.28,7.43-.06.15-.23.23-.39.17-.15-.06-.23-.24-.17-.39.01-.03,1.32-3.42-1.2-6.86-.95-1.29-2.62-1.97-3.97-2.51-.85-.34-1.59-.64-2.03-1.04-2.91-2.63-6.31-3.82-9.83-3.46-3.85.4-7.55,2.67-10.14,6.24-1.3,1.78-2.59,3.96-3.83,6.06-1.3,2.19-2.53,4.26-3.59,5.58-.99,1.23-3.4,2.23-6.19,3.39-6.05,2.51-14.33,5.95-14.33,14.3,0,.17-.13.3-.3.3Z"/>
            </g>
          </g>
        </g>
      </g>
    </g>
  </g>
</svg>