<?xml version="1.0" encoding="UTF-8"?>
<svg xmlns="http://www.w3.org/2000/svg" xmlns:xlink="http://www.w3.org/1999/xlink" viewBox="0 0 700 400">
  <defs>
    <style>
      .cls-1 {
        fill: #eb7a7a;
      }

      .cls-2 {
        clip-path: url(#clippath-6);
      }

      .cls-3 {
        clip-path: url(#clippath-7);
      }

      .cls-4 {
        clip-path: url(#clippath-17);
      }

      .cls-5 {
        fill: #bad1e5;
      }

      .cls-6 {
        clip-path: url(#clippath-15);
      }

      .cls-7 {
        clip-path: url(#clippath-18);
      }

      .cls-8, .cls-9, .cls-10, .cls-11 {
        fill: #fdc26e;
      }

      .cls-8, .cls-12, .cls-13, .cls-14, .cls-10, .cls-11, .cls-15 {
        mix-blend-mode: multiply;
      }

      .cls-16 {
        clip-path: url(#clippath-4);
      }

      .cls-17 {
        fill: #fedba9;
      }

      .cls-12 {
        fill: url(#_Áåçûìÿííûé_ãðàäèåíò_2);
      }

      .cls-12, .cls-14, .cls-10 {
        opacity: .5;
      }

      .cls-18 {
        fill: #5990c0;
      }

      .cls-13, .cls-19 {
        fill: #874910;
      }

      .cls-20 {
        fill: #d6e4ef;
      }

      .cls-21 {
        clip-path: url(#clippath-9);
      }

      .cls-22 {
        clip-path: url(#clippath-10);
      }

      .cls-23 {
        fill: #fff;
      }

      .cls-24 {
        fill: #001e38;
      }

      .cls-14, .cls-15 {
        fill: #fdb44c;
      }

      .cls-25 {
        fill: #00549e;
      }

      .cls-26 {
        clip-path: url(#clippath-11);
      }

      .cls-27 {
        fill: none;
      }

      .cls-28 {
        clip-path: url(#clippath-1);
      }

      .cls-11 {
        opacity: .7;
      }

      .cls-29 {
        isolation: isolate;
      }

      .cls-30 {
        clip-path: url(#clippath-5);
      }

      .cls-31 {
        clip-path: url(#clippath-8);
      }

      .cls-32 {
        clip-path: url(#clippath-3);
      }

      .cls-33 {
        clip-path: url(#clippath-12);
      }

      .cls-34 {
        clip-path: url(#clippath-14);
      }

      .cls-35 {
        clip-path: url(#clippath-19);
      }

      .cls-36 {
        fill: #1c67a9;
      }

      .cls-37 {
        fill: #cfb69f;
      }

      .cls-38 {
        clip-path: url(#clippath-16);
      }

      .cls-39 {
        fill: #ee8f8f;
      }

      .cls-40 {
        clip-path: url(#clippath-2);
      }

      .cls-41 {
        clip-path: url(#clippath-13);
      }

      .cls-42 {
        fill: #fecf8c;
      }

      .cls-43 {
        clip-path: url(#clippath);
      }

      .cls-44 {
        fill: #96b9d7;
      }

      .cls-45 {
        fill: #f4f7fa;
      }
    </style>
    <clipPath id="clippath">
      <path class="cls-18" d="M441.23,389.66c-.12,0-.25-.02-.36-.08-.26-.11-.46-.35-.52-.63-.08-.36-2-8.83-.91-19.5,1.44-14.2,7.61-25.39,17.84-32.37,6.29-4.29,14.22-2.15,18.25,2.39,3.86,4.34,5.32,12.03-2.12,20.55-3.49,4-6.78,6.1-10.26,8.32-5.68,3.62-11.55,7.36-19.68,20.04-.08.12-.19.22-.31.3l-1.47.85c-.14.08-.29.12-.45.12ZM464.85,336.58c-2.21,0-4.48.61-6.55,2.02-21.09,14.38-17.5,42.57-16.42,48.75l.18-.11c8.28-12.86,14.57-16.87,20.11-20.4,3.37-2.15,6.55-4.17,9.87-7.98,5.66-6.49,6.46-13.28,2.13-18.16-2.18-2.46-5.68-4.11-9.32-4.11Z"/>
    </clipPath>
    <clipPath id="clippath-1">
      <path class="cls-44" d="M475.45,378.56c-1.59,18.76-41.01,19.7-41.01,19.7l-.06-.98c3.95-.8,18.49-4.05,23.65-18.48,4.84-13.57,16.94-8.34,17.42-.24Z"/>
    </clipPath>
    <clipPath id="clippath-2">
      <path class="cls-18" d="M272.17,398.05h-1.75c-.46,0-.85-.34-.9-.8-2.45-20.86-12.61-36.34-28.61-43.59-10.66-4.82-15.69-12.7-13.47-21.07,1.91-7.19,8.8-12.09,16.03-11.4,14.01,1.33,23.57,14.98,27.63,39.46,3.03,18.26,1.98,36.37,1.97,36.55-.03.48-.42.85-.9.85ZM271.22,396.24h.08c.34-8.06,1.99-70.4-28-73.25-6.36-.61-12.42,3.72-14.11,10.07-1.98,7.44,2.68,14.53,12.47,18.95,16.4,7.42,26.88,23.11,29.57,44.23Z"/>
    </clipPath>
    <clipPath id="clippath-3">
      <path class="cls-18" d="M270.92,398.05c-.1,0-.2-.02-.3-.05-9.92-3.48-18.85-3.92-26.03-4.28-5.6-.28-10.43-.51-14.15-2.09-4.78-2.03-8.37-5.74-10.1-10.44-1.58-4.28-1.42-8.86.42-12.54,3.16-6.31,11.66-9.03,17.32-7.53,26.69,7.08,35.2,35.49,35.28,35.78.08.27.03.57-.15.79-.17.23-.44.36-.72.36h-1.57s0,0,0,0ZM234.8,362.52c-4.67,0-10.21,2.5-12.43,6.94-1.6,3.2-1.73,7.35-.34,11.11,1.56,4.23,4.79,7.56,9.11,9.4,3.42,1.45,8.11,1.69,13.53,1.95,7.26.36,16.29.8,26.4,4.33h.17c-1.88-5.31-10.97-27.37-33.62-33.38-.87-.23-1.82-.34-2.81-.34Z"/>
    </clipPath>
    <clipPath id="clippath-4">
      <path class="cls-44" d="M271.83,396.84s-14.14-62.16-29.6-47.43c-16.28,15.51,24.04,27.97,29.6,47.43Z"/>
    </clipPath>
    <clipPath id="clippath-5">
      <rect id="SVGID" class="cls-27" x="275.64" y="84.66" width="162.02" height="305.29" rx="11.9" ry="11.9"/>
    </clipPath>
    <clipPath id="clippath-6">
      <path id="SVGID-4" data-name="SVGID" class="cls-39" d="M408.63,159.44l-6.47-6.29h-11.55c.84,0,1.22-1.05.58-1.6l-2.36-2.03-1.25-1.07-28.34-24.38c-.61-.52-1.51-.52-2.12,0l-28.34,24.38-1.25,1.07-2.36,2.03c-.64.55-.25,1.6.58,1.6h-14.66l-6.44,6.26c-.63.62-.2,1.69.69,1.69h21.87v-7.95h58.82v7.95h21.91c.87,0,1.3-1.06.67-1.66Z"/>
    </clipPath>
    <clipPath id="clippath-7">
      <rect id="SVGID-5" data-name="SVGID" class="cls-27" x="237.78" y="390.47" width="40.99" height="9.53"/>
    </clipPath>
    <clipPath id="clippath-8">
      <rect id="SVGID-6" data-name="SVGID" class="cls-27" x="235.69" y="380.94" width="40.99" height="9.53"/>
    </clipPath>
    <clipPath id="clippath-9">
      <rect id="SVGID-7" data-name="SVGID" class="cls-27" x="247.86" y="371.41" width="40.99" height="9.53"/>
    </clipPath>
    <clipPath id="clippath-10">
      <polygon id="SVGID-8" data-name="SVGID" class="cls-27" points="288.85 380.94 288.85 371.41 247.86 371.41 247.86 380.94 235.69 380.94 235.69 390.47 237.78 390.47 237.78 400 278.77 400 278.77 390.47 276.68 390.47 276.68 380.94 288.85 380.94"/>
    </clipPath>
    <clipPath id="clippath-11">
      <path class="cls-19" d="M448.85,375.08l2.26-3.5c2.55,3.38,4.74,7.13,5.72,8.45l-1.78,1.88c-1.03-1.06-3.42-3.97-6.2-6.83Z"/>
    </clipPath>
    <clipPath id="clippath-12">
      <path class="cls-9" d="M454.5,381.51l2.24-1.92c.15-.13.38-.1.49.06.15.21.24.34.26.37,0,0,0,.01.01.02l4.11,5c.12.14.1.35-.05.47l-7.84,6.45c-.26.21-.63-.04-.53-.36.59-1.82,2.57-5.51,1.63-9.19-.02-.06-.05-.11-.09-.16-.05-.05-.14-.14-.25-.25-.14-.14-.13-.36.02-.49Z"/>
    </clipPath>
    <clipPath id="clippath-13">
      <path class="cls-19" d="M415.04,383.71h3.51c-.26,4.14-.51,7.84-.65,9.95h-2.72c0-3.46-.05-6.77-.13-9.95Z"/>
    </clipPath>
    <clipPath id="clippath-14">
      <path class="cls-9" d="M407.09,399.83c-.32,0-.46-.41-.2-.6,1.76-1.3,7.67-3.4,7.67-5.22,0-.22,0-.43,0-.65,0-.18.15-.33.33-.33h2.97c.2,0,.35.17.33.37-.08.8-.12,1.29-.13,1.38,0,.01,0,.02,0,.03v4.7c0,.18-.15.33-.33.33h-10.64Z"/>
    </clipPath>
    <clipPath id="clippath-15">
      <path id="SVGID-10" data-name="SVGID" class="cls-25" d="M401.71,305.83c0-1.46.11-2.81.29-4.08,1.19-1.6,3.27-3.41,6.65-3.77,7.06-.77,13.76,1.12,19.85,5.82,2.99,7.4,6.68,39.66,6.68,42.27s4.17,3.38,7.19,8.18c1.39,2.21,5.72,11.99,10.12,18.08l-3.63,3.39c-5.67-7.61-16.33-22.43-17.6-23.7-1.88-1.88-11.5-24.56-11.5-24.56,0,0-1.88,16.71-1.88,26.11,0,3.01,1.86,2.31,2.65,11.48.23,2.61-.77,13.6-1.44,21.05h-4.58c-1.55-43.47-12.79-61.88-12.79-80.27Z"/>
    </clipPath>
    <clipPath id="clippath-16">
      <path id="SVGID-12" data-name="SVGID" class="cls-19" d="M423.36,264.03c-3.45,5.27-3.41,8.71-3.41,8.71,0,0-2.58.83-4.38-.44-1.8-1.27-1.94-2.57-.87-3.01,2.1-.87,2.84-2.21,2.87-5.83.02-2.5,5.78.57,5.78.57Z"/>
    </clipPath>
    <clipPath id="clippath-17">
      <path id="SVGID-14" data-name="SVGID" class="cls-19" d="M421.94,292.4c0-5.94,2.97-9.08,2.97-9.08,0,0,17.47,25.28,24.4,32.78,2.73,2.95,5.33,5.02,5.64,4.44.19-.35-.23-.96-.23-.96,0,0,2.29,1.61,3.81,2.27,1.82.78-1.79-4.02-3.19-4.87-1.41-.87-3.96-2.26-3.96-2.26,0,0-22.62-38.05-25.05-40.47-2.85-2.85-5.21-1.98-8.18-3.14-7.46-2.9-17.9-16.45-17.9-16.45l1.68-20.56c2.33-.45,3.72-5.37,1.02-5.67,0,0-.25-5.4-1.01-5.2-1.28.34,0,4.22-.75,4.87-.98.83-2.32,1.01-3.12,1.23s-.86,2.91-.73,3.39c.13.48,1.2,2.13,1.2,2.13l-2.81,22.12,12.2,16.46s-.99,2.81-.99,4.62,3.14,7.76,3.14,9.9l11.88,4.46Z"/>
    </clipPath>
    <clipPath id="clippath-18">
      <path class="cls-9" d="M420.11,269.91c-3.3-.97-6.11-1.88-7.84-3.68-2.46-2.55-7.16-5.98-9.55-8.73-1.13-1.31-1.73-2.99-1.68-4.71l.72-9.89-5.09,1.07-1.52,12.36c-.08,1.32.17,2.06.96,3.03,2.75,3.39,10.22,14.14,10.22,14.14l-4.34,19.26,20.07.93s.2-7.74,2.84-10.38l18.44,27.57,4.32-3.33s-15.13-26.74-17.05-30.24c-1.92-3.49-6.88-6.35-10.5-7.41Z"/>
    </clipPath>
    <clipPath id="clippath-19">
      <path id="SVGID-16" data-name="SVGID" class="cls-19" d="M418.57,254.12c-.58.86-3.07,1.48-3.43,1.79-.22.2.23,1,.02,1.44-.46.98-1.55,2.08-1.88,2.78-.73,1.54,1.19,3.56,4.77,3.4,5.08-.22,7.1-.72,10.43-3.79,2.82-2.6-.14-9.42-4.14-9.19-3.15.18-4.1,1.1-5.77,3.56Z"/>
    </clipPath>
    <radialGradient id="_Áåçûìÿííûé_ãðàäèåíò_2" data-name="Áåçûìÿííûé ãðàäèåíò 2" cx="28989.11" cy="-1812.3" fx="28989.11" fy="-1812.3" r="3.67" gradientTransform="translate(-7418.33 -8433.18) rotate(57.92) scale(.4 1.12) skewX(.01)" gradientUnits="userSpaceOnUse">
      <stop offset="0" stop-color="#f4b3b3"/>
      <stop offset=".04" stop-color="#f4b8b8"/>
      <stop offset=".39" stop-color="#fadede"/>
      <stop offset=".67" stop-color="#fdf6f6"/>
      <stop offset=".85" stop-color="#fff"/>
    </radialGradient>
  </defs>
  <g class="cls-29">
    <g id="_Ñëîé_1" data-name="Ñëîé 1">
      <g>
        <path class="cls-20" d="M447.57,262.72c73.69-111.27,41.44-197.22-35.09-210.64-106.7-18.72-220.39,91.5-195.29,238.35,15.56,91.04,85.7,104.53,139.42,96.54,65-9.68,46.31-56.83,90.96-124.24Z"/>
        <g>
          <g>
            <path class="cls-18" d="M441.23,389.66c-.12,0-.25-.02-.36-.08-.26-.11-.46-.35-.52-.63-.08-.36-2-8.83-.91-19.5,1.44-14.2,7.61-25.39,17.84-32.37,6.29-4.29,14.22-2.15,18.25,2.39,3.86,4.34,5.32,12.03-2.12,20.55-3.49,4-6.78,6.1-10.26,8.32-5.68,3.62-11.55,7.36-19.68,20.04-.08.12-.19.22-.31.3l-1.47.85c-.14.08-.29.12-.45.12ZM464.85,336.58c-2.21,0-4.48.61-6.55,2.02-21.09,14.38-17.5,42.57-16.42,48.75l.18-.11c8.28-12.86,14.57-16.87,20.11-20.4,3.37-2.15,6.55-4.17,9.87-7.98,5.66-6.49,6.46-13.28,2.13-18.16-2.18-2.46-5.68-4.11-9.32-4.11Z"/>
            <g class="cls-43">
              <path class="cls-18" d="M431.69,382.4c-.04-.13.06-.27.24-.31.17-.05.34.02.39.15,1.18,3.67,3.93,6.22,7.38,6.83.63.11,1.29.16,1.97.15.67-6.29,2.12-11.92,3.81-16.7-.11-.03-.22-.06-.33-.1-4.51-1.42-7.37-5.52-9.86-14.16-.04-.13.07-.27.24-.31.17-.04.34.03.38.16,2.45,8.47,5.21,12.49,9.53,13.85.07.02.15.04.22.06.46-1.27.93-2.48,1.41-3.62,1.63-3.87,3.58-7.6,5.8-11.13-5.26-2.88-5.12-9.72-4.17-16.7.02-.14.18-.25.35-.24.18,0,.3.11.28.25-.89,6.47-1.1,13.42,3.83,16.23,6.05-9.47,14.07-17.47,23.02-22.78.15-.09.34-.07.44.03.1.11.06.26-.09.35-8.89,5.28-16.85,13.23-22.86,22.67,4.91,2.35,15.14,0,28.51-5.27.16-.07.35-.02.42.1.07.12,0,.27-.17.33-4.99,1.97-11.5,4.59-17.38,5.63-4.96.87-8.97.94-11.66-.32-2.18,3.48-4.11,7.16-5.71,10.98-.48,1.15-.96,2.38-1.42,3.66,5.65,1.28,14.12-1.53,25.79-6.46.16-.07.35-.03.42.09.07.12,0,.27-.16.34-7.61,3.21-13.89,5.54-18.96,6.43-2.78.49-5.19.55-7.26.09-1.67,4.74-3.1,10.31-3.77,16.53,3.44-.24,7.39-1.98,11.77-5.21.13-.1.33-.1.45,0,.11.09.1.25-.03.35-3.91,2.88-7.5,4.62-10.74,5.19-.51.09-1.01.15-1.5.18-.84,8.43-.25,18.03,3.1,28.31.04.13-.06.27-.23.31-.01,0-.02,0-.03,0-.16.03-.31-.04-.35-.16-3.36-10.33-3.96-19.98-3.12-28.45-.72,0-1.43-.04-2.11-.16-3.65-.64-6.57-3.32-7.8-7.15Z"/>
            </g>
          </g>
          <g>
            <path class="cls-44" d="M475.45,378.56c-1.59,18.76-41.01,19.7-41.01,19.7l-.06-.98c3.95-.8,18.49-4.05,23.65-18.48,4.84-13.57,16.94-8.34,17.42-.24Z"/>
            <g class="cls-28">
              <g>
                <path class="cls-23" d="M430.37,398.77c-.12,0-.22-.09-.23-.21-.02-.13.08-.24.2-.26,17.22-2.05,28.37-9.34,34.69-15.09,6.84-6.23,9.64-12.03,9.67-12.09.06-.12.19-.17.31-.11.12.06.17.2.11.31-.03.06-2.87,5.95-9.78,12.23-6.37,5.8-17.6,13.14-34.95,15.21,0,0-.02,0-.03,0Z"/>
                <path class="cls-23" d="M469.85,384.89c-2.5,0-5.04-.53-6.75-2.4-2.38-2.61-2.68-7.38-.89-14.19.03-.13.16-.2.29-.17.13.03.2.16.17.29-1.74,6.65-1.48,11.28.79,13.76,2.87,3.15,8.38,2.24,11.67,1.7.88-.15,1.58-.26,2.08-.28.13-.01.24.1.24.23,0,.13-.1.24-.23.24-.46.02-1.18.13-2.02.27-1.48.25-3.39.56-5.34.56Z"/>
                <path class="cls-23" d="M462.65,392.32c-2.41,0-5.11-.52-6.91-2.43-2.61-2.76-2.63-7.75-.08-14.82.04-.12.18-.18.3-.14.12.04.18.18.14.3-2.49,6.89-2.5,11.72-.02,14.34,3.68,3.9,11.72,1.57,11.8,1.55.12-.04.25.03.29.16.04.12-.03.25-.16.29-.18.05-2.58.75-5.37.75Z"/>
              </g>
            </g>
          </g>
        </g>
        <g>
          <g>
            <path class="cls-18" d="M272.17,398.05h-1.75c-.46,0-.85-.34-.9-.8-2.45-20.86-12.61-36.34-28.61-43.59-10.66-4.82-15.69-12.7-13.47-21.07,1.91-7.19,8.8-12.09,16.03-11.4,14.01,1.33,23.57,14.98,27.63,39.46,3.03,18.26,1.98,36.37,1.97,36.55-.03.48-.42.85-.9.85ZM271.22,396.24h.08c.34-8.06,1.99-70.4-28-73.25-6.36-.61-12.42,3.72-14.11,10.07-1.98,7.44,2.68,14.53,12.47,18.95,16.4,7.42,26.88,23.11,29.57,44.23Z"/>
            <g class="cls-40">
              <path class="cls-18" d="M272.73,359.53c0-.14-.12-.25-.26-.25-.14,0-.25.12-.25.26.08,4.03-1.33,7.36-3.78,8.93-.45.29-.94.52-1.45.69-2.18-6.15-4.77-11.42-7.32-15.77.08-.06.15-.13.23-.19,3.04-2.68,4.13-7.61,3.73-17,0-.14-.13-.25-.27-.25-.14,0-.25.13-.25.27.39,9.22-.64,14.03-3.56,16.6-.05.04-.1.08-.15.13-.68-1.15-1.36-2.24-2.03-3.25-2.26-3.45-4.73-6.66-7.35-9.6,3.23-4.36,1.31-11.21-1.27-17.99-.05-.13-.2-.2-.33-.15-.13.05-.2.2-.15.33,2.39,6.27,4.4,13.22,1.4,17.41-7.1-7.87-15.3-13.7-23.5-16.56-.13-.05-.28.02-.33.16-.05.13.02.28.16.33,8.14,2.85,16.29,8.66,23.35,16.49-3.1,3.73-10.22,4.77-21.76,3.17-.14-.02-.27.08-.29.22-.02.14.08.27.22.29,5.52.76,10.06.93,13.65.48,4-.5,6.82-1.75,8.53-3.77,2.58,2.9,5.01,6.08,7.24,9.48.67,1.03,1.36,2.13,2.05,3.29-3.95,2.86-11.12,2.38-21.27.65-.14-.02-.27.07-.3.21-.02.14.07.27.21.3,6.63,1.12,12.01,1.72,16.09,1.21,2.23-.28,4.08-.89,5.53-1.93,2.52,4.31,5.09,9.52,7.24,15.6-2.68.72-6.13.06-10.31-1.98-.13-.06-.28,0-.34.12-.06.13,0,.28.12.34,3.73,1.82,6.92,2.57,9.52,2.24.41-.05.81-.13,1.19-.24,2.87,8.26,4.97,18.1,5.16,29.39,0,.14.12.25.26.25,0,0,.02,0,.03,0,.13-.02.23-.13.22-.26-.19-11.35-2.29-21.23-5.18-29.53.55-.19,1.07-.44,1.56-.75,2.6-1.66,4.1-5.17,4.02-9.37Z"/>
            </g>
          </g>
          <g>
            <path class="cls-18" d="M270.92,398.05c-.1,0-.2-.02-.3-.05-9.92-3.48-18.85-3.92-26.03-4.28-5.6-.28-10.43-.51-14.15-2.09-4.78-2.03-8.37-5.74-10.1-10.44-1.58-4.28-1.42-8.86.42-12.54,3.16-6.31,11.66-9.03,17.32-7.53,26.69,7.08,35.2,35.49,35.28,35.78.08.27.03.57-.15.79-.17.23-.44.36-.72.36h-1.57s0,0,0,0ZM234.8,362.52c-4.67,0-10.21,2.5-12.43,6.94-1.6,3.2-1.73,7.35-.34,11.11,1.56,4.23,4.79,7.56,9.11,9.4,3.42,1.45,8.11,1.69,13.53,1.95,7.26.36,16.29.8,26.4,4.33h.17c-1.88-5.31-10.97-27.37-33.62-33.38-.87-.23-1.82-.34-2.81-.34Z"/>
            <g class="cls-32">
              <path class="cls-18" d="M277.21,387.63c-.03-.12-.18-.19-.33-.14-.16.04-.26.18-.24.3.75,3.49-.28,6.81-2.76,8.89-.46.38-.96.72-1.51,1.03-3.45-4.74-7.22-8.58-10.79-11.64.08-.08.15-.15.22-.23,2.96-3.23,3.36-7.84,1.37-15.92-.03-.12-.18-.18-.34-.14-.16.05-.26.18-.23.3,1.95,7.93,1.6,12.43-1.24,15.52-.05.05-.1.1-.15.15-.95-.81-1.89-1.56-2.81-2.25-3.09-2.35-6.38-4.44-9.8-6.25,2.89-4.74-.39-10.17-4.38-15.33-.08-.1-.26-.12-.39-.03-.14.08-.19.23-.11.33,3.7,4.78,7.1,10.26,4.44,14.79-9.24-4.8-19.37-7.51-29.01-7.63-.16,0-.31.1-.34.23-.03.13.07.24.23.24,9.58.12,19.64,2.82,28.83,7.61-2.85,4.16-12.15,7-25.32,8.96-.16.02-.29.15-.29.28,0,.13.13.21.29.19,4.91-.73,11.35-1.64,16.55-3.53,4.39-1.6,7.63-3.4,9.21-5.66,3.36,1.78,6.61,3.85,9.66,6.17.92.7,1.87,1.46,2.84,2.28-3.94,3.64-12.03,5.3-23.68,6.75-.16.02-.29.14-.3.27,0,.13.12.22.28.2,7.59-.94,13.71-1.98,18.19-3.61,2.45-.89,4.42-1.96,5.87-3.29,3.53,3.03,7.26,6.84,10.67,11.52-2.87,1.4-6.84,1.83-11.86,1.27-.15-.02-.32.07-.36.2-.05.13.04.25.19.27,4.47.5,8.16.23,11.02-.81.45-.16.88-.35,1.29-.55,4.57,6.38,8.54,14.35,10.61,24.15.03.12.18.19.33.14.01,0,.02,0,.03,0,.14-.05.23-.18.21-.29-2.08-9.85-6.06-17.86-10.66-24.27.58-.33,1.12-.7,1.62-1.11,2.63-2.21,3.74-5.7,2.95-9.35Z"/>
            </g>
          </g>
          <g>
            <path class="cls-44" d="M271.83,396.84s-14.14-62.16-29.6-47.43c-16.28,15.51,24.04,27.97,29.6,47.43Z"/>
            <g class="cls-16">
              <g>
                <path class="cls-23" d="M272.85,401.89c-.11,0-.21-.08-.23-.19-3.6-18.1-12.3-31.88-18.96-40.25-7.22-9.07-13.66-13.91-13.72-13.96-.1-.08-.13-.22-.05-.33.08-.1.22-.13.33-.05.06.05,6.55,4.93,13.81,14.04,6.7,8.41,15.44,22.25,19.06,40.45.03.13-.06.25-.18.28-.02,0-.03,0-.05,0Z"/>
                <path class="cls-23" d="M243.73,361.97c-2.36,0-5.13-.28-8.28-.85-.13-.02-.21-.14-.19-.27.02-.13.14-.21.27-.19,8.41,1.51,13.94,1,16.44-1.51,2.28-2.28,1.63-5.82,1.21-8.15-.09-.52-.18-.96-.22-1.35-.01-.13.08-.24.21-.26.13-.02.24.08.26.21.04.37.12.81.21,1.32.44,2.43,1.11,6.11-1.34,8.57-1.65,1.66-4.52,2.49-8.57,2.49Z"/>
                <path class="cls-23" d="M252.56,370.72c-2.41,0-5.28-.46-8.62-1.39-.12-.03-.2-.16-.16-.29.03-.12.16-.2.29-.16,7.63,2.12,12.78,1.79,15.3-.99,3.41-3.75.77-10.82.74-10.89-.05-.12.01-.26.14-.3.12-.05.26.01.3.13.11.3,2.77,7.41-.83,11.37-1.52,1.67-3.92,2.51-7.16,2.51Z"/>
              </g>
            </g>
          </g>
        </g>
        <g>
          <g>
            <path class="cls-24" d="M264.91,123.66c-1.4,0-2.54-1.14-2.54-2.54v-18.29c0-1.4,1.14-2.54,2.54-2.54h2.13c.14,0,.25.11.25.25v22.86c0,.14-.11.25-.25.25h-2.13ZM264.91,100.79c-1.12,0-2.03.91-2.03,2.03v18.29c0,1.12.91,2.03,2.03,2.03h1.73c.08,0,.14-.06.14-.14v-22.07c0-.08-.06-.14-.14-.14h-1.73Z"/>
            <rect class="cls-24" x="266.79" y="75.79" width="179.72" height="324.04" rx="25.54" ry="25.54"/>
            <path class="cls-23" d="M432.98,83.09c3.45,0,6.25,2.81,6.25,6.25v295.86c0,3.45-2.81,6.25-6.25,6.25h-152.66c-3.45,0-6.25-2.81-6.25-6.25V89.34c0-3.45,2.81-6.25,6.25-6.25h152.66ZM432.98,82.62h-152.66c-3.71,0-6.72,3.01-6.72,6.72v295.86c0,3.71,3.01,6.72,6.72,6.72h152.66c3.71,0,6.72-3.01,6.72-6.72V89.34c0-3.71-3.01-6.72-6.72-6.72h0Z"/>
            <rect class="cls-45" x="275.64" y="84.83" width="162.02" height="304.87" rx="11.89" ry="11.89"/>
            <g class="cls-30">
              <g>
                <rect class="cls-23" x="275.64" y="348.77" width="162.02" height="42.21"/>
                <rect class="cls-23" x="275.64" y="76.67" width="162.02" height="32.14" transform="translate(713.29 185.48) rotate(180)"/>
                <path class="cls-18" d="M300.14,362.91c2.62,0,4.75,2.13,4.75,4.75s-2.13,4.75-4.75,4.75-4.75-2.13-4.75-4.75,2.13-4.75,4.75-4.75ZM300.14,362.45c-2.88,0-5.22,2.34-5.22,5.22s2.34,5.22,5.22,5.22,5.22-2.34,5.22-5.22-2.34-5.22-5.22-5.22h0Z"/>
                <path class="cls-18" d="M337.81,362.91c2.62,0,4.75,2.13,4.75,4.75s-2.13,4.75-4.75,4.75-4.75-2.13-4.75-4.75,2.13-4.75,4.75-4.75ZM337.81,362.45c-2.88,0-5.22,2.34-5.22,5.22s2.34,5.22,5.22,5.22,5.22-2.34,5.22-5.22-2.34-5.22-5.22-5.22h0Z"/>
                <path class="cls-5" d="M380.7,367.66c0,2.88-2.34,5.22-5.22,5.22s-5.22-2.34-5.22-5.22,2.34-5.22,5.22-5.22,5.22,2.34,5.22,5.22Z"/>
                <path class="cls-18" d="M375.48,362.91c2.62,0,4.75,2.13,4.75,4.75s-2.13,4.75-4.75,4.75-4.75-2.13-4.75-4.75,2.13-4.75,4.75-4.75ZM375.48,362.45c-2.88,0-5.22,2.34-5.22,5.22s2.34,5.22,5.22,5.22,5.22-2.34,5.22-5.22-2.34-5.22-5.22-5.22h0Z"/>
                <path class="cls-18" d="M413.15,362.91c2.62,0,4.75,2.13,4.75,4.75s-2.13,4.75-4.75,4.75-4.75-2.13-4.75-4.75,2.13-4.75,4.75-4.75ZM413.15,362.45c-2.88,0-5.22,2.34-5.22,5.22s2.34,5.22,5.22,5.22,5.22-2.34,5.22-5.22-2.34-5.22-5.22-5.22h0Z"/>
              </g>
              <g>
                <g>
                  <g>
                    <path class="cls-44" d="M311.99,92.56c-.07,0-.14-.03-.19-.09-.22-.29-.31-.66-.26-1.02.05-.36.24-.69.53-.91.29-.22.66-.31,1.02-.26.36.05.69.24.91.53.08.1.06.25-.05.33-.1.08-.25.06-.33-.05-.15-.19-.36-.32-.6-.35-.24-.03-.48.03-.67.17-.19.15-.32.36-.35.6s.03.48.17.67c.08.1.06.25-.05.33-.04.03-.09.05-.14.05Z"/>
                    <path class="cls-44" d="M320.74,92.56s-.1-.02-.14-.05c-.1-.08-.12-.22-.05-.33.15-.19.21-.43.17-.67-.03-.24-.16-.45-.35-.6-.4-.3-.97-.22-1.27.18-.08.1-.22.12-.33.05-.1-.08-.12-.22-.05-.33.46-.61,1.32-.73,1.93-.27.29.22.48.54.53.91.05.36-.04.73-.26,1.02-.05.06-.12.09-.19.09Z"/>
                    <path class="cls-44" d="M313.71,100.94c-.32,0-.58-.26-.58-.58s.26-.58.58-.58.58.26.58.58-.26.58-.58.58ZM313.71,100.26c-.06,0-.11.05-.11.11s.05.11.11.11.11-.05.11-.11-.05-.11-.11-.11Z"/>
                    <path class="cls-44" d="M319.02,100.94c-.32,0-.58-.26-.58-.58s.26-.58.58-.58.58.26.58.58-.26.58-.58.58ZM319.02,100.26c-.06,0-.11.05-.11.11s.05.11.11.11.11-.05.11-.11-.05-.11-.11-.11Z"/>
                  </g>
                  <path class="cls-44" d="M316.36,100.7c-2.77,0-5.03-2.25-5.03-5.03s2.25-5.03,5.03-5.03,5.03,2.25,5.03,5.03-2.25,5.03-5.03,5.03ZM316.36,91.12c-2.51,0-4.56,2.04-4.56,4.56s2.04,4.56,4.56,4.56,4.56-2.04,4.56-4.56-2.04-4.56-4.56-4.56Z"/>
                  <path class="cls-44" d="M316.36,95.91c-.13,0-.23-.1-.23-.23v-2.34c0-.13.1-.23.23-.23s.23.1.23.23v2.34c0,.13-.1.23-.23.23Z"/>
                  <path class="cls-44" d="M317.94,97.5c-.06,0-.12-.02-.17-.07l-1.58-1.59c-.09-.09-.09-.24,0-.33.09-.09.24-.09.33,0l1.58,1.59c.09.09.09.24,0,.33-.05.05-.11.07-.17.07Z"/>
                </g>
                <g>
                  <path class="cls-44" d="M391.95,101.12c-.26,0-.48-.34-.48-.74v-.77c0-.28.11-.53.27-.66.07-.05.14-.08.2-.08.2,0,.48.26.48.74v.77c0,.4-.22.74-.48.74Z"/>
                  <path class="cls-44" d="M394.84,101.12c-.26,0-.48-.34-.48-.74v-2.96c0-.28.11-.53.27-.66.07-.05.14-.08.2-.08.2,0,.48.26.48.74v2.96c0,.4-.22.74-.48.74Z"/>
                  <path class="cls-44" d="M397.73,101.12c-.26,0-.48-.34-.48-.74v-5.16c0-.28.11-.53.27-.66.07-.05.14-.08.2-.08.2,0,.48.26.48.74v5.16c0,.4-.22.74-.48.74Z"/>
                  <path class="cls-44" d="M400.62,101.12c-.26,0-.48-.34-.48-.74v-7.35c0-.28.11-.53.27-.66.07-.05.14-.08.2-.08.2,0,.48.26.48.74v7.35c0,.4-.22.74-.48.74Z"/>
                  <path class="cls-20" d="M403.51,101.12c-.26,0-.48-.34-.48-.74v-9.55c0-.28.11-.53.27-.66.07-.05.14-.08.2-.08.2,0,.48.26.48.74v9.55c0,.4-.22.74-.48.74Z"/>
                </g>
                <g>
                  <path class="cls-44" d="M426.18,100.94h-14.9c-1.56,0-2.82-1.27-2.82-2.82v-5.04c0-1.55,1.27-2.82,2.82-2.82h14.9c1.56,0,2.82,1.27,2.82,2.82v5.04c0,1.56-1.27,2.82-2.82,2.82ZM411.28,90.73c-1.3,0-2.35,1.06-2.35,2.35v5.04c0,1.3,1.06,2.35,2.35,2.35h14.9c1.3,0,2.35-1.06,2.35-2.35v-5.04c0-1.3-1.06-2.35-2.35-2.35h-14.9Z"/>
                  <path class="cls-44" d="M430.09,97.87c-.13,0-.23-.1-.23-.23v-3.84c0-.13.1-.23.23-.23s.23.1.23.23v3.84c0,.13-.1.23-.23.23Z"/>
                  <g>
                    <path class="cls-20" d="M412.01,92.32c-.8,0-1.44.65-1.44,1.44v3.69c0,.8.65,1.44,1.44,1.44h8.52v-6.58h-8.52Z"/>
                    <path class="cls-23" d="M425.44,92.32h-4.91v6.58h4.91c.8,0,1.44-.65,1.44-1.44v-3.69c0-.8-.65-1.44-1.44-1.44Z"/>
                  </g>
                </g>
                <g>
                  <path class="cls-20" d="M373.3,93.89c-.1,0-.19-.04-.27-.11l-.07-.07c-.07-.07-.11-.17-.11-.27,0-.11.05-.21.13-.29,2.07-1.97,4.77-3.05,7.61-3.05s5.48,1.06,7.55,2.99c.08.08.13.18.13.29,0,.1-.04.2-.11.28l-.07.07c-.07.07-.17.11-.27.11s-.21-.04-.29-.12c-1.9-1.77-4.37-2.75-6.95-2.75s-5.1,1-7,2.81c-.08.08-.18.12-.29.12Z"/>
                  <path class="cls-44" d="M375.06,95.64c-.1,0-.2-.04-.27-.11l-.07-.07c-.07-.07-.11-.17-.11-.28,0-.11.05-.21.13-.29,1.6-1.5,3.68-2.32,5.85-2.32s4.2.8,5.79,2.26c.08.08.13.18.13.29,0,.11-.04.21-.11.28l-.07.07c-.07.07-.18.12-.28.12-.09,0-.17-.03-.24-.09-1.43-1.33-3.29-2.06-5.23-2.06s-3.84.75-5.28,2.1c-.07.06-.16.1-.25.1Z"/>
                  <path class="cls-44" d="M376.81,97.39c-.1,0-.2-.04-.27-.11l-.06-.07c-.08-.08-.12-.18-.11-.28,0-.11.05-.21.13-.29,1.13-1.03,2.58-1.59,4.1-1.59s2.92.55,4.04,1.54c.08.07.13.17.13.28,0,.11-.04.21-.11.29l-.07.07c-.07.07-.17.11-.27.11-.09,0-.19-.04-.26-.1-.96-.85-2.19-1.32-3.46-1.32s-2.55.49-3.52,1.37c-.07.07-.17.1-.26.1Z"/>
                  <path class="cls-44" d="M378.58,99.16c-.1,0-.21-.04-.28-.12l-.07-.07c-.08-.08-.12-.19-.12-.3,0-.1.05-.19.12-.26.66-.57,1.5-.88,2.36-.88s1.65.29,2.29.82c.08.06.12.15.12.25,0,.11-.04.22-.12.3l-.07.07c-.07.07-.16.11-.26.11s-.2-.04-.28-.1c-.49-.39-1.07-.59-1.69-.59-.66,0-1.3.24-1.8.68-.06.05-.13.08-.21.08Z"/>
                  <path class="cls-44" d="M380.87,100.8h-.63c-.19,0-.35-.16-.35-.35h0c0-.19.16-.35.35-.35h.63c.19,0,.35.16.35.35h0c0,.19-.16.35-.35.35Z"/>
                </g>
                <g>
                  <path class="cls-9" d="M305.9,95.27c0,1.11-.38,2.13-1.02,2.94-.33-1.62-1.76-2.84-3.47-2.84-.32,0-.62.06-.91.13-.56-1.44-1.63-2.63-3-3.34.87-1.02,2.18-1.67,3.62-1.67,2.64,0,4.78,2.14,4.78,4.77Z"/>
                  <path class="cls-44" d="M304.45,100.94h-21.18c-.08,0-.15-.04-.2-.11-.47-.72-.72-1.56-.72-2.43,0-2.44,1.98-4.42,4.41-4.42.73,0,1.44.18,2.08.53,1.18-2.04,3.35-3.3,5.72-3.3,1.06,0,2.11.26,3.04.75,1.36.71,2.43,1.86,3.03,3.27.29-.06.53-.09.77-.09,1.79,0,3.35,1.27,3.7,3.03.05.25.07.5.07.75,0,.67-.18,1.31-.54,1.91-.04.07-.12.12-.2.12ZM283.39,100.48h20.92c.27-.5.41-1.02.41-1.56,0-.22-.02-.44-.07-.66-.31-1.54-1.67-2.65-3.24-2.65-.26,0-.52.04-.85.13-.11.03-.23-.03-.28-.14-.54-1.39-1.57-2.53-2.89-3.22,0,0,0,0,0,0-.86-.45-1.84-.69-2.83-.69-2.27,0-4.35,1.25-5.42,3.26-.03.06-.08.1-.15.12-.06.02-.13,0-.18-.03-.61-.38-1.32-.58-2.05-.58-2.18,0-3.95,1.77-3.95,3.95,0,.73.2,1.44.58,2.06Z"/>
                </g>
              </g>
              <g>
                <g>
                  <rect class="cls-25" x="298.78" y="210.64" width="115.73" height="26.32" rx="6.41" ry="6.41"/>
                  <g>
                    <path class="cls-23" d="M349.29,221.04c0,1.05-.63,1.85-1.66,2.11,1.27.23,2.03,1.14,2.03,2.41,0,1.63-1.35,2.63-3.53,2.63h-4.36v-9.53h4.23c2.03,0,3.28.91,3.28,2.38ZM347.42,221.37c0-.72-.57-1.14-1.51-1.13h-2.31v2.31h2.31c.94,0,1.51-.44,1.51-1.18ZM347.76,225.33c0-.78-.69-1.25-1.85-1.24h-2.31v2.52h2.31c1.16.01,1.85-.46,1.85-1.28Z"/>
                    <path class="cls-23" d="M356.65,226.64c1.44,0,2.36-.9,2.36-2.42v-5.56h1.82v5.56c0,2.51-1.59,4.06-4.18,4.06s-4.23-1.55-4.23-4.06v-5.56h1.82v5.56c0,1.51.97,2.42,2.41,2.42Z"/>
                    <path class="cls-23" d="M368.36,225.07v3.12h-1.82v-3.05l-3.55-6.48h1.85l2.6,4.48,2.56-4.48h1.84l-3.47,6.41Z"/>
                  </g>
                </g>
                <g>
                  <rect class="cls-23" x="284.53" y="117.61" width="144.24" height="82.84" rx="21.62" ry="21.62"/>
                  <g>
                    <g>
                      <rect class="cls-44" x="327.22" y="147.42" width="55.72" height="41.59"/>
                      <g>
                        <rect class="cls-44" x="306.3" y="161.1" width="20.92" height="27.92"/>
                        <rect class="cls-23" x="309.74" y="161.1" width="17.48" height="27.92"/>
                        <g>
                          <rect class="cls-44" x="315.31" y="163.43" width="6.64" height="4.19" rx="2.1" ry="2.1"/>
                          <rect class="cls-44" x="315.31" y="168.16" width="6.64" height="8.15" rx="3.02" ry="3.02"/>
                        </g>
                      </g>
                      <g>
                        <g>
                          <rect class="cls-23" x="386.04" y="161.1" width="21.16" height="27.92"/>
                          <path class="cls-18" d="M407.2,177.27c-.13,0-.23-.1-.23-.23v-13.96c0-.13.1-.23.23-.23s.23.1.23.23v13.96c0,.13-.1.23-.23.23Z"/>
                        </g>
                        <rect class="cls-44" x="386.04" y="161.1" width="3.32" height="27.92"/>
                        <g>
                          <rect class="cls-44" x="394.76" y="163.43" width="6.64" height="4.19" rx="2.1" ry="2.1" transform="translate(796.16 331.05) rotate(180)"/>
                          <rect class="cls-44" x="394.76" y="168.16" width="6.64" height="8.15" rx="3.02" ry="3.02" transform="translate(796.16 344.47) rotate(180)"/>
                        </g>
                      </g>
                      <rect class="cls-23" x="330.33" y="147.42" width="55.72" height="41.59"/>
                      <rect id="SVGID-2" data-name="SVGID" class="cls-25" x="306.3" y="179.65" width="100.9" height="12.55"/>
                      <rect class="cls-36" x="327.22" y="179.65" width="58.82" height="12.55"/>
                    </g>
                    <g>
                      <path class="cls-1" d="M322.02,153.14h64.83c.85,0,1.24-1.05.59-1.61l-2.09-2.03-1.11-1.07-26.06-24.77h-2.67c-.7,0-1.37.25-1.9.69l-28.58,24.07-1.25,1.07-2.36,2.03c-.64.55-.25,1.61.6,1.61Z"/>
                      <g>
                        <path id="SVGID-3" data-name="SVGID" class="cls-39" d="M408.63,159.44l-6.47-6.29h-11.55c.84,0,1.22-1.05.58-1.6l-2.36-2.03-1.25-1.07-28.34-24.38c-.61-.52-1.51-.52-2.12,0l-28.34,24.38-1.25,1.07-2.36,2.03c-.64.55-.25,1.6.58,1.6h-14.66l-6.44,6.26c-.63.62-.2,1.69.69,1.69h21.87v-7.95h58.82v7.95h21.91c.87,0,1.3-1.06.67-1.66Z"/>
                        <g class="cls-2">
                          <g>
                            <path class="cls-23" d="M388.23,157.3c2.34.15,4.54.3,6.12.5,2.3.3,2.36.64,2.36.68,0,.75-4.23.92-9.12,1.12-.5.02-1.02.04-1.55.07v.47c.54-.02,1.07-.04,1.57-.07,6.8-.28,9.56-.44,9.57-1.59,0-1.03-2.89-1.26-8.92-1.65-.72-.05-1.47-.1-2.22-.15v.47c.74.05,1.48.1,2.19.15Z"/>
                            <path class="cls-23" d="M329.62,151.76h.09c10.59,0,19.64.6,27.09,1.39h4.13c-8.14-1-18.59-1.85-31.22-1.85h-.09c-1.43,0-2.83.02-4.2.04l-.24.2c-.1.08-.17.18-.22.28,1.52-.03,3.07-.05,4.66-.06Z"/>
                            <path class="cls-23" d="M321.35,154.03h.03c1.93,0,3.89.07,5.85.19v-.47c-1.96-.12-3.92-.19-5.85-.19h-.03c-6.01,0-9.68.8-12.42,1.7l-.79.77c2.81-1.01,6.56-2,13.21-2Z"/>
                            <path class="cls-23" d="M308.85,159.18s-.03-.06-.03-.06c.18-.69,1.85-2.93,15.54-2.93.16,0,.32,0,.49,0,.83,0,1.62.02,2.37.03v-.47c-.75-.02-1.54-.03-2.37-.03-13.58-.04-16.15,2.03-16.48,3.28-.03.11-.03.28.11.47.43.56,2.18,1.14,5.24,1.63h3.57c-5.9-.62-8.1-1.47-8.44-1.91Z"/>
                            <path class="cls-23" d="M324.55,157.72c-3.92.27-4.15.37-4.15,1.02v.04c0,.1.06.19.17.27.48.32,3.38,1.03,6.65,1.32v-.46c-3.11-.27-5.87-.93-6.35-1.21,0-.03,0-.05,0-.06.15-.21,2.38-.36,3.71-.45.8-.05,1.71-.06,2.64-.03v-.46c-1-.03-1.92-.02-2.67.03Z"/>
                            <path class="cls-23" d="M330.71,149.27c18.16-.16,34.31,1.93,47.75,3.88h3.24c-14.05-2.06-31.35-4.52-50.99-4.35-.81,0-1.6.02-2.38.03l-.56.48c.96-.02,1.94-.03,2.94-.04Z"/>
                            <path class="cls-23" d="M386.04,154.25c7.77,1.13,14.26,2,19.33,2.01l-.48-.47c-4.98-.06-11.31-.92-18.85-2.02v.47Z"/>
                            <path class="cls-23" d="M345.99,143.42c-2.35-.11-5.78-.72-9.63-1.5l-.45.39c4.01.82,7.61,1.47,10.06,1.58,2.76.13,9.39-.6,17.07-1.44,4.98-.54,10.42-1.14,15.71-1.61l-.49-.43c-5.15.46-10.43,1.04-15.27,1.57-7.66.84-14.27,1.56-17,1.44Z"/>
                            <path class="cls-23" d="M357.43,146.1c-.09.13-.11.28-.04.43.87,1.74,21.96,4.83,34.1,5.83.02-.15,0-.31-.05-.46-4.84-.39-11.11-1.12-17.36-2.05-10.62-1.58-15.83-2.91-16.25-3.49,1.25-1.64,5.17-2.52,23.6-3.08.05,0,.1,0,.15,0l-.53-.45c-18.65.57-22.25,1.44-23.62,3.29Z"/>
                            <path class="cls-23" d="M377.5,147.05c-.11.73.99,1.26,1.59,1.45,1.17.36,5.2,1.14,10.41,1.59l-.61-.53c-5.19-.49-8.98-1.3-9.66-1.51-.71-.22-1.3-.65-1.26-.93.03-.19.5-1.07,6.64-1.24l-.52-.45c-6.37.23-6.53,1.26-6.58,1.62Z"/>
                            <path class="cls-23" d="M369.08,134.61c-5.78.5-8.66,1.19-11.21,1.8-2.6.62-4.84,1.16-9.46,1.33-1.64.06-3.92-.1-6.72-.4l-.49.42c2.62.29,4.81.47,6.49.47.26,0,.5,0,.74-.01,4.67-.17,6.94-.71,9.56-1.34,2.53-.61,5.4-1.3,11.14-1.79.9-.08,1.81-.13,2.73-.18l-.52-.44c-.76.04-1.51.09-2.25.16Z"/>
                            <path class="cls-23" d="M354.89,130.65c1.19-.03,2.56,0,4.14.05,2.27.06,4.89.14,7.98.03l-.53-.45c-2.85.08-5.3.01-7.44-.05-1.59-.05-2.96-.08-4.16-.05-1.4.04-2.71.26-4.36.54-.45.08-.92.16-1.42.24l-.68.58c.8-.12,1.52-.25,2.18-.36,1.64-.28,2.93-.5,4.3-.54Z"/>
                            <path class="cls-23" d="M356.26,128.28c1.51-.06,4.14-.27,7.23-.57l-.48-.41c-2.79.27-5.21.46-6.77.52-1.17.04-2.35.06-3.55.05l-.54.46c1.4,0,2.76,0,4.11-.05Z"/>
                            <path class="cls-23" d="M360.38,125.04l-.49-.42c-1.1.12-2.36.23-3.79.32l-.59.51c.16,0,.31-.02.46-.03,1.7-.11,3.15-.24,4.41-.38Z"/>
                          </g>
                        </g>
                      </g>
                      <path class="cls-18" d="M375.12,136.4c-.13,0-.23-.1-.23-.23v-6.11c0-.21-.17-.37-.37-.37h-2.98c-.21,0-.38.17-.38.37v2.63c0,.13-.1.23-.23.23s-.23-.1-.23-.23v-2.63c0-.46.38-.84.84-.84h2.98c.46,0,.84.38.84.84v6.11c0,.13-.1.23-.23.23Z"/>
                    </g>
                    <g>
                      <rect class="cls-25" x="353.36" y="160.03" width="10.82" height="25.79" rx=".5" ry=".5"/>
                      <rect class="cls-25" x="351.19" y="185.82" width="15.15" height="3.19"/>
                      <rect class="cls-25" x="349.12" y="189.01" width="19.3" height="3.19"/>
                      <path class="cls-23" d="M360.53,173.08c0,.41.34.75.75.75s.75-.34.75-.75-.34-.75-.75-.75-.75.34-.75.75Z"/>
                      <path class="cls-23" d="M362.32,184.3h-7.19c-.44,0-.79-.36-.79-.79v-21.16c0-.44.36-.79.79-.79h7.19c.44,0,.79.36.79.79v21.16c0,.44-.36.79-.79.79ZM355.13,162.02c-.18,0-.33.15-.33.33v21.16c0,.18.15.33.33.33h7.19c.18,0,.33-.15.33-.33v-21.16c0-.18-.15-.33-.33-.33h-7.19Z"/>
                      <path class="cls-23" d="M364.88,189.25h-12.27c-.13,0-.23-.1-.23-.23s.1-.23.23-.23h12.27c.13,0,.23.1.23.23s-.1.23-.23.23Z"/>
                    </g>
                    <g>
                      <rect class="cls-44" x="335.7" y="156.72" width="6.14" height="5.46" rx="2.73" ry="2.73"/>
                      <rect class="cls-44" x="335.7" y="162.88" width="6.14" height="10.61" rx="3.07" ry="3.07"/>
                      <rect class="cls-44" x="342.79" y="156.72" width="6.14" height="5.46" rx="2.73" ry="2.73"/>
                      <path class="cls-44" d="M345.86,162.88h0c1.7,0,3.07,1.38,3.07,3.07v4.47c0,1.7-1.38,3.07-3.07,3.07h0c-1.7,0-3.07-1.38-3.07-3.07v-4.47c0-1.7,1.38-3.07,3.07-3.07Z"/>
                    </g>
                    <g>
                      <rect class="cls-44" x="368.91" y="156.72" width="6.14" height="5.46" rx="2.73" ry="2.73"/>
                      <path class="cls-44" d="M371.98,162.88h0c1.7,0,3.07,1.38,3.07,3.07v4.47c0,1.7-1.38,3.07-3.07,3.07h0c-1.7,0-3.07-1.38-3.07-3.07v-4.47c0-1.7,1.38-3.07,3.07-3.07Z"/>
                      <rect class="cls-44" x="376" y="156.72" width="6.14" height="5.46" rx="2.73" ry="2.73"/>
                      <path class="cls-44" d="M379.07,162.88h0c1.7,0,3.07,1.38,3.07,3.07v4.47c0,1.7-1.38,3.07-3.07,3.07h0c-1.7,0-3.07-1.38-3.07-3.07v-4.47c0-1.7,1.38-3.07,3.07-3.07Z"/>
                    </g>
                  </g>
                </g>
                <g>
                  <rect class="cls-23" x="284.53" y="247.62" width="144.24" height="93.08" rx="22.91" ry="22.91"/>
                  <g>
                    <rect class="cls-45" x="299.11" y="297.36" width="54.27" height="36.5" rx="8.8" ry="8.8"/>
                    <path class="cls-25" d="M333.01,320.51c0,2.79-2.39,4.66-6.17,4.83v3.38h-.57v-3.38c-2.5,0-5.15-1.11-6.79-2.79l.4-.4c1.51,1.59,4.01,2.62,6.4,2.62,3.75,0,6.17-1.68,6.17-4.26.06-6.82-11.88-3.41-11.88-10.63,0-2.53,2.25-4.21,5.71-4.38v-3.01h.57v2.99h.06c1.85,0,3.92.57,5.29,1.45l-.28.45c-1.28-.82-3.24-1.34-5-1.34-3.5,0-5.77,1.51-5.77,3.84,0,6.65,11.94,3.24,11.88,10.63Z"/>
                  </g>
                  <g>
                    <path class="cls-45" d="M307.58,254.47h36.66c4.86,0,8.8,3.94,8.8,8.8v18.9c0,4.86-3.94,8.8-8.8,8.8h-36.66c-4.86,0-8.8-3.94-8.8-8.8v-18.9c0-4.86,3.94-8.8,8.8-8.8Z" transform="translate(651.83 545.43) rotate(180)"/>
                    <g>
                      <path class="cls-25" d="M335.78,281.71h-19.73c-.13,0-.23-.1-.23-.23s.1-.23.23-.23h19.73c.13,0,.23.1.23.23s-.1.23-.23.23Z"/>
                      <path class="cls-25" d="M337.72,283.65h-23.62c-.13,0-.23-.1-.23-.23s.1-.23.23-.23h23.62c.13,0,.23.1.23.23s-.1.23-.23.23Z"/>
                      <g>
                        <path class="cls-25" d="M325.91,267.53c-.78,0-1.42-.63-1.42-1.41s.63-1.41,1.42-1.41,1.41.63,1.41,1.41-.63,1.41-1.41,1.41ZM325.91,265.17c-.52,0-.95.42-.95.95s.42.95.95.95.95-.42.95-.95-.42-.95-.95-.95Z"/>
                        <path class="cls-25" d="M336.95,269.21h-22.08c-.1,0-.2-.07-.22-.17-.03-.1.01-.21.1-.26l11.04-6.96c.08-.05.17-.05.25,0l11.04,6.96c.09.06.13.16.1.26-.03.1-.12.17-.22.17ZM315.68,268.75h20.46l-10.23-6.45-10.23,6.45Z"/>
                      </g>
                      <g>
                        <path class="cls-25" d="M318.38,279.48c-.13,0-.23-.1-.23-.23v-8.43c0-.13.1-.23.23-.23s.23.1.23.23v8.43c0,.13-.1.23-.23.23Z"/>
                        <path class="cls-25" d="M323.4,279.48c-.13,0-.23-.1-.23-.23v-8.43c0-.13.1-.23.23-.23s.23.1.23.23v8.43c0,.13-.1.23-.23.23Z"/>
                        <path class="cls-25" d="M328.42,279.48c-.13,0-.23-.1-.23-.23v-8.43c0-.13.1-.23.23-.23s.23.1.23.23v8.43c0,.13-.1.23-.23.23Z"/>
                        <path class="cls-25" d="M333.44,279.48c-.13,0-.23-.1-.23-.23v-8.43c0-.13.1-.23.23-.23s.23.1.23.23v8.43c0,.13-.1.23-.23.23Z"/>
                      </g>
                    </g>
                  </g>
                  <g>
                    <path class="cls-45" d="M369.04,254.47h36.66c4.86,0,8.8,3.94,8.8,8.8v18.9c0,4.86-3.94,8.8-8.8,8.8h-36.66c-4.86,0-8.8-3.94-8.8-8.8v-18.9c0-4.86,3.94-8.8,8.8-8.8Z"/>
                    <path class="cls-25" d="M385.56,268.28c0,4.06-1.85,6.3-5.12,6.3s-5.06-2.24-5.06-6.3,1.82-6.3,5.06-6.3,5.12,2.27,5.12,6.3ZM376.02,268.28c0,3.72,1.57,5.75,4.42,5.75s4.45-2.03,4.45-5.75-1.57-5.75-4.45-5.75-4.42,2.03-4.42,5.75ZM395.67,262.13l-16.29,21.17h-.79l16.29-21.17h.79ZM399.37,277.15c0,4.06-1.85,6.3-5.12,6.3s-5.06-2.24-5.06-6.3,1.82-6.3,5.06-6.3,5.12,2.27,5.12,6.3ZM389.83,277.15c0,3.72,1.57,5.75,4.42,5.75s4.45-2.03,4.45-5.75-1.57-5.75-4.45-5.75-4.42,2.03-4.42,5.75Z"/>
                  </g>
                  <g>
                    <rect class="cls-45" x="360.24" y="297.36" width="54.27" height="36.5" rx="8.8" ry="8.8"/>
                    <g>
                      <polygon class="cls-25" points="395.68 314.95 387.29 307.4 378.89 314.95 378.58 314.61 387.29 306.77 395.99 314.61 395.68 314.95"/>
                      <path class="cls-25" d="M378.74,326.58c-.13,0-.23-.1-.23-.23v-11.56c0-.13.1-.23.23-.23s.23.1.23.23v11.56c0,.13-.1.23-.23.23Z"/>
                      <path class="cls-25" d="M395.84,326.58c-.13,0-.23-.1-.23-.23v-11.56c0-.13.1-.23.23-.23s.23.1.23.23v11.56c0,.13-.1.23-.23.23Z"/>
                      <path class="cls-25" d="M399.13,315.76c-.06,0-.11-.02-.16-.06l-11.68-10.51-11.5,10.35c-.1.09-.24.08-.33-.02s-.08-.24.02-.33l11.66-10.49c.09-.08.22-.08.31,0l11.84,10.66c.1.09.1.23.02.33-.05.05-.11.08-.17.08Z"/>
                      <polygon class="cls-25" points="399.13 326.58 389.74 326.58 389.74 315.73 384.63 315.73 384.63 326.58 375.63 326.58 375.63 326.11 384.16 326.11 384.16 315.26 390.21 315.26 390.21 326.11 399.13 326.11 399.13 326.58"/>
                      <path class="cls-25" d="M393.54,310.74c-.13,0-.23-.1-.23-.23v-3.36c0-.13.1-.23.23-.23s.23.1.23.23v3.36c0,.13-.1.23-.23.23Z"/>
                    </g>
                  </g>
                </g>
              </g>
            </g>
          </g>
          <g>
            <g>
              <path class="cls-9" d="M250.59,165.99c.52-.02.98.05,1.4.19l3.95-12.04-12.63-4.14-16.54,50.46c-.33,1,.73,3.63,1.77,3.77,3.64.52,11.56-1.77,13.16-6.65l.53-1.62c-2.82-1.74-2.29-7.15,1.89-7.29.17,0,.33,0,.49.01l1.11-3.39c-3.65-1.16-3.4-7.49,1.13-7.64.49-.02.93.04,1.32.16l1.36-4.16c-3.73-1.1-3.5-7.52,1.05-7.67Z"/>
              <path class="cls-15" d="M231.22,199.54c-.06,0-.12,0-.17-.02-.25-.08-.39-.35-.31-.61l14.49-44.45c.08-.25.35-.39.61-.31.25.08.39.35.31.61l-14.49,44.45c-.06.2-.24.32-.43.33Z"/>
              <g>
                <path class="cls-9" d="M271.19,150.61c-3.34,10.19-14.31,15.75-24.5,12.4-10.19-3.34-15.75-14.31-12.4-24.5,3.34-10.19,14.31-15.75,24.5-12.4,10.19,3.34,15.75,14.31,12.4,24.5ZM257.21,132.25c-2.82-.93-5.86.61-6.79,3.44-.93,2.82.61,5.86,3.44,6.79,2.82.93,5.86-.61,6.79-3.44.93-2.82-.61-5.86-3.44-6.79Z"/>
                <path class="cls-15" d="M252.72,160.29c-3.89,0-7.63-1.44-10.53-4.06-3.12-2.82-4.95-6.68-5.16-10.88-.43-8.66,6.26-16.06,14.92-16.5.27-.01.54-.02.8-.02,8.38,0,15.28,6.56,15.7,14.94.21,4.2-1.23,8.22-4.04,11.34-2.82,3.12-6.68,4.95-10.88,5.16-.27.01-.54.02-.81.02h0ZM252.74,129.53c-.25,0-.51,0-.76.02-8.28.42-14.67,7.49-14.26,15.76.2,4.01,1.95,7.7,4.93,10.39,2.77,2.5,6.34,3.88,10.07,3.88h0c.25,0,.51,0,.77-.02,4.01-.2,7.7-1.95,10.39-4.93,2.69-2.98,4.07-6.83,3.86-10.83-.4-8.01-6.99-14.28-15-14.28Z"/>
              </g>
              <g>
                <path class="cls-18" d="M255.6,137.93c-.88.04-1.7-.18-2.46-.67-3.86-2.47-2.96-7.75-1.01-11.53,1.7-3.3,5-6.92,8.21-7.08.6-.03,1.18.07,1.72.28,1.79.72,2.39,2.61,2.41,2.69.02.08.02.16-.02.23-.04.07-.1.13-.18.15-.02,0-.05.01-.07.01-.14,0-.27-.08-.31-.22-.02-.07-.58-1.7-2.05-2.3-.45-.18-.94-.26-1.46-.24-2.97.15-6.07,3.6-7.69,6.75-1.83,3.54-2.72,8.48.79,10.73.65.42,1.36.61,2.11.57,2.13-.11,3.86-2.03,3.88-2.05.05-.06.13-.1.21-.1.08,0,.16.02.22.08.06.05.1.13.1.21,0,.08-.02.16-.08.22-.87.98-2.53,2.17-4.31,2.26Z"/>
                <path class="cls-18" d="M263.69,127.57s-.07,0-.1-.01c-.16-.05-.26-.22-.21-.38.24-.84.42-1.64.52-2.38.02-.14.14-.26.29-.26.02,0,.04,0,.06,0,.08.01.15.05.2.12.05.07.07.15.06.23-.11.76-.29,1.58-.54,2.45-.04.13-.15.22-.28.22Z"/>
              </g>
            </g>
            <path class="cls-18" d="M242.88,120.92c-3.87.19-7.66-.05-11.28-.73-9.38-1.76-16.38-6.13-19.71-12.31-1.6-2.98-1.27-5.88.89-7.96,1.7-1.63,4.45-2.62,7.75-2.79,1.93-.1,4.03.08,6.23.54.01,0,.03,0,.04,0,.05,0,.1-.03.13-.07.04-.05.05-.12.02-.18-.92-1.87-1.45-3.82-1.57-5.78-.4-6.84,2.97-13.45,7.85-15.38.77-.3,1.55-.48,2.33-.52,2.41-.12,4.79,1.07,6.69,3.35,5.52,6.62,7.9,15.04,10.01,22.47,1.88,6.63,3.49,12.35,6.86,15.18l.1.08c.06.05.09.1.1.16,0,.02,0,.04.01.06,0,.05,0,.09-.02.14,0,.01-.02.03-.02.03-.03.06-.09.11-.15.13-4.99,2.05-10.62,3.28-16.28,3.56ZM220.57,97.73c-3.13.16-5.74,1.1-7.35,2.64-1.95,1.88-2.24,4.51-.78,7.22,3.24,6.02,10.08,10.28,19.28,12,3.57.67,7.32.91,11.13.72,5.06-.25,10.16-1.29,14.73-2.99.07-.03.12-.09.11-.17,0-.08-.05-.14-.13-.16-5.44-1.59-23.69-7.6-30.02-18.47-.02-.04-.06-.07-.11-.08-2.45-.58-4.76-.81-6.87-.71ZM228.78,98.79c-.05,0-.1.03-.13.07-.04.06-.04.14,0,.2,6.27,9.41,21.79,15.05,28.17,17.04.02,0,.04,0,.06,0,.06,0,.12-.04.15-.09.04-.07.02-.17-.05-.22-3.56-2.84-10.55-8.2-17.43-12.27-3.66-2.17-7.26-3.76-10.71-4.73-.02,0-.04,0-.06,0ZM235.63,76.36c-.72.04-1.44.2-2.16.48-4.64,1.84-7.84,8.18-7.46,14.77.13,2.13.77,4.24,1.91,6.27.02.04.06.07.11.08,3.8.94,7.78,2.64,11.83,5.03,5.9,3.49,11.9,7.94,15.89,11.06.03.03.08.04.12.04.04,0,.08-.02.11-.04.06-.05.08-.15.04-.22-1.8-3.14-3.03-7.48-4.33-12.08-2.09-7.37-4.45-15.73-9.89-22.24-1.81-2.17-3.94-3.25-6.17-3.14Z"/>
          </g>
        </g>
        <g>
          <g>
            <g class="cls-3">
              <rect class="cls-9" x="237.78" y="390.47" width="40.99" height="9.53"/>
              <rect class="cls-11" x="237.78" y="390.47" width="40.99" height="9.53"/>
              <path class="cls-17" d="M241.73,400.18c-.19,0-.35-.16-.35-.35v-9.36c0-.19.16-.35.35-.35s.35.16.35.35v9.36c0,.19-.16.35-.35.35Z"/>
              <path class="cls-17" d="M245.47,400.18c-.19,0-.35-.16-.35-.35v-9.36c0-.19.16-.35.35-.35s.35.16.35.35v9.36c0,.19-.16.35-.35.35Z"/>
              <path class="cls-8" d="M271.16,400.18c-.19,0-.35-.16-.35-.35v-9.36c0-.19.16-.35.35-.35s.35.16.35.35v9.36c0,.19-.16.35-.35.35Z"/>
              <path class="cls-8" d="M274.89,400.18c-.19,0-.35-.16-.35-.35v-9.36c0-.19.16-.35.35-.35s.35.16.35.35v9.36c0,.19-.16.35-.35.35Z"/>
            </g>
            <g class="cls-31">
              <rect class="cls-42" x="235.69" y="380.94" width="40.99" height="9.53"/>
              <path class="cls-17" d="M239.64,390.65c-.19,0-.35-.16-.35-.35v-9.36c0-.19.16-.35.35-.35s.35.16.35.35v9.36c0,.19-.16.35-.35.35Z"/>
              <path class="cls-17" d="M243.37,390.65c-.19,0-.35-.16-.35-.35v-9.36c0-.19.16-.35.35-.35s.35.16.35.35v9.36c0,.19-.16.35-.35.35Z"/>
              <path class="cls-8" d="M269.06,390.65c-.19,0-.35-.16-.35-.35v-9.36c0-.19.16-.35.35-.35s.35.16.35.35v9.36c0,.19-.16.35-.35.35Z"/>
              <path class="cls-8" d="M272.79,390.65c-.19,0-.35-.16-.35-.35v-9.36c0-.19.16-.35.35-.35s.35.16.35.35v9.36c0,.19-.16.35-.35.35Z"/>
            </g>
            <g class="cls-21">
              <rect class="cls-9" x="247.86" y="371.41" width="40.99" height="9.53"/>
              <rect class="cls-11" x="247.86" y="371.41" width="40.99" height="9.53"/>
              <path class="cls-17" d="M251.81,381.12c-.19,0-.35-.16-.35-.35v-9.36c0-.19.16-.35.35-.35s.35.16.35.35v9.36c0,.19-.16.35-.35.35Z"/>
              <path class="cls-17" d="M255.54,381.12c-.19,0-.35-.16-.35-.35v-9.36c0-.19.16-.35.35-.35s.35.16.35.35v9.36c0,.19-.16.35-.35.35Z"/>
              <path class="cls-8" d="M281.23,381.12c-.19,0-.35-.16-.35-.35v-9.36c0-.19.16-.35.35-.35s.35.16.35.35v9.36c0,.19-.16.35-.35.35Z"/>
              <path class="cls-8" d="M284.96,381.12c-.19,0-.35-.16-.35-.35v-9.36c0-.19.16-.35.35-.35s.35.16.35.35v9.36c0,.19-.16.35-.35.35Z"/>
            </g>
            <g class="cls-22">
              <circle class="cls-14" cx="286.41" cy="378.35" r="21.65" transform="translate(-183.65 313.34) rotate(-45)"/>
            </g>
          </g>
          <g>
            <circle class="cls-9" cx="290.93" cy="378.35" r="21.65" transform="translate(-129.13 604.92) rotate(-80.78)"/>
            <circle class="cls-8" cx="290.93" cy="378.35" r="21.65" transform="translate(-129.13 604.92) rotate(-80.78)"/>
            <circle class="cls-9" cx="293.3" cy="378.35" r="21.65" transform="translate(-181.63 318.21) rotate(-45)"/>
            <path class="cls-23" d="M293.3,397.06c-10.32,0-18.71-8.39-18.71-18.71s8.39-18.71,18.71-18.71,18.71,8.39,18.71,18.71-8.39,18.71-18.71,18.71ZM293.3,360.34c-9.93,0-18.01,8.08-18.01,18.01s8.08,18.01,18.01,18.01,18.01-8.08,18.01-18.01-8.08-18.01-18.01-18.01Z"/>
            <g>
              <path class="cls-23" d="M293.84,368.55c-3,0-4.95,1.47-4.95,3.8,0,6.8,11.12,3.29,11.07,11.53,0,3.45-2.63,5.68-6.58,5.68-2.52,0-5.09-1.31-6.74-3.23l.6-1.18c1.54,1.88,3.95,3.03,6.17,3.03,3.25,0,5.33-1.66,5.33-4.28.05-6.99-11.07-3.42-11.07-11.46,0-3.23,2.49-5.3,6.22-5.3,1.92,0,4.01.73,5.41,1.82l-.51,1.21c-1.41-1.09-3.33-1.63-4.95-1.63Z"/>
              <path class="cls-23" d="M293.3,392.68c-.19,0-.35-.16-.35-.35v-28.19c0-.19.16-.35.35-.35s.35.16.35.35v28.19c0,.19-.16.35-.35.35Z"/>
            </g>
          </g>
        </g>
        <g>
          <g>
            <g>
              <g>
                <g>
                  <path class="cls-19" d="M448.85,375.08l2.26-3.5c2.55,3.38,4.74,7.13,5.72,8.45l-1.78,1.88c-1.03-1.06-3.42-3.97-6.2-6.83Z"/>
                  <g class="cls-26">
                    <polygon class="cls-13" points="453.19 373.24 449.22 376.28 447.76 374.5 452.66 371.41 453.19 373.24"/>
                  </g>
                </g>
                <g>
                  <path class="cls-9" d="M454.5,381.51l2.24-1.92c.15-.13.38-.1.49.06.15.21.24.34.26.37,0,0,0,.01.01.02l4.11,5c.12.14.1.35-.05.47l-7.84,6.45c-.26.21-.63-.04-.53-.36.59-1.82,2.57-5.51,1.63-9.19-.02-.06-.05-.11-.09-.16-.05-.05-.14-.14-.25-.25-.14-.14-.13-.36.02-.49Z"/>
                  <g class="cls-33">
                    <path class="cls-23" d="M459.67,388.65c-.06,0-.13-.03-.18-.08-1.03-1.16-1.16-2.42-1.1-3.28.09-1.19.65-2.37,1.43-3.01.1-.08.25-.07.33.03.08.1.07.25-.03.33-.68.56-1.17,1.62-1.26,2.68-.06.77.06,1.9.98,2.94.09.1.08.24-.02.33-.04.04-.1.06-.16.06Z"/>
                  </g>
                </g>
              </g>
              <g>
                <g>
                  <path class="cls-19" d="M415.04,383.71h3.51c-.26,4.14-.51,7.84-.65,9.95h-2.72c0-3.46-.05-6.77-.13-9.95Z"/>
                  <g class="cls-41">
                    <polygon class="cls-13" points="419.16 387.38 414.43 387.38 414.56 383.23 419.67 383.23 419.16 387.38"/>
                  </g>
                </g>
                <g>
                  <path class="cls-9" d="M407.09,399.83c-.32,0-.46-.41-.2-.6,1.76-1.3,7.67-3.4,7.67-5.22,0-.22,0-.43,0-.65,0-.18.15-.33.33-.33h2.97c.2,0,.35.17.33.37-.08.8-.12,1.29-.13,1.38,0,.01,0,.02,0,.03v4.7c0,.18-.15.33-.33.33h-10.64Z"/>
                  <g class="cls-34">
                    <path class="cls-23" d="M414.4,400.79c-.13,0-.23-.1-.23-.23,0-2.32,1.82-3.82,4.65-3.82.13,0,.23.1.23.23s-.1.23-.23.23c-2.54,0-4.18,1.31-4.18,3.35,0,.13-.1.23-.23.23Z"/>
                  </g>
                </g>
              </g>
              <g>
                <path id="SVGID-9" data-name="SVGID" class="cls-25" d="M401.71,305.83c0-1.46.11-2.81.29-4.08,1.19-1.6,3.27-3.41,6.65-3.77,7.06-.77,13.76,1.12,19.85,5.82,2.99,7.4,6.68,39.66,6.68,42.27s4.17,3.38,7.19,8.18c1.39,2.21,5.72,11.99,10.12,18.08l-3.63,3.39c-5.67-7.61-16.33-22.43-17.6-23.7-1.88-1.88-11.5-24.56-11.5-24.56,0,0-1.88,16.71-1.88,26.11,0,3.01,1.86,2.31,2.65,11.48.23,2.61-.77,13.6-1.44,21.05h-4.58c-1.55-43.47-12.79-61.88-12.79-80.27Z"/>
                <g class="cls-6">
                  <path class="cls-24" d="M419.93,328.06s.89-9.93,2.41-12.74l1.49,22.36-3.9-9.62Z"/>
                  <path class="cls-23" d="M419.91,329.33s-.01,0-.02,0c-.13-.01-.22-.12-.21-.25.04-.45.93-11.05,2.46-13.87.06-.11.2-.16.32-.09.11.06.16.2.09.32-1.48,2.74-2.39,13.58-2.4,13.69-.01.12-.11.21-.23.21Z"/>
                </g>
              </g>
            </g>
            <path class="cls-24" d="M408.65,297.98c-3.39.37-5.46,2.17-6.65,3.77,1.15-8.02,5.35-12.24,5.35-14.35l13.54,5.08s4.51,4.14,7.52,11.09c.03.07.06.15.09.22-6.08-4.7-12.78-6.58-19.85-5.82Z"/>
          </g>
          <g>
            <g>
              <path id="SVGID-11" data-name="SVGID" class="cls-19" d="M423.36,264.03c-3.45,5.27-3.41,8.71-3.41,8.71,0,0-2.58.83-4.38-.44-1.8-1.27-1.94-2.57-.87-3.01,2.1-.87,2.84-2.21,2.87-5.83.02-2.5,5.78.57,5.78.57Z"/>
              <g class="cls-38">
                <path class="cls-24" d="M416.03,264.95c.61-.92,1.26-.93,1.56-1.87.52-1.61.59-1.54,1.79-.27l.61.62s-1.37,1.4-3.96,1.52Z"/>
              </g>
            </g>
            <g>
              <g>
                <path id="SVGID-13" data-name="SVGID" class="cls-19" d="M421.94,292.4c0-5.94,2.97-9.08,2.97-9.08,0,0,17.47,25.28,24.4,32.78,2.73,2.95,5.33,5.02,5.64,4.44.19-.35-.23-.96-.23-.96,0,0,2.29,1.61,3.81,2.27,1.82.78-1.79-4.02-3.19-4.87-1.41-.87-3.96-2.26-3.96-2.26,0,0-22.62-38.05-25.05-40.47-2.85-2.85-5.21-1.98-8.18-3.14-7.46-2.9-17.9-16.45-17.9-16.45l1.68-20.56c2.33-.45,3.72-5.37,1.02-5.67,0,0-.25-5.4-1.01-5.2-1.28.34,0,4.22-.75,4.87-.98.83-2.32,1.01-3.12,1.23s-.86,2.91-.73,3.39c.13.48,1.2,2.13,1.2,2.13l-2.81,22.12,12.2,16.46s-.99,2.81-.99,4.62,3.14,7.76,3.14,9.9l11.88,4.46Z"/>
                <g class="cls-4">
                  <path class="cls-37" d="M454.9,319.54s-.09-.01-.13-.04l-1.94-1.26c-.11-.07-.14-.22-.07-.32.07-.11.21-.14.32-.07l1.94,1.26c.11.07.14.22.07.32-.04.07-.12.11-.2.11Z"/>
                  <path class="cls-37" d="M403.13,230.5s0,0-.01,0c-.13,0-.23-.12-.22-.25l.11-1.93c0-.13.12-.23.25-.22.13,0,.23.12.22.25l-.11,1.93c0,.12-.11.22-.23.22Z"/>
                  <path class="cls-13" d="M394.31,257.66l2.85-15.21,4.13-.69-1.05,12.9s10.45,13.55,17.9,16.45c2.97,1.16,5.33.28,8.18,3.14,1.89,1.89,16,25.34,22.18,35.66l-3.22,1.41c-8.05-10.16-20.37-27.99-20.37-27.99,0,0-2.97,3.14-2.97,9.08l-11.88-4.46c0-2.15-3.14-8.09-3.14-9.9s.99-4.62.99-4.62l-13.6-15.76Z"/>
                </g>
              </g>
              <g>
                <path class="cls-9" d="M420.11,269.91c-3.3-.97-6.11-1.88-7.84-3.68-2.46-2.55-7.16-5.98-9.55-8.73-1.13-1.31-1.73-2.99-1.68-4.71l.72-9.89-5.09,1.07-1.52,12.36c-.08,1.32.17,2.06.96,3.03,2.75,3.39,10.22,14.14,10.22,14.14l-4.34,19.26,20.07.93s.2-7.74,2.84-10.38l18.44,27.57,4.32-3.33s-15.13-26.74-17.05-30.24c-1.92-3.49-6.88-6.35-10.5-7.41Z"/>
                <g class="cls-7">
                  <polygon class="cls-10" points="399.02 263.38 408.49 271.65 403.28 285.8 399.02 263.38"/>
                  <path class="cls-10" d="M430.83,274.31s.76,6.62-.64,10.64c-1.81,5.21-6.38,6.6-6.38,6.6l-14.36-6.7,11.92-15.32,9.46,4.79Z"/>
                </g>
              </g>
            </g>
            <g>
              <g>
                <path id="SVGID-15" data-name="SVGID" class="cls-19" d="M418.57,254.12c-.58.86-3.07,1.48-3.43,1.79-.22.2.23,1,.02,1.44-.46.98-1.55,2.08-1.88,2.78-.73,1.54,1.19,3.56,4.77,3.4,5.08-.22,7.1-.72,10.43-3.79,2.82-2.6-.14-9.42-4.14-9.19-3.15.18-4.1,1.1-5.77,3.56Z"/>
                <g class="cls-35">
                  <path class="cls-24" d="M415.49,259.09s-.08-.01-.12-.03c-.02-.01-.54-.32-.85-.61-.1-.09-.1-.24-.01-.33.09-.09.24-.1.33-.01.28.26.77.55.78.55.11.07.15.21.08.32-.04.07-.12.11-.2.11Z"/>
                  <path class="cls-24" d="M418.07,255.92c-.11.23,0,.51.23.62.23.11.51,0,.62-.23.11-.23,0-.51-.23-.62-.23-.11-.51,0-.62.23Z"/>
                  <path class="cls-12" d="M416.05,256.98c-2.06,1.29-4.05,1.83-4.44,1.21-.39-.63.96-2.18,3.02-3.47s4.05-1.83,4.44-1.21c.39.63-.96,2.18-3.02,3.47Z"/>
                </g>
              </g>
              <path class="cls-24" d="M427,249.86c-3.16-1.12-5.06-1.75-7.25-.18-.42.3-1.33,1.34-1.82,1.92-.2.23-.19.58.02.8.69.73,2.52,2.54,3.81,3.42.75.51.45,1.76-.63,3.72-.28.51-.16,2.08-.25,2.79-.18,1.37-1.13,5.65-2.43,8.04-3.3,6.06-9.2,12.42-9.2,12.42l13.79,6.17c8.35-4.97,4.31-12.26,6.75-16.92,1.13-2.15,3.23-6.53,4.36-9.71,2.02-5.71-.58-10.15-7.13-12.47Z"/>
              <g>
                <path class="cls-19" d="M420.18,260.33c-.31.89.15,1.86,1.04,2.18.89.31,1.86-.15,2.18-1.04.31-.89-.15-1.86-1.04-2.18-.89-.31-1.86.15-2.18,1.04Z"/>
                <path class="cls-24" d="M422.41,261.25c-.08,0-.17-.05-.21-.13-.17-.33-.57-.45-.89-.29-.11.06-.26.01-.32-.1-.06-.11-.01-.26.1-.32.56-.29,1.24-.07,1.52.49.06.11.01.26-.1.32-.03.02-.07.03-.11.03Z"/>
              </g>
              <path class="cls-24" d="M425.35,289.98c-.07,0-.15-.03-.19-.1-.08-.11-.05-.25.05-.33,4.25-3.02,4.32-8.09,4.38-12.17.02-1.64.04-3.06.35-4.08.36-1.21,1.11-2.82,1.9-4.54.76-1.64,1.55-3.34,2.09-4.88,1.09-3.07.93-6.28-.44-8.8-1.25-2.3-3.4-3.87-6.22-4.55-.43-.1-.92-.43-1.49-.81-.9-.59-2.01-1.33-3.19-1.37-3.16-.11-4.67,2.11-4.68,2.13-.07.11-.22.14-.32.07-.11-.07-.14-.22-.07-.32.07-.1,1.6-2.35,4.87-2.35.07,0,.15,0,.22,0,1.31.04,2.49.82,3.44,1.45.53.35.99.66,1.34.74,2.95.71,5.21,2.36,6.53,4.78,1.43,2.64,1.61,5.98.47,9.18-.55,1.56-1.34,3.27-2.11,4.92-.79,1.7-1.53,3.3-1.88,4.48-.29.96-.31,2.35-.33,3.96-.06,3.96-.13,9.39-4.57,12.54-.04.03-.09.04-.14.04Z"/>
            </g>
          </g>
        </g>
        <path class="cls-24" d="M231.24,400h-13.43c-.16,0-.3-.13-.3-.3s.13-.3.3-.3h13.43c.16,0,.3.13.3.3s-.13.3-.3.3Z"/>
        <path class="cls-24" d="M479.79,400h-27.15c-.16,0-.3-.13-.3-.3s.13-.3.3-.3h27.15c.16,0,.3.13.3.3s-.13.3-.3.3Z"/>
      </g>
    </g>
  </g>
</svg>