<?xml version="1.0" encoding="UTF-8"?>
<svg xmlns="http://www.w3.org/2000/svg" xmlns:xlink="http://www.w3.org/1999/xlink" viewBox="0 0 700 400">
  <defs>
    <style>
      .cls-1 {
        fill: #e3ecf3;
      }

      .cls-2 {
        clip-path: url(#clippath-34);
      }

      .cls-3 {
        fill: #cbb198;
      }

      .cls-4 {
        clip-path: url(#clippath-21);
      }

      .cls-5 {
        clip-path: url(#clippath-6);
      }

      .cls-6 {
        clip-path: url(#clippath-7);
      }

      .cls-7 {
        clip-path: url(#clippath-17);
      }

      .cls-8 {
        clip-path: url(#clippath-31);
      }

      .cls-9 {
        clip-path: url(#clippath-15);
      }

      .cls-10 {
        clip-path: url(#clippath-33);
      }

      .cls-11 {
        clip-path: url(#clippath-18);
      }

      .cls-12 {
        clip-path: url(#clippath-4);
      }

      .cls-13 {
        fill: #fedba9;
      }

      .cls-14 {
        clip-path: url(#clippath-22);
      }

      .cls-15 {
        clip-path: url(#clippath-23);
      }

      .cls-16 {
        fill: #ef5d70;
      }

      .cls-17 {
        fill: url(#_Áåçûìÿííûé_ãðàäèåíò_2);
      }

      .cls-17, .cls-18, .cls-19, .cls-20, .cls-21, .cls-22, .cls-23, .cls-24, .cls-25, .cls-26, .cls-27 {
        mix-blend-mode: multiply;
      }

      .cls-17, .cls-18, .cls-19, .cls-21, .cls-22, .cls-23 {
        opacity: .5;
      }

      .cls-28, .cls-26 {
        fill: #5990c0;
      }

      .cls-18 {
        fill: url(#_Áåçûìÿííûé_ãðàäèåíò_2-2);
      }

      .cls-29 {
        clip-path: url(#clippath-9);
      }

      .cls-30 {
        clip-path: url(#clippath-10);
      }

      .cls-31 {
        fill: #d7e4ed;
      }

      .cls-32 {
        fill: #fff;
      }

      .cls-33 {
        clip-path: url(#clippath-25);
      }

      .cls-34 {
        fill: #001e38;
      }

      .cls-35 {
        clip-path: url(#clippath-27);
      }

      .cls-19 {
        fill: #0557a0;
      }

      .cls-36 {
        fill: #f9fbfc;
      }

      .cls-37 {
        fill: #00549e;
      }

      .cls-38 {
        clip-path: url(#clippath-11);
      }

      .cls-39 {
        fill: none;
      }

      .cls-20 {
        fill: #eb344c;
      }

      .cls-40, .cls-27 {
        fill: #aa7e55;
      }

      .cls-41 {
        clip-path: url(#clippath-35);
      }

      .cls-42 {
        clip-path: url(#clippath-28);
      }

      .cls-43 {
        fill: #eef4f8;
      }

      .cls-44 {
        clip-path: url(#clippath-1);
      }

      .cls-45 {
        isolation: isolate;
      }

      .cls-46 {
        clip-path: url(#clippath-5);
      }

      .cls-47 {
        clip-path: url(#clippath-20);
      }

      .cls-48 {
        clip-path: url(#clippath-8);
      }

      .cls-49 {
        fill: #fee4bf;
      }

      .cls-50 {
        fill: #874910;
      }

      .cls-51 {
        clip-path: url(#clippath-3);
      }

      .cls-52 {
        fill: #ee5267;
      }

      .cls-53 {
        clip-path: url(#clippath-26);
      }

      .cls-54, .cls-22 {
        fill: #ec3c53;
      }

      .cls-55 {
        clip-path: url(#clippath-12);
      }

      .cls-56 {
        clip-path: url(#clippath-14);
      }

      .cls-57 {
        clip-path: url(#clippath-30);
      }

      .cls-58, .cls-23, .cls-24, .cls-25 {
        fill: #fdd292;
      }

      .cls-59 {
        clip-path: url(#clippath-19);
      }

      .cls-21 {
        fill: #fdc779;
      }

      .cls-60 {
        clip-path: url(#clippath-32);
      }

      .cls-61 {
        fill: #fed8a3;
      }

      .cls-62 {
        clip-path: url(#clippath-16);
      }

      .cls-63 {
        clip-path: url(#clippath-2);
      }

      .cls-64 {
        clip-path: url(#clippath-29);
      }

      .cls-24 {
        opacity: .7;
      }

      .cls-65 {
        fill: #b9cfe0;
      }

      .cls-66 {
        clip-path: url(#clippath-13);
      }

      .cls-67 {
        clip-path: url(#clippath-24);
      }

      .cls-68 {
        clip-path: url(#clippath);
      }
    </style>
    <clipPath id="clippath">
      <path id="SVGID" class="cls-39" d="M167.88,395.66l.02-.94c-7.35-11.95-3.42-16.86-4.81-23.58-2.37-11.49-15.83-6.77-14.66,3.49,1.86,16.35,19.45,21.03,19.45,21.03Z"/>
    </clipPath>
    <clipPath id="clippath-1">
      <path id="SVGID-2" data-name="SVGID" class="cls-39" d="M525.14,381.87l.06-1.04c9.17-12.55,2.23-18.62,6.54-26.64,7.29-13.54,20.66-1.45,18.15,6.12-5.75,17.31-24.75,21.56-24.75,21.56Z"/>
    </clipPath>
    <clipPath id="clippath-2">
      <path id="SVGID-3" data-name="SVGID" class="cls-39" d="M214.57,392.43c-.82-18.14-9.87-28.69-18.37-37.2-.2-.2-.62-.63-1.3-1.34-2.87-2.97-2.87-7.62,0-10.58.54-.55.97-.99,1.28-1.31l.06-.06c8.21-8.21,16.69-16.69,17.51-33.73h-44.91c.33,7.34,2.05,13.64,5.21,19.2,3.1,5.44,7.2,9.49,10.82,13.06.53.52,1.05,1.03,1.55,1.54.32.32.75.76,1.3,1.32,2.88,2.97,2.89,7.62,0,10.59-.54.55-.97,1-1.29,1.31-4.77,4.77-9.66,10.08-13.08,16.51-3.23,6.09-4.98,12.88-5.3,20.69h46.51Z"/>
    </clipPath>
    <clipPath id="clippath-3">
      <rect id="SVGID-4" data-name="SVGID" class="cls-39" x="220.35" y="86.38" width="161.1" height="303.57" rx="11.99" ry="11.99"/>
    </clipPath>
    <clipPath id="clippath-4">
      <path id="SVGID-5" data-name="SVGID" class="cls-39" d="M339.17,77.34l.83-1.07c18.97-6.77,15.9-18.1,28.92-24.04,17.7-8.06,21.39,10.12,12.95,18.43-16.84,16.57-42.69,6.68-42.69,6.68Z"/>
    </clipPath>
    <clipPath id="clippath-5">
      <path class="cls-65" d="M337.12,77.61s37.8-13.55,26.71-23.79c-7.99-7.38-15.04,18.18-26.71,23.79Z"/>
    </clipPath>
    <clipPath id="clippath-6">
      <rect id="SVGID-6" data-name="SVGID" class="cls-39" x="308.14" y="68.32" width="39.77" height="9.25"/>
    </clipPath>
    <clipPath id="clippath-7">
      <rect id="SVGID-7" data-name="SVGID" class="cls-39" x="306.1" y="59.07" width="39.77" height="9.25"/>
    </clipPath>
    <clipPath id="clippath-8">
      <path id="SVGID-8" data-name="SVGID" class="cls-39" d="M290.79,317.81c23.37,6.49,11.06,57.47,11.06,57.47l-1.25-.22c.31-5.19,1.04-24.31-15.24-35.47-15.31-10.5-4.64-24.57,5.43-21.77Z"/>
    </clipPath>
    <clipPath id="clippath-9">
      <path class="cls-65" d="M304.77,376.35s-16.68-43.31-26.27-31.09c-10.11,12.88,20.24,17.64,26.27,31.09Z"/>
    </clipPath>
    <clipPath id="clippath-10">
      <path id="SVGID-10" data-name="SVGID" class="cls-32" d="M305.37,280.19h144.55l-.4,62.55c0,23.76-7.36,47.05-23.2,47.05h-141.66v-.48c11.27-3.77,20.31-28.79,20.31-46.02l.4-63.09Z"/>
    </clipPath>
    <clipPath id="clippath-11">
      <rect id="SVGID-11" data-name="SVGID" class="cls-39" x="515.14" y="391.15" width="34.84" height="8.62" transform="translate(1065.11 790.93) rotate(180)"/>
    </clipPath>
    <clipPath id="clippath-12">
      <rect id="SVGID-12" data-name="SVGID" class="cls-39" x="517.03" y="382.54" width="34.84" height="8.62" transform="translate(1068.9 773.69) rotate(180)"/>
    </clipPath>
    <clipPath id="clippath-13">
      <rect id="SVGID-13" data-name="SVGID" class="cls-39" x="506.02" y="373.92" width="37.07" height="8.62" transform="translate(1049.12 756.45) rotate(180)"/>
    </clipPath>
    <clipPath id="clippath-14">
      <polygon id="SVGID-14" data-name="SVGID" class="cls-39" points="506.02 382.54 506.02 373.92 543.1 373.92 543.1 382.54 551.87 382.54 551.87 391.15 549.97 391.15 549.97 399.77 515.14 399.77 515.14 391.15 517.03 391.15 517.03 382.54 506.02 382.54"/>
    </clipPath>
    <clipPath id="clippath-15">
      <path id="SVGID-16" data-name="SVGID" class="cls-54" d="M497.64,303.27c1.8-5.68,2.9-14.61.92-16.42-6.89-6.28-23.39-10.14-23.39-10.14-5.28,3.06-1,7.11-.6,8.71.41,1.6,18.9,3.79,19.89,3.88.74.07,1.56,9.2.89,13.88l2.29.08Z"/>
    </clipPath>
    <clipPath id="clippath-16">
      <path id="SVGID-18" data-name="SVGID" class="cls-40" d="M472.96,278.42c1.19-.21-5.68,5.32-5.32,4.17.7-2.28-2.55-4.19-3.44-3.62l.99-5.82c-.27,1.24,4.59,5.84,7.77,5.27Z"/>
    </clipPath>
    <clipPath id="clippath-17">
      <path class="cls-40" d="M501.24,383.99l3.86-1.24c-.16,4.12-.83,8.29-.9,9.89l-2.5.32c-.12-1.43-.13-5.1-.46-8.96Z"/>
    </clipPath>
    <clipPath id="clippath-18">
      <path class="cls-54" d="M501.53,392.32l2.87-.07c.19,0,.34.16.33.35-.02.25-.03.4-.03.44,0,0,0,.01,0,.02l.02,6.29c0,.18-.14.32-.32.32l-9.88.03c-.33,0-.45-.42-.18-.6,1.56-1,5.32-2.57,6.89-5.92.03-.05.04-.11.03-.17,0-.07-.02-.19-.03-.34-.02-.19.13-.35.31-.36Z"/>
    </clipPath>
    <clipPath id="clippath-19">
      <path class="cls-37" d="M500.79,384.19c-1.74-17.81-7.13-65.43-13.07-65.08,0,0,8.29-17.23,13.03-14.65,9.29,5.06,2.65,45.41,2.65,45.41,0,0,2.38,3.24,2.47,8.85.14,8.85-.3,19.87-.62,25.25l-4.47.22Z"/>
    </clipPath>
    <clipPath id="clippath-20">
      <path class="cls-40" d="M473.47,383.91l3.8.46c-.74,3.97-1.6,7.46-1.99,9.48l-2.63-.32c.4-3.34.52-6.54.81-9.63Z"/>
    </clipPath>
    <clipPath id="clippath-21">
      <path class="cls-54" d="M464.99,399.77c-.31,0-.44-.4-.19-.59,1.71-1.27,7.47-3.31,7.47-5.08,0-.21,0-.42,0-.63,0-.18.14-.32.32-.32h2.89c.19,0,.34.17.32.36-.07.78-.12,1.25-.13,1.34,0,.01,0,.02,0,.03v4.57c0,.18-.15.32-.32.32h-10.35Z"/>
    </clipPath>
    <clipPath id="clippath-22">
      <path class="cls-37" d="M473.3,385.62c2.22-29.16.87-34.27,1.26-35.97.94-4.13,7.33-31.24,9.75-39.75.88-3.12-2.24-4.09-4.12-5.63l9.98-10.3c3.01,3.5,14.71,9.01,14.71,17.03,0,11.7-22.72,35.25-22.53,38.65,0,0,1.3,4.83.81,9.32-.9,8.42-5.93,26.65-5.93,26.65h-3.93Z"/>
    </clipPath>
    <clipPath id="clippath-23">
      <path id="SVGID-20" data-name="SVGID" class="cls-54" d="M482.08,306.48s-8.73-4.9-14.69-12.82c-1.03-1.37-2.9-6.49-1.86-10.15.92-3.25,5.16-4.64,5.67-7.92,15.38,1.05,17.82,16.97,22.98,20.64l-12.1,10.25Z"/>
    </clipPath>
    <clipPath id="clippath-24">
      <path id="SVGID-22" data-name="SVGID" class="cls-40" d="M450.03,336.15s1.74.35,3,.19c1.68-.21,3.06-1.63,4.96-4.21l-3.19-1.34c-2.5,3.69-4.77,5.36-4.77,5.36Z"/>
    </clipPath>
    <clipPath id="clippath-25">
      <path id="SVGID-24" data-name="SVGID" class="cls-40" d="M456.6,277.27c.78.65,1.14,3.12,1.41,3.49.17.23.99-.13,1.39.11.91.54,1.87,1.7,2.51,2.09,1.42.86,3.35-.89,3.54-4.37.28-4.94-4.06-4.05-2.46-10.39.92-3.62-9.13-.77-9.29,3.13-.12,3.07.67,4.08,2.89,5.93Z"/>
    </clipPath>
    <radialGradient id="_Áåçûìÿííûé_ãðàäèåíò_2" data-name="Áåçûìÿííûé ãðàäèåíò 2" cx="10978.47" cy="458.83" fx="10978.47" fy="458.83" r="1.43" gradientTransform="translate(-9831.88 3973.46) rotate(-26.44) scale(.99 2.78)" gradientUnits="userSpaceOnUse">
      <stop offset="0" stop-color="#f48f9d"/>
      <stop offset=".24" stop-color="#f8b8c1"/>
      <stop offset=".5" stop-color="#fbdee2"/>
      <stop offset=".71" stop-color="#fef6f7"/>
      <stop offset=".85" stop-color="#fff"/>
    </radialGradient>
    <clipPath id="clippath-26">
      <path class="cls-40" d="M226.25,383.34h6.15c-.62,4.75-1.09,8.65-1.12,10.76h-4.52c-.17-3.44-.37-7.11-.51-10.76Z"/>
    </clipPath>
    <clipPath id="clippath-27">
      <path class="cls-58" d="M231.29,394.1c-.02,1.04.08,1.64.31,1.68,2.56.43,8.62,1.59,8.62,4h-13.2c-.07-1.78-.16-3.69-.26-5.68h4.52Z"/>
    </clipPath>
    <clipPath id="clippath-28">
      <path class="cls-58" d="M262.56,394.78c.92.92,9.77,2.25,9.77,5h-13.43s-.38-2.67-.92-6.56h4.48c.01.97.04,1.51.09,1.56Z"/>
    </clipPath>
    <clipPath id="clippath-29">
      <path class="cls-40" d="M262.55,383.34c0,3.9-.11,8.05-.08,9.87h-4.48c-.39-2.83-.87-6.3-1.35-9.87h5.91Z"/>
    </clipPath>
    <clipPath id="clippath-30">
      <path id="SVGID-26" data-name="SVGID" class="cls-37" d="M226.47,363.28c.18-2.72,2.86-6.45,2.86-6.45,0,0-3.29-26.35.74-41.25.75-2.79,2.53-6.5,3.81-8.32l19.05,1.82c.29,6.18,7.35,20.36,10.05,46.3,0,0-.37,16.23-.26,28.12l-6.36-.16c-.79-5.89-2.88-15.05-3.1-19.06-.14-2.54,1.61-7.75,1.61-7.75l-12.23-23.03s-3.17,18.72-5.36,25.69c-.8,2.57-3.25,14.48-4.51,24.15l-6.9.16c-.23-6.03.3-15.55.61-20.23Z"/>
    </clipPath>
    <clipPath id="clippath-31">
      <path id="SVGID-28" data-name="SVGID" class="cls-40" d="M259.71,236.84c-.61,1.14,5.06,12.44,5.64,23.01l-6.45-1c0-.08-.83-13.86-3.12-21.71-.17-.57-.57-1.03-1.09-1.33-2.03-1.15-2.74-5.34-.45-5.71,0,0-1.13-4.27-.27-4.75,1.26-.71.9,2.58,1.76,3.25,1.11.87,3.14,1.66,4.23,2.16.82.38,1.08,3.15.96,3.69-.12.53-1.21,2.4-1.21,2.4Z"/>
    </clipPath>
    <clipPath id="clippath-32">
      <path class="cls-40" d="M240.53,233.76c-.02-1.11-1.62-4.06-.44-7.79,0,0,1.95-2.85,2.59-3.63.17-.2.8.12.63.91-.25,1.21-1.32,3.13-1.36,4-.03.72.41,3.59.75,3.55.52-.06,1.29-3.28,1.88-2.69,1.11,1.11-.24,6.02-.45,6.58-1.49,3.97-11.49,14.26-12.67,16.57l-5.99-1.36c2.43-4.19,15.09-14.07,15.06-16.14Z"/>
    </clipPath>
    <clipPath id="clippath-33">
      <path class="cls-58" d="M225.47,249.89l5.99,1.36c-.8,4.56.73,5.04,3.36,22.6.1.67,7.91,1.45,8.94,1.48,2.09.06,5.61-.54,7.13-3.39,4.5-8.45,8.01-10.58,8.01-13.11l6.45,1c-.23,7.82-7.61,16.93-8.92,22.19-1.45,5.8-3.37,25.28-3.51,27.05l-19.05-1.82c1.3-7-4.96-17.25-7.06-28.12-2.54-13.16-2.88-26.53-1.34-29.25Z"/>
    </clipPath>
    <clipPath id="clippath-34">
      <path class="cls-40" d="M235.57,270.41c.4,1.78.39,2.95-.17,3.86-.52.83.69,1.66,2.56,1.91,4.77.64,6.58-.86,6.58-.86-.88-.18-2.29-.46-2.39-2.54-.03-.61-.22-2.65-.22-2.65l-2.77-3.38-3.59,3.67Z"/>
    </clipPath>
    <clipPath id="clippath-35">
      <path id="SVGID-30" data-name="SVGID" class="cls-40" d="M236.01,257.03c-5.72,5.37,3.47,10.96,3.47,10.96,0,0,.63,5.35,6.56,2.95,1.37-.55.21-4.75-.06-5.22.46-.23.97-1.16.93-1.37-.09-.51-1.98-2.25-2.16-2.64-.37-.83.1-3.58-1.95-4.38-2.05-.8-6.47-.61-6.8-.3Z"/>
    </clipPath>
    <radialGradient id="_Áåçûìÿííûé_ãðàäèåíò_2-2" data-name="Áåçûìÿííûé ãðàäèåíò 2" cx="2661.03" cy="1163.01" fx="2661.03" fy="1163.01" r="1.68" gradientTransform="translate(-3854.97 -64.96) rotate(-46.24) scale(.98 2.74)" xlink:href="#_Áåçûìÿííûé_ãðàäèåíò_2"/>
  </defs>
  <g class="cls-45">
    <g id="_Ñëîé_1" data-name="Ñëîé 1">
      <g>
        <path class="cls-1" d="M447.16,190.27c-34.6-45.36-47.45-110-129.06-110-96.13,0-140.18,55.73-140.18,142.01,0,102.1,96.08,172.24,195.92,172.24,85.28,0,144.72-19.69,144.72-98.61,0-53.36-49.15-76.49-71.39-105.63Z"/>
        <g>
          <g class="cls-68">
            <path class="cls-28" d="M183.92,403s-.03,0-.05,0c-9.53-2.06-17.61-7.24-23.37-14.98-5.49-7.37-8.55-16.53-8.86-26.48,0-.13.09-.23.22-.23.13,0,.23.09.23.22.64,20.87,13.15,36.97,31.87,41.03.12.03.2.15.17.27-.02.11-.12.18-.22.18Z"/>
            <path class="cls-28" d="M154.69,379.63c-2.63,0-5.45-2.42-8.18-4.77l-.28-.24c-.1-.08-.11-.22-.02-.32.08-.1.22-.11.32-.02l.28.24c3.11,2.67,6.33,5.44,9.09,4.45,2.76-.99,4.83-5.6,6.33-14.12.02-.12.14-.21.26-.18.12.02.21.14.18.26-1.53,8.69-3.69,13.42-6.62,14.47-.45.16-.9.23-1.36.23Z"/>
            <path class="cls-28" d="M158.48,387.45c-2.54,0-5.37-1.3-8.13-2.56l-.64-.29c-.11-.05-.16-.19-.11-.3.05-.11.19-.16.3-.11l.64.29c3.81,1.74,7.75,3.55,10.7,1.82,2.61-1.53,4.14-5.65,4.69-12.59,0-.13.12-.22.24-.21.12,0,.22.12.21.24-.56,7.1-2.17,11.34-4.92,12.95-.93.54-1.93.77-2.99.77Z"/>
            <path class="cls-28" d="M162.75,398.58c-.79,0-1.54-.09-2.22-.2-.12-.02-.21-.14-.18-.26.02-.12.14-.21.26-.18,2.06.36,4.93.4,6.85-1.47,1.82-1.77,2.41-4.89,1.75-9.27-.02-.12.07-.24.19-.26.12-.02.24.07.26.19.68,4.53.05,7.78-1.88,9.66-1.42,1.38-3.29,1.8-5.03,1.8Z"/>
          </g>
          <path class="cls-28" d="M167.88,395.89s-.04,0-.06,0c-.04-.01-4.49-1.22-9.1-4.42-4.26-2.96-9.55-8.28-10.52-16.81-.65-5.67,3.09-9.71,7.07-10.35,2.97-.47,6.85,1.02,8.04,6.79.45,2.16.35,4.12.25,6.19-.21,4.32-.45,9.22,4.53,17.32.02.04.03.08.03.12l-.02.94c0,.07-.03.13-.09.18-.04.03-.09.05-.14.05ZM156.36,364.67c-.34,0-.68.03-1.01.08-3.77.6-7.3,4.45-6.69,9.85.95,8.36,6.14,13.57,10.32,16.48,3.89,2.7,7.65,3.96,8.69,4.28v-.58c-5.01-8.18-4.77-13.14-4.55-17.52.1-2.04.19-3.97-.24-6.07-1-4.82-3.85-6.51-6.51-6.51Z"/>
        </g>
        <g>
          <g class="cls-44">
            <path class="cls-28" d="M506.83,388.01c-.11,0-.2-.07-.22-.18-.03-.12.05-.24.18-.27,29.75-6.26,35.05-21.87,38.89-41.63.02-.12.14-.2.27-.18.12.02.2.14.18.27-2.08,10.73-4.59,19.3-10.03,26.25-6.13,7.83-15.41,12.83-29.21,15.74-.02,0-.03,0-.05,0Z"/>
            <path class="cls-28" d="M542.2,367.41c-.83,0-1.63-.16-2.38-.53-3.43-1.71-5.36-7.61-5.91-18.04,0-.13.09-.23.21-.24.12,0,.23.09.24.21.54,10.25,2.39,16.03,5.66,17.65,2.38,1.18,5.59.26,10.39-2.99.1-.07.24-.04.32.06.07.1.04.24-.06.32-2.57,1.74-5.68,3.56-8.47,3.56Z"/>
            <path class="cls-28" d="M537.29,375.61c-1.73,0-2.99-.32-4-1.06-2.62-1.91-3.31-6.5-4.62-16.69-.02-.12.07-.24.2-.25.12-.02.24.07.25.2,1.29,10.06,1.97,14.58,4.43,16.38,1.91,1.4,4.99,1.14,10.76.09.12-.02.24.06.26.18.02.12-.06.24-.18.26-3.05.56-5.33.89-7.1.89Z"/>
            <path class="cls-28" d="M532.62,385.25s0,0,0,0c-3.75-.05-6.27-.91-7.71-2.64-1.91-2.29-1.77-5.89-.97-10.59.02-.12.14-.21.26-.19.12.02.21.14.19.26-.78,4.58-.93,8.07.87,10.22,1.35,1.62,3.76,2.43,7.37,2.47.13,0,.23.1.22.23,0,.12-.1.22-.23.22Z"/>
          </g>
          <path class="cls-28" d="M525.14,382.1c-.05,0-.11-.02-.15-.05-.05-.05-.08-.12-.08-.19l.06-1.04s.02-.09.04-.12c5.37-7.35,5.16-12.51,4.98-17.06-.13-3.2-.25-6.22,1.54-9.55,4.2-7.81,9.77-6.44,11.97-5.49,4.81,2.07,7.95,7.7,6.59,11.79-2.99,9.01-9.61,14.43-14.63,17.39-5.44,3.21-10.24,4.3-10.28,4.31-.02,0-.03,0-.05,0ZM525.43,380.9l-.04.67c1.12-.29,5.26-1.48,9.87-4.2,4.95-2.92,11.47-8.27,14.42-17.14,1.27-3.82-1.81-9.28-6.34-11.23-2.09-.9-7.37-2.19-11.39,5.29-1.74,3.22-1.62,6.18-1.49,9.32.19,4.61.4,9.84-5.03,17.29Z"/>
        </g>
        <g>
          <g class="cls-63">
            <path class="cls-58" d="M185.32,378.19c-1.33-2.18-1.49-4.79-.46-6.81-1.36-1.05-2.11-2.11-2.31-3.23-.44-2.47,1.99-4.78,4.57-7.23,3.33-3.17,6.78-6.44,5.33-10.68-.04-.11.02-.24.14-.28.11-.04.24.02.28.14,1.54,4.5-2.17,8.03-5.45,11.13-2.49,2.36-4.84,4.6-4.44,6.84.17.98.87,1.95,2.1,2.91,0-.01.01-.02.02-.03,1.23-1.96,3.44-2.89,6.25-2.62,4.89.47,8.03,1.73,8.61,3.46.24.72,0,1.45-.66,2.07-1.56,1.44-5.37,2.04-9.35.32-1.99-.86-3.56-1.7-4.73-2.54-.93,1.87-.76,4.29.47,6.32,1.74,2.84,5.12,4.39,9.28,4.04.12-.01.22.08.23.2.01.12-.08.22-.2.24-.43.04-.85.05-1.27.05-3.75,0-6.78-1.6-8.42-4.3ZM185.47,371.19s-.03.04-.04.06c1.15.84,2.71,1.68,4.69,2.53,3.82,1.64,7.43,1.1,8.89-.24.38-.35.78-.91.54-1.61-.19-.57-1.36-2.5-8.24-3.16-.3-.03-.6-.04-.88-.04-2.21,0-3.95.86-4.96,2.46Z"/>
          </g>
          <path class="cls-58" d="M168.06,392.43c.11-2.75.41-5.36.87-7.87l43.64-4.3c1.08,3.65,1.79,7.68,1.99,12.17h-46.51ZM192.77,351.27c.3-.99-.06-2.11-.03-2.81.04-1.85.75-3.7,2.15-5.14.54-.55.97-.99,1.28-1.31l.06-.06c3.59-3.59,7.23-7.23,10.26-11.62l-33.54-4.97c.34.7.7,1.38,1.09,2.06,3.1,5.44,7.2,9.49,10.82,13.06.53.52,1.05,1.03,1.55,1.54.32.32.75.76,1.3,1.32,1.4,1.44,2.12,3.28,2.16,5.13.06.49.39,1.42,1.43,1.65.9.2,1.46,1.17,1.46,1.17Z"/>
          <g>
            <path class="cls-34" d="M214.89,312.93c.27-1.96.44-3.98.49-6.07,0-.12-.09-.22-.21-.22,0,0,0,0,0,0-.12,0-.21.09-.22.21-.05,2.07-.21,4.06-.48,5.98.14.04.28.07.42.1Z"/>
            <path class="cls-34" d="M214.13,316.98c.15-.65.29-1.3.41-1.96-.14-.03-.28-.06-.42-.09-.12.63-.25,1.26-.4,1.88.14.05.27.11.41.17Z"/>
            <path class="cls-34" d="M198.83,355.99c.09-.08.1-.22.01-.31-.34-.35-.69-.7-1.03-1.05-.08-.08-.2-.08-.28-.02,0,0,0,0,0,0-.1.08-.11.23-.02.32.34.34.69.69,1.03,1.05.08.08.21.09.3.01,0,0,0,0,0,0Z"/>
            <path class="cls-34" d="M168.53,380.05c.11.05.24,0,.29-.13.17-.46.33-.93.49-1.39.04-.1-.01-.21-.11-.26,0,0,0,0,0,0-.12-.06-.26,0-.3.12-.16.46-.32.92-.49,1.38-.04.11.01.23.12.27,0,0,0,0,0,0Z"/>
            <path class="cls-34" d="M200.45,357.66s0,0,0,0c-.09.08-.1.22-.01.31,7.72,8.3,14.96,18.89,15.33,35.83,0,.12.1.21.22.21h0c.12,0,.22-.1.21-.22-.37-17.09-7.67-27.75-15.45-36.11-.08-.09-.21-.09-.3-.02Z"/>
            <path class="cls-34" d="M212.03,323.71c.74-1.67,1.05-2.88,1.56-4.66-.13-.06-.27-.12-.4-.18-.51,1.78-.82,2.99-1.56,4.66-.03.07-.02.15.02.21,0,0,0,0,0,0,.1.14.31.11.37-.04Z"/>
            <path class="cls-34" d="M209.96,327.38c-.1-.09-.26-.06-.32.06-.13.23-.26.46-.39.69-3.4,5.83-7.87,10.3-12.19,14.61l-.07.07c-.31.31-.74.75-1.27,1.3-2.35,2.42-2.44,6.16-.29,8.68.07.08.19.1.28.04,0,0,0,0,0,0,.11-.07.13-.22.04-.32-2.01-2.36-1.92-5.84.27-8.1.53-.55.96-.98,1.27-1.29l.06-.06c4.34-4.34,8.82-8.82,12.26-14.7.13-.23.26-.46.39-.69.05-.09.03-.2-.05-.27,0,0,0,0,0,0Z"/>
          </g>
          <g>
            <path class="cls-34" d="M167.7,311.19c.12,0,.21-.11.2-.23-.13-1.32-.21-2.69-.24-4.12,0-.12-.11-.21-.22-.21-.12,0-.22.1-.21.22.03,1.44.11,2.82.24,4.15.01.12.11.2.23.19,0,0,0,0,0,0Z"/>
            <path class="cls-34" d="M168.34,314.35c-.04-.23-.08-.45-.11-.68-.02-.11-.11-.19-.23-.18,0,0,0,0,0,0-.13,0-.22.13-.2.25.04.23.07.46.11.69.02.12.14.2.26.17,0,0,0,0,0,0,.11-.03.18-.13.16-.25Z"/>
            <path class="cls-34" d="M186.91,344.12c-.54-.56-.97-1-1.29-1.31-.5-.5-1.02-1.01-1.54-1.53-5.68-5.61-12.47-12.31-15.2-24.23-.03-.12-.14-.19-.26-.16,0,0,0,0,0,0-.11.03-.18.15-.16.26,2.75,12.03,9.59,18.79,15.32,24.44.52.52,1.04,1.03,1.54,1.53.31.31.74.75,1.28,1.31,2.29,2.35,2.29,6.04,0,8.4-.53.55-.96.99-1.27,1.3-4.7,4.7-9.51,9.91-13,16.23-.06.11-.02.24.09.3,0,0,0,0,0,0,.1.05.23.01.28-.09,3.46-6.27,8.25-11.46,12.93-16.14.31-.31.74-.75,1.28-1.3,2.45-2.53,2.45-6.48,0-9.01Z"/>
            <path class="cls-34" d="M170.92,373.75c-.1-.06-.23-.01-.28.09l-1.15,2.71c-.05.13.04.27.17.29,0,0,0,0,0,0,.1.01.2-.04.23-.14.34-.92.7-1.82,1.1-2.71.04-.09,0-.2-.08-.25,0,0,0,0,0,0Z"/>
          </g>
          <rect class="cls-54" x="162.98" y="300.87" width="56.69" height="4.82" transform="translate(382.64 606.56) rotate(180)"/>
          <rect class="cls-54" x="162.98" y="394.95" width="56.69" height="4.82" transform="translate(382.64 794.73) rotate(180)"/>
        </g>
        <g>
          <rect class="cls-34" x="211.55" y="77.56" width="178.7" height="322.21" rx="25.74" ry="25.74"/>
          <path class="cls-32" d="M376.8,84.81c3.44,0,6.23,2.79,6.23,6.23v294.19c0,3.44-2.79,6.23-6.23,6.23h-151.8c-3.43,0-6.23-2.79-6.23-6.23V91.04c0-3.44,2.79-6.23,6.23-6.23h151.8ZM376.8,84.35h-151.8c-3.69,0-6.68,2.99-6.68,6.68v294.19c0,3.69,2.99,6.68,6.68,6.68h151.8c3.69,0,6.68-2.99,6.68-6.68V91.04c0-3.69-2.99-6.68-6.68-6.68h0Z"/>
          <rect class="cls-36" x="220.35" y="86.55" width="161.1" height="303.15" rx="11.98" ry="11.98"/>
          <g class="cls-51">
            <g>
              <rect class="cls-32" x="220.35" y="349" width="161.1" height="41.97"/>
              <rect class="cls-32" x="220.35" y="78.44" width="161.1" height="31.96" transform="translate(601.8 188.83) rotate(180)"/>
              <path class="cls-28" d="M244.71,363.05c2.61,0,4.74,2.12,4.74,4.74s-2.12,4.74-4.74,4.74-4.74-2.12-4.74-4.74,2.12-4.74,4.74-4.74h0ZM244.71,362.6c-2.87,0-5.19,2.32-5.19,5.19s2.32,5.19,5.19,5.19,5.19-2.32,5.19-5.19-2.32-5.19-5.19-5.19h0Z"/>
              <path class="cls-28" d="M282.17,363.05c2.61,0,4.74,2.12,4.74,4.74s-2.12,4.74-4.74,4.74-4.74-2.12-4.74-4.74,2.12-4.74,4.74-4.74h0ZM282.17,362.6c-2.87,0-5.19,2.32-5.19,5.19s2.32,5.19,5.19,5.19,5.19-2.32,5.19-5.19-2.32-5.19-5.19-5.19h0Z"/>
              <path class="cls-28" d="M319.63,363.05c2.61,0,4.74,2.12,4.74,4.74s-2.12,4.74-4.74,4.74-4.74-2.12-4.74-4.74,2.12-4.74,4.74-4.74h0ZM319.63,362.6c-2.87,0-5.19,2.32-5.19,5.19s2.32,5.19,5.19,5.19,5.19-2.32,5.19-5.19-2.32-5.19-5.19-5.19h0Z"/>
              <path class="cls-28" d="M357.08,363.05c2.61,0,4.74,2.12,4.74,4.74s-2.12,4.74-4.74,4.74-4.74-2.12-4.74-4.74,2.12-4.74,4.74-4.74h0ZM357.08,362.6c-2.87,0-5.19,2.32-5.19,5.19s2.32,5.19,5.19,5.19,5.19-2.32,5.19-5.19-2.32-5.19-5.19-5.19h0Z"/>
            </g>
            <g>
              <g>
                <g>
                  <path class="cls-65" d="M256.5,94.23c-.07,0-.14-.03-.18-.09-.45-.6-.33-1.46.27-1.91.6-.45,1.46-.33,1.91.27.08.1.06.24-.04.32-.1.08-.24.06-.32-.04-.3-.4-.87-.48-1.27-.18-.4.3-.48.87-.18,1.27.08.1.06.24-.04.32-.04.03-.09.05-.14.05Z"/>
                  <path class="cls-65" d="M265.19,94.23s-.1-.01-.14-.05c-.1-.08-.12-.22-.04-.32.3-.4.22-.97-.18-1.27-.19-.15-.43-.21-.67-.17-.24.03-.45.16-.6.35-.08.1-.22.12-.32.04-.1-.08-.12-.22-.04-.32.22-.29.54-.48.9-.53.36-.05.72.04,1.01.26.6.45.72,1.31.27,1.91-.04.06-.11.09-.18.09Z"/>
                </g>
                <g>
                  <path class="cls-65" d="M258.21,102.57c-.31,0-.57-.25-.57-.57s.25-.57.57-.57.57.25.57.57-.25.57-.57.57ZM258.21,101.88c-.06,0-.11.05-.11.11s.05.11.11.11.11-.05.11-.11-.05-.11-.11-.11Z"/>
                  <path class="cls-65" d="M263.48,102.57c-.31,0-.57-.25-.57-.57s.25-.57.57-.57.57.25.57.57-.25.57-.57.57ZM263.48,101.88c-.06,0-.11.05-.11.11s.05.11.11.11.11-.05.11-.11-.05-.11-.11-.11Z"/>
                </g>
                <path class="cls-65" d="M260.84,102.33c-2.75,0-4.99-2.24-4.99-4.99s2.24-4.99,4.99-4.99,4.99,2.24,4.99,4.99-2.24,4.99-4.99,4.99ZM260.84,92.8c-2.5,0-4.54,2.04-4.54,4.54s2.04,4.54,4.54,4.54,4.54-2.04,4.54-4.54-2.04-4.54-4.54-4.54Z"/>
                <path class="cls-65" d="M260.84,97.56c-.13,0-.23-.1-.23-.23v-2.33c0-.13.1-.23.23-.23s.23.1.23.23v2.33c0,.13-.1.23-.23.23Z"/>
                <path class="cls-65" d="M262.42,99.14c-.06,0-.12-.02-.16-.07l-1.57-1.58c-.09-.09-.09-.23,0-.32.09-.09.23-.09.32,0l1.57,1.58c.09.09.09.23,0,.32-.04.04-.1.07-.16.07Z"/>
              </g>
              <g>
                <path class="cls-65" d="M336,102.74c-.26,0-.48-.34-.48-.73v-.76c0-.28.1-.53.27-.66.07-.05.13-.08.2-.08.2,0,.48.26.48.74v.76c0,.4-.22.73-.48.73Z"/>
                <path class="cls-65" d="M338.88,102.74c-.26,0-.48-.34-.48-.73v-2.94c0-.28.1-.53.27-.66.07-.05.14-.08.2-.08.2,0,.48.26.48.74v2.94c0,.4-.22.73-.48.73Z"/>
                <path class="cls-65" d="M341.75,102.74c-.26,0-.48-.34-.48-.73v-5.13c0-.28.1-.53.27-.66.07-.05.13-.08.2-.08.2,0,.48.26.48.74v5.13c0,.4-.22.73-.48.73Z"/>
                <path class="cls-65" d="M344.62,102.74c-.26,0-.48-.34-.48-.73v-7.31c0-.28.1-.53.27-.66.07-.05.14-.08.2-.08.2,0,.48.26.48.74v7.31c0,.4-.22.73-.48.73Z"/>
                <path class="cls-1" d="M347.5,102.74c-.26,0-.48-.34-.48-.73v-9.49c0-.28.1-.53.27-.66.07-.05.13-.08.2-.08.2,0,.48.26.48.74v9.49c0,.4-.22.73-.48.73Z"/>
              </g>
              <g>
                <path class="cls-65" d="M370.04,102.57h-14.82c-1.54,0-2.8-1.26-2.8-2.8v-5.01c0-1.54,1.26-2.8,2.8-2.8h14.82c1.54,0,2.8,1.26,2.8,2.8v5.01c0,1.54-1.26,2.8-2.8,2.8ZM355.22,92.41c-1.29,0-2.34,1.05-2.34,2.34v5.01c0,1.29,1.05,2.34,2.34,2.34h14.82c1.29,0,2.34-1.05,2.34-2.34v-5.01c0-1.29-1.05-2.34-2.34-2.34h-14.82Z"/>
                <path class="cls-65" d="M373.92,99.51c-.13,0-.23-.1-.23-.23v-3.82c0-.13.1-.23.23-.23s.23.1.23.23v3.82c0,.13-.1.23-.23.23Z"/>
                <g>
                  <path class="cls-1" d="M355.95,93.99c-.79,0-1.43.64-1.43,1.43v3.67c0,.79.64,1.43,1.43,1.43h8.47v-6.54h-8.47Z"/>
                  <path class="cls-32" d="M369.31,93.99h-4.88v6.54h4.88c.79,0,1.43-.64,1.43-1.43v-3.67c0-.79-.64-1.43-1.43-1.43Z"/>
                </g>
              </g>
              <g>
                <path class="cls-1" d="M317.46,95.55c-.1,0-.19-.04-.26-.11l-.07-.07c-.07-.07-.11-.17-.11-.27,0-.11.05-.21.13-.29,2.06-1.96,4.74-3.04,7.56-3.04s5.45,1.06,7.5,2.98c.08.08.13.18.13.29,0,.1-.04.2-.11.27l-.07.07c-.07.07-.16.11-.26.11s-.21-.04-.29-.12c-1.89-1.76-4.34-2.74-6.91-2.74s-5.07.99-6.96,2.79c-.08.08-.18.12-.29.12Z"/>
                <path class="cls-65" d="M319.21,97.3c-.1,0-.2-.04-.27-.11l-.07-.07c-.07-.07-.11-.17-.11-.28,0-.11.05-.21.13-.29,1.59-1.49,3.66-2.31,5.82-2.31s4.18.8,5.76,2.25c.08.08.13.18.13.29,0,.11-.04.2-.11.28l-.06.06c-.07.07-.18.12-.28.12-.09,0-.17-.03-.23-.09-1.42-1.32-3.27-2.05-5.2-2.05s-3.82.74-5.25,2.09c-.07.06-.16.1-.25.1Z"/>
                <path class="cls-65" d="M320.95,99.04c-.1,0-.2-.04-.27-.11l-.06-.06c-.08-.08-.12-.18-.11-.28,0-.11.05-.21.13-.28,1.12-1.02,2.57-1.59,4.08-1.59s2.9.54,4.01,1.53c.08.07.13.17.13.28,0,.11-.04.21-.11.29l-.07.07c-.07.07-.17.11-.27.11-.09,0-.19-.04-.26-.1-.95-.84-2.18-1.31-3.44-1.31s-2.54.48-3.5,1.36c-.07.07-.16.1-.26.1Z"/>
                <path class="cls-65" d="M322.71,100.79c-.1,0-.21-.04-.28-.12l-.07-.07c-.08-.08-.12-.19-.12-.3,0-.1.05-.19.12-.26.65-.56,1.49-.87,2.35-.87s1.64.29,2.28.82c.07.06.12.15.12.25,0,.11-.04.22-.12.3l-.07.07c-.07.07-.16.11-.26.11s-.2-.04-.28-.1c-.49-.38-1.07-.59-1.68-.59-.66,0-1.29.24-1.79.67-.06.05-.13.08-.21.08Z"/>
                <path class="cls-65" d="M324.99,102.43h-.63c-.19,0-.35-.16-.35-.35h0c0-.19.16-.35.35-.35h.63c.19,0,.35.16.35.35h0c0,.19-.16.35-.35.35Z"/>
              </g>
              <g>
                <path class="cls-58" d="M250.44,96.93c0,1.1-.38,2.12-1.02,2.93-.32-1.61-1.75-2.82-3.45-2.82-.32,0-.62.06-.91.13-.56-1.43-1.62-2.61-2.98-3.32.87-1.02,2.16-1.66,3.6-1.66,2.63,0,4.75,2.13,4.75,4.75Z"/>
                <path class="cls-65" d="M248.99,102.57h-21.06c-.08,0-.15-.04-.19-.1-.47-.72-.72-1.55-.72-2.41,0-2.42,1.97-4.39,4.38-4.39.73,0,1.44.18,2.07.52,1.17-2.03,3.33-3.28,5.68-3.28,1.05,0,2.1.26,3.02.74,1.36.7,2.42,1.85,3.01,3.25.29-.06.53-.09.77-.09,1.78,0,3.32,1.26,3.67,3.01.05.25.07.5.07.74,0,.66-.18,1.3-.53,1.9-.04.07-.12.11-.2.11ZM228.06,102.11h20.81c.27-.5.41-1.02.41-1.56,0-.22-.02-.44-.07-.65-.31-1.53-1.67-2.64-3.23-2.64-.25,0-.52.04-.85.13-.11.03-.23-.03-.27-.14-.54-1.38-1.56-2.52-2.88-3.2,0,0,0,0,0,0-.86-.45-1.83-.69-2.81-.69-2.26,0-4.33,1.25-5.4,3.25-.03.06-.08.1-.14.11-.06.02-.13,0-.18-.03-.61-.38-1.32-.58-2.04-.58-2.17,0-3.93,1.77-3.93,3.94,0,.73.2,1.44.58,2.06Z"/>
              </g>
            </g>
            <g>
              <g>
                <rect class="cls-54" x="243.36" y="212.35" width="115.08" height="26.17" rx="6.46" ry="6.46"/>
                <g>
                  <path class="cls-32" d="M294.73,223.58c0,2.17-1.37,3.43-3.75,3.43h-2.07v2.79h-1.81v-9.48h3.89c2.38,0,3.75,1.18,3.75,3.26ZM293.01,223.64c0-1.16-.77-1.73-2.13-1.73h-1.98v3.51h1.98c1.35,0,2.13-.58,2.13-1.77Z"/>
                  <path class="cls-32" d="M302.96,227.8h-4.63l-.84,2h-1.88l4.16-9.48h1.88l4.1,9.48h-1.95l-.84-2ZM302.31,226.24l-1.65-3.98-1.68,3.98h3.33Z"/>
                  <path class="cls-32" d="M311.56,226.7v3.1h-1.81v-3.03l-3.53-6.44h1.84l2.59,4.45,2.55-4.45h1.83l-3.45,6.38Z"/>
                </g>
              </g>
              <rect class="cls-32" x="235.99" y="247.94" width="129.82" height="89.13" rx="21.56" ry="21.56"/>
              <g>
                <rect class="cls-32" x="235.99" y="119.14" width="129.82" height="83.78" rx="20.9" ry="20.9"/>
                <g>
                  <rect class="cls-43" x="249.11" y="163.91" width="48.84" height="32.85" rx="8.03" ry="8.03"/>
                  <path class="cls-37" d="M279.62,184.74c0,2.51-2.15,4.2-5.55,4.35v3.05h-.51v-3.05c-2.25,0-4.63-1-6.12-2.51l.36-.36c1.36,1.43,3.61,2.35,5.76,2.35,3.38,0,5.55-1.51,5.55-3.84.05-6.14-10.7-3.07-10.7-9.57,0-2.28,2.02-3.79,5.14-3.94v-2.71h.51v2.69h.05c1.66,0,3.53.51,4.76,1.3l-.26.41c-1.15-.74-2.92-1.2-4.5-1.2-3.15,0-5.19,1.36-5.19,3.45,0,5.99,10.75,2.92,10.7,9.57Z"/>
                </g>
                <g>
                  <rect class="cls-43" x="248.82" y="125.3" width="48.84" height="32.85" rx="8.03" ry="8.03" transform="translate(546.47 283.45) rotate(180)"/>
                  <g>
                    <path class="cls-37" d="M282.12,149.84h-17.76c-.13,0-.23-.1-.23-.23s.1-.23.23-.23h17.76c.13,0,.23.1.23.23s-.1.23-.23.23Z"/>
                    <path class="cls-37" d="M283.87,151.58h-21.26c-.13,0-.23-.1-.23-.23s.1-.23.23-.23h21.26c.13,0,.23.1.23.23s-.1.23-.23.23Z"/>
                    <g>
                      <path class="cls-37" d="M273.24,137.07c-.71,0-1.29-.58-1.29-1.29s.58-1.29,1.29-1.29,1.29.58,1.29,1.29-.58,1.29-1.29,1.29ZM273.24,134.95c-.46,0-.84.38-.84.84s.37.84.84.84.84-.37.84-.84-.38-.84-.84-.84Z"/>
                      <path class="cls-37" d="M283.17,138.59h-19.87c-.1,0-.19-.07-.22-.16-.03-.1.01-.2.1-.26l9.94-6.27c.07-.05.17-.05.24,0l9.94,6.27c.09.05.13.16.1.26-.03.1-.12.16-.22.16ZM264.09,138.13h18.3l-9.15-5.77-9.15,5.77Z"/>
                    </g>
                    <g>
                      <path class="cls-37" d="M266.46,147.83c-.13,0-.23-.1-.23-.23v-7.59c0-.13.1-.23.23-.23s.23.1.23.23v7.59c0,.13-.1.23-.23.23Z"/>
                      <path class="cls-37" d="M270.98,147.83c-.13,0-.23-.1-.23-.23v-7.59c0-.13.1-.23.23-.23s.23.1.23.23v7.59c0,.13-.1.23-.23.23Z"/>
                      <path class="cls-37" d="M275.5,147.83c-.13,0-.23-.1-.23-.23v-7.59c0-.13.1-.23.23-.23s.23.1.23.23v7.59c0,.13-.1.23-.23.23Z"/>
                      <path class="cls-37" d="M280.01,147.83c-.13,0-.23-.1-.23-.23v-7.59c0-.13.1-.23.23-.23s.23.1.23.23v7.59c0,.13-.1.23-.23.23Z"/>
                    </g>
                  </g>
                </g>
                <g>
                  <rect class="cls-43" x="304.14" y="125.3" width="48.84" height="32.85" rx="8.03" ry="8.03"/>
                  <path class="cls-37" d="M326.92,137.73c0,3.65-1.66,5.67-4.61,5.67s-4.55-2.02-4.55-5.67,1.64-5.67,4.55-5.67,4.61,2.04,4.61,5.67ZM318.34,137.73c0,3.35,1.42,5.18,3.98,5.18s4.01-1.83,4.01-5.18-1.42-5.18-4.01-5.18-3.98,1.83-3.98,5.18ZM336.03,132.2l-14.66,19.05h-.71l14.66-19.05h.71ZM339.35,145.72c0,3.65-1.66,5.67-4.61,5.67s-4.55-2.02-4.55-5.67,1.64-5.67,4.55-5.67,4.61,2.04,4.61,5.67ZM330.77,145.72c0,3.35,1.42,5.18,3.98,5.18s4.01-1.83,4.01-5.18-1.42-5.18-4.01-5.18-3.98,1.83-3.98,5.18Z"/>
                </g>
                <g>
                  <rect class="cls-43" x="304.14" y="163.91" width="48.84" height="32.85" rx="8.03" ry="8.03"/>
                  <g>
                    <polygon class="cls-37" points="336.02 179.75 328.48 172.96 320.93 179.75 320.63 179.42 328.48 172.35 336.33 179.42 336.02 179.75"/>
                    <path class="cls-37" d="M320.78,190.22c-.13,0-.23-.1-.23-.23v-10.41c0-.13.1-.23.23-.23s.23.1.23.23v10.41c0,.13-.1.23-.23.23Z"/>
                    <path class="cls-37" d="M336.17,190.22c-.13,0-.23-.1-.23-.23v-10.41c0-.13.1-.23.23-.23s.23.1.23.23v10.41c0,.13-.1.23-.23.23Z"/>
                    <path class="cls-37" d="M339.13,180.49c-.05,0-.11-.02-.15-.06l-10.5-9.45-10.34,9.31c-.09.08-.24.08-.32-.02-.08-.09-.08-.24.02-.32l10.5-9.45c.09-.08.22-.08.3,0l10.66,9.59c.09.08.1.23.02.32-.04.05-.11.08-.17.08Z"/>
                    <polygon class="cls-37" points="339.13 190.22 330.67 190.22 330.67 180.45 326.1 180.45 326.1 190.22 317.98 190.22 317.98 189.77 325.65 189.77 325.65 180 331.13 180 331.13 189.77 339.13 189.77 339.13 190.22"/>
                    <path class="cls-37" d="M334.11,175.96c-.13,0-.23-.1-.23-.23v-3.03c0-.13.1-.23.23-.23s.23.1.23.23v3.03c0,.13-.1.23-.23.23Z"/>
                  </g>
                </g>
              </g>
            </g>
          </g>
        </g>
        <g>
          <g>
            <g>
              <g class="cls-12">
                <path class="cls-28" d="M342.09,76.94c-4.54,0-9.27-.55-14.21-1.63-.12-.03-.2-.15-.17-.27.03-.12.15-.2.27-.17,28.62,6.3,45.14-6.51,58.72-21.29.08-.09.23-.1.32-.01.09.08.1.23.01.32-6.01,6.54-12.85,13.22-22.15,17.8-7.13,3.51-14.67,5.26-22.8,5.26Z"/>
                <path class="cls-28" d="M376.43,76.85c-5.34,0-8.88-1.41-10.53-4.19-2.66-4.49-.42-12.6,6.65-24.11.07-.11.21-.14.31-.07.11.07.14.21.07.31-6.98,11.36-9.21,19.31-6.65,23.64,1.72,2.91,5.69,4.23,11.79,3.92.13,0,.23.09.24.22,0,.13-.09.23-.22.24-.58.03-1.13.04-1.67.04Z"/>
                <path class="cls-28" d="M362.86,85.4s-.04,0-.06,0c-5.55-1.39-9-3.89-10.25-7.45-2-5.63,1.21-13.76,10.09-25.59.08-.1.22-.12.32-.05.1.08.12.22.05.32-8.66,11.53-11.94,19.76-10.03,25.16,1.21,3.4,4.55,5.81,9.94,7.16.12.03.2.15.17.28-.03.1-.12.17-.22.17Z"/>
              </g>
              <path class="cls-28" d="M356.45,80.5c-.78,0-1.53-.02-2.26-.05-8.51-.4-15.04-2.86-15.1-2.89-.07-.03-.12-.08-.14-.15-.02-.07,0-.14.04-.2l.83-1.07s.06-.06.1-.08c10.54-3.76,14.18-8.87,17.71-13.81,2.78-3.9,5.4-7.58,11.19-10.22,7.05-3.21,12.79-2.58,15.75,1.72,3.24,4.71,2.07,12.52-2.55,17.07-7.95,7.82-17.92,9.68-25.57,9.68ZM339.54,77.24c1.35.47,7.25,2.41,14.69,2.76,7.77.36,18.84-.99,27.48-9.49,4.47-4.4,5.62-11.95,2.5-16.49-2.82-4.11-8.36-4.68-15.19-1.57-5.68,2.59-8.27,6.22-11.01,10.07-3.56,4.99-7.23,10.15-17.86,13.96l-.6.77Z"/>
            </g>
            <g>
              <path class="cls-65" d="M337.12,77.61s37.8-13.55,26.71-23.79c-7.99-7.38-15.04,18.18-26.71,23.79Z"/>
              <g class="cls-46">
                <path class="cls-32" d="M333.67,78.87c-.09,0-.18-.05-.21-.14-.05-.12.01-.25.13-.29,20.42-7.97,30.99-25.3,31.09-25.47.06-.11.2-.14.31-.08.11.06.14.2.08.31-.03.04-2.69,4.45-7.86,9.79-4.77,4.92-12.71,11.68-23.46,15.87-.03.01-.06.02-.08.02Z"/>
                <path class="cls-32" d="M360.97,62.82c-.75,0-1.5-.17-2.2-.66-1.98-1.38-2.93-4.83-2.92-10.56,0-.13.1-.23.23-.23h0c.13,0,.23.1.23.23-.01,5.49.9,8.92,2.72,10.19,1.6,1.11,3.64.36,4.98-.14.31-.11.57-.21.81-.28.12-.04.25.03.28.15.04.12-.03.25-.15.28-.22.06-.48.16-.78.27-.88.33-2.03.75-3.2.75Z"/>
                <path class="cls-32" d="M356.71,68.43c-.84,0-1.7-.18-2.47-.66-2.16-1.35-3-4.7-2.51-9.95.01-.12.12-.22.25-.2.12.01.22.12.2.25-.47,5.07.3,8.27,2.3,9.52,2.62,1.64,6.54-.7,6.58-.72.11-.06.25-.03.31.08.07.11.03.25-.08.31-.12.08-2.31,1.38-4.59,1.38Z"/>
              </g>
            </g>
          </g>
          <g>
            <g class="cls-5">
              <rect class="cls-58" x="308.14" y="68.32" width="39.77" height="9.25"/>
              <rect class="cls-24" x="308.14" y="68.32" width="39.77" height="9.25"/>
              <path class="cls-49" d="M311.97,77.74c-.19,0-.34-.15-.34-.34v-9.08c0-.19.15-.34.34-.34s.34.15.34.34v9.08c0,.19-.15.34-.34.34Z"/>
              <path class="cls-49" d="M315.59,77.74c-.19,0-.34-.15-.34-.34v-9.08c0-.19.15-.34.34-.34s.34.15.34.34v9.08c0,.19-.15.34-.34.34Z"/>
              <path class="cls-24" d="M340.52,77.74c-.19,0-.34-.15-.34-.34v-9.08c0-.19.15-.34.34-.34s.34.15.34.34v9.08c0,.19-.15.34-.34.34Z"/>
              <path class="cls-24" d="M344.14,77.74c-.19,0-.34-.15-.34-.34v-9.08c0-.19.15-.34.34-.34s.34.15.34.34v9.08c0,.19-.15.34-.34.34Z"/>
            </g>
            <g class="cls-6">
              <rect class="cls-13" x="306.1" y="59.07" width="39.77" height="9.25"/>
              <path class="cls-49" d="M309.94,68.49c-.19,0-.34-.15-.34-.34v-9.08c0-.19.15-.34.34-.34s.34.15.34.34v9.08c0,.19-.15.34-.34.34Z"/>
              <path class="cls-49" d="M313.56,68.49c-.19,0-.34-.15-.34-.34v-9.08c0-.19.15-.34.34-.34s.34.15.34.34v9.08c0,.19-.15.34-.34.34Z"/>
              <path class="cls-24" d="M338.48,68.49c-.19,0-.34-.15-.34-.34v-9.08c0-.19.15-.34.34-.34s.34.15.34.34v9.08c0,.19-.15.34-.34.34Z"/>
              <path class="cls-24" d="M342.1,68.49c-.19,0-.34-.15-.34-.34v-9.08c0-.19.15-.34.34-.34s.34.15.34.34v9.08c0,.19-.15.34-.34.34Z"/>
            </g>
          </g>
        </g>
        <g>
          <g>
            <g class="cls-48">
              <path class="cls-28" d="M301.71,376.99s-.02,0-.02,0c-.12-.01-.22-.13-.2-.25,2.9-27.35-5.15-47.65-23.93-60.34-.1-.07-.13-.21-.06-.32s.21-.13.32-.06c10.03,6.78,17.11,15.89,21.02,27.08,3.4,9.72,4.44,21.06,3.1,33.69-.01.12-.11.2-.23.2Z"/>
              <path class="cls-28" d="M287.73,333.33c-2.75,0-6.37-.71-11.03-2.13-.12-.04-.19-.16-.15-.28.04-.12.16-.19.28-.15,8.58,2.61,13.51,2.8,15.98.59,2.23-1.98,2.65-5.98,1.38-12.97-.02-.12.06-.24.18-.26.12-.02.24.06.26.18,1.3,7.16.84,11.29-1.52,13.39-1.22,1.08-2.97,1.63-5.39,1.63Z"/>
              <path class="cls-28" d="M294.91,343.37c-2.62,0-5.91-.97-10.13-2.22-.74-.22-1.51-.45-2.31-.68-.12-.03-.19-.16-.15-.28.03-.12.16-.19.28-.15.8.23,1.57.46,2.31.68,6.4,1.89,10.63,3.14,13.48,1.29,2.34-1.52,3.78-5.27,4.68-12.16.02-.12.13-.21.25-.2.12.02.21.13.2.25-.93,7.12-2.39,10.86-4.88,12.48-1.07.7-2.3.99-3.73.99Z"/>
              <path class="cls-28" d="M300.74,355.03c-3,0-6.09-2.35-7.22-3.22-.1-.08-.12-.22-.04-.32.08-.1.22-.12.32-.04,1.29.99,5.23,3.99,8.43,2.89,1.93-.66,3.35-2.7,4.24-6.06.03-.12.16-.19.28-.16.12.03.19.16.16.28-.93,3.52-2.45,5.66-4.53,6.38-.53.18-1.08.26-1.63.26Z"/>
            </g>
            <path class="cls-28" d="M301.85,375.5s-.03,0-.04,0l-1.25-.22c-.11-.02-.19-.12-.19-.24.92-15.42-4.46-27.95-15.14-35.27-3.65-2.5-6.05-5.33-7.14-8.41-.94-2.67-.83-5.39.32-7.87,2.2-4.72,7.55-7.25,12.44-5.9,5.4,1.5,9.35,5.49,11.74,11.85,1.9,5.06,2.81,11.63,2.72,19.53-.15,13.43-3.21,26.22-3.24,26.35-.02.1-.12.17-.22.17ZM300.84,374.86l.84.15c.39-1.71,3.03-13.61,3.18-26.05.09-7.84-.82-14.36-2.69-19.36-2.33-6.22-6.18-10.11-11.43-11.57-4.68-1.3-9.8,1.13-11.91,5.65-2.46,5.29.03,11.16,6.67,15.71,6.97,4.78,11.66,11.54,13.93,20.11,1.85,6.95,1.55,13.1,1.42,15.37Z"/>
          </g>
          <g>
            <path class="cls-65" d="M304.77,376.35s-16.68-43.31-26.27-31.09c-10.11,12.88,20.24,17.64,26.27,31.09Z"/>
            <g class="cls-29">
              <g>
                <path class="cls-32" d="M306.01,379.94c-.09,0-.18-.06-.21-.15-4.48-12.66-12.18-21.67-17.85-27-6.14-5.77-11.28-8.59-11.33-8.61-.11-.06-.15-.2-.09-.31.06-.11.2-.15.31-.09.05.03,5.24,2.87,11.43,8.68,5.71,5.36,13.46,14.43,17.97,27.18.04.12-.02.25-.14.29-.03,0-.05.01-.08.01Z"/>
                <path class="cls-32" d="M276.52,354.49c-.54,0-1.11,0-1.7-.03-.13,0-.22-.11-.22-.23,0-.13.11-.22.23-.22,6.2.21,10.11-.73,11.64-2.78,1.38-1.86.56-4.32,0-5.95-.12-.36-.23-.68-.3-.95-.03-.12.04-.25.16-.28.12-.03.25.04.28.16.07.26.17.57.29.92.58,1.72,1.45,4.32-.08,6.36-1.5,2.01-4.88,2.99-10.32,2.99Z"/>
                <path class="cls-32" d="M285.63,359.76c-1.16,0-2.44-.09-3.83-.27-.12-.02-.21-.13-.2-.25.02-.12.13-.21.25-.2,5.7.73,9.35-.04,10.87-2.28,2.05-3.03-.58-7.82-.61-7.87-.06-.11-.02-.25.09-.31.11-.06.25-.02.31.09.11.21,2.79,5.08.59,8.34-1.24,1.83-3.74,2.75-7.47,2.75Z"/>
              </g>
            </g>
          </g>
        </g>
        <g>
          <g>
            <g>
              <path class="cls-28" d="M475.6,150.53c-.07,0-.14-.03-.19-.1-.13-.18-12.87-18.16-17.47-23.64-.11-.13-.29-.17-.43-.18-.29-.02-.63.08-.82.25-1.99,1.75-17.96,23.36-18.12,23.58-.07.1-.22.12-.32.05-.1-.07-.12-.22-.05-.32.66-.89,16.16-21.87,18.18-23.65.29-.25.74-.39,1.16-.36.32.02.57.14.74.34,4.61,5.5,17.36,23.49,17.49,23.67.07.1.05.24-.05.32-.04.03-.09.04-.13.04Z"/>
              <path class="cls-58" d="M459.11,128.53c0,.97-.8,1.75-1.78,1.75s-1.78-.78-1.78-1.75.8-1.75,1.78-1.75,1.78.78,1.78,1.75Z"/>
              <path class="cls-28" d="M420.4,163.05c-.13,0-.23-.1-.23-.23s.1-.23.23-.23c5.02,0,15.75-8.46,16.65-11.03.04-.12.17-.18.29-.14.12.04.18.17.14.29-.49,1.41-3.38,4.18-7.02,6.74-1.96,1.38-6.86,4.59-10.06,4.59Z"/>
              <path class="cls-28" d="M493.69,163.05c-.1,0-.19-.07-.22-.17-.02-.08-2.01-6.89-15.79-10.2-.12-.03-.2-.15-.17-.27.03-.12.15-.2.27-.17,14.09,3.38,16.05,10.24,16.12,10.53.03.12-.04.25-.16.28-.02,0-.04,0-.06,0Z"/>
            </g>
            <path class="cls-28" d="M491.71,151.87c-.22,0-.46-.02-.7-.06-1.59-.27-2.84-.82-3.94-1.29-1.79-.78-3.21-1.39-5.4-.74-3.62,1.08-4.66,1.72-4.67,1.73-.09.06-.21.04-.28-.03-.08-.08-.09-.19-.03-.28,2.53-3.83,9.79-8.2,13.96-6.35,2.64,1.17,3.85,3.79,3.33,5.5-.3.99-1.12,1.53-2.27,1.53ZM483.43,149.04c1.39,0,2.55.5,3.82,1.05,1.13.49,2.3,1,3.83,1.26,1.28.22,2.17-.2,2.46-1.15.45-1.5-.7-3.9-3.08-4.96-3.65-1.62-10.07,2.02-12.86,5.45.71-.31,1.94-.77,3.94-1.37.69-.21,1.31-.29,1.89-.29Z"/>
            <path class="cls-28" d="M424.67,156.4c-1.62,0-3.13-.38-4.55-1.16-2.88-1.57-3.21-3.41-3.16-4.37.08-1.38,1.02-2.59,2.45-3.16,1.84-.73,3.97-.21,5.7,1.41,4.98,4.67,10.5,1.97,10.56,1.95.1-.05.23-.02.29.08.06.1.04.23-.05.3-4.14,3.3-7.9,4.95-11.25,4.95ZM421.11,147.85c-.52,0-1.04.1-1.53.29-1.26.5-2.09,1.56-2.16,2.76-.09,1.47.95,2.88,2.92,3.95,3.91,2.13,8.68,1.16,14.17-2.89-2.04.54-6.02.95-9.71-2.5-1.13-1.06-2.44-1.61-3.7-1.61Z"/>
          </g>
          <g>
            <g>
              <circle class="cls-54" cx="457.54" cy="179.8" r="32.08" transform="translate(152.86 565.61) rotate(-73.15)"/>
              <circle class="cls-32" cx="457.54" cy="179.8" r="28.1" transform="translate(6.87 376.19) rotate(-45)"/>
              <g>
                <path class="cls-37" d="M457.65,206.45c-.13,0-.23-.1-.23-.23s.1-.23.23-.23c14.39,0,26.09-11.7,26.09-26.09,0-.13.1-.23.23-.23s.23.1.23.23c0,14.64-11.91,26.54-26.54,26.54Z"/>
                <path class="cls-37" d="M431.21,180.01c-.13,0-.23-.1-.23-.23,0-14.64,11.91-26.54,26.54-26.54.13,0,.23.1.23.23s-.1.23-.23.23c-14.39,0-26.09,11.7-26.09,26.09,0,.13-.1.23-.23.23Z"/>
              </g>
              <path class="cls-37" d="M458.24,157.73c0,.38-.31.69-.69.69h0c-.38,0-.69-.31-.69-.69h0c0-.38.31-.69.69-.69h0c.38,0,.69.31.69.69ZM457.56,158.41h0ZM447.07,160.35c.19.33.08.75-.25.94h0c-.33.19-.75.08-.94-.25h0c-.19-.33-.08-.75.25-.94h0c.11-.06.23-.09.34-.09h0c.24,0,.47.12.59.34ZM468.98,160.1c.33.19.44.61.25.94h0c-.19.33-.61.44-.94.25h0c-.33-.19-.44-.61-.25-.94h0c.13-.22.36-.34.6-.34h0c.12,0,.23.03.34.09ZM438.71,168.21c.33.19.44.61.25.94h0c-.19.33-.61.44-.94.25h0c-.33-.19-.44-.61-.25-.94h0c.13-.22.36-.34.59-.34h0c.12,0,.23.03.34.09ZM477.34,168.46c.19.33.08.75-.25.94h0c-.33.19-.75.08-.94-.25h0c-.19-.33-.08-.75.25-.94h0c.11-.06.23-.09.34-.09h0c.24,0,.47.12.59.34ZM436.08,179.88c0,.38-.31.69-.69.69h0c-.38,0-.69-.31-.69-.69h0c0-.38.31-.69.69-.69h0c.38,0,.69.31.69.69ZM480.4,179.88c0,.38-.31.69-.69.69h0c-.38,0-.69-.31-.69-.69h0c0-.38.31-.69.69-.69h0c.38,0,.69.31.69.69ZM438.96,190.61c.19.33.08.75-.25.94h0c-.33.19-.75.08-.94-.25h0c-.19-.33-.08-.75.25-.94h0c.11-.06.23-.09.34-.09h0c.24,0,.47.12.6.34ZM477.09,190.37c.33.19.44.61.25.94h0c-.19.33-.61.44-.94.25h0c-.33-.19-.44-.61-.25-.94h0c.13-.22.36-.34.59-.34h0c.12,0,.24.03.34.09ZM446.82,198.48c.33.19.44.61.25.94h0c-.19.33-.61.44-.94.25h0c-.33-.19-.44-.61-.25-.94h0c.13-.22.36-.34.6-.34h0c.12,0,.23.03.34.09ZM469.23,198.73c.19.33.08.75-.25.94h0c-.33.19-.75.08-.94-.25h0c-.19-.33-.08-.75.25-.94h0c.11-.06.23-.09.34-.09h0c.24,0,.47.12.59.34ZM457.55,201.35c.38,0,.69.31.69.69h0c0,.38-.31.68-.69.68h0c-.38,0-.69-.31-.69-.69h0c0-.38.31-.69.69-.69h0c.38,0,0,0,0,0Z"/>
            </g>
            <g>
              <path class="cls-1" d="M457.18,183.67h0c-1.74,0-3.16-1.41-3.16-3.16h0c0-1.74,1.41-3.16,3.16-3.16h0c1.74,0,3.16,1.41,3.16,3.16h0c0,1.74-1.41,3.16-3.16,3.16Z"/>
              <path class="cls-61" d="M457.55,182.79h0c-1.61,0-2.91-1.3-2.91-2.91h0c0-1.61,1.3-2.91,2.91-2.91h0c1.61,0,2.91,1.3,2.91,2.91h0c0,1.61-1.3,2.91-2.91,2.91Z"/>
              <path class="cls-32" d="M457.55,182.32c-1.34,0-2.43-1.09-2.43-2.43s1.09-2.43,2.43-2.43,2.43,1.09,2.43,2.43-1.09,2.43-2.43,2.43ZM457.55,177.9c-1.09,0-1.98.89-1.98,1.98s.89,1.98,1.98,1.98,1.98-.89,1.98-1.98-.89-1.98-1.98-1.98Z"/>
              <path class="cls-37" d="M474,180.14h0l-16.44-.03c-.07,0-.14-.04-.19-.1-.04-.06-.05-.14-.02-.21l7.65-19.88c.05-.12.18-.18.29-.13.12.05.18.18.13.29l-7.53,19.57,16.11.03c.13,0,.23.1.23.23,0,.13-.1.23-.23.23Z"/>
            </g>
          </g>
        </g>
        <g>
          <path class="cls-65" d="M316.51,289.11h136.43c.85,0,1.58.62,1.71,1.46l7.76,109.21h-141.56l-4.34-110.66Z"/>
          <path class="cls-32" d="M451.41,398.4s0,0-.01,0c-.13,0-.22-.12-.21-.24.38-5.9,2.52-10.64,4.98-11.03,1.04-.16,2.56.38,3.97,3.92.05.12-.01.25-.13.29-.12.05-.25-.01-.29-.13-1.02-2.58-2.23-3.84-3.48-3.64-2.18.34-4.24,5.1-4.6,10.61,0,.12-.11.21-.23.21Z"/>
          <polygon class="cls-1" points="308.19 283.88 452.74 283.88 450.17 399.77 301.66 399.77 308.19 283.88"/>
          <g>
            <path id="SVGID-9" data-name="SVGID" class="cls-32" d="M305.37,280.19h144.55l-.4,62.55c0,23.76-7.36,47.05-23.2,47.05h-141.66v-.48c11.27-3.77,20.31-28.79,20.31-46.02l.4-63.09Z"/>
            <g class="cls-30">
              <g>
                <g>
                  <rect class="cls-32" x="304.57" y="282.21" width="147.4" height="101.15"/>
                  <rect class="cls-58" x="304.57" y="291.3" width="147.4" height="18.82"/>
                  <path class="cls-32" d="M423.43,301.81h-90.31c-.61,0-1.1-.49-1.1-1.1s.49-1.1,1.1-1.1h90.31c.61,0,1.1.49,1.1,1.1s-.49,1.1-1.1,1.1Z"/>
                </g>
                <g>
                  <g>
                    <g>
                      <path d="M360.68,316.33v.27h-1.55v4.32h-.28v-4.32h-1.55v-.27h3.37Z"/>
                      <path d="M362.53,320.74c.7,0,1.11-.41,1.11-1.13v-1.9h.19v1.9c0,.84-.48,1.32-1.3,1.32s-1.3-.48-1.3-1.32v-1.9h.19v1.9c0,.72.41,1.13,1.11,1.13Z"/>
                    </g>
                    <path class="cls-28" d="M361.6,338.28c-.73,0-1.09.51-1.07,1.29.22-.33.58-.52,1.08-.52.84,0,1.38.55,1.38,1.4,0,.91-.62,1.47-1.57,1.47-1.12,0-1.81-.8-1.81-2.13s.75-2.28,1.92-2.28c.46,0,.99.14,1.34.35l-.36.7c-.25-.18-.59-.28-.92-.28ZM360.65,340.47c0,.34.22.67.73.67.44,0,.72-.25.72-.68,0-.41-.26-.67-.7-.67-.48,0-.76.3-.75.68Z"/>
                    <g>
                      <path class="cls-28" d="M357.99,346.91v4.32h-.97v-3.49h-.86v-.83h1.84Z"/>
                      <path class="cls-28" d="M362.82,349.88c0,.82-.67,1.39-1.73,1.39-.61,0-1.24-.2-1.65-.51l.39-.78c.35.33.76.51,1.18.51.54,0,.85-.23.85-.61,0-.39-.31-.59-.86-.59h-.69v-.54l1.1-1.06h-1.76v-.79h2.95v.59l-1.25,1.17.23.03c.73.09,1.23.51,1.23,1.18Z"/>
                    </g>
                    <g>
                      <path class="cls-28" d="M357.91,357.47c0-.28-.22-.44-.59-.44s-.81.21-1.2.54l-.38-.73c.53-.4,1.12-.64,1.73-.64.86,0,1.47.44,1.47,1.12,0,.46-.35.94-.83,1.44l-1,.99h1.98v.82h-3.24v-.67l1.6-1.65c.28-.28.47-.57.47-.78Z"/>
                      <path class="cls-28" d="M362.92,358.4c0,1.41-.59,2.19-1.66,2.19s-1.67-.78-1.67-2.19.59-2.19,1.67-2.19,1.66.78,1.66,2.19ZM360.53,358.4c0,1.02.23,1.47.73,1.47s.72-.45.72-1.47-.23-1.47-.72-1.47-.73.44-.73,1.47Z"/>
                    </g>
                    <g>
                      <path class="cls-28" d="M357.91,366.81c0-.28-.22-.44-.59-.44s-.81.21-1.2.54l-.38-.73c.53-.4,1.12-.64,1.73-.64.86,0,1.47.44,1.47,1.12,0,.46-.35.94-.83,1.44l-1,.99h1.98v.82h-3.24v-.67l1.6-1.65c.28-.28.47-.57.47-.78Z"/>
                      <path class="cls-28" d="M363,365.59v.7l-1.7,3.62h-1.04l1.66-3.51h-1.44v.6h-.87v-1.42h3.39Z"/>
                    </g>
                  </g>
                  <g>
                    <g>
                      <path d="M371.45,316.33l1.39,4.26,1.39-4.26h.29l1.4,4.26,1.38-4.26h.3l-1.55,4.59h-.28l-1.39-4.2-1.4,4.2h-.29l-1.55-4.59h.31Z"/>
                      <path d="M380.93,319.29h-2.98c.04.83.62,1.39,1.41,1.39.47,0,.88-.17,1.15-.47l.16.18c-.31.34-.78.54-1.33.54-.96,0-1.67-.71-1.67-1.71s.7-1.72,1.67-1.72,1.61.73,1.59,1.79ZM380.68,319.04c-.05-.77-.56-1.3-1.34-1.3s-1.33.52-1.39,1.3h2.73Z"/>
                    </g>
                    <path class="cls-28" d="M378.54,337.56v.7l-1.7,3.62h-1.04l1.66-3.51h-1.44v.6h-.87v-1.42h3.39Z"/>
                    <g>
                      <path class="cls-28" d="M373.53,346.91v4.32h-.97v-3.49h-.86v-.83h1.84Z"/>
                      <path class="cls-28" d="M377.38,346.91l-1.29,2.56h1v-.96h.89v.96h.59v.78h-.59v.98h-.89v-.98h-2.02v-.68l1.37-2.66h.92Z"/>
                    </g>
                    <g>
                      <path class="cls-28" d="M373.45,357.47c0-.28-.22-.44-.59-.44s-.81.21-1.2.54l-.38-.73c.53-.4,1.12-.64,1.73-.64.86,0,1.47.44,1.47,1.12,0,.46-.35.94-.83,1.44l-1,.99h1.98v.82h-3.24v-.67l1.6-1.65c.28-.28.47-.57.47-.78Z"/>
                      <path class="cls-28" d="M377.33,356.25v4.32h-.97v-3.49h-.86v-.83h1.84Z"/>
                    </g>
                    <g>
                      <path class="cls-28" d="M373.45,366.81c0-.28-.22-.44-.59-.44s-.81.21-1.2.54l-.38-.73c.53-.4,1.12-.64,1.73-.64.86,0,1.47.44,1.47,1.12,0,.46-.35.94-.83,1.44l-1,.99h1.98v.82h-3.24v-.67l1.6-1.65c.28-.28.47-.57.47-.78Z"/>
                      <path class="cls-28" d="M378.28,366.7c0,.38-.21.71-.55.9.47.19.78.6.78,1.09,0,.78-.66,1.26-1.7,1.26s-1.71-.48-1.71-1.24c0-.5.33-.92.83-1.11-.38-.2-.6-.55-.6-.94,0-.68.57-1.12,1.48-1.12s1.49.44,1.49,1.15ZM376.01,368.6c0,.39.28.62.79.62s.79-.22.79-.61-.29-.6-.79-.6-.78.22-.78.6ZM376.13,366.75c0,.33.24.52.67.52s.67-.19.67-.52-.24-.53-.67-.53-.67.19-.67.53Z"/>
                    </g>
                  </g>
                  <g>
                    <path class="cls-28" d="M330.76,337.56l-1.29,2.56h1v-.96h.89v.96h.59v.78h-.59v.98h-.89v-.98h-2.02v-.68l1.37-2.66h.92Z"/>
                    <g>
                      <path class="cls-28" d="M326.91,346.91v4.32h-.97v-3.49h-.86v-.83h1.84Z"/>
                      <path class="cls-28" d="M330.71,346.91v4.32h-.97v-3.49h-.86v-.83h1.84Z"/>
                    </g>
                    <g>
                      <path class="cls-28" d="M326.91,356.25v4.32h-.97v-3.49h-.86v-.83h1.84Z"/>
                      <path class="cls-28" d="M331.66,357.36c0,.38-.21.71-.55.9.47.19.78.6.78,1.09,0,.78-.66,1.26-1.7,1.26s-1.71-.48-1.71-1.24c0-.5.33-.92.83-1.11-.38-.2-.6-.55-.6-.94,0-.68.57-1.12,1.48-1.12s1.49.44,1.49,1.15ZM329.39,359.26c0,.39.28.62.79.62s.79-.22.79-.61-.29-.6-.8-.6-.78.22-.78.6ZM329.51,357.41c0,.33.24.52.67.52s.67-.19.67-.52-.24-.53-.67-.53-.67.19-.67.53Z"/>
                    </g>
                    <g>
                      <path class="cls-28" d="M326.83,366.81c0-.28-.22-.44-.59-.44s-.81.21-1.2.54l-.38-.73c.53-.4,1.12-.64,1.73-.64.86,0,1.47.44,1.47,1.12,0,.46-.35.94-.83,1.44l-1,.99h1.98v.82h-3.24v-.67l1.6-1.65c.28-.28.47-.57.47-.78Z"/>
                      <path class="cls-28" d="M330.16,367.16c1,0,1.65.54,1.65,1.31,0,.89-.68,1.48-1.73,1.48-.56,0-1.21-.21-1.66-.52l.39-.77c.35.33.76.51,1.16.51.51,0,.8-.23.8-.63,0-.36-.29-.58-.79-.58-.25,0-.91.01-1.2.04v-2.4h2.83v.81h-1.94v.76h.49Z"/>
                    </g>
                    <g>
                      <path d="M327.56,316.61c-.73,0-1.2.3-1.2.78,0,1.4,2.7.68,2.68,2.37,0,.71-.64,1.17-1.59,1.17-.61,0-1.23-.27-1.63-.66l.14-.24c.37.39.96.62,1.5.62.79,0,1.29-.34,1.29-.88.01-1.44-2.68-.7-2.68-2.36,0-.66.6-1.09,1.51-1.09.47,0,.97.15,1.31.37l-.12.25c-.34-.22-.81-.33-1.2-.33Z"/>
                      <path d="M333.01,317.5v3.42h-.27v-.91c-.22.59-.7.91-1.37.92-.83,0-1.31-.5-1.31-1.34v-2.09h.27v2.03c0,.7.41,1.12,1.1,1.12.83-.02,1.31-.58,1.31-1.48v-1.67h.27Z"/>
                    </g>
                  </g>
                  <g>
                    <path class="cls-28" d="M345.7,339.14c1,0,1.65.54,1.65,1.31,0,.89-.68,1.48-1.73,1.48-.56,0-1.21-.21-1.66-.52l.39-.77c.35.33.76.51,1.16.51.51,0,.79-.23.79-.63,0-.36-.29-.58-.79-.58-.25,0-.91.01-1.2.04v-2.4h2.83v.81h-1.94v.76h.49Z"/>
                    <g>
                      <path class="cls-28" d="M342.45,346.91v4.32h-.97v-3.49h-.86v-.83h1.84Z"/>
                      <path class="cls-28" d="M346.17,348.13c0-.28-.22-.44-.59-.44s-.81.21-1.2.54l-.38-.73c.53-.4,1.12-.64,1.73-.64.86,0,1.47.44,1.47,1.12,0,.46-.35.94-.83,1.44l-1,.99h1.98v.82h-3.24v-.67l1.6-1.65c.28-.28.47-.57.47-.78Z"/>
                    </g>
                    <g>
                      <path class="cls-28" d="M342.45,356.25v4.32h-.97v-3.49h-.86v-.83h1.84Z"/>
                      <path class="cls-28" d="M345.38,359.85c.73,0,1.08-.51,1.07-1.29-.22.33-.57.52-1.07.52-.84,0-1.37-.55-1.37-1.4,0-.91.62-1.47,1.55-1.47,1.12,0,1.8.8,1.8,2.13s-.75,2.28-1.92,2.28c-.45,0-.97-.14-1.33-.35l.36-.69c.25.18.59.28.91.28ZM344.89,357.68c0,.41.26.67.69.67.48,0,.75-.3.75-.68,0-.34-.22-.67-.73-.67-.44,0-.71.25-.71.69Z"/>
                    </g>
                    <g>
                      <path class="cls-28" d="M342.37,366.81c0-.28-.22-.44-.59-.44s-.81.21-1.2.54l-.38-.73c.53-.4,1.12-.64,1.73-.64.86,0,1.47.44,1.47,1.12,0,.46-.35.94-.83,1.44l-1,.99h1.98v.82h-3.24v-.67l1.6-1.65c.28-.28.47-.57.47-.78Z"/>
                      <path class="cls-28" d="M346.06,366.31c-.73,0-1.09.51-1.07,1.29.22-.33.58-.52,1.08-.52.84,0,1.38.55,1.38,1.4,0,.91-.62,1.47-1.57,1.47-1.12,0-1.81-.8-1.81-2.13s.75-2.28,1.92-2.28c.46,0,.99.14,1.34.35l-.36.7c-.25-.18-.59-.28-.92-.28ZM345.11,368.49c0,.34.22.67.73.67.44,0,.72-.25.72-.68,0-.41-.26-.67-.7-.67-.48,0-.76.3-.75.68Z"/>
                    </g>
                    <g>
                      <path d="M340.92,316.33l1.84,3.61,1.83-3.61h.38v4.59h-.26v-4.21s-1.89,3.71-1.89,3.71h-.12l-1.9-3.71v4.21h-.26v-4.59h.38Z"/>
                      <path d="M349.3,319.31c0,.89-.74,1.61-1.66,1.61s-1.66-.72-1.66-1.61.74-1.61,1.66-1.61,1.66.72,1.66,1.61ZM346.17,319.31c0,.79.66,1.42,1.46,1.42s1.46-.64,1.46-1.42-.66-1.42-1.46-1.42-1.46.63-1.46,1.42Z"/>
                    </g>
                  </g>
                  <g>
                    <g>
                      <path d="M421.02,316.61c-.73,0-1.2.3-1.2.78,0,1.4,2.7.68,2.68,2.37,0,.71-.64,1.17-1.59,1.17-.61,0-1.23-.27-1.63-.66l.14-.24c.37.39.96.62,1.5.62.79,0,1.29-.34,1.29-.88.01-1.44-2.68-.7-2.68-2.36,0-.66.6-1.09,1.51-1.09.47,0,.97.15,1.31.37l-.12.25c-.34-.22-.81-.33-1.2-.33Z"/>
                      <path d="M425.84,320.92v-.68c-.3.47-.78.68-1.37.68-.68,0-1.13-.43-1.13-1s.49-.92,1.27-.92h1.21v-.33c0-.58-.34-.93-1.02-.93-.43,0-.79.17-1.15.45l-.13-.21c.41-.3.8-.49,1.32-.49.81,0,1.25.45,1.25,1.15v2.27s-.26,0-.26,0ZM425.83,319.81v-.56h-1.19c-.67,0-1.04.23-1.04.67s.35.76.91.76c.64,0,1.12-.28,1.33-.87Z"/>
                    </g>
                    <path class="cls-28" d="M424.98,331.19c0,.82-.67,1.39-1.73,1.39-.61,0-1.24-.2-1.65-.51l.39-.78c.35.33.76.51,1.18.51.54,0,.85-.23.85-.61,0-.39-.31-.59-.86-.59h-.69v-.54l1.1-1.06h-1.76v-.79h2.95v.59l-1.25,1.17.23.03c.73.09,1.23.51,1.23,1.18Z"/>
                    <g>
                      <path class="cls-28" d="M420.15,337.56v4.32h-.97v-3.49h-.86v-.83h1.84Z"/>
                      <path class="cls-28" d="M425.08,339.72c0,1.41-.59,2.19-1.66,2.19s-1.67-.78-1.67-2.19.59-2.19,1.67-2.19,1.66.78,1.66,2.19ZM422.69,339.72c0,1.02.23,1.47.73,1.47s.72-.45.72-1.47-.23-1.47-.72-1.47-.73.44-.73,1.47Z"/>
                    </g>
                    <g>
                      <path class="cls-28" d="M420.15,346.91v4.32h-.97v-3.49h-.86v-.83h1.84Z"/>
                      <path class="cls-28" d="M425.16,346.91v.7l-1.7,3.62h-1.04l1.66-3.51h-1.44v.6h-.87v-1.42h3.39Z"/>
                    </g>
                    <g>
                      <path class="cls-28" d="M423.9,365.56v4.32h-.97v-3.49h-.86v-.83h1.84Z"/>
                      <path class="cls-28" d="M421.28,368.52c0,.82-.67,1.39-1.73,1.39-.61,0-1.24-.2-1.65-.51l.39-.78c.35.33.76.51,1.18.51.54,0,.85-.23.85-.61,0-.39-.31-.59-.86-.59h-.69v-.54l1.1-1.06h-1.76v-.79h2.95v.59l-1.25,1.17.23.03c.73.09,1.23.51,1.23,1.18Z"/>
                    </g>
                    <g>
                      <path class="cls-28" d="M420.07,357.47c0-.28-.22-.44-.59-.44s-.81.21-1.2.54l-.38-.73c.53-.4,1.12-.64,1.73-.64.86,0,1.47.44,1.47,1.12,0,.46-.35.94-.83,1.44l-1,.99h1.98v.82h-3.24v-.67l1.6-1.65c.28-.28.47-.57.47-.78Z"/>
                      <path class="cls-28" d="M424,356.25l-1.29,2.56h1v-.96h.89v.96h.59v.78h-.59v.98h-.89v-.98h-2.02v-.68l1.37-2.66h.92Z"/>
                    </g>
                  </g>
                  <g>
                    <g>
                      <path d="M391.62,316.33v.27h-1.55v4.32h-.28v-4.32h-1.55v-.27h3.37Z"/>
                      <path d="M395,318.83v2.09h-.28v-2.03c0-.7-.41-1.12-1.12-1.12-.85.02-1.34.58-1.34,1.48v1.67h-.28v-4.87h.28v2.34c.23-.58.71-.89,1.4-.9.83,0,1.33.51,1.33,1.34Z"/>
                    </g>
                    <path class="cls-28" d="M392.87,328.22v4.32h-.97v-3.49h-.86v-.83h1.84Z"/>
                    <path class="cls-28" d="M393.82,338.67c0,.38-.21.71-.55.9.47.19.78.6.78,1.09,0,.78-.66,1.26-1.7,1.26s-1.71-.48-1.71-1.24c0-.5.33-.92.83-1.11-.38-.2-.6-.55-.6-.94,0-.68.57-1.12,1.48-1.12s1.49.44,1.49,1.15ZM391.55,340.58c0,.39.28.62.79.62s.79-.22.79-.61-.29-.6-.79-.6-.78.22-.78.6ZM391.67,338.72c0,.33.24.52.67.52s.67-.19.67-.52-.24-.53-.67-.53-.67.19-.67.53Z"/>
                    <g>
                      <path class="cls-28" d="M389.07,346.91v4.32h-.97v-3.49h-.86v-.83h1.84Z"/>
                      <path class="cls-28" d="M392.32,348.48c1,0,1.65.54,1.65,1.31,0,.89-.68,1.48-1.73,1.48-.56,0-1.21-.21-1.66-.52l.39-.77c.35.33.76.51,1.16.51.51,0,.8-.23.8-.63,0-.36-.29-.58-.79-.58-.25,0-.91.01-1.2.04v-2.4h2.83v.81h-1.94v.76h.49Z"/>
                    </g>
                    <g>
                      <path class="cls-28" d="M388.99,357.47c0-.28-.22-.44-.59-.44s-.81.21-1.2.54l-.4-.73c.53-.4,1.14-.64,1.75-.64.86,0,1.47.44,1.47,1.12,0,.46-.35.94-.83,1.44l-1,.99h1.98v.82h-3.24v-.67l1.6-1.65c.28-.28.47-.57.47-.78Z"/>
                      <path class="cls-28" d="M392.79,357.47c0-.28-.22-.44-.59-.44s-.81.21-1.2.54l-.38-.73c.53-.4,1.12-.64,1.73-.64.86,0,1.47.44,1.47,1.12,0,.46-.35.94-.83,1.44l-1,.99h1.98v.82h-3.24v-.67l1.6-1.65c.28-.28.47-.57.47-.78Z"/>
                    </g>
                    <g>
                      <path class="cls-28" d="M388.99,366.81c0-.28-.22-.44-.59-.44s-.81.21-1.2.54l-.4-.73c.53-.4,1.14-.64,1.75-.64.86,0,1.47.44,1.47,1.12,0,.46-.35.94-.83,1.44l-1,.99h1.98v.82h-3.24v-.67l1.6-1.65c.28-.28.47-.57.47-.78Z"/>
                      <path class="cls-28" d="M392,369.19c.73,0,1.08-.51,1.07-1.29-.22.33-.57.52-1.07.52-.84,0-1.37-.55-1.37-1.4,0-.91.62-1.47,1.55-1.47,1.12,0,1.8.8,1.8,2.13s-.75,2.28-1.92,2.28c-.45,0-.97-.14-1.33-.35l.36-.69c.25.18.59.28.91.28ZM391.51,367.03c0,.41.26.67.69.67.48,0,.75-.3.75-.68,0-.34-.22-.67-.73-.67-.44,0-.71.25-.71.69Z"/>
                    </g>
                  </g>
                  <g>
                    <g>
                      <path d="M407.4,316.33v.27h-2.49v1.98h2.2v.28h-2.2v2.06h-.28v-4.59h2.76Z"/>
                      <path d="M409.7,317.5v.28c-.75,0-1.21.5-1.27,1.29v1.85h-.28v-3.42h.28v.86c.22-.55.66-.85,1.27-.87Z"/>
                    </g>
                    <path class="cls-28" d="M408.33,329.44c0-.28-.22-.44-.59-.44s-.81.21-1.2.54l-.38-.73c.53-.4,1.12-.64,1.73-.64.86,0,1.47.44,1.47,1.12,0,.46-.35.94-.83,1.44l-1,.99h1.98v.82h-3.24v-.67l1.6-1.65c.28-.28.47-.57.47-.78Z"/>
                    <path class="cls-28" d="M407.55,341.16c.73,0,1.08-.51,1.07-1.29-.22.33-.57.52-1.07.52-.84,0-1.37-.55-1.37-1.4,0-.91.62-1.47,1.55-1.47,1.12,0,1.8.8,1.8,2.13s-.75,2.28-1.92,2.28c-.45,0-.97-.14-1.33-.35l.36-.69c.25.18.59.28.91.28ZM407.05,339c0,.41.26.67.69.67.48,0,.75-.3.75-.68,0-.34-.22-.67-.73-.67-.44,0-.71.25-.71.69Z"/>
                    <g>
                      <path class="cls-28" d="M404.61,346.91v4.32h-.97v-3.49h-.86v-.83h1.84Z"/>
                      <path class="cls-28" d="M408.22,347.63c-.73,0-1.09.51-1.07,1.29.22-.33.58-.52,1.08-.52.84,0,1.38.55,1.38,1.4,0,.91-.62,1.47-1.57,1.47-1.12,0-1.81-.8-1.81-2.13s.75-2.28,1.92-2.28c.46,0,.99.14,1.34.35l-.36.7c-.25-.18-.59-.28-.92-.28ZM407.27,349.81c0,.34.22.67.73.67.44,0,.72-.25.72-.68,0-.41-.26-.67-.7-.67-.48,0-.76.3-.75.68Z"/>
                    </g>
                    <g>
                      <path class="cls-28" d="M404.53,357.47c0-.28-.22-.44-.59-.44s-.81.21-1.2.54l-.38-.73c.53-.4,1.12-.64,1.73-.64.86,0,1.47.44,1.47,1.12,0,.46-.35.94-.83,1.44l-1,.99h1.98v.82h-3.24v-.67l1.6-1.65c.28-.28.47-.57.47-.78Z"/>
                      <path class="cls-28" d="M409.44,359.22c0,.82-.67,1.39-1.73,1.39-.61,0-1.24-.2-1.65-.51l.39-.78c.35.33.76.51,1.18.51.54,0,.85-.23.85-.61,0-.39-.31-.59-.86-.59h-.69v-.54l1.1-1.06h-1.76v-.79h2.95v.59l-1.25,1.17.23.03c.73.09,1.23.51,1.23,1.18Z"/>
                    </g>
                    <g>
                      <path class="cls-28" d="M405.64,368.56c0,.82-.67,1.39-1.73,1.39-.61,0-1.24-.2-1.65-.51l.39-.78c.35.33.76.51,1.18.51.54,0,.85-.23.85-.61,0-.39-.31-.59-.86-.59h-.69v-.54l1.1-1.06h-1.76v-.79h2.95v.59l-1.25,1.17.23.03c.73.09,1.23.51,1.23,1.18Z"/>
                      <path class="cls-28" d="M409.54,367.75c0,1.41-.59,2.19-1.66,2.19s-1.67-.78-1.67-2.19.59-2.19,1.67-2.19,1.66.78,1.66,2.19ZM407.15,367.75c0,1.02.23,1.47.73,1.47s.72-.45.72-1.47-.23-1.47-.72-1.47-.73.44-.73,1.47Z"/>
                    </g>
                  </g>
                </g>
              </g>
            </g>
          </g>
          <g>
            <path class="cls-34" d="M307.9,400c-.12,0-.23-.1-.23-.22,0-.13.1-.23.22-.23,7.07-.07,22.06-.07,29.15,0,.13,0,.23.1.22.23,0,.13-.11.22-.23.22-7.09-.07-22.07-.07-29.14,0h0Z"/>
            <path class="cls-34" d="M435.16,400h0c-33.35-.07-55.9-.07-89.34,0h0c-.13,0-.23-.1-.23-.23,0-.13.1-.23.23-.23,33.44-.07,55.98-.07,89.34,0,.13,0,.23.1.23.23,0,.13-.1.23-.23.23Z"/>
            <path class="cls-34" d="M362.42,280.41h-11.64c-.13,0-.23-.1-.23-.23s.1-.23.23-.23h11.64c.13,0,.23.1.23.23s-.1.23-.23.23Z"/>
            <path class="cls-34" d="M346.25,280.41h-30.19c-.13,0-.23-.1-.23-.23s.1-.23.23-.23h30.19c.13,0,.23.1.23.23s-.1.23-.23.23Z"/>
            <path class="cls-34" d="M427.39,390.06c-.36,0-.73-.02-1.09-.05-.12-.01-.22-.12-.2-.25.01-.12.12-.22.25-.2,3.47.34,7.09-1.05,10.2-3.92,8.35-8.14,10.78-19.8,12.16-31.18.02-.12.13-.21.25-.2.12.02.21.13.2.25-1.39,11.47-3.84,23.22-12.3,31.46-2.89,2.66-6.21,4.09-9.47,4.09Z"/>
            <path class="cls-34" d="M449.37,344.33s0,0,0,0c-.13,0-.23-.11-.22-.23l.1-5.55c0-.13.11-.23.23-.22.13,0,.23.11.22.23l-.1,5.55c0,.12-.1.22-.23.22Z"/>
            <path class="cls-34" d="M449.26,350.65h0c-.13,0-.23-.11-.22-.23l.07-3.81c0-.13.11-.23.23-.22.13,0,.23.11.22.23l-.07,3.81c0,.12-.1.22-.23.22Z"/>
            <path class="cls-34" d="M305.1,324.61c-.13,0-.23-.1-.23-.23,0-2.55.02-6.16.04-8.79,0-.91.01-1.7.02-2.27,0-.13.1-.23.23-.23.13,0,.23.1.23.23,0,.57,0,1.36-.02,2.27-.02,2.63-.05,6.24-.04,8.78,0,.13-.1.23-.23.23h0Z"/>
            <path class="cls-34" d="M305.08,337.72h0c-.13,0-.23-.1-.23-.23,0-.89,0-5.91,0-8.91v-1.75c0-.13.1-.23.22-.23h0c.13,0,.23.1.23.23v1.75c0,3,.01,8.02,0,8.91,0,.12-.1.23-.23.23Z"/>
            <path class="cls-34" d="M290.33,385.66c-.06,0-.12-.02-.17-.07-.08-.09-.08-.24.01-.32,2.71-2.5,5.06-6.75,6.81-10.17,3.39-6.64,5.62-13.61,6.82-21.31.57-3.63,1.13-7.93,1.05-12.38,0-.13.1-.23.22-.23.13,0,.23.1.23.22.09,4.48-.49,8.81-1.06,12.45-1.21,7.75-3.46,14.76-6.87,21.45-1.87,3.67-4.16,7.77-6.9,10.3-.04.04-.1.06-.15.06Z"/>
          </g>
          <g>
            <g>
              <circle class="cls-37" cx="315.65" cy="286.78" r="2.72"/>
              <path class="cls-28" d="M316.75,288.4s-.09-.01-.12-.04c-3.46-2.26-5.52-6.08-5.52-10.21,0-6.72,5.47-12.19,12.19-12.19s12.19,5.47,12.19,12.19c0,.13-.1.23-.23.23s-.23-.1-.23-.23c0-6.47-5.26-11.74-11.74-11.74s-11.74,5.26-11.74,11.74c0,3.97,1.99,7.65,5.32,9.83.1.07.13.21.07.31-.04.07-.12.1-.19.1Z"/>
            </g>
            <g>
              <circle class="cls-37" cx="352.75" cy="286.78" r="2.72"/>
              <path class="cls-28" d="M353.85,288.4s-.09-.01-.12-.04c-3.46-2.26-5.52-6.08-5.52-10.21,0-6.72,5.47-12.19,12.19-12.19s12.19,5.47,12.19,12.19c0,.13-.1.23-.23.23s-.23-.1-.23-.23c0-6.47-5.26-11.74-11.74-11.74s-11.74,5.26-11.74,11.74c0,3.97,1.99,7.65,5.32,9.83.1.07.13.21.07.31-.04.07-.12.1-.19.1Z"/>
            </g>
            <g>
              <circle class="cls-37" cx="389.86" cy="286.78" r="2.72"/>
              <path class="cls-28" d="M390.96,288.4s-.09-.01-.12-.04c-3.46-2.26-5.52-6.08-5.52-10.21,0-6.72,5.47-12.19,12.19-12.19s12.19,5.47,12.19,12.19c0,.13-.1.23-.23.23s-.23-.1-.23-.23c0-6.47-5.26-11.74-11.74-11.74s-11.74,5.26-11.74,11.74c0,3.97,1.99,7.65,5.32,9.83.1.07.13.21.07.31-.04.07-.12.1-.19.1Z"/>
            </g>
            <g>
              <circle class="cls-37" cx="426.96" cy="286.78" r="2.72"/>
              <path class="cls-28" d="M428.06,288.4s-.09-.01-.12-.04c-3.46-2.26-5.52-6.08-5.52-10.21,0-6.72,5.47-12.19,12.19-12.19s12.19,5.47,12.19,12.19c0,.13-.1.23-.23.23s-.23-.1-.23-.23c0-6.47-5.26-11.74-11.74-11.74s-11.74,5.26-11.74,11.74c0,3.97,1.99,7.65,5.32,9.83.1.07.13.21.07.31-.04.07-.12.1-.19.1Z"/>
            </g>
            <g>
              <path class="cls-28" d="M305.73,280.1c-.09,0-.17-.05-.21-.13-1.45-3.14-3.16-4.46-13.49-3.97-3.45.16-5.49-1.94-5.73-4.1-.22-2.01,1.12-4.64,5.62-5.42,3.15-.55,6.17.3,8.75,2.47,3.16,2.66,5.29,7.05,5.29,10.93,0,.11-.07.2-.18.22-.02,0-.03,0-.05,0ZM295.89,275.44c6.04,0,8.17,1,9.56,3.4-.33-3.48-2.29-7.21-5.07-9.55-1.72-1.45-4.57-3.03-8.38-2.37-4.2.73-5.45,3.11-5.25,4.93.22,1.95,2.09,3.85,5.26,3.7,1.45-.07,2.73-.11,3.88-.11Z"/>
              <path class="cls-28" d="M279.66,301.44c-3.93,0-5.9-3.66-5.92-3.7-.06-.11-.02-.25.1-.31.11-.06.25-.02.31.09.11.2,2.65,4.88,7.84,3.03,3.58-1.28,3.87-5.33,4.14-9.26.13-1.9.26-3.69.73-5.2.86-2.76,2.43-4.71,4.67-5.82,4.27-2.11,9.88-.6,12.85.48.12.04.18.17.14.29-.04.12-.17.18-.29.14-2.9-1.06-8.37-2.53-12.49-.5-2.12,1.05-3.62,2.92-4.44,5.55-.46,1.46-.58,3.23-.71,5.1-.28,4.07-.58,8.27-4.44,9.65-.9.32-1.72.45-2.47.45Z"/>
            </g>
          </g>
        </g>
        <g>
          <g>
            <g class="cls-38">
              <rect class="cls-58" x="515.14" y="391.15" width="34.84" height="8.62" transform="translate(1065.11 790.93) rotate(180)"/>
              <path class="cls-49" d="M546.4,399.96c-.19,0-.34-.15-.34-.34v-8.47c0-.19.15-.34.34-.34s.34.15.34.34v8.47c0,.19-.15.34-.34.34Z"/>
              <path class="cls-49" d="M543.02,399.96c-.19,0-.34-.15-.34-.34v-8.47c0-.19.15-.34.34-.34s.34.15.34.34v8.47c0,.19-.15.34-.34.34Z"/>
              <path class="cls-24" d="M522.03,399.96c-.19,0-.34-.15-.34-.34v-8.47c0-.19.15-.34.34-.34s.34.15.34.34v8.47c0,.19-.15.34-.34.34Z"/>
              <path class="cls-24" d="M518.65,399.96c-.19,0-.34-.15-.34-.34v-8.47c0-.19.15-.34.34-.34s.34.15.34.34v8.47c0,.19-.15.34-.34.34Z"/>
            </g>
            <g class="cls-55">
              <rect class="cls-58" x="517.03" y="382.54" width="34.84" height="8.62" transform="translate(1068.9 773.69) rotate(180)"/>
              <rect class="cls-24" x="517.03" y="382.54" width="34.84" height="8.62" transform="translate(1068.9 773.69) rotate(180)"/>
              <path class="cls-49" d="M548.29,391.34c-.19,0-.34-.15-.34-.34v-8.47c0-.19.15-.34.34-.34s.34.15.34.34v8.47c0,.19-.15.34-.34.34Z"/>
              <path class="cls-49" d="M544.92,391.34c-.19,0-.34-.15-.34-.34v-8.47c0-.19.15-.34.34-.34s.34.15.34.34v8.47c0,.19-.15.34-.34.34Z"/>
              <path class="cls-24" d="M523.92,391.34c-.19,0-.34-.15-.34-.34v-8.47c0-.19.15-.34.34-.34s.34.15.34.34v8.47c0,.19-.15.34-.34.34Z"/>
              <path class="cls-24" d="M520.55,391.34c-.19,0-.34-.15-.34-.34v-8.47c0-.19.15-.34.34-.34s.34.15.34.34v8.47c0,.19-.15.34-.34.34Z"/>
            </g>
            <g class="cls-66">
              <rect class="cls-58" x="506.02" y="373.92" width="37.07" height="8.62" transform="translate(1049.12 756.45) rotate(180)"/>
              <path class="cls-49" d="M539.52,382.72c-.19,0-.34-.15-.34-.34v-8.47c0-.19.15-.34.34-.34s.34.15.34.34v8.47c0,.19-.15.34-.34.34Z"/>
              <path class="cls-49" d="M536.15,382.72c-.19,0-.34-.15-.34-.34v-8.47c0-.19.15-.34.34-.34s.34.15.34.34v8.47c0,.19-.15.34-.34.34Z"/>
              <path class="cls-24" d="M512.91,382.72c-.19,0-.34-.15-.34-.34v-8.47c0-.19.15-.34.34-.34s.34.15.34.34v8.47c0,.19-.15.34-.34.34Z"/>
              <path class="cls-24" d="M509.54,382.72c-.19,0-.34-.15-.34-.34v-8.47c0-.19.15-.34.34-.34s.34.15.34.34v8.47c0,.19-.15.34-.34.34Z"/>
            </g>
            <g class="cls-56">
              <circle class="cls-21" cx="517.41" cy="380.19" r="19.58" transform="translate(-42.58 66.07) rotate(-7.02)"/>
            </g>
          </g>
          <g>
            <circle class="cls-58" cx="511.17" cy="380.19" r="19.58" transform="translate(-35.7 706.96) rotate(-67.5)"/>
            <circle class="cls-25" cx="511.17" cy="380.19" r="19.58" transform="translate(-35.7 706.96) rotate(-67.5)"/>
            <circle class="cls-58" cx="513.31" cy="380.19" r="19.58" transform="translate(-34.38 708.94) rotate(-67.5)"/>
            <path class="cls-32" d="M513.31,397.14c-9.34,0-16.94-7.6-16.94-16.94s7.6-16.94,16.94-16.94,16.94,7.6,16.94,16.94-7.6,16.94-16.94,16.94ZM513.31,363.93c-8.97,0-16.26,7.3-16.26,16.26s7.3,16.26,16.26,16.26,16.26-7.3,16.26-16.26-7.3-16.26-16.26-16.26Z"/>
            <g>
              <path class="cls-32" d="M513.8,371.33c-2.72,0-4.48,1.33-4.48,3.44,0,6.15,10.06,2.97,10.01,10.43,0,3.12-2.37,5.14-5.95,5.14-2.28,0-4.6-1.18-6.09-2.92l.54-1.07c1.4,1.7,3.57,2.74,5.58,2.74,2.94,0,4.82-1.5,4.82-3.87.05-6.32-10.01-3.09-10.01-10.37,0-2.92,2.25-4.79,5.63-4.79,1.74,0,3.62.66,4.89,1.65l-.46,1.1c-1.27-.98-3.01-1.47-4.48-1.47Z"/>
              <path class="cls-32" d="M513.31,393.18c-.19,0-.34-.15-.34-.34v-25.49c0-.19.15-.34.34-.34s.34.15.34.34v25.49c0,.19-.15.34-.34.34Z"/>
            </g>
          </g>
        </g>
        <g>
          <g>
            <path id="SVGID-15" data-name="SVGID" class="cls-54" d="M497.64,303.27c1.8-5.68,2.9-14.61.92-16.42-6.89-6.28-23.39-10.14-23.39-10.14-5.28,3.06-1,7.11-.6,8.71.41,1.6,18.9,3.79,19.89,3.88.74.07,1.56,9.2.89,13.88l2.29.08Z"/>
            <g class="cls-9">
              <path class="cls-20" d="M477.48,281.02c8.21,3.05,15.99,8.43,15.99,8.43l-17.68.52,1.69-8.95Z"/>
            </g>
          </g>
          <g>
            <g>
              <polygon class="cls-16" points="413.2 348.08 419.37 347.65 416.4 342.54 413.2 348.08"/>
              <polygon class="cls-31" points="422.2 332.49 416.4 342.54 419.37 347.65 430.09 346.9 422.2 332.49"/>
            </g>
            <polygon class="cls-28" points="422.2 332.49 530.92 272.43 538.81 286.83 430.09 346.9 422.2 332.49"/>
            <polygon class="cls-37" points="428.35 343.73 537.07 283.66 538.81 286.83 430.09 346.9 428.35 343.73"/>
            <polygon class="cls-32" points="422.15 332.4 530.87 272.33 534.24 278.49 425.52 338.55 422.15 332.4"/>
            <path class="cls-37" d="M518.55,279.37c-.08,0-.16-.04-.2-.12-.06-.11-.02-.25.09-.31l7.38-4.08c.11-.06.25-.02.31.09.06.11.02.25-.09.31l-7.38,4.08s-.07.03-.11.03Z"/>
            <path class="cls-37" d="M424.38,331.39c-.08,0-.16-.04-.2-.12-.06-.11-.02-.25.09-.31l32.92-18.19c.11-.06.25-.02.31.09.06.11.02.25-.09.31l-32.92,18.19s-.07.03-.11.03Z"/>
            <path class="cls-52" d="M406.67,357.78c-.38,0-.73-.03-1.05-.08-4.43-.71-6.89-4.16-6.42-9.02.34-3.53,2.65-6.39,5.88-7.26,3.76-1.02,7.71.72,10.56,4.67.18.25.13.61-.13.79-.25.18-.61.13-.79-.13-2.57-3.54-6.06-5.13-9.35-4.24-2.81.76-4.75,3.17-5.05,6.28-.41,4.27,1.63,7.18,5.47,7.79,1.96.31,6.92-.57,7.58-4.61.71-4.36-2.14-6.05-3.4-6.58-2.75-1.15-3.98.08-3.99.1-.22.23-.58.23-.8.02-.23-.22-.23-.58-.02-.8.07-.07,1.79-1.81,5.25-.36,1.18.49,4.94,2.51,4.08,7.81-.68,4.18-5.02,5.63-7.83,5.63Z"/>
          </g>
          <g>
            <g>
              <path id="SVGID-17" data-name="SVGID" class="cls-40" d="M472.96,278.42c1.19-.21-5.68,5.32-5.32,4.17.7-2.28-2.55-4.19-3.44-3.62l.99-5.82c-.27,1.24,4.59,5.84,7.77,5.27Z"/>
              <g class="cls-62">
                <path class="cls-34" d="M465.23,276.85c.07.6-.86.8-2.08,1.3l2.3,2.83c1.44-1.16-.22-4.13-.22-4.13Z"/>
              </g>
            </g>
            <g>
              <g>
                <g>
                  <path class="cls-40" d="M501.24,383.99l3.86-1.24c-.16,4.12-.83,8.29-.9,9.89l-2.5.32c-.12-1.43-.13-5.1-.46-8.96Z"/>
                  <g class="cls-7">
                    <polygon class="cls-27" points="505.63 385.28 500.77 385.13 500.77 382.88 506.36 383.58 505.63 385.28"/>
                  </g>
                </g>
                <g>
                  <path class="cls-54" d="M501.53,392.32l2.87-.07c.19,0,.34.16.33.35-.02.25-.03.4-.03.44,0,0,0,.01,0,.02l.02,6.29c0,.18-.14.32-.32.32l-9.88.03c-.33,0-.45-.42-.18-.6,1.56-1,5.32-2.57,6.89-5.92.03-.05.04-.11.03-.17,0-.07-.02-.19-.03-.34-.02-.19.13-.35.31-.36Z"/>
                  <g class="cls-11">
                    <path class="cls-32" d="M501.17,400.93c-.12,0-.22-.1-.23-.22-.06-1.5.62-2.54,1.2-3.15.8-.84,1.95-1.38,2.93-1.39h0c.12,0,.23.1.23.23,0,.13-.1.23-.23.23-.86,0-1.88.49-2.6,1.25-.52.54-1.12,1.47-1.07,2.81,0,.13-.09.23-.22.24,0,0,0,0,0,0Z"/>
                  </g>
                </g>
              </g>
              <g>
                <path class="cls-37" d="M500.79,384.19c-1.74-17.81-7.13-65.43-13.07-65.08,0,0,8.29-17.23,13.03-14.65,9.29,5.06,2.65,45.41,2.65,45.41,0,0,2.38,3.24,2.47,8.85.14,8.85-.3,19.87-.62,25.25l-4.47.22Z"/>
                <g class="cls-59">
                  <path class="cls-19" d="M500.8,303.92c-.85-.8-2.19-.08-3.69,1.41-3.03,3.14-6.54,9.96-7.17,14.46-.62,4.45,2.17,18.73,3.31,21.03,0,0,11.08-15.52,11.39-23.16.26-6.44-1.38-11.43-3.84-13.74Z"/>
                  <path class="cls-32" d="M493.4,334.27s-.09-.02-.13-.04c-.1-.07-.12-.22-.05-.32,4.16-5.7,6.54-9.69,8.32-12.83.06-.11.2-.15.31-.09.11.06.15.2.09.31-1.78,3.15-4.17,7.15-8.35,12.87-.05.06-.12.09-.19.09Z"/>
                </g>
              </g>
              <rect class="cls-28" x="499.96" y="381.98" width="6.18" height="2.26" rx="1.13" ry="1.13" transform="translate(1006.11 766.22) rotate(180)"/>
            </g>
            <g>
              <g>
                <g>
                  <path class="cls-40" d="M473.47,383.91l3.8.46c-.74,3.97-1.6,7.46-1.99,9.48l-2.63-.32c.4-3.34.52-6.54.81-9.63Z"/>
                  <g class="cls-47">
                    <polygon class="cls-27" points="477.24 387.94 472.67 387.39 473.28 383.4 478.21 383.99 477.24 387.94"/>
                  </g>
                </g>
                <g>
                  <path class="cls-54" d="M464.99,399.77c-.31,0-.44-.4-.19-.59,1.71-1.27,7.47-3.31,7.47-5.08,0-.21,0-.42,0-.63,0-.18.14-.32.32-.32h2.89c.19,0,.34.17.32.36-.07.78-.12,1.25-.13,1.34,0,.01,0,.02,0,.03v4.57c0,.18-.15.32-.32.32h-10.35Z"/>
                  <g class="cls-4">
                    <path class="cls-32" d="M472.11,400.7c-.13,0-.23-.1-.23-.23,0-2.26,1.78-3.71,4.52-3.71.13,0,.23.1.23.23s-.1.23-.23.23c-2.47,0-4.07,1.28-4.07,3.26,0,.13-.1.23-.23.23Z"/>
                  </g>
                </g>
              </g>
              <g>
                <path class="cls-37" d="M473.3,385.62c2.22-29.16.87-34.27,1.26-35.97.94-4.13,7.33-31.24,9.75-39.75.88-3.12-2.24-4.09-4.12-5.63l9.98-10.3c3.01,3.5,14.71,9.01,14.71,17.03,0,11.7-22.72,35.25-22.53,38.65,0,0,1.3,4.83.81,9.32-.9,8.42-5.93,26.65-5.93,26.65h-3.93Z"/>
                <g class="cls-14">
                  <path class="cls-26" d="M495.73,296.96c-1.5,1.21-11.03,12.7-21.17,24.01l-.89-21.4,14.59-10.06,7.47,7.45Z"/>
                </g>
              </g>
              <rect class="cls-28" x="472.45" y="383.61" width="6.18" height="2.26" rx="1.13" ry="1.13" transform="translate(951.07 769.48) rotate(-180)"/>
            </g>
            <g>
              <g>
                <path id="SVGID-19" data-name="SVGID" class="cls-54" d="M482.08,306.48s-8.73-4.9-14.69-12.82c-1.03-1.37-2.9-6.49-1.86-10.15.92-3.25,5.16-4.64,5.67-7.92,15.38,1.05,17.82,16.97,22.98,20.64l-12.1,10.25Z"/>
                <g class="cls-15">
                  <path class="cls-20" d="M469.31,295.36c-1.86,3.23,2.72,11.34,5.23,12.7l-1.87-20.28-3.36,7.58Z"/>
                </g>
              </g>
              <g>
                <g>
                  <path id="SVGID-21" data-name="SVGID" class="cls-40" d="M450.03,336.15s1.74.35,3,.19c1.68-.21,3.06-1.63,4.96-4.21l-3.19-1.34c-2.5,3.69-4.77,5.36-4.77,5.36Z"/>
                  <g class="cls-67">
                    <path class="cls-22" d="M458.72,332.43l-3.91-1.65c-.16.23-.31.45-.47.67l3.1,2.5c.42-.44.85-.94,1.27-1.52Z"/>
                    <path class="cls-32" d="M450.19,336.66c-.16,0-.29-.11-.3-.27,0-.16.11-.29.27-.3.58-.03,2.09-.84,2.79-1.58.11-.11.29-.12.4-.01.11.11.12.29.01.4-.75.79-2.4,1.71-3.17,1.76Z"/>
                  </g>
                </g>
                <path class="cls-54" d="M454.78,330.83c2.26-3.56,5.41-9.54,6.86-18.17,1.14-6.83,2.02-16.02,1.84-22.66-.16-5.97,3.54-10.33,6.27-9.02,6.71,3.21-1.69,39.22-11.29,51.79l-3.68-1.94Z"/>
              </g>
            </g>
            <g>
              <g>
                <path id="SVGID-23" data-name="SVGID" class="cls-40" d="M456.6,277.27c.78.65,1.14,3.12,1.41,3.49.17.23.99-.13,1.39.11.91.54,1.87,1.7,2.51,2.09,1.42.86,3.35-.89,3.54-4.37.28-4.94-4.06-4.05-2.46-10.39.92-3.62-9.13-.77-9.29,3.13-.12,3.07.67,4.08,2.89,5.93Z"/>
                <g class="cls-33">
                  <path class="cls-34" d="M460.24,281.67c-.06,0-.12-.03-.17-.08-.08-.09-.08-.24.02-.32.28-.25.61-.69.61-.7.07-.1.22-.12.32-.05.1.07.12.22.05.32-.01.02-.36.49-.67.77-.04.04-.1.06-.15.06Z"/>
                  <path class="cls-34" d="M458.28,277.93c.22.13.49.06.62-.16.13-.22.06-.49-.16-.62-.22-.13-.49-.06-.62.16-.13.22-.06.49.16.62Z"/>
                  <path class="cls-17" d="M459.12,279.99c1.05,2.12,1.39,4.1.74,4.42-.64.32-2.02-1.14-3.07-3.26-1.05-2.12-1.39-4.1-.74-4.42.64-.32,2.02,1.14,3.07,3.26Z"/>
                </g>
              </g>
              <path class="cls-34" d="M453.27,268.71c-1.39,2.95-2.18,4.73-.87,7,.25.44,1.17,1.41,1.69,1.95.21.21.54.24.78.06.78-.6,2.7-2.19,3.68-3.36.57-.68,1.75-.27,3.54.97.47.32,2,.35,2.68.51,1.31.31,3.94,5.28,3.12,8.36-1.78,6.67.77,11.56.77,11.56l19.36-12.36c-4.02-8.56-11.25-6.69-14.39-10.3-1.55-1.78-4.62-8.7-7.59-10.1-5.34-2.5-9.88-.41-12.76,5.71Z"/>
              <path class="cls-34" d="M467.2,296.13c-.1,0-.19-.07-.22-.17-.07-.27-1.79-6.55-.25-10.31,1.45-3.55.25-6.55-.33-7.67-.62-1.19-1.31-1.84-1.69-1.93-.12-.03-.2-.15-.17-.27.03-.12.15-.2.27-.17.61.14,1.39.99,1.99,2.16.61,1.18,1.86,4.33.34,8.05-1.48,3.62.25,9.95.27,10.02.03.12-.04.25-.16.28-.02,0-.04,0-.06,0Z"/>
              <g>
                <path class="cls-40" d="M462.76,276.31c.83.39,1.82.03,2.21-.8.39-.83.03-1.82-.8-2.21-.83-.39-1.82-.03-2.21.8-.39.83-.03,1.82.8,2.21Z"/>
                <path class="cls-34" d="M463.15,275.58c-.09,0-.18-.05-.21-.14-.22-.56.05-1.2.62-1.43.12-.05.25.01.29.13.05.12-.01.25-.13.29-.33.13-.49.51-.36.84.05.12-.01.25-.13.29-.03.01-.06.02-.08.02Z"/>
              </g>
              <path class="cls-34" d="M452.87,277.97c-.05,0-.1-.02-.14-.05-.09-.07-2.21-1.85-1.78-5.15.16-1.27,1.03-2.33,1.73-3.19.39-.48.73-.9.85-1.22.04-.12.17-.18.29-.14.12.04.18.17.14.29-.14.4-.5.85-.92,1.36-.66.81-1.48,1.82-1.63,2.96-.39,3.04,1.6,4.72,1.62,4.74.1.08.11.22.03.32-.04.05-.11.08-.18.08Z"/>
            </g>
          </g>
          <path class="cls-34" d="M490.11,399.94h-8.63c-.13,0-.23-.1-.23-.23s.1-.23.23-.23h8.63c.13,0,.23.1.23.23s-.1.23-.23.23Z"/>
        </g>
        <g>
          <g>
            <g>
              <g>
                <path class="cls-40" d="M226.25,383.34h6.15c-.62,4.75-1.09,8.65-1.12,10.76h-4.52c-.17-3.44-.37-7.11-.51-10.76Z"/>
                <g class="cls-53">
                  <polygon class="cls-27" points="233.82 385.16 224.11 385.16 225.47 381.34 233.91 381.34 233.82 385.16"/>
                </g>
              </g>
              <g>
                <path class="cls-58" d="M231.29,394.1c-.02,1.04.08,1.64.31,1.68,2.56.43,8.62,1.59,8.62,4h-13.2c-.07-1.78-.16-3.69-.26-5.68h4.52Z"/>
                <g class="cls-35">
                  <path class="cls-32" d="M233.28,398.18s-.04,0-.06,0c-.12-.03-.19-.15-.16-.28l.59-2.31c.03-.12.15-.19.28-.16.12.03.19.15.16.28l-.59,2.31c-.03.1-.12.17-.22.17Z"/>
                  <path class="cls-32" d="M231.28,397.68s-.09-.01-.13-.04c-.1-.07-.13-.21-.06-.31l1.59-2.36c.07-.1.21-.13.32-.06.1.07.13.21.06.32l-1.59,2.36c-.04.07-.12.1-.19.1Z"/>
                  <path class="cls-32" d="M229.69,396.28c-.09,0-.18-.05-.21-.14-.05-.12.01-.25.13-.29l2.41-.95c.12-.05.25.01.29.13.05.12-.01.25-.13.29l-2.41.95s-.06.02-.08.02Z"/>
                </g>
              </g>
            </g>
            <g>
              <g>
                <path class="cls-58" d="M262.56,394.78c.92.92,9.77,2.25,9.77,5h-13.43s-.38-2.67-.92-6.56h4.48c.01.97.04,1.51.09,1.56Z"/>
                <g class="cls-42">
                  <path class="cls-32" d="M264.71,397.66s-.05,0-.07-.01c-.12-.04-.18-.17-.14-.29l.68-1.97c.04-.12.17-.18.29-.14.12.04.18.17.14.29l-.68,1.97c-.03.09-.12.15-.21.15Z"/>
                  <path class="cls-32" d="M262.87,397.25s-.08-.01-.12-.03c-.11-.06-.14-.2-.08-.31l1.23-2.04c.06-.11.2-.14.31-.08.11.06.14.2.08.31l-1.23,2.04c-.04.07-.12.11-.19.11Z"/>
                  <path class="cls-32" d="M261.24,396.23c-.06,0-.12-.02-.16-.07-.09-.09-.09-.23,0-.32l1.57-1.57c.09-.09.23-.09.32,0,.09.09.09.23,0,.32l-1.57,1.57s-.1.07-.16.07Z"/>
                </g>
              </g>
              <g>
                <path class="cls-40" d="M262.55,383.34c0,3.9-.11,8.05-.08,9.87h-4.48c-.39-2.83-.87-6.3-1.35-9.87h5.91Z"/>
                <g class="cls-64">
                  <polygon class="cls-27" points="263.28 384.68 255.81 384.68 255.9 382.5 263.05 381.96 263.28 384.68"/>
                </g>
              </g>
            </g>
            <g>
              <path id="SVGID-25" data-name="SVGID" class="cls-37" d="M226.47,363.28c.18-2.72,2.86-6.45,2.86-6.45,0,0-3.29-26.35.74-41.25.75-2.79,2.53-6.5,3.81-8.32l19.05,1.82c.29,6.18,7.35,20.36,10.05,46.3,0,0-.37,16.23-.26,28.12l-6.36-.16c-.79-5.89-2.88-15.05-3.1-19.06-.14-2.54,1.61-7.75,1.61-7.75l-12.23-23.03s-3.17,18.72-5.36,25.69c-.8,2.57-3.25,14.48-4.51,24.15l-6.9.16c-.23-6.03.3-15.55.61-20.23Z"/>
              <g class="cls-57">
                <polygon class="cls-26" points="239.54 351.66 242.85 334.18 238.33 326.76 239.54 351.66"/>
                <path class="cls-32" d="M242.76,334.8c-.09,0-.18-.06-.21-.15-1.14-3.32-4.6-7.91-4.63-7.96-.08-.1-.06-.24.04-.32.1-.08.24-.06.32.04.14.19,3.53,4.7,4.7,8.08.04.12-.02.25-.14.29-.02,0-.05.01-.07.01Z"/>
              </g>
            </g>
          </g>
          <g>
            <g>
              <path id="SVGID-27" data-name="SVGID" class="cls-40" d="M259.71,236.84c-.61,1.14,5.06,12.44,5.64,23.01l-6.45-1c0-.08-.83-13.86-3.12-21.71-.17-.57-.57-1.03-1.09-1.33-2.03-1.15-2.74-5.34-.45-5.71,0,0-1.13-4.27-.27-4.75,1.26-.71.9,2.58,1.76,3.25,1.11.87,3.14,1.66,4.23,2.16.82.38,1.08,3.15.96,3.69-.12.53-1.21,2.4-1.21,2.4Z"/>
              <g class="cls-8">
                <polygon class="cls-27" points="265.78 258.33 258.15 257.79 257.43 261.24 266.87 263.33 265.78 258.33"/>
              </g>
            </g>
            <path class="cls-50" d="M254.4,234.08c-.13,0-.23-.1-.23-.23,0-.02-.01-.11-.03-.23-.09-.7-.34-2.57-.16-3.56.02-.12.14-.21.26-.18.12.02.21.14.18.26-.16.92.08,2.74.17,3.42.03.2.03.26.03.29,0,.13-.1.23-.23.23Z"/>
          </g>
          <g>
            <g>
              <path class="cls-40" d="M240.53,233.76c-.02-1.11-1.62-4.06-.44-7.79,0,0,1.95-2.85,2.59-3.63.17-.2.8.12.63.91-.25,1.21-1.32,3.13-1.36,4-.03.72.41,3.59.75,3.55.52-.06,1.29-3.28,1.88-2.69,1.11,1.11-.24,6.02-.45,6.58-1.49,3.97-11.49,14.26-12.67,16.57l-5.99-1.36c2.43-4.19,15.09-14.07,15.06-16.14Z"/>
              <g class="cls-60">
                <polygon class="cls-27" points="233 250.26 225.47 248.35 223.38 250.8 233.1 253.43 233 250.26"/>
              </g>
            </g>
            <path class="cls-3" d="M242.7,231.02c-.11,0-.21-.09-.23-.2-.01-.12.07-.23.19-.25.15-.09.43-.73.62-1.16.23-.52.46-1.05.7-1.34.08-.1.22-.11.32-.03.1.08.11.22.03.32-.2.24-.42.75-.63,1.23-.4.91-.62,1.39-.97,1.42,0,0-.02,0-.03,0ZM242.68,230.56h0,0Z"/>
          </g>
          <path class="cls-50" d="M241.95,227.47s0,0-.01,0c-.13,0-.22-.11-.22-.24.02-.5.34-1.27.68-2.09.28-.69.57-1.4.69-1.94.03-.12.15-.2.27-.18.12.03.2.15.18.27-.12.58-.42,1.31-.71,2.02-.31.75-.62,1.52-.64,1.94,0,.12-.11.22-.23.22Z"/>
          <g>
            <path class="cls-58" d="M225.47,249.89l5.99,1.36c-.8,4.56.73,5.04,3.36,22.6.1.67,7.91,1.45,8.94,1.48,2.09.06,5.61-.54,7.13-3.39,4.5-8.45,8.01-10.58,8.01-13.11l6.45,1c-.23,7.82-7.61,16.93-8.92,22.19-1.45,5.8-3.37,25.28-3.51,27.05l-19.05-1.82c1.3-7-4.96-17.25-7.06-28.12-2.54-13.16-2.88-26.53-1.34-29.25Z"/>
            <g class="cls-10">
              <path class="cls-23" d="M250.3,272.84c-3.12,7.34-16.78,6.19-15.59.27,1.57-7.86,9.1-9.96,9.1-9.96,0,0,8.59,4.76,6.49,9.69Z"/>
              <path class="cls-32" d="M257.29,282.26c-.09,0-.18-.06-.21-.15-.03-.1-3.53-10.15-7.64-9.38-.12.02-.24-.06-.26-.18-.02-.12.06-.24.18-.26,4.5-.84,8.01,9.25,8.15,9.68.04.12-.02.25-.14.29-.02,0-.05.01-.07.01Z"/>
              <path class="cls-32" d="M225.83,278.08s-.02,0-.04,0c-.12-.02-.21-.14-.19-.26.75-4.67,4.02-5.99,6.82-5.68,1.74.19,3.12.97,3.07,1.73,0,.13-.12.22-.24.21-.13,0-.22-.12-.21-.24.02-.33-.98-1.06-2.67-1.25-1.26-.14-5.45-.17-6.33,5.3-.02.11-.11.19-.22.19Z"/>
              <path class="cls-23" d="M231.55,305.79s18.33,1.46,24.26-20.71c3.59-13.4,5.29,26.22,5.29,26.22l-24.65,10.01-4.9-15.52Z"/>
              <path class="cls-32" d="M251.79,309.2s-.02,0-.02,0c-.12-.01-.21-.13-.2-.25.1-.91.15-2.51.21-4.53.22-7.32.59-19.58,4-25.66.5-.88,1.09-1.88,1.73-2.93,3.09-5.13,7.31-12.16,6.69-17.81-.01-.12.08-.24.2-.25.13-.01.24.08.25.2.64,5.8-3.63,12.9-6.75,18.09-.63,1.05-1.23,2.04-1.72,2.92-3.36,5.98-3.72,18.17-3.94,25.45-.06,2.03-.11,3.63-.21,4.56-.01.12-.11.2-.23.2Z"/>
            </g>
          </g>
          <g>
            <g>
              <path class="cls-40" d="M235.57,270.41c.4,1.78.39,2.95-.17,3.86-.52.83.69,1.66,2.56,1.91,4.77.64,6.58-.86,6.58-.86-.88-.18-2.29-.46-2.39-2.54-.03-.61-.22-2.65-.22-2.65l-2.77-3.38-3.59,3.67Z"/>
              <g class="cls-2">
                <path class="cls-34" d="M241.22,268.55l-1.21.96s.25,2.27,2.94,3.19c2.19.75-.03-3.61-.03-3.61l-1.7-.54Z"/>
              </g>
            </g>
            <g>
              <g>
                <g>
                  <path id="SVGID-29" data-name="SVGID" class="cls-40" d="M236.01,257.03c-5.72,5.37,3.47,10.96,3.47,10.96,0,0,.63,5.35,6.56,2.95,1.37-.55.21-4.75-.06-5.22.46-.23.97-1.16.93-1.37-.09-.51-1.98-2.25-2.16-2.64-.37-.83.1-3.58-1.95-4.38-2.05-.8-6.47-.61-6.8-.3Z"/>
                  <g class="cls-41">
                    <path class="cls-18" d="M247.94,263.17c1.98,1.9,3.12,3.92,2.54,4.52-.58.6-2.65-.45-4.63-2.34-1.98-1.9-3.12-3.92-2.54-4.52.58-.6,2.65.45,4.63,2.34Z"/>
                    <path class="cls-34" d="M245.67,267.3c-.21,0-.44-.03-.7-.1-.12-.03-.2-.15-.17-.28.03-.12.15-.2.28-.17.56.14.93.1,1.24-.12.1-.07.24-.05.32.05.07.1.05.24-.05.32-.27.2-.56.29-.92.29Z"/>
                  </g>
                </g>
                <path class="cls-34" d="M244.02,262.69c.11.26,0,.56-.26.67-.26.11-.56,0-.67-.26-.11-.26,0-.56.26-.67.26-.11.56,0,.67.26Z"/>
              </g>
              <path class="cls-34" d="M242.6,259.58c2.33-.21,3.53-3.56,2.35-6.08-.9-1.93-2.7-2.38-4.68-1.84-2.02.56-2.32,2.25-3.56,2.94-6.66,3.73-7.7,5.64-6.38,9.92.95,3.08,3.67,4.7,5.34,6.59,0,0,2.55-.35,3.33-3.12-1.7-2.03,1.16-3.16.91-3.72-.8-1.8-.99-4.38,2.69-4.7Z"/>
              <path class="cls-34" d="M242.09,259.56c-1.78,0-3.6-.74-3.72-.79-.12-.05-.17-.18-.12-.3.05-.12.18-.17.3-.12.04.02,4.16,1.7,5.83-.02,1.68-1.72,1.96-4.24.68-5.99-.07-.1-.05-.24.05-.32.1-.07.24-.05.32.05,1.42,1.94,1.11,4.7-.72,6.58-.67.69-1.64.91-2.62.91Z"/>
              <g>
                <path class="cls-40" d="M237.46,267.71c.82.6,1.97.41,2.56-.41.6-.82.41-1.97-.41-2.56-.82-.6-1.97-.41-2.56.41-.6.82-.41,1.97.41,2.56Z"/>
                <path class="cls-34" d="M237.98,266.49s-.05,0-.08-.01c-.12-.04-.18-.17-.13-.29.12-.32.34-.55.63-.66.34-.13.77-.1,1.13.09.11.06.15.2.1.31-.06.11-.2.15-.31.1-.24-.12-.53-.15-.75-.07-.17.07-.3.2-.37.4-.03.09-.12.15-.21.15Z"/>
              </g>
            </g>
            <path class="cls-34" d="M229,261.48c-.72,0-1.42-.35-1.84-.78-.09-.09-.08-.23,0-.32s.23-.08.32,0c.44.47,1.29.79,1.99.57-.01,0-.03-.02-.04-.03-.26-.19-.7-.51-.9-1.09-.04-.12.02-.25.14-.29.12-.04.25.02.29.14.15.44.49.69.74.87.2.14.37.27.34.47-.03.2-.23.28-.31.31-.24.1-.49.14-.74.14ZM229.62,261.06h0,0Z"/>
          </g>
        </g>
      </g>
    </g>
  </g>
</svg>