<?xml version="1.0" encoding="UTF-8"?>
<svg xmlns="http://www.w3.org/2000/svg" xmlns:xlink="http://www.w3.org/1999/xlink" viewBox="0 0 700 400">
  <defs>
    <style>
      .cls-1 {
        fill: #e3ecf3;
      }

      .cls-2 {
        clip-path: url(#clippath-21);
      }

      .cls-3 {
        fill: #b7cedf;
      }

      .cls-4 {
        clip-path: url(#clippath-6);
      }

      .cls-5 {
        clip-path: url(#clippath-7);
      }

      .cls-6 {
        clip-path: url(#clippath-17);
      }

      .cls-7 {
        clip-path: url(#clippath-15);
      }

      .cls-8 {
        clip-path: url(#clippath-18);
      }

      .cls-9 {
        clip-path: url(#clippath-4);
      }

      .cls-10 {
        fill: #fedba9;
      }

      .cls-11 {
        clip-path: url(#clippath-22);
      }

      .cls-12 {
        fill: #266ead;
      }

      .cls-13 {
        fill: url(#_Áåçûìÿííûé_ãðàäèåíò_2);
      }

      .cls-13, .cls-14, .cls-15, .cls-16, .cls-17, .cls-18, .cls-19, .cls-20, .cls-21 {
        mix-blend-mode: multiply;
      }

      .cls-13, .cls-14, .cls-16, .cls-17, .cls-18, .cls-21 {
        opacity: .5;
      }

      .cls-22 {
        fill: #5990c0;
      }

      .cls-14 {
        fill: url(#_Áåçûìÿííûé_ãðàäèåíò_2-2);
      }

      .cls-23 {
        clip-path: url(#clippath-9);
      }

      .cls-24 {
        clip-path: url(#clippath-10);
      }

      .cls-25 {
        fill: #d7e4ed;
      }

      .cls-26 {
        fill: #fff;
      }

      .cls-15 {
        opacity: .7;
      }

      .cls-27 {
        fill: #001e38;
      }

      .cls-16, .cls-28 {
        fill: #0557a0;
      }

      .cls-29 {
        fill: #f9fbfc;
      }

      .cls-30 {
        fill: #f1f5f9;
      }

      .cls-31 {
        fill: #00549e;
      }

      .cls-32 {
        clip-path: url(#clippath-11);
      }

      .cls-33 {
        fill: none;
      }

      .cls-34, .cls-20 {
        fill: #aa7e55;
      }

      .cls-35 {
        clip-path: url(#clippath-1);
      }

      .cls-36 {
        isolation: isolate;
      }

      .cls-37 {
        clip-path: url(#clippath-5);
      }

      .cls-38 {
        clip-path: url(#clippath-20);
      }

      .cls-39 {
        clip-path: url(#clippath-8);
      }

      .cls-40 {
        fill: #fee4bf;
      }

      .cls-41 {
        clip-path: url(#clippath-3);
      }

      .cls-42, .cls-17 {
        fill: #ec3c53;
      }

      .cls-43 {
        clip-path: url(#clippath-12);
      }

      .cls-44 {
        clip-path: url(#clippath-14);
      }

      .cls-45, .cls-18, .cls-19 {
        fill: #fdd292;
      }

      .cls-46 {
        clip-path: url(#clippath-19);
      }

      .cls-47 {
        clip-path: url(#clippath-16);
      }

      .cls-48 {
        clip-path: url(#clippath-2);
      }

      .cls-49 {
        fill: #b9cfe0;
      }

      .cls-50 {
        clip-path: url(#clippath-13);
      }

      .cls-51 {
        clip-path: url(#clippath);
      }
    </style>
    <clipPath id="clippath">
      <path id="SVGID" class="cls-33" d="M234.84,316.92c31.78,2.29,29.16,71.16,29.16,71.16l-1.67.04c-.95-6.76-4.96-31.59-28.83-41.75-22.44-9.55-12.35-30.44,1.35-29.45Z"/>
    </clipPath>
    <clipPath id="clippath-1">
      <path class="cls-49" d="M268.04,388.7s-32.72-51.47-41.91-33.23c-9.68,19.21,30.65,17.48,41.91,33.23Z"/>
    </clipPath>
    <clipPath id="clippath-2">
      <rect id="SVGID-2" data-name="SVGID" class="cls-33" x="267.35" y="59.57" width="174.87" height="329.51" rx="11.99" ry="11.99"/>
    </clipPath>
    <clipPath id="clippath-3">
      <rect id="SVGID-3" data-name="SVGID" class="cls-33" x="473.28" y="389.94" width="42.9" height="9.97"/>
    </clipPath>
    <clipPath id="clippath-4">
      <rect id="SVGID-4" data-name="SVGID" class="cls-33" x="467.26" y="379.97" width="42.9" height="9.97"/>
    </clipPath>
    <clipPath id="clippath-5">
      <rect id="SVGID-5" data-name="SVGID" class="cls-33" x="476.23" y="370" width="42.9" height="9.97"/>
    </clipPath>
    <clipPath id="clippath-6">
      <rect id="SVGID-6" data-name="SVGID" class="cls-33" x="481.95" y="360.02" width="42.9" height="9.97"/>
    </clipPath>
    <clipPath id="clippath-7">
      <rect id="SVGID-7" data-name="SVGID" class="cls-33" x="456.84" y="350.04" width="42.9" height="9.97"/>
    </clipPath>
    <clipPath id="clippath-8">
      <rect id="SVGID-8" data-name="SVGID" class="cls-33" x="454.65" y="340.07" width="42.9" height="9.97"/>
    </clipPath>
    <clipPath id="clippath-9">
      <rect id="SVGID-9" data-name="SVGID" class="cls-33" x="462" y="330.1" width="42.9" height="9.97"/>
    </clipPath>
    <clipPath id="clippath-10">
      <path class="cls-34" d="M219.64,276.11s1.59-2.14-2.08-13.68c-.94-2.95-6.57-15.72-6.57-15.72,0,0,.14-5.4-1.17-5.95-.42-.18-1.59-.59-2.04-.63-1.73-.15-3.34,1.94-4.03,3.36,0,0-.65,1.75.53,2.44l1.83-.03,7.34,27.53,6.2,2.69Z"/>
    </clipPath>
    <clipPath id="clippath-11">
      <path class="cls-45" d="M185.89,280.82c-2.96,4.37,5.74,11.94,5.74,11.94,0,0,20.8-6,28.02-16.65l-6.2-2.69c-4.8.92-24.65,3.1-27.56,7.4Z"/>
    </clipPath>
    <clipPath id="clippath-12">
      <path class="cls-45" d="M174.64,285.24c-2.63,2.63,4.52,10.11,8.32,19.48,2.56,6.31,1.4,10.06,1.4,10.06h18.7c.37-4.38,2.11-15.14,1.16-22.27-.99-7.45-8.51-16.14-12.34-14.85l-2.75.89c2.67,1.41,1.37,3.45-7.66,3.77-3.43.12-6.84,2.93-6.84,2.93Z"/>
    </clipPath>
    <clipPath id="clippath-13">
      <path class="cls-34" d="M157.27,302.32c-1.65,3.59-2.36,24.58-1.46,29.45.23,1.27.52,3.44,3.76,2.91,3.74-.61,3.33-3.91,2.97-4.26-.42-.41.08,1.89-1.12.61-.63-.67.76-.86.45-1.52-.28-.61-2.31-.53-2.31-.53l4.81-24.12-7.11-2.54Z"/>
    </clipPath>
    <clipPath id="clippath-14">
      <path class="cls-45" d="M179.43,282.67c-10.85,3.14-21.34,15.56-22.16,19.64l7.11,2.54s3.68-1.69,9.23-4.31c3.72-1.75,7.1-2.76,9.1-3.76,5.6-2.81,3.25-16-3.28-14.11Z"/>
    </clipPath>
    <clipPath id="clippath-15">
      <path class="cls-42" d="M228.17,394.19c1.08,1.08,7.4,1.94,8.61,3.86.69,1.09.38,1.86.38,1.86h-11.89c-.97,0-1.77-.77-1.81-1.74l-.24-5.82h4.57c.05.99.17,1.63.38,1.84Z"/>
    </clipPath>
    <clipPath id="clippath-16">
      <path class="cls-34" d="M228.08,384.78c-.25,3.23-.37,5.9-.29,7.57h-4.46l-.26-7.42,5.01-.16Z"/>
    </clipPath>
    <clipPath id="clippath-17">
      <path class="cls-31" d="M222.89,384.46c-1.33-9.25-2.91-18.86-2.91-24.56,0-7.87,2.74-10.67,2.74-10.67-2.33-2.33-34.38-11.65-34.38-11.65l.85-14.52,12.35-2.3s31.15,17.97,31.15,25.89c0,5.55-3.64,25.56-4.6,37.88l-5.2-.07Z"/>
    </clipPath>
    <clipPath id="clippath-18">
      <path class="cls-34" d="M152.27,387.67l2.83,3.57c-3.13,1.9-5.36,3.28-6.63,4.18l-3.45-1.53c2.06-1.44,4.92-4.24,7.26-6.21Z"/>
    </clipPath>
    <clipPath id="clippath-19">
      <path class="cls-42" d="M141.47,397.79c.26-1.47,2-3.18,3.9-4.66l3.36,2.33c-.64.46.03.7.13.72,1.04.26,3.79.78,4.92,1.76.82.71.66,1.97.66,1.97h-11.66c-1.05,0-1.5-1.09-1.31-2.12Z"/>
    </clipPath>
    <clipPath id="clippath-20">
      <path id="SVGID-11" data-name="SVGID" class="cls-34" d="M173.23,259.07c-4.88,6.75-.11,13.78,5.18,14.75,5.3.97,7.98-1.43,8.71-2.42.91-1.24-2.03-5.05-2-5.19s1.09-1.49.96-1.68c-.2-.28-3.44-1.58-3.7-1.96-.55-.8-2.59-3.6-4.88-4.02-2.29-.42-3.98.13-4.27.53Z"/>
    </clipPath>
    <radialGradient id="_Áåçûìÿííûé_ãðàäèåíò_2" data-name="Áåçûìÿííûé ãðàäèåíò 2" cx="-2787.85" cy="680.53" fx="-2787.85" fy="680.53" r="1.74" gradientTransform="translate(424.61 -3104.21) rotate(-51.49) scale(1 2.81) skewX(.02)" gradientUnits="userSpaceOnUse">
      <stop offset="0" stop-color="#f48f9d"/>
      <stop offset=".24" stop-color="#f8b8c1"/>
      <stop offset=".5" stop-color="#fbdee2"/>
      <stop offset=".71" stop-color="#fef6f7"/>
      <stop offset=".85" stop-color="#fff"/>
    </radialGradient>
    <clipPath id="clippath-21">
      <path id="SVGID-13" data-name="SVGID" class="cls-34" d="M458.69,278.55s1.97.51,3.43.42c1.94-.13,3.63-1.67,5.98-4.5l-3.57-1.76c-3.12,4.07-5.84,5.84-5.84,5.84Z"/>
    </clipPath>
    <clipPath id="clippath-22">
      <path id="SVGID-15" data-name="SVGID" class="cls-34" d="M467.35,201.38c2.98-2.27,11.12,4.57,10.34,10.34-.78,5.77-2.75,6.73-2.75,6.73-1.32,1-4.46-2.84-4.61-2.86-.15-.02-1.07.52-1.22.32-.22-.29-.95-3.57-1.25-3.96-.63-.83-2.83-3.87-2.49-6.36.34-2.5,1.55-3.88,1.97-4.2Z"/>
    </clipPath>
    <radialGradient id="_Áåçûìÿííûé_ãðàäèåíò_2-2" data-name="Áåçûìÿííûé ãðàäèåíò 2" cx="-7989.78" cy="367.36" fx="-7989.78" fy="367.36" r="1.77" gradientTransform="translate(-7200.18 2313.4) rotate(157.25) scale(.99 -2.81)" xlink:href="#_Áåçûìÿííûé_ãðàäèåíò_2"/>
  </defs>
  <g class="cls-36">
    <g id="_Ñëîé_1" data-name="Ñëîé 1">
      <g>
        <path class="cls-1" d="M495.79,160.12c-28.97-54.77-81.73-76.87-130.39-79.19-108.31-5.16-181.41,41.92-181.41,139.24,0,115.16,90.78,139.08,203.4,139.08,96.18,0,170.44-81.83,108.4-199.12Z"/>
        <g>
          <g>
            <g class="cls-51">
              <path class="cls-22" d="M264.26,390.32s-.02,0-.03,0c-.16.02-.31-.11-.32-.27-3.35-35.99-18.99-60.06-46.48-71.53-.15-.06-.22-.24-.16-.39.06-.15.24-.22.39-.16,14.68,6.13,26.16,16.03,34.1,29.43,6.9,11.64,11.19,25.97,12.74,42.59.01.15-.09.29-.24.32Z"/>
              <path class="cls-22" d="M234.92,337.71c-3.55.71-8.39.74-14.76.12-.16-.02-.28-.16-.27-.33.02-.16.16-.28.33-.27,11.73,1.14,18.13.1,20.75-3.38,2.35-3.13,1.86-8.39-1.59-17.07-.06-.15.01-.33.17-.39.15-.06.33.01.39.17,3.54,8.89,4.01,14.33,1.51,17.65-1.29,1.71-3.41,2.87-6.52,3.49Z"/>
              <path class="cls-22" d="M246.78,348.78c-3.37.68-7.86.28-13.62-.23-1.01-.09-2.06-.18-3.15-.27-.16-.01-.29-.16-.27-.32.01-.16.16-.29.32-.27,1.09.09,2.14.18,3.15.28,8.74.78,14.51,1.29,17.7-1.84,2.62-2.57,3.5-7.77,2.87-16.87-.01-.16.11-.31.28-.32.16-.01.31.11.32.28.65,9.42-.26,14.61-3.05,17.34-1.2,1.17-2.7,1.87-4.55,2.24Z"/>
              <path class="cls-22" d="M257.31,362.28c-3.87.78-8.45-1.45-10.14-2.27-.15-.07-.21-.25-.14-.4.07-.15.25-.21.4-.14,1.92.93,7.77,3.78,11.61,1.53,2.31-1.35,3.62-4.35,3.89-8.91,0-.16.15-.29.32-.28.16,0,.29.15.28.32-.28,4.77-1.69,7.93-4.18,9.39-.64.37-1.33.62-2.04.76Z"/>
            </g>
            <path class="cls-22" d="M264.06,388.37s-.03,0-.05,0l-1.67.04c-.15,0-.28-.11-.3-.26-2.82-20.11-13-34.85-28.65-41.51-5.35-2.28-9.18-5.3-11.38-8.99-1.91-3.2-2.47-6.73-1.63-10.22,1.61-6.65,7.84-11.3,14.49-10.82,7.35.53,13.47,4.64,18.2,12.23,3.76,6.03,6.64,14.26,8.57,24.46,3.29,17.34,2.67,34.62,2.67,34.79,0,.14-.11.25-.24.28ZM262.58,387.81l1.12-.03c.06-2.3.38-18.32-2.67-34.38-1.92-10.12-4.78-18.28-8.49-24.25-4.62-7.41-10.58-11.43-17.73-11.94-6.37-.46-12.33,4-13.87,10.37-1.8,7.45,2.93,14.37,12.66,18.51,10.22,4.35,18.01,11.85,23.16,22.29,4.18,8.48,5.4,16.48,5.81,19.43Z"/>
          </g>
          <g>
            <path class="cls-49" d="M268.04,388.7s-32.72-51.47-41.91-33.23c-9.68,19.21,30.65,17.48,41.91,33.23Z"/>
            <g class="cls-35">
              <g>
                <path class="cls-26" d="M270.56,393.01c-.12.02-.25-.03-.31-.14-9.06-15.14-21.31-24.76-30-30.15-9.41-5.85-16.76-8.14-16.83-8.16-.16-.05-.25-.22-.2-.37.05-.16.22-.25.37-.2.07.02,7.5,2.34,16.97,8.22,8.74,5.43,21.08,15.11,30.2,30.35.08.14.04.32-.1.41-.03.02-.06.03-.09.04Z"/>
                <path class="cls-26" d="M225.97,367.88c-.7.14-1.43.28-2.19.4-.16.03-.32-.08-.34-.25-.03-.16.08-.32.25-.34,8.04-1.34,12.84-3.56,14.27-6.6,1.3-2.75-.4-5.71-1.53-7.67-.25-.44-.47-.81-.63-1.15-.07-.15-.01-.33.14-.4.15-.07.33-.01.4.14.16.32.37.69.61,1.11,1.19,2.06,2.99,5.18,1.55,8.22-1.41,2.97-5.51,5.12-12.52,6.53Z"/>
                <path class="cls-26" d="M239.08,372.3c-1.49.3-3.16.52-5,.65-.16.01-.31-.11-.32-.28-.01-.16.11-.31.28-.32,7.53-.54,12.04-2.48,13.41-5.76,1.85-4.43-2.77-9.92-2.82-9.98-.11-.13-.09-.31.03-.42.13-.11.31-.09.42.03.2.24,4.91,5.82,2.92,10.59-1.12,2.68-4.11,4.51-8.92,5.48Z"/>
              </g>
            </g>
          </g>
        </g>
        <g>
          <g>
            <rect class="cls-27" x="257.79" y="50" width="193.97" height="349.74" rx="25.74" ry="25.74"/>
            <path class="cls-26" d="M437.17,57.86c3.73,0,6.76,3.03,6.76,6.76v319.32c0,3.73-3.03,6.76-6.76,6.76h-164.77c-3.73,0-6.76-3.03-6.76-6.76V64.62c0-3.73,3.03-6.76,6.76-6.76h164.77ZM437.17,57.37h-164.77c-4.01,0-7.25,3.25-7.25,7.25v319.32c0,4.01,3.25,7.25,7.25,7.25h164.77c4.01,0,7.25-3.25,7.25-7.25V64.62c0-4.01-3.25-7.25-7.25-7.25h0Z"/>
            <rect class="cls-29" x="267.35" y="59.76" width="174.87" height="329.06" rx="11.98" ry="11.98"/>
            <g class="cls-48">
              <g>
                <polygon class="cls-25" points="427.82 113.01 427.82 337.61 278.78 337.61 278.78 96.42 409.51 96.42 427.82 113.01"/>
                <polygon class="cls-26" points="430.38 111.64 430.38 335.05 281.34 335.05 281.34 93.86 410.23 93.86 430.38 111.64"/>
                <polygon class="cls-25" points="427.26 114.99 407.54 114.99 407.54 96.98 410.36 96.98 410.36 112.16 427.26 112.16 427.26 114.99"/>
                <g>
                  <g>
                    <path class="cls-3" d="M391.08,111.45h-70.48c-1.56,0-2.82-1.26-2.82-2.82s1.26-2.82,2.82-2.82h70.48c1.56,0,2.82,1.26,2.82,2.82s-1.26,2.82-2.82,2.82Z"/>
                    <path class="cls-3" d="M319.96,123.41h-25.84c-.78,0-1.41-.63-1.41-1.41s.63-1.41,1.41-1.41h25.84c.78,0,1.41.63,1.41,1.41s-.63,1.41-1.41,1.41Z"/>
                    <path class="cls-3" d="M416.8,134.31h-122.68c-.23,0-.42-.19-.42-.42s.19-.42.42-.42h122.68c.23,0,.42.19.42.42s-.19.42-.42.42Z"/>
                    <path class="cls-3" d="M368.91,144.65h-74.79c-.23,0-.42-.19-.42-.42s.19-.42.42-.42h74.79c.23,0,.42.19.42.42s-.19.42-.42.42Z"/>
                    <path class="cls-3" d="M368.91,154.99h-74.79c-.23,0-.42-.19-.42-.42s.19-.42.42-.42h74.79c.23,0,.42.19.42.42s-.19.42-.42.42Z"/>
                    <path class="cls-3" d="M368.91,165.32h-74.79c-.23,0-.42-.19-.42-.42s.19-.42.42-.42h74.79c.23,0,.42.19.42.42s-.19.42-.42.42Z"/>
                    <path class="cls-3" d="M368.91,175.66h-74.79c-.23,0-.42-.19-.42-.42s.19-.42.42-.42h74.79c.23,0,.42.19.42.42s-.19.42-.42.42Z"/>
                    <path class="cls-3" d="M416.8,226.5h-122.68c-.23,0-.42.19-.42.42s.19.42.42.42h122.68c.23,0,.42-.19.42-.42s-.19-.42-.42-.42Z"/>
                    <path class="cls-3" d="M416.8,216.16h-71.49c-.23,0-.42.19-.42.42s.19.42.42.42h71.49c.23,0,.42-.19.42-.42s-.19-.42-.42-.42Z"/>
                    <path class="cls-3" d="M416.8,205.82h-71.49c-.23,0-.42.19-.42.42s.19.42.42.42h71.49c.23,0,.42-.19.42-.42s-.19-.42-.42-.42Z"/>
                    <path class="cls-3" d="M416.8,195.49h-71.64c-.23,0-.42.19-.42.42s.19.42.42.42h71.64c.23,0,.42-.19.42-.42s-.19-.42-.42-.42Z"/>
                    <path class="cls-3" d="M416.8,185.15h-71.64c-.23,0-.42.19-.42.42s.19.42.42.42h71.64c.23,0,.42-.19.42-.42s-.19-.42-.42-.42Z"/>
                    <g>
                      <path class="cls-3" d="M369.83,237.68h-75.72c-.23,0-.42-.19-.42-.42s.19-.42.42-.42h75.72c.23,0,.42.19.42.42s-.19.42-.42.42Z"/>
                      <path class="cls-3" d="M369.83,248.02h-75.72c-.23,0-.42-.19-.42-.42s.19-.42.42-.42h75.72c.23,0,.42.19.42.42s-.19.42-.42.42Z"/>
                      <path class="cls-3" d="M369.83,258.35h-75.72c-.23,0-.42-.19-.42-.42s.19-.42.42-.42h75.72c.23,0,.42.19.42.42s-.19.42-.42.42Z"/>
                      <path class="cls-3" d="M369.83,268.69h-75.72c-.23,0-.42-.19-.42-.42s.19-.42.42-.42h75.72c.23,0,.42.19.42.42s-.19.42-.42.42Z"/>
                    </g>
                    <path class="cls-3" d="M416.8,123.41h-12.4c-.78,0-1.41-.63-1.41-1.41s.63-1.41,1.41-1.41h12.4c.78,0,1.41.63,1.41,1.41s-.63,1.41-1.41,1.41Z"/>
                    <path class="cls-3" d="M416.8,312.74h-59.04c-.23,0-.42-.19-.42-.42s.19-.42.42-.42h59.04c.23,0,.42.19.42.42s-.19.42-.42.42Z"/>
                  </g>
                  <g>
                    <rect class="cls-30" x="377.2" y="237.04" width="36.78" height="33.86"/>
                    <rect class="cls-42" x="380.02" y="234.22" width="36.78" height="33.86"/>
                    <g>
                      <polygon class="cls-26" points="392.67 252.53 398.42 247.36 404.17 252.53 392.67 252.53"/>
                      <path class="cls-26" d="M389.09,260.74c-.24,0-.44-.2-.44-.44v-9.86c0-.24.2-.44.44-.44s.44.2.44.44v9.86c0,.24-.2.44-.44.44Z"/>
                      <path class="cls-26" d="M407.73,260.74c-.24,0-.44-.2-.44-.44v-9.86c0-.24.2-.44.44-.44s.44.2.44.44v9.86c0,.24-.2.44-.44.44Z"/>
                      <path class="cls-26" d="M410.1,252.96c-.1,0-.21-.04-.29-.11l-11.41-10.27-11.41,10.27c-.18.16-.45.15-.62-.03-.16-.18-.15-.45.03-.62l11.7-10.53c.17-.15.42-.15.58,0l11.7,10.53c.18.16.19.44.03.62-.09.1-.2.14-.32.14Z"/>
                      <path class="cls-26" d="M404.17,252.53v7.77h-11.5v-7.77h11.5ZM400.23,253.01h-3.75v7.29h3.75v-7.29Z"/>
                    </g>
                  </g>
                  <g>
                    <rect class="cls-30" x="377.2" y="145.43" width="36.78" height="33.86"/>
                    <rect class="cls-42" x="380.02" y="142.61" width="36.78" height="33.86"/>
                    <g>
                      <path class="cls-26" d="M398.58,168.42c-4.62,0-5.85-2.76-5.9-2.88-.12-.29.01-.62.3-.74.29-.12.62.01.74.3.04.08,1.03,2.19,4.86,2.19,1.57,0,3.77-1.05,3.77-3.39s-1.85-3.06-3.99-3.96c-2.2-.92-4.68-1.96-4.68-5,0-2.41,2.11-4.23,4.9-4.23s4.38,1.52,4.45,1.59c.23.21.24.57.02.8-.21.23-.57.24-.8.02-.02-.02-1.41-1.28-3.67-1.28s-3.77,1.31-3.77,3.1c0,2.29,1.85,3.06,3.99,3.96,2.2.92,4.68,1.96,4.68,5,0,2.83-2.49,4.51-4.9,4.51Z"/>
                      <path class="cls-26" d="M398.41,171.11c-.31,0-.56-.25-.56-.56v-22.01c0-.31.25-.56.56-.56s.56.25.56.56v22.01c0,.31-.25.56-.56.56Z"/>
                    </g>
                  </g>
                  <g>
                    <rect class="cls-30" x="291.02" y="187.06" width="36.78" height="33.86"/>
                    <rect class="cls-42" x="293.84" y="184.24" width="36.78" height="33.86"/>
                    <g>
                      <path class="cls-26" d="M308.09,198.63c-2.19,0-3.97-1.78-3.97-3.97s1.78-3.97,3.97-3.97,3.97,1.78,3.97,3.97-1.78,3.97-3.97,3.97ZM308.09,191.82c-1.57,0-2.84,1.27-2.84,2.84s1.27,2.84,2.84,2.84,2.84-1.27,2.84-2.84-1.27-2.84-2.84-2.84Z"/>
                      <path class="cls-26" d="M316.37,211.51c-2.19,0-3.97-1.78-3.97-3.97s1.78-3.97,3.97-3.97,3.97,1.78,3.97,3.97-1.78,3.97-3.97,3.97ZM316.37,204.7c-1.57,0-2.84,1.27-2.84,2.84s1.27,2.84,2.84,2.84,2.84-1.27,2.84-2.84-1.27-2.84-2.84-2.84Z"/>
                      <path class="cls-26" d="M307.3,212.32c-.08,0-.16-.02-.23-.05-.28-.13-.41-.46-.28-.75l9.63-21.17c.13-.28.46-.41.75-.28.28.13.41.46.28.75l-9.63,21.17c-.09.21-.3.33-.51.33Z"/>
                    </g>
                  </g>
                </g>
              </g>
              <g>
                <rect class="cls-26" x="267.35" y="344.63" width="174.87" height="45.55"/>
                <rect class="cls-26" x="267.35" y="50.95" width="174.87" height="34.69" transform="translate(709.56 136.59) rotate(180)"/>
                <path class="cls-22" d="M293.8,359.88c2.83,0,5.14,2.31,5.14,5.14s-2.31,5.14-5.14,5.14-5.14-2.31-5.14-5.14,2.31-5.14,5.14-5.14h0ZM293.8,359.39c-3.11,0-5.63,2.52-5.63,5.63s2.52,5.63,5.63,5.63,5.63-2.52,5.63-5.63-2.52-5.63-5.63-5.63h0Z"/>
                <path class="cls-22" d="M334.45,359.88c2.83,0,5.14,2.31,5.14,5.14s-2.31,5.14-5.14,5.14-5.14-2.31-5.14-5.14,2.31-5.14,5.14-5.14h0ZM334.45,359.39c-3.11,0-5.63,2.52-5.63,5.63s2.52,5.63,5.63,5.63,5.63-2.52,5.63-5.63-2.52-5.63-5.63-5.63h0Z"/>
                <path class="cls-22" d="M375.11,359.88c2.83,0,5.14,2.31,5.14,5.14s-2.31,5.14-5.14,5.14-5.14-2.31-5.14-5.14,2.31-5.14,5.14-5.14h0ZM375.11,359.39c-3.11,0-5.63,2.52-5.63,5.63s2.52,5.63,5.63,5.63,5.63-2.52,5.63-5.63-2.52-5.63-5.63-5.63h0Z"/>
                <path class="cls-22" d="M415.77,359.88c2.83,0,5.14,2.31,5.14,5.14s-2.31,5.14-5.14,5.14-5.14-2.31-5.14-5.14,2.31-5.14,5.14-5.14h0ZM415.77,359.39c-3.11,0-5.63,2.52-5.63,5.63s2.52,5.63,5.63,5.63,5.63-2.52,5.63-5.63-2.52-5.63-5.63-5.63h0Z"/>
              </g>
              <g>
                <g>
                  <g>
                    <path class="cls-49" d="M306.58,68.09c-.07,0-.15-.03-.2-.1-.49-.65-.36-1.58.29-2.07.65-.49,1.58-.36,2.07.29.08.11.06.26-.05.35-.11.08-.26.06-.35-.05-.33-.43-.95-.52-1.38-.19-.43.33-.52.95-.19,1.38.08.11.06.26-.05.35-.04.03-.1.05-.15.05Z"/>
                    <path class="cls-49" d="M316.03,68.09c-.05,0-.1-.02-.15-.05-.11-.08-.13-.24-.05-.35.33-.43.24-1.05-.19-1.38-.21-.16-.47-.23-.73-.19-.26.04-.49.17-.65.38-.08.11-.24.13-.35.05-.11-.08-.13-.24-.05-.35.24-.32.58-.52.98-.57.39-.05.78.05,1.1.28.65.49.78,1.42.29,2.07-.05.06-.12.1-.2.1Z"/>
                  </g>
                  <g>
                    <path class="cls-49" d="M308.44,77.14c-.34,0-.62-.28-.62-.62s.28-.62.62-.62.62.28.62.62-.28.62-.62.62ZM308.44,76.4c-.07,0-.12.06-.12.12s.06.12.12.12.12-.06.12-.12-.06-.12-.12-.12Z"/>
                    <path class="cls-49" d="M314.17,77.14c-.34,0-.62-.28-.62-.62s.28-.62.62-.62.62.28.62.62-.28.62-.62.62ZM314.17,76.4c-.07,0-.12.06-.12.12s.06.12.12.12.12-.06.12-.12-.06-.12-.12-.12Z"/>
                  </g>
                  <path class="cls-49" d="M311.31,76.88c-2.99,0-5.42-2.43-5.42-5.42s2.43-5.42,5.42-5.42,5.42,2.43,5.42,5.42-2.43,5.42-5.42,5.42ZM311.31,66.54c-2.72,0-4.92,2.21-4.92,4.92s2.21,4.92,4.92,4.92,4.92-2.21,4.92-4.92-2.21-4.92-4.92-4.92Z"/>
                  <path class="cls-49" d="M311.31,71.71c-.14,0-.25-.11-.25-.25v-2.52c0-.14.11-.25.25-.25s.25.11.25.25v2.52c0,.14-.11.25-.25.25Z"/>
                  <path class="cls-49" d="M313.01,73.42c-.06,0-.13-.02-.17-.07l-1.71-1.71c-.1-.1-.1-.25,0-.35.1-.1.25-.1.35,0l1.71,1.71c.1.1.1.25,0,.35-.05.05-.11.07-.17.07Z"/>
                </g>
                <g>
                  <path class="cls-49" d="M392.89,77.33c-.28,0-.52-.37-.52-.8v-.83c0-.3.11-.58.3-.72.07-.06.15-.08.22-.08.22,0,.52.28.52.8v.83c0,.43-.24.8-.52.8Z"/>
                  <path class="cls-49" d="M396.01,77.33c-.28,0-.52-.37-.52-.8v-3.2c0-.3.11-.58.3-.72.07-.06.15-.08.22-.08.22,0,.52.28.52.8v3.2c0,.43-.24.8-.52.8Z"/>
                  <path class="cls-49" d="M399.13,77.33c-.28,0-.52-.37-.52-.8v-5.57c0-.3.11-.58.3-.72.07-.05.15-.08.22-.08.22,0,.52.28.52.8v5.57c0,.43-.24.8-.52.8Z"/>
                  <path class="cls-49" d="M402.24,77.33c-.28,0-.52-.37-.52-.8v-7.93c0-.3.11-.58.3-.72.07-.05.15-.08.22-.08.22,0,.52.28.52.8v7.93c0,.43-.24.8-.52.8Z"/>
                  <path class="cls-1" d="M405.36,77.33c-.28,0-.52-.37-.52-.8v-10.3c0-.3.11-.58.3-.72.07-.06.15-.08.22-.08.22,0,.52.28.52.8v10.3c0,.43-.24.8-.52.8Z"/>
                </g>
                <g>
                  <path class="cls-49" d="M429.83,77.14h-16.08c-1.67,0-3.04-1.36-3.04-3.04v-5.44c0-1.67,1.36-3.04,3.04-3.04h16.08c1.67,0,3.04,1.36,3.04,3.04v5.44c0,1.67-1.36,3.04-3.04,3.04ZM413.75,66.12c-1.4,0-2.54,1.14-2.54,2.54v5.44c0,1.4,1.14,2.54,2.54,2.54h16.08c1.4,0,2.54-1.14,2.54-2.54v-5.44c0-1.4-1.14-2.54-2.54-2.54h-16.08Z"/>
                  <path class="cls-49" d="M434.05,73.82c-.14,0-.25-.11-.25-.25v-4.15c0-.14.11-.25.25-.25s.25.11.25.25v4.15c0,.14-.11.25-.25.25Z"/>
                  <g>
                    <path class="cls-1" d="M414.54,67.83c-.86,0-1.56.7-1.56,1.56v3.98c0,.86.7,1.56,1.56,1.56h9.2v-7.1h-9.2Z"/>
                    <path class="cls-26" d="M429.04,67.83h-5.3v7.1h5.3c.86,0,1.56-.7,1.56-1.56v-3.98c0-.86-.7-1.56-1.56-1.56Z"/>
                  </g>
                </g>
                <g>
                  <path class="cls-1" d="M372.76,69.53c-.11,0-.21-.04-.29-.12l-.07-.07c-.08-.08-.12-.18-.12-.3,0-.12.05-.23.14-.31,2.23-2.12,5.15-3.29,8.21-3.29s5.92,1.15,8.14,3.23c.09.08.14.2.14.31,0,.11-.04.22-.12.3l-.07.07c-.08.08-.18.12-.29.12s-.22-.04-.31-.13c-2.05-1.92-4.71-2.97-7.5-2.97s-5.5,1.08-7.56,3.03c-.09.08-.2.13-.31.13Z"/>
                  <path class="cls-49" d="M374.66,71.42c-.11,0-.22-.04-.3-.12l-.07-.07c-.08-.08-.12-.19-.12-.3,0-.12.05-.23.14-.31,1.73-1.62,3.97-2.51,6.32-2.51s4.53.87,6.25,2.44c.09.08.14.19.14.31,0,.11-.04.22-.12.3l-.07.07c-.08.08-.19.13-.3.13-.1,0-.19-.03-.25-.1-1.55-1.43-3.55-2.22-5.64-2.22s-4.14.81-5.7,2.27c-.07.07-.17.11-.27.11Z"/>
                  <path class="cls-49" d="M376.55,73.31c-.11,0-.21-.04-.29-.12l-.07-.07c-.08-.08-.12-.19-.12-.31,0-.12.05-.23.14-.31,1.22-1.11,2.79-1.72,4.43-1.72s3.15.59,4.36,1.66c.09.08.14.19.14.31,0,.12-.04.23-.12.31l-.07.07c-.08.08-.18.12-.29.12-.1,0-.2-.04-.28-.11-1.03-.92-2.36-1.42-3.74-1.42s-2.76.52-3.8,1.48c-.08.07-.18.11-.28.11Z"/>
                  <path class="cls-49" d="M378.46,75.22c-.11,0-.22-.05-.31-.13l-.08-.08c-.08-.08-.13-.2-.13-.32,0-.11.05-.21.13-.28.71-.61,1.62-.95,2.55-.95s1.78.32,2.48.89c.08.07.13.16.13.27,0,.12-.04.24-.13.33l-.08.08c-.08.08-.17.12-.28.12s-.21-.04-.3-.11c-.53-.42-1.16-.64-1.82-.64-.71,0-1.4.26-1.94.73-.06.05-.14.08-.23.08Z"/>
                  <path class="cls-49" d="M380.93,76.99h-.68c-.21,0-.38-.17-.38-.38h0c0-.21.17-.38.38-.38h.68c.21,0,.38.17.38.38h0c0,.21-.17.38-.38.38Z"/>
                </g>
                <g>
                  <path class="cls-45" d="M300.01,71.02c0,1.2-.41,2.3-1.1,3.18-.35-1.75-1.9-3.07-3.75-3.07-.34,0-.67.06-.99.14-.61-1.56-1.76-2.84-3.24-3.6.94-1.1,2.35-1.8,3.91-1.8,2.85,0,5.16,2.31,5.16,5.15Z"/>
                  <path class="cls-49" d="M298.44,77.14h-22.86c-.08,0-.16-.04-.21-.11-.51-.78-.78-1.68-.78-2.61,0-2.63,2.13-4.77,4.76-4.77.79,0,1.56.2,2.25.57,1.27-2.21,3.61-3.57,6.17-3.57,1.14,0,2.28.28,3.28.81,1.47.76,2.63,2.01,3.27,3.53.31-.07.57-.1.84-.1,1.93,0,3.61,1.37,3.99,3.26.05.27.08.54.08.81,0,.72-.19,1.41-.58,2.06-.04.08-.12.12-.21.12ZM275.71,76.65h22.58c.29-.54.44-1.11.44-1.69,0-.24-.02-.47-.07-.71-.33-1.66-1.81-2.87-3.51-2.87-.28,0-.56.04-.92.14-.12.03-.25-.03-.29-.15-.58-1.5-1.69-2.73-3.12-3.47,0,0,0,0,0,0-.93-.49-1.99-.75-3.05-.75-2.46,0-4.7,1.35-5.86,3.53-.03.06-.09.1-.15.12-.07.02-.14,0-.19-.03-.66-.41-1.43-.62-2.21-.62-2.35,0-4.27,1.92-4.27,4.27,0,.79.22,1.56.63,2.23Z"/>
                </g>
              </g>
            </g>
          </g>
          <g>
            <rect class="cls-3" x="280.61" y="341.89" width="45.12" height="8.67" rx="2.83" ry="2.83" transform="translate(-141.83 463.55) rotate(-63.56)"/>
            <rect class="cls-3" x="339.86" y="325.91" width="8.67" height="26.19" rx="2.14" ry="2.14" transform="translate(-122.93 215.75) rotate(-29.78)"/>
            <path class="cls-28" d="M344.47,333.67h0c-2.95-2.08-7,.07-6.94,3.68h0c.08,4.67-6.2,6.24-8.33,2.08h0c-1.64-3.21-6.24-3.19-7.86.03h0c-2.1,4.17-8.39,2.64-8.34-2.03h0c.03-3.61-4.04-5.72-6.97-3.63h0c-3.8,2.71-8.65-1.56-6.45-5.67h0c1.71-3.18-.92-6.95-4.49-6.45h0c-4.62.64-6.94-5.4-3.07-8.02h0c2.99-2.02,2.42-6.57-.97-7.8h0c-4.39-1.58-3.63-8.01,1-8.53h0c3.58-.4,5.2-4.7,2.76-7.36h0c-3.15-3.44.51-8.78,4.85-7.08h0c3.36,1.31,6.78-1.75,5.86-5.23h0c-1.19-4.51,4.53-7.54,7.59-4.02h0c2.36,2.72,6.82,1.61,7.62-1.91h0c1.04-4.55,7.51-4.57,8.58-.03h0c.83,3.51,5.29,4.59,7.64,1.85h0c3.04-3.54,8.78-.56,7.62,3.96h0c-.9,3.49,2.55,6.52,5.9,5.19h0c4.33-1.73,8.03,3.59,4.9,7.05h0c-2.42,2.68-.77,6.96,2.81,7.34h0c4.64.49,5.44,6.91,1.06,8.52h0c-3.38,1.25-3.92,5.81-.92,7.8h0c3.88,2.59,1.61,8.64-3.02,8.04h0c-3.57-.47-6.17,3.32-4.44,6.48h0c2.24,4.1-2.59,8.4-6.41,5.72Z"/>
            <circle class="cls-26" cx="325.23" cy="305.47" r="29.17"/>
            <path class="cls-27" d="M325.23,331.93c-14.59,0-26.46-11.87-26.46-26.45s11.87-26.46,26.46-26.46,26.45,11.87,26.45,26.46-11.87,26.45-26.45,26.45ZM325.23,280.31c-13.87,0-25.16,11.29-25.16,25.16s11.29,25.16,25.16,25.16,25.16-11.29,25.16-25.16-11.29-25.16-25.16-25.16Z"/>
            <g>
              <path class="cls-27" d="M326.51,294.39c0,.71-.58,1.28-1.28,1.28s-1.28-.58-1.28-1.28.58-1.28,1.28-1.28,1.28.58,1.28,1.28Z"/>
              <path class="cls-27" d="M313.29,311.17c-.36,0-.65-.29-.65-.65v-8.98c0-.36.29-.65.65-.65s.65.29.65.65v8.98c0,.36-.29.65-.65.65Z"/>
              <path class="cls-27" d="M321.38,311.17c-.36,0-.65-.29-.65-.65v-8.98c0-.36.29-.65.65-.65s.65.29.65.65v8.98c0,.36-.29.65-.65.65Z"/>
              <path class="cls-27" d="M329.48,311.17c-.36,0-.65-.29-.65-.65v-8.98c0-.36.29-.65.65-.65s.65.29.65.65v8.98c0,.36-.29.65-.65.65Z"/>
              <path class="cls-27" d="M337.57,311.17c-.36,0-.65-.29-.65-.65v-8.98c0-.36.29-.65.65-.65s.65.29.65.65v8.98c0,.36-.29.65-.65.65Z"/>
              <path class="cls-27" d="M341.51,299.12h-32.16c-.29,0-.55-.2-.63-.48-.08-.28.05-.58.3-.73l16.08-9.28c.2-.12.45-.12.65,0l16.08,9.28c.25.15.38.45.3.73-.08.28-.33.48-.63.48ZM311.77,297.83h27.32l-13.66-7.89-13.66,7.89Z"/>
              <path class="cls-27" d="M339.27,314.54h-27.68c-.36,0-.65-.29-.65-.65s.29-.65.65-.65h27.68c.36,0,.65.29.65.65s-.29.65-.65.65Z"/>
              <path class="cls-27" d="M341.51,318.16h-32.16c-.36,0-.65-.29-.65-.65s.29-.65.65-.65h32.16c.36,0,.65.29.65.65s-.29.65-.65.65Z"/>
            </g>
          </g>
        </g>
        <g>
          <path class="cls-45" d="M513.07,223.2c-13.45-4.46-25.24-12.95-28.77-6.23-2.37,4.51,11.84,9.11,28.08,11.42.18-.76-1.09-3.45.69-5.19Z"/>
          <path class="cls-19" d="M513.07,223.2c-13.45-4.46-25.24-12.95-28.77-6.23-2.37,4.51,11.84,9.11,28.08,11.42.18-.76-1.09-3.45.69-5.19Z"/>
        </g>
        <g>
          <path class="cls-42" d="M368.57,330.7s-.06,0-.09,0c-.16-.02-.3-.11-.4-.24-.1-.13-.14-.29-.12-.45,1.08-7.5,6.36-21.05,12.16-25.22,1.23-.88,2.45-1.33,3.63-1.33.28,0,.56.03.83.08,1.09.2,1.91.72,2.43,1.54,1.38,2.19.3,6.14-.65,9.62-.62,2.26-1.39,5.08-.82,5.83.06.08.19.2.55.2,2.54,0,3.98-2.71,5.13-4.89.96-1.8,1.71-3.23,2.98-3.23,1.41,0,1.46,1.31,1.5,2.18.06,1.44.12,2.79,3.16,2.79,4.02,0,7.31-1.29,9.75-3.84,5.42-5.65,5.08-15.64,5.08-15.74-.01-.34.25-.62.59-.64,0,0,.03,0,.04,0,.32,0,.58.26.6.59.02.43.36,10.62-5.42,16.64-2.69,2.8-6.27,4.22-10.64,4.22s-4.32-2.48-4.38-3.96c-.04-1.01-.12-1.01-.27-1.01-.53,0-1.26,1.37-1.9,2.58-1.31,2.47-2.94,5.54-6.21,5.54-.66,0-1.17-.23-1.52-.68-.94-1.23-.22-3.85.61-6.89.89-3.24,1.89-6.91.8-8.65-.33-.53-.86-.86-1.62-.99-.2-.04-.4-.05-.61-.05-.92,0-1.91.37-2.92,1.1-5.46,3.93-10.63,17.29-11.66,24.41-.04.3-.3.52-.6.52Z"/>
          <path class="cls-42" d="M368.57,330.42s-.03,0-.05,0c-.18-.03-.3-.19-.27-.37,1.08-7.45,6.3-20.9,12.04-25.03,1.46-1.05,2.89-1.46,4.24-1.21,1.01.18,1.77.66,2.24,1.41,1.31,2.09.25,5.97-.68,9.4-.7,2.56-1.43,5.21-.77,6.08.16.21.41.31.77.31,2.71,0,4.19-2.8,5.39-5.04.91-1.72,1.63-3.07,2.73-3.07s1.17,1.01,1.21,1.91c.06,1.44.13,3.07,3.45,3.07,4.1,0,7.46-1.32,9.96-3.93,5.51-5.73,5.16-15.85,5.16-15.95,0-.18.13-.33.31-.34.18-.02.33.13.34.31.02.43.36,10.5-5.34,16.43-2.63,2.74-6.14,4.13-10.43,4.13-3.94,0-4.04-2.22-4.1-3.69-.05-1.08-.13-1.29-.56-1.29-.71,0-1.41,1.32-2.15,2.73-1.27,2.4-2.86,5.39-5.96,5.39-.57,0-1-.19-1.29-.57-.85-1.12-.15-3.68.66-6.64.9-3.3,1.92-7.03.76-8.88-.38-.6-.97-.97-1.81-1.12-1.18-.21-2.44.16-3.75,1.1-5.52,3.97-10.74,17.43-11.78,24.6-.02.16-.16.28-.32.28Z"/>
          <g>
            <polygon class="cls-42" points="414.32 297.97 421.35 296.91 417.47 291.33 414.32 297.97"/>
            <polygon class="cls-25" points="423.19 279.27 417.47 291.33 421.35 296.91 433.57 295.06 423.19 279.27"/>
          </g>
          <rect class="cls-22" x="417.1" y="239.98" width="137.51" height="18.89" transform="translate(-57.18 307.62) rotate(-33.29)"/>
          <rect class="cls-31" x="421.15" y="253.5" width="137.51" height="4.16" transform="translate(-59.89 310.85) rotate(-33.29)"/>
          <rect class="cls-26" x="414.06" y="240.77" width="137.51" height="8.07" transform="translate(-55.14 305.2) rotate(-33.29)"/>
        </g>
        <g>
          <g>
            <g class="cls-41">
              <rect class="cls-10" x="473.28" y="389.94" width="42.9" height="9.97"/>
              <path class="cls-40" d="M477.41,400.23c-.27,0-.49-.22-.49-.49v-9.8c0-.27.22-.49.49-.49s.49.22.49.49v9.8c0,.27-.22.49-.49.49Z"/>
              <path class="cls-40" d="M481.32,400.23c-.27,0-.49-.22-.49-.49v-9.8c0-.27.22-.49.49-.49s.49.22.49.49v9.8c0,.27-.22.49-.49.49Z"/>
              <g class="cls-15">
                <path class="cls-45" d="M507.16,400.23c-.27,0-.49-.22-.49-.49v-9.8c0-.27.22-.49.49-.49s.49.22.49.49v9.8c0,.27-.22.49-.49.49Z"/>
              </g>
              <g class="cls-15">
                <path class="cls-45" d="M511.07,400.23c-.27,0-.49-.22-.49-.49v-9.8c0-.27.22-.49.49-.49s.49.22.49.49v9.8c0,.27-.22.49-.49.49Z"/>
              </g>
            </g>
            <g class="cls-9">
              <rect class="cls-45" x="467.26" y="379.97" width="42.9" height="9.97"/>
              <g class="cls-21">
                <rect class="cls-45" x="467.26" y="379.97" width="42.9" height="9.97"/>
              </g>
              <path class="cls-40" d="M471.39,390.26c-.27,0-.49-.22-.49-.49v-9.8c0-.27.22-.49.49-.49s.49.22.49.49v9.8c0,.27-.22.49-.49.49Z"/>
              <path class="cls-40" d="M475.3,390.26c-.27,0-.49-.22-.49-.49v-9.8c0-.27.22-.49.49-.49s.49.22.49.49v9.8c0,.27-.22.49-.49.49Z"/>
              <g class="cls-15">
                <path class="cls-45" d="M502.53,390.26c-.27,0-.49-.22-.49-.49v-9.8c0-.27.22-.49.49-.49s.49.22.49.49v9.8c0,.27-.22.49-.49.49Z"/>
              </g>
              <g class="cls-15">
                <path class="cls-45" d="M506.43,390.26c-.27,0-.49-.22-.49-.49v-9.8c0-.27.22-.49.49-.49s.49.22.49.49v9.8c0,.27-.22.49-.49.49Z"/>
              </g>
            </g>
            <g class="cls-37">
              <rect class="cls-10" x="476.23" y="370" width="42.9" height="9.97"/>
              <path class="cls-40" d="M480.37,380.28c-.27,0-.49-.22-.49-.49v-9.8c0-.27.22-.49.49-.49s.49.22.49.49v9.8c0,.27-.22.49-.49.49Z"/>
              <path class="cls-40" d="M484.27,380.28c-.27,0-.49-.22-.49-.49v-9.8c0-.27.22-.49.49-.49s.49.22.49.49v9.8c0,.27-.22.49-.49.49Z"/>
              <g class="cls-15">
                <path class="cls-45" d="M509.42,380.28c-.27,0-.49-.22-.49-.49v-9.8c0-.27.22-.49.49-.49s.49.22.49.49v9.8c0,.27-.22.49-.49.49Z"/>
              </g>
              <g class="cls-15">
                <path class="cls-45" d="M513.32,380.28c-.27,0-.49-.22-.49-.49v-9.8c0-.27.22-.49.49-.49s.49.22.49.49v9.8c0,.27-.22.49-.49.49Z"/>
              </g>
            </g>
            <g class="cls-4">
              <rect class="cls-45" x="481.95" y="360.02" width="42.9" height="9.97"/>
              <g class="cls-21">
                <rect class="cls-45" x="481.95" y="360.02" width="42.9" height="9.97"/>
              </g>
              <path class="cls-40" d="M486.08,370.31c-.27,0-.49-.22-.49-.49v-9.8c0-.27.22-.49.49-.49s.49.22.49.49v9.8c0,.27-.22.49-.49.49Z"/>
              <path class="cls-40" d="M489.99,370.31c-.27,0-.49-.22-.49-.49v-9.8c0-.27.22-.49.49-.49s.49.22.49.49v9.8c0,.27-.22.49-.49.49Z"/>
              <g class="cls-15">
                <path class="cls-45" d="M516.18,370.31c-.27,0-.49-.22-.49-.49v-9.8c0-.27.22-.49.49-.49s.49.22.49.49v9.8c0,.27-.22.49-.49.49Z"/>
              </g>
              <g class="cls-15">
                <path class="cls-45" d="M520.08,370.31c-.27,0-.49-.22-.49-.49v-9.8c0-.27.22-.49.49-.49s.49.22.49.49v9.8c0,.27-.22.49-.49.49Z"/>
              </g>
            </g>
          </g>
          <g>
            <g class="cls-5">
              <rect class="cls-45" x="456.84" y="350.04" width="42.9" height="9.97"/>
              <g class="cls-21">
                <rect class="cls-45" x="456.84" y="350.04" width="42.9" height="9.97"/>
              </g>
              <path class="cls-40" d="M460.98,360.33c-.27,0-.49-.22-.49-.49v-9.8c0-.27.22-.49.49-.49s.49.22.49.49v9.8c0,.27-.22.49-.49.49Z"/>
              <path class="cls-40" d="M464.88,360.33c-.27,0-.49-.22-.49-.49v-9.8c0-.27.22-.49.49-.49s.49.22.49.49v9.8c0,.27-.22.49-.49.49Z"/>
              <g class="cls-15">
                <path class="cls-45" d="M491.76,360.33c-.27,0-.49-.22-.49-.49v-9.8c0-.27.22-.49.49-.49s.49.22.49.49v9.8c0,.27-.22.49-.49.49Z"/>
              </g>
              <g class="cls-15">
                <path class="cls-45" d="M495.67,360.33c-.27,0-.49-.22-.49-.49v-9.8c0-.27.22-.49.49-.49s.49.22.49.49v9.8c0,.27-.22.49-.49.49Z"/>
              </g>
            </g>
            <g class="cls-39">
              <rect class="cls-10" x="454.65" y="340.07" width="42.9" height="9.97"/>
              <path class="cls-40" d="M458.78,350.36c-.27,0-.49-.22-.49-.49v-9.8c0-.27.22-.49.49-.49s.49.22.49.49v9.8c0,.27-.22.49-.49.49Z"/>
              <path class="cls-40" d="M462.69,350.36c-.27,0-.49-.22-.49-.49v-9.8c0-.27.22-.49.49-.49s.49.22.49.49v9.8c0,.27-.22.49-.49.49Z"/>
              <g class="cls-15">
                <path class="cls-45" d="M489.57,350.36c-.27,0-.49-.22-.49-.49v-9.8c0-.27.22-.49.49-.49s.49.22.49.49v9.8c0,.27-.22.49-.49.49Z"/>
              </g>
              <g class="cls-15">
                <path class="cls-45" d="M493.48,350.36c-.27,0-.49-.22-.49-.49v-9.8c0-.27.22-.49.49-.49s.49.22.49.49v9.8c0,.27-.22.49-.49.49Z"/>
              </g>
            </g>
            <g class="cls-23">
              <rect class="cls-45" x="462" y="330.1" width="42.9" height="9.97"/>
              <g class="cls-15">
                <rect class="cls-45" x="462" y="330.1" width="42.9" height="9.97"/>
              </g>
              <path class="cls-40" d="M466.14,340.38c-.27,0-.49-.22-.49-.49v-9.8c0-.27.22-.49.49-.49s.49.22.49.49v9.8c0,.27-.22.49-.49.49Z"/>
              <path class="cls-40" d="M470.04,340.38c-.27,0-.49-.22-.49-.49v-9.8c0-.27.22-.49.49-.49s.49.22.49.49v9.8c0,.27-.22.49-.49.49Z"/>
              <g class="cls-15">
                <path class="cls-45" d="M496.93,340.38c-.27,0-.49-.22-.49-.49v-9.8c0-.27.22-.49.49-.49s.49.22.49.49v9.8c0,.27-.22.49-.49.49Z"/>
              </g>
              <g class="cls-15">
                <path class="cls-45" d="M500.83,340.38c-.27,0-.49-.22-.49-.49v-9.8c0-.27.22-.49.49-.49s.49.22.49.49v9.8c0,.27-.22.49-.49.49Z"/>
              </g>
            </g>
          </g>
          <g>
            <circle class="cls-45" cx="458.79" cy="377.26" r="22.65" transform="translate(-93.46 595.97) rotate(-61.04)"/>
            <circle class="cls-19" cx="458.79" cy="377.26" r="22.65" transform="translate(-93.46 595.97) rotate(-61.04)"/>
            <circle class="cls-45" cx="461.26" cy="377.26" r="22.65" transform="translate(-55.33 674.27) rotate(-69.18)"/>
            <path class="cls-26" d="M461.26,396.96c-10.86,0-19.7-8.84-19.7-19.7s8.84-19.7,19.7-19.7,19.7,8.84,19.7,19.7-8.84,19.7-19.7,19.7ZM461.26,358.54c-10.32,0-18.72,8.4-18.72,18.72s8.4,18.72,18.72,18.72,18.72-8.4,18.72-18.72-8.4-18.72-18.72-18.72Z"/>
            <g>
              <path class="cls-26" d="M461.83,367c-3.14,0-5.18,1.54-5.18,3.98,0,7.12,11.64,3.44,11.58,12.06,0,3.61-2.75,5.95-6.88,5.95-2.63,0-5.32-1.37-7.05-3.38l.62-1.24c1.61,1.97,4.13,3.17,6.46,3.17,3.4,0,5.58-1.74,5.58-4.48.06-7.32-11.58-3.58-11.58-12,0-3.38,2.61-5.55,6.51-5.55,2.01,0,4.19.77,5.66,1.9l-.54,1.27c-1.47-1.14-3.48-1.7-5.18-1.7Z"/>
              <path class="cls-26" d="M461.26,392.55c-.36,0-.66-.29-.66-.66v-29.5c0-.36.29-.66.66-.66s.66.29.66.66v29.5c0,.36-.29.66-.66.66Z"/>
            </g>
          </g>
        </g>
        <g>
          <g>
            <path class="cls-27" d="M454.42,89.8h-2.31c-.27,0-.49-.22-.49-.49v-24.81c0-.27.22-.49.49-.49h2.31c1.64,0,2.97,1.33,2.97,2.97v19.85c0,1.64-1.33,2.97-2.97,2.97ZM452.6,88.83h1.82c1.1,0,1.99-.89,1.99-1.99v-19.85c0-1.1-.89-1.99-1.99-1.99h-1.82v23.83Z"/>
            <path class="cls-12" d="M540.96,224.87c-.1,0-.2-.05-.27-.14l-10.75-15.54c-.1-.15-.07-.35.08-.45.15-.1.35-.07.45.08l10.75,15.54c.1.15.07.35-.08.45-.06.04-.12.06-.18.06Z"/>
            <path class="cls-12" d="M529.24,207.29c-.1,0-.19-.04-.26-.13l-65.61-130.33c-.11-.14-.08-.35.06-.46.14-.11.35-.08.46.06l65.61,130.33c.11.14.08.35-.06.46-.06.05-.13.07-.2.07Z"/>
            <path class="cls-12" d="M436.95,293.18c-.1,0-.21-.05-.27-.14l-10.5-15.71c-.1-.15-.06-.35.09-.45.15-.1.35-.06.45.09l10.5,15.71c.1.15.06.35-.09.45-.06.04-.12.05-.18.05Z"/>
            <path class="cls-12" d="M426.79,275.28s-.04,0-.06,0c-.18-.03-.29-.2-.26-.38l36.85-198.32c.03-.18.2-.29.38-.26.18.03.29.2.26.38l-36.85,198.32c-.03.15-.17.26-.32.26Z"/>
            <path class="cls-12" d="M180.19,396.21c-.1-.06-.21-.11-.31-.17-4.88,1.61-8.65,1.6-10.67.59-1.04-.52-1.65-1.31-1.76-2.29-.02-.18.11-.34.29-.36.18-.02.34.11.36.29.09.76.56,1.36,1.4,1.78,1.77.88,5.17.91,9.6-.46-5.95-3.47-12.16-9.32-17.22-16.24-5.94-8.12-9.65-16.93-10.45-24.81-1.01-9.86.99-16.43,8.48-22.69.14-.11.34-.1.46.04.11.14.1.34-.04.46-7.31,6.11-9.23,12.49-8.25,22.13,1.7,16.66,15.67,34,27.86,40.85,2.37-.8,5.01-1.98,7.83-3.63,5.96-3.47,10.52-4.77,13.57-3.85,1.5.45,2.64,1.45,3.38,2.95,1.56,3.17.42,5.25-.8,6.43-1.82,1.76-5.2,2.77-9.28,2.77-4.36,0-9.51-1.16-14.43-3.79ZM188.08,392.25c-2.64,1.54-5.11,2.68-7.37,3.49,9.21,4.86,19.17,4.46,22.74,1.02,1.53-1.48,1.77-3.44.67-5.68-.66-1.34-1.66-2.22-2.98-2.62-.58-.18-1.23-.26-1.93-.26-2.78,0-6.5,1.36-11.12,4.05Z"/>
            <path class="cls-12" d="M207,240.98c-.02-.11.02-.24.12-.31l253.47-170.37c.14-.11.35-.08.45.06.11.14.08.35-.06.45l-253.47,170.37c-.14.11-.35.08-.45-.06-.03-.04-.05-.09-.06-.14Z"/>
          </g>
          <g>
            <circle class="cls-22" cx="463.64" cy="76.64" r="9.19"/>
            <path class="cls-26" d="M463.64,83.82c-3.96,0-7.19-3.22-7.19-7.19s3.22-7.19,7.19-7.19,7.19,3.22,7.19,7.19-3.22,7.19-7.19,7.19ZM463.64,70.1c-3.61,0-6.54,2.93-6.54,6.54s2.93,6.54,6.54,6.54,6.54-2.93,6.54-6.54-2.93-6.54-6.54-6.54Z"/>
          </g>
        </g>
        <g>
          <g>
            <g>
              <path class="cls-34" d="M219.64,276.11s1.59-2.14-2.08-13.68c-.94-2.95-6.57-15.72-6.57-15.72,0,0,.14-5.4-1.17-5.95-.42-.18-1.59-.59-2.04-.63-1.73-.15-3.34,1.94-4.03,3.36,0,0-.65,1.75.53,2.44l1.83-.03,7.34,27.53,6.2,2.69Z"/>
              <g class="cls-24">
                <polygon class="cls-20" points="219.64 276.11 213.44 273.42 213.23 272.45 219.92 272.78 219.64 276.11"/>
              </g>
            </g>
            <g>
              <path class="cls-45" d="M185.89,280.82c-2.96,4.37,5.74,11.94,5.74,11.94,0,0,20.8-6,28.02-16.65l-6.2-2.69c-4.8.92-24.65,3.1-27.56,7.4Z"/>
              <g class="cls-32">
                <path class="cls-18" d="M185.89,280.82c1-1.48,4.25-4.65,8.06-4.1,4.85.7,12.78,9.82,12.78,9.82-7.57,4.05-15.1,6.22-15.1,6.22,0,0-8.7-7.57-5.74-11.94Z"/>
                <path class="cls-26" d="M198.41,286.76c-.13,0-.24-.08-.28-.21-.05-.16.04-.32.19-.37,4.32-1.36,13.32-4.19,19.84-9.96.12-.11.31-.1.42.03.11.12.1.31-.03.42-6.61,5.84-15.69,8.7-20.05,10.08-.03,0-.06.01-.09.01Z"/>
              </g>
            </g>
          </g>
          <g>
            <path class="cls-34" d="M177.77,284.44c-.84,1.74,17.34.12,13.61-5.32-3.73-.14-9.01-5.55-7.75-6.67h-10.94c1.37,1.22,7.31,7.37,5.09,11.99Z"/>
            <path class="cls-20" d="M177.82,272.45h5.8s0,0,0,0c-.04.03-.07.07-.1.11-.39.62.49,2.04,1.9,3.4-4.6.03-6.74-2.18-7.61-3.52Z"/>
          </g>
          <g>
            <path class="cls-45" d="M174.64,285.24c-2.63,2.63,4.52,10.11,8.32,19.48,2.56,6.31,1.4,10.06,1.4,10.06h18.7c.37-4.38,2.11-15.14,1.16-22.27-.99-7.45-8.51-16.14-12.34-14.85l-2.75.89c2.67,1.41,1.37,3.45-7.66,3.77-3.43.12-6.84,2.93-6.84,2.93Z"/>
            <g class="cls-43">
              <path class="cls-18" d="M175.59,287.87s0,0,0,0c.94-1.52,2.05-2.76,3.37-3.56,2.26-1.37,7.06,5.36,7.06,5.36l2.76,26.76-9.62,2.05c-.19-1.62-7.65-23.15-3.58-30.6Z"/>
              <path class="cls-26" d="M186.6,313.92s0,0-.01,0c-.16,0-.29-.15-.28-.31.21-4.27-.85-9.44-3.24-15.8-.06-.15.02-.32.17-.38.15-.06.32.02.38.17,2.42,6.44,3.5,11.69,3.28,16.04,0,.16-.14.28-.29.28Z"/>
            </g>
          </g>
          <g>
            <g>
              <path class="cls-34" d="M157.27,302.32c-1.65,3.59-2.36,24.58-1.46,29.45.23,1.27.52,3.44,3.76,2.91,3.74-.61,3.33-3.91,2.97-4.26-.42-.41.08,1.89-1.12.61-.63-.67.76-.86.45-1.52-.28-.61-2.31-.53-2.31-.53l4.81-24.12-7.11-2.54Z"/>
              <g class="cls-50">
                <polygon class="cls-20" points="157.28 300.8 164.5 304.67 164.65 306.19 154.67 305.59 157.28 300.8"/>
              </g>
            </g>
            <g>
              <path class="cls-45" d="M179.43,282.67c-10.85,3.14-21.34,15.56-22.16,19.64l7.11,2.54s3.68-1.69,9.23-4.31c3.72-1.75,7.1-2.76,9.1-3.76,5.6-2.81,3.25-16-3.28-14.11Z"/>
              <g class="cls-44">
                <path class="cls-26" d="M182.58,295.9c-.07,0-.13-.02-.18-.07-.13-.1-.15-.29-.04-.41.01-.02,1.43-1.79,2.02-3.47.71-2.04.02-4.57-1.73-6.29-1.55-1.52-3.52-2.04-5.29-1.39-.15.06-.32-.02-.38-.17-.06-.15.02-.32.17-.38,1.98-.73,4.19-.16,5.9,1.52,1.94,1.91,2.67,4.61,1.87,6.9-.62,1.78-2.06,3.57-2.12,3.65-.06.07-.14.11-.23.11Z"/>
                <path class="cls-26" d="M158.35,302.03c-.06,0-.13-.02-.18-.06-.13-.1-.15-.28-.05-.41,10.86-13.99,22.09-17.91,22.2-17.95.15-.05.32.03.37.18.05.15-.03.32-.18.37-.11.04-11.18,3.91-21.92,17.75-.06.07-.15.11-.23.11Z"/>
              </g>
            </g>
          </g>
          <g>
            <g>
              <g>
                <path class="cls-42" d="M228.17,394.19c1.08,1.08,7.4,1.94,8.61,3.86.69,1.09.38,1.86.38,1.86h-11.89c-.97,0-1.77-.77-1.81-1.74l-.24-5.82h4.57c.05.99.17,1.63.38,1.84Z"/>
                <g class="cls-7">
                  <g>
                    <path class="cls-26" d="M228.47,396.73c.1,0,.2-.05.27-.14l1.05-1.53c.1-.15.06-.35-.08-.45-.15-.1-.35-.06-.45.08l-1.05,1.53c-.1.15-.06.35.08.45.06.04.12.06.18.06Z"/>
                    <path class="cls-26" d="M231.17,397.65c.15,0,.29-.11.32-.27l.36-1.91c.03-.18-.08-.35-.26-.38-.18-.03-.35.08-.38.26l-.36,1.91c-.03.18.08.35.26.38.02,0,.04,0,.06,0Z"/>
                    <path class="cls-26" d="M226.39,395.44c.05,0,.11-.01.16-.04l2.16-1.19c.16-.09.21-.28.13-.44-.09-.16-.28-.21-.44-.13l-2.16,1.19c-.16.09-.21.28-.13.44.06.11.17.17.28.17Z"/>
                  </g>
                </g>
              </g>
              <g>
                <path class="cls-34" d="M228.08,384.78c-.25,3.23-.37,5.9-.29,7.57h-4.46l-.26-7.42,5.01-.16Z"/>
                <g class="cls-47">
                  <polygon class="cls-20" points="222.87 384.01 222.87 386.99 228.78 386.4 228.76 384.01 222.87 384.01"/>
                </g>
              </g>
            </g>
            <g>
              <path class="cls-31" d="M222.89,384.46c-1.33-9.25-2.91-18.86-2.91-24.56,0-7.87,2.74-10.67,2.74-10.67-2.33-2.33-34.38-11.65-34.38-11.65l.85-14.52,12.35-2.3s31.15,17.97,31.15,25.89c0,5.55-3.64,25.56-4.6,37.88l-5.2-.07Z"/>
              <g class="cls-6">
                <path class="cls-16" d="M189.19,323.05l12.35-2.3s1.02.6,2.69,1.62l-.92,20.55c-7.76-2.86-14.97-5.35-14.97-5.35l.85-14.52Z"/>
              </g>
            </g>
            <rect class="cls-22" x="224.48" y="381.13" width="2.16" height="6.63" rx="1.08" ry="1.08" transform="translate(610.01 158.88) rotate(90)"/>
          </g>
          <g>
            <path class="cls-31" d="M152.92,387.07c7.92-8.37,22.22-21.93,29.95-20.2,1.92-4.37-5.63-27.08-4.52-39.74.61-6.92,6.02-12.35,6.02-12.35h18.7c-3.53,23.85-8.67,51.39-12.24,58.48-.54,1.07-1.38,1.96-2.43,2.56-4.24,2.44-23.82,9.69-32.56,14.97l-2.93-3.71Z"/>
            <g>
              <g>
                <path class="cls-34" d="M152.27,387.67l2.83,3.57c-3.13,1.9-5.36,3.28-6.63,4.18l-3.45-1.53c2.06-1.44,4.92-4.24,7.26-6.21Z"/>
                <g class="cls-8">
                  <polygon class="cls-20" points="155.5 392.67 157.21 391.95 150.98 385 149.21 388.67 155.5 392.67"/>
                </g>
              </g>
              <g>
                <path class="cls-42" d="M141.47,397.79c.26-1.47,2-3.18,3.9-4.66l3.36,2.33c-.64.46.03.7.13.72,1.04.26,3.79.78,4.92,1.76.82.71.66,1.97.66,1.97h-11.66c-1.05,0-1.5-1.09-1.31-2.12Z"/>
                <g class="cls-46">
                  <g>
                    <path class="cls-26" d="M151.1,398.4c.15,0,.29-.11.32-.27l.21-1.16c.03-.18-.09-.35-.26-.38-.18-.03-.35.08-.38.26l-.21,1.16c-.03.18.09.35.26.38.02,0,.04,0,.06,0Z"/>
                    <path class="cls-26" d="M149.33,398.14c.09-.02.17-.09.22-.18l.64-1.42c.07-.16,0-.36-.16-.43-.16-.07-.36,0-.43.16l-.64,1.42c-.07.16,0,.36.16.43.07.03.14.04.21.02Z"/>
                    <path class="cls-26" d="M146.7,396.88s.05,0,.08-.01l2.23-.57c.17-.04.28-.22.23-.39-.04-.17-.22-.28-.39-.23l-2.23.57c-.17.04-.28.22-.23.39.04.15.17.24.31.24Z"/>
                  </g>
                </g>
              </g>
            </g>
            <rect class="cls-22" x="153.31" y="385.74" width="2.16" height="6.63" rx="1.08" ry="1.08" transform="translate(516.58 598.86) rotate(141.73)"/>
          </g>
          <g>
            <g>
              <g>
                <path id="SVGID-10" data-name="SVGID" class="cls-34" d="M173.23,259.07c-4.88,6.75-.11,13.78,5.18,14.75,5.3.97,7.98-1.43,8.71-2.42.91-1.24-2.03-5.05-2-5.19s1.09-1.49.96-1.68c-.2-.28-3.44-1.58-3.7-1.96-.55-.8-2.59-3.6-4.88-4.02-2.29-.42-3.98.13-4.27.53Z"/>
                <g class="cls-38">
                  <path class="cls-13" d="M185.58,263.03c2.28,1.81,3.68,3.84,3.13,4.53-.55.69-2.84-.22-5.12-2.03-2.28-1.81-3.68-3.84-3.13-4.53.55-.69,2.84.22,5.12,2.03Z"/>
                  <path class="cls-27" d="M184.82,267.66s.03,0,.05,0c.02,0,.48-.07.87-.34.15-.1.18-.3.08-.45-.1-.15-.3-.18-.45-.08-.27.18-.6.24-.6.24-.18.03-.3.19-.27.37.02.16.16.27.32.27Z"/>
                </g>
              </g>
              <path class="cls-27" d="M182.21,264.08c.17.24.11.58-.14.75-.24.17-.58.11-.75-.14-.17-.24-.11-.58.14-.75.24-.17.58-.11.75.14Z"/>
            </g>
            <path class="cls-27" d="M180.33,260.16c2.73.45,2.05-6.64-.21-7.94-3.02-1.73-6.3-1.22-9.45,6.3-.77,1.84-3.63,3.06-4.37,5.51-2.43,8.02,9.1,11.43,9.1,11.43,0,0,.56-1.03,1.02-2.42.4-1.19.01-4.22,1.15-5.2l.98-.49c-2.83-6.16.06-7.47,1.77-7.19Z"/>
            <path class="cls-34" d="M174.92,270.58c.9.58,2.11.32,2.69-.58.58-.9.32-2.11-.58-2.69-.9-.58-2.11-.32-2.69.58-.58.9-.32,2.11.58,2.69Z"/>
            <path class="cls-27" d="M164.69,263.89c-.2,0-.41-.01-.63-.02-.16,0-.31-.15-.3-.31,0-.16.13-.29.29-.28h.04c.59.03,1.15.06,1.3-.14.08-.11.14-.38-.07-1.05-.05-.16.04-.32.19-.37.16-.05.32.04.37.19.24.77.23,1.26-.03,1.59-.25.32-.66.39-1.17.39Z"/>
          </g>
          <path class="cls-27" d="M180.78,260.13s.04,0,.06,0c.78-.15,1.5-.73,1.97-1.58.62-1.12.7-2.52.22-3.72-.07-.17-.25-.25-.42-.18-.17.07-.25.25-.18.42.41,1.03.34,2.21-.19,3.17-.37.69-.93,1.14-1.52,1.26-.18.03-.29.2-.26.38.03.16.17.26.32.26Z"/>
          <path class="cls-12" d="M162.01,331.04c.07,0,.15-.02.21-.08,7.45-6.23,18.79-18.08,28.03-34.43,8.95-15.83,13.8-33.73,15.64-51.48.02-.18-.17-.47-.35-.48-.18-.01-.52.23-.53.4-3.81,48.3-33.9,77.71-43.21,85.5-.14.12-.16.32-.04.46.06.08.16.12.25.12Z"/>
        </g>
        <g>
          <g>
            <path class="cls-34" d="M488.64,216.84c1.32.46-8.26,2.34-7.26,1.37,1.98-1.9-.63-5.81-1.85-5.74l5.56-4.32c-.97,1.1.05,7.47,3.55,8.68Z"/>
            <path class="cls-17" d="M485.09,208.15l-5.56,4.32c.69-.04,1.84,1.21,2.33,2.64l3.08-3.66c-.31-1.51-.25-2.85.15-3.3Z"/>
          </g>
          <g>
            <path class="cls-31" d="M508.31,345.55c-.83-21.31-3.37-83.78-10.45-83.78,0,0,13.03-20.92,16.61-17.15,11.43,12.04,2.22,75.2-.83,100.98l-5.33-.05Z"/>
            <path class="cls-16" d="M514.47,244.63c-.96-1.01-2.6-.24-4.49,1.42-5.26,4.86-12.12,15.73-12.12,15.73.07,0,.14,0,.21.02.02,0,.04,0,.06.01.06.01.12.03.18.06,0,0,.02,0,.03.01.07.03.14.06.21.1.02.01.03.02.05.03.06.04.11.08.17.12.01.01.03.02.04.03.07.06.13.12.2.18.01.01.03.03.04.05.05.06.11.12.16.18.02.02.03.04.05.06.07.08.13.17.19.26,0,.01.02.03.03.04.06.08.11.17.17.26.02.03.03.05.05.08.06.11.13.22.19.34,0,0,0,0,0,0,.06.12.12.24.19.37.01.03.03.06.04.09.06.12.12.25.17.38,0,0,0,.02.01.03.06.14.12.29.18.45.01.03.03.07.04.1.05.14.11.28.16.42,0,.02.02.04.02.07.06.17.12.34.18.52,0,.03.02.06.03.09.05.16.1.32.16.48,0,.03.02.06.03.09.06.19.12.39.18.59,0,.02.01.04.02.05.05.19.11.38.16.57,0,.04.02.07.03.11.11.43.23.87.34,1.34,0,.03.02.07.03.11.11.47.22.96.33,1.46,0,.03.01.06.02.09.11.52.22,1.05.32,1.6,0,.02,0,.04.01.05.05.27.1.54.15.82,0,.01,0,.02,0,.04.11.58.21,1.18.31,1.79,0,.02,0,.04,0,.05.1.61.2,1.24.3,1.88,0,.02,0,.03,0,.05.1.65.2,1.31.29,1.98,0,.01,0,.02,0,.03.1.68.19,1.38.29,2.09l15.62-20.33c-.73-7.64-2.29-13.54-5.05-16.45Z"/>
            <g>
              <path class="cls-28" d="M503.44,358.66c-.79.22-.63,1.38.19,1.38,0,0,2.38.02,3.58-.02,1.07-.03,2.08-2.11,3.9-1.99,1.51.1,2.2-1.77,1.49-2.74-.16-.23-.31-.78-.56-1.14l-3.77,1.81c-1.47.66-3.2,2.24-4.84,2.7Z"/>
              <path class="cls-34" d="M509.06,345.55c.15,3.82.22,6.33.22,6.94,0,1.72-2,4.02-1.95,4,3.78-.84,4.71-2.33,4.71-2.33.12-1.84.43-4.42.93-8.62h-3.92Z"/>
              <path class="cls-20" d="M512.98,345.55h-3.92c.01.36.03.7.04,1.04l3.61,1.21c.08-.71.17-1.46.26-2.24Z"/>
            </g>
          </g>
          <g>
            <g>
              <path class="cls-28" d="M494.63,328.84c-.93.19-.74,1.28.21,1.28,4.93,0,10.34.6,10.34-1.2,0-.51-.24-1.28-.66-2.25h-4.03c-.95,1.01-3.92,1.77-5.86,2.16Z"/>
              <path class="cls-34" d="M500.79,326.02c0,.23-.11.44-.31.65h4.03c-.9-2.05-2.66-5.01-4.83-8.35l-3.24,2.35c2.64,2.62,4.35,4.6,4.35,5.35Z"/>
              <path class="cls-20" d="M499.68,318.32l-3.24,2.35c.42.42.82.82,1.19,1.21l2.45-2.95c-.13-.2-.26-.4-.39-.61Z"/>
            </g>
            <path class="cls-31" d="M495.65,321.75s-26.57-25.4-26.57-27.48c0-16.72,36.09-41.78,22.17-51.08l13.65-7.3c2.13,2.13,11.37,7.39,12.26,15.01,2.42,20.69-36.93,36.42-36.93,40.48l20.4,26.47-4.98,3.9Z"/>
            <path class="cls-26" d="M503.88,274.33c-.08,0-.16-.03-.21-.1-.1-.12-.08-.29.04-.39,7.55-6.26,11.79-12.11,12.97-17.88.03-.15.18-.25.33-.22.15.03.25.18.22.33-1.2,5.9-5.5,11.85-13.15,18.19-.05.04-.11.06-.18.06Z"/>
          </g>
          <g>
            <path class="cls-45" d="M493.47,245.89s-5.31-5.45-13.38-13.52c-1.4-1.4-1.93-6.05-.49-10.19,1.28-3.67,2.22-10.06,7.4-10.25,13.34-.49,12.22,16.27,18.81,24.75l-12.33,9.21Z"/>
            <path class="cls-19" d="M482.18,234.44c2.77,2.75,4.82,4.74,6.27,6.12l-1.12-14.78-5.15,8.66Z"/>
          </g>
          <g>
            <g>
              <path id="SVGID-12" data-name="SVGID" class="cls-34" d="M458.69,278.55s1.97.51,3.43.42c1.94-.13,3.63-1.67,5.98-4.5l-3.57-1.76c-3.12,4.07-5.84,5.84-5.84,5.84Z"/>
              <g class="cls-2">
                <path class="cls-20" d="M468.92,274.87l-4.38-2.15c-.2.26-.39.5-.58.74l3.4,3.07c.51-.47,1.03-1.02,1.57-1.66Z"/>
                <path class="cls-17" d="M458.84,279.15c-.18,0-.32-.15-.32-.32s.15-.32.32-.32c.66,0,2.45-.82,3.31-1.63.13-.12.34-.12.46.01.12.13.12.34-.01.46-.91.86-2.87,1.81-3.75,1.81Z"/>
              </g>
            </g>
            <path class="cls-45" d="M464.5,272.76c2.83-3.94,6.16-10.34,8.4-20.15,1.77-7.77,4.1-18.51,4.34-26.14.22-6.87,3.95-9.94,7.81-9.94,8.56,0-4.58,44.93-16.45,58.71l-4.1-2.48Z"/>
          </g>
          <g>
            <g>
              <g>
                <path id="SVGID-14" data-name="SVGID" class="cls-34" d="M467.35,201.38c2.98-2.27,11.12,4.57,10.34,10.34-.78,5.77-2.75,6.73-2.75,6.73-1.32,1-4.46-2.84-4.61-2.86-.15-.02-1.07.52-1.22.32-.22-.29-.95-3.57-1.25-3.96-.63-.83-2.83-3.87-2.49-6.36.34-2.5,1.55-3.88,1.97-4.2Z"/>
                <g class="cls-11">
                  <path class="cls-14" d="M467.59,215.66c1.14,2.72,2.73,4.65,3.54,4.31s.55-2.83-.59-5.55c-1.14-2.72-2.73-4.65-3.54-4.31-.82.34-.55,2.83.59,5.55Z"/>
                  <path class="cls-27" d="M471.41,217.03c-.1,0-.19-.04-.26-.13-.11-.14-.08-.35.06-.45.28-.21.45-.54.45-.54.08-.16.28-.22.44-.14.16.08.22.27.14.43,0,.02-.23.46-.64.77-.06.04-.13.07-.2.07Z"/>
                </g>
              </g>
              <path class="cls-27" d="M469.49,212.28c.19.26.56.31.81.11.26-.19.31-.56.11-.81-.19-.26-.56-.31-.81-.11-.26.19-.31.56-.11.81Z"/>
            </g>
            <path class="cls-27" d="M480.02,197.6c5.29,2.92,6.33,7.59,7.62,9.7,5.31,8.72,17.25,10.95,17.25,10.95l-16.12,14.3c-.8-.48-14.9-3.59-12.28-12.57.88-3.01,2.63-4.87-.82-10.2l-2,.18c-1.04-1.03-2.67-1.55-3.65-.46-3.16,3.49-7.92,3.48-7.88-2,.04-5.36,7.5-15.64,17.89-9.91Z"/>
            <path class="cls-27" d="M479.98,233.5s-.07,0-.1-.02c-1.91-.65-3.32-1.99-4.09-3.88-.99-2.44-1.36-6.96,2.54-14.63.08-.16.28-.22.44-.14.16.08.22.28.14.44-3.79,7.45-3.46,11.78-2.52,14.09.7,1.71,1.98,2.92,3.7,3.51.17.06.26.24.2.41-.05.14-.17.22-.31.22Z"/>
            <path class="cls-34" d="M476.53,209.46c.17.91-.42,1.79-1.33,1.96-.91.17-1.79-.42-1.96-1.33-.17-.91.42-1.79,1.33-1.96.91-.17,1.79.42,1.96,1.33Z"/>
          </g>
        </g>
        <g>
          <path class="cls-45" d="M237.3,164.18c.6.01,1.13.12,1.61.3l5.28-13.74-14.41-5.54-22.12,57.56c-.44,1.14.64,4.25,1.84,4.48,4.19.81,13.51-1.38,15.65-6.95l.71-1.84c-3.17-2.18-2.24-8.43,2.62-8.35.2,0,.39.02.57.04l1.48-3.86c-4.17-1.56-3.5-8.89,1.75-8.8.56,0,1.07.1,1.52.27l1.82-4.75c-4.26-1.49-3.62-8.92,1.67-8.83Z"/>
          <path class="cls-26" d="M212.87,201.73s-.08,0-.12-.02c-.17-.06-.25-.25-.19-.42l19.39-50.71c.06-.17.25-.25.42-.19.17.06.25.25.19.42l-19.39,50.71c-.05.13-.17.21-.3.21Z"/>
          <path class="cls-45" d="M262.08,147.54c-4.47,11.63-17.52,17.43-29.14,12.96-11.63-4.47-17.43-17.52-12.96-29.14,4.47-11.63,17.52-17.43,29.14-12.96,11.63,4.47,17.43,17.52,12.96,29.14ZM246.93,125.43c-3.22-1.24-6.83.37-8.07,3.59-1.24,3.22.37,6.83,3.59,8.07,3.22,1.24,6.83-.37,8.07-3.59,1.24-3.22-.37-6.83-3.59-8.07Z"/>
          <path class="cls-26" d="M241.01,157.86c-2.19,0-4.42-.39-6.58-1.23-4.59-1.76-8.22-5.21-10.22-9.7-2-4.49-2.13-9.5-.36-14.09,1.76-4.59,5.21-8.22,9.7-10.22,4.49-2,9.5-2.13,14.09-.36,4.59,1.76,8.22,5.21,10.22,9.7s2.13,9.5.36,14.09l-.3-.12.3.12c-2.81,7.31-9.81,11.81-17.21,11.81ZM241.03,121.68c-2.45,0-4.9.52-7.21,1.54-4.33,1.93-7.66,5.43-9.36,9.86-1.7,4.43-1.58,9.25.35,13.59,1.93,4.33,5.43,7.66,9.86,9.36,9.14,3.51,19.44-1.07,22.95-10.21,1.7-4.43,1.58-9.25-.35-13.59-1.93-4.33-5.43-7.66-9.86-9.36-2.07-.8-4.23-1.19-6.38-1.19Z"/>
          <path class="cls-27" d="M257.71,115.67h-2.31c-1.55,0-2.8-1.26-2.8-2.8v-19.85c0-1.55,1.26-2.8,2.8-2.8h2.31c.18,0,.32.15.32.32v24.81c0,.18-.15.32-.32.32ZM255.4,90.86c-1.19,0-2.16.97-2.16,2.16v19.85c0,1.19.97,2.16,2.16,2.16h1.98v-24.16h-1.98Z"/>
          <path class="cls-22" d="M244.73,131.91c-.91,0-1.86-.25-2.79-.91-4.32-3.08-2.96-9.13-.49-13.39,2.84-4.89,7.97-9.11,11.87-7.3,2.01.93,2.6,3.14,2.62,3.24.04.17-.06.35-.23.39-.17.04-.35-.06-.39-.23,0-.02-.54-2.01-2.27-2.81-3.42-1.59-8.3,2.33-11.03,7.03-2.34,4.02-3.66,9.71.3,12.53,3.33,2.37,7.03-1.33,7.07-1.37.13-.13.33-.13.46,0,.13.13.13.33,0,.46-.03.03-2.36,2.36-5.12,2.36Z"/>
          <path class="cls-22" d="M248.57,106.19c-.05,0-.1-.01-.15-.04l-.12-.07c-2.32-1.38-5.48-1.99-10.25-1.99-2.53,0-5.27.16-8.18.34-3.24.19-6.58.39-10,.39-6.88,0-12.33-.84-17.15-2.66-4.11-1.55-6.38-4.59-6.23-8.36.24-5.78,5.91-11.71,13.19-13.78,1.42-.4,2.9-.61,4.41-.61.71,0,1.44.04,2.16.13l.54.07-.28-.46c-3.46-5.81-4.49-11.56-2.74-15.38,1.16-2.54,3.41-3.94,6.34-3.94.52,0,1.06.04,1.6.13,7.67,1.22,14.79,6.94,20.05,16.1,5.03,8.78,7.62,19.62,7.1,29.76h0s0,.06,0,.06v.04s0,.04,0,.04c0,.05-.03.09-.06.13-.06.06-.1.08-.14.09h-.07ZM220.14,60.41c-.55,0-1.07.05-1.57.16-1.96.41-3.44,1.61-4.28,3.45-1.78,3.88-.59,9.73,3.17,15.64l.06.1.11.02c13.65,2.66,26.59,19.52,30.23,24.62l.46.65.02-.8c.19-9.55-2.39-19.72-7.08-27.9-5.17-9.01-12.15-14.63-19.64-15.82-.51-.08-1.01-.12-1.48-.12ZM214.02,80c-1.44,0-2.85.19-4.19.58-7.06,2.01-12.55,7.71-12.78,13.26-.15,3.55,1.94,6.33,5.86,7.8,4.76,1.79,10.15,2.62,16.97,2.62,3.41,0,6.73-.2,9.95-.39,2.92-.18,5.67-.34,8.22-.34,2.35,0,4.29.15,5.93.45l.19-.48c-4.7-3.03-11.53-7.68-17.32-12.56-3.98-3.36-7.2-6.9-9.58-10.53l-.06-.1-.11-.02c-1.05-.19-2.09-.28-3.09-.28ZM218.38,81.03c2.28,3.25,5.26,6.43,8.85,9.47,6.76,5.7,14.91,11.05,19.16,13.73l.35-.38c-4.41-5.94-15.97-20.09-28.09-23.22l-.7-.18.41.59Z"/>
          <path class="cls-22" d="M254.73,120.36s-.07,0-.1-.02c-.17-.06-.26-.24-.2-.41.33-.97.58-1.89.75-2.73.04-.18.2-.29.38-.26.18.04.29.21.25.38-.17.87-.43,1.82-.77,2.81-.05.14-.17.22-.31.22Z"/>
        </g>
      </g>
    </g>
  </g>
</svg>