<svg width="60" height="60" viewBox="0 0 60 60" fill="none" xmlns="http://www.w3.org/2000/svg">
<path d="M21.6937 36.3428C21.6767 36.3099 21.6105 36.2769 21.4931 36.1917C21.3761 36.1258 21.225 36.0433 21.0585 35.9582C20.8749 35.8757 20.6917 35.8098 20.474 35.7576C20.2567 35.6917 20.055 35.6752 19.8377 35.6752C19.2703 35.6752 18.9697 35.8757 18.9697 36.2604C18.9697 36.3786 19.0021 36.4775 19.0697 36.5599C19.1362 36.6451 19.2195 36.711 19.3365 36.7797C19.4538 36.8457 19.6047 36.8951 19.7882 36.9446C19.9718 36.9968 20.1891 37.0627 20.4235 37.1287C20.7579 37.2138 21.0585 37.3127 21.3253 37.4309C21.5934 37.5298 21.8278 37.6645 22.0114 37.8321C22.1946 37.9969 22.3457 38.181 22.446 38.4173C22.546 38.6509 22.5955 38.9174 22.5955 39.2361C22.5955 39.618 22.5293 39.9533 22.3795 40.2363C22.2287 40.5055 22.0451 40.7226 21.7937 40.8902C21.5596 41.0578 21.2758 41.1732 20.9582 41.2584C20.6408 41.3243 20.3232 41.3738 19.9885 41.3738C19.7388 41.3738 19.4706 41.3573 19.2024 41.3079C18.9356 41.2749 18.6691 41.2062 18.4177 41.1402C18.1679 41.0578 17.9168 40.9726 17.6824 40.8737C17.448 40.7721 17.2307 40.6402 17.0134 40.5055L17.7162 39.1015C17.7486 39.1345 17.8335 39.2031 17.966 39.2856C18.1171 39.368 18.2836 39.4697 18.5009 39.5521C18.7183 39.6538 18.9527 39.7197 19.2195 39.8021C19.4876 39.8708 19.7388 39.9038 20.0226 39.9038C20.59 39.9038 20.8749 39.7362 20.8749 39.3845C20.8749 39.2526 20.8241 39.1509 20.7408 39.0685C20.6576 38.9833 20.5405 38.9009 20.3894 38.835C20.2399 38.7663 20.055 38.7003 19.8545 38.6509C19.6541 38.5822 19.4198 38.5327 19.187 38.4503C18.8694 38.3486 18.5842 38.2497 18.3515 38.1315C18.1171 38.0134 17.9168 37.8815 17.7657 37.7304C17.6159 37.5793 17.4989 37.4144 17.4143 37.2138C17.3478 37.0133 17.2986 36.7935 17.2986 36.5269C17.2986 36.1588 17.3648 35.8428 17.4989 35.557C17.6316 35.274 17.8165 35.0404 18.0509 34.8399C18.2836 34.6393 18.5518 34.5047 18.8694 34.4057C19.187 34.3041 19.503 34.2546 19.8545 34.2546C20.0888 34.2546 20.34 34.2711 20.5743 34.3206C20.8073 34.37 21.0417 34.4222 21.259 34.5046C21.4764 34.5733 21.6767 34.6558 21.8602 34.7547C22.0452 34.8399 22.2117 34.9388 22.3795 35.024L21.6937 36.3428Z" fill="#00549E"/>
<path d="M24.7854 37.7981C24.7854 38.0673 24.8178 38.3339 24.9011 38.5839C24.9857 38.8367 25.1014 39.0537 25.2525 39.2543C25.4036 39.4548 25.6039 39.606 25.8212 39.7214C26.0542 39.8395 26.3053 39.9054 26.6059 39.9054C26.9068 39.9054 27.1749 39.8395 27.4076 39.7214C27.6434 39.606 27.8269 39.4384 27.9764 39.2378C28.1275 39.0372 28.2432 38.8202 28.311 38.5509C28.3789 38.3009 28.4281 38.0509 28.4281 37.7816C28.4281 37.5151 28.3943 37.2486 28.311 36.9986C28.2278 36.7458 28.1105 36.5287 27.9596 36.3281C27.8099 36.1276 27.6096 35.9765 27.3923 35.8611C27.1579 35.7429 26.9068 35.6935 26.6059 35.6935C26.3053 35.6935 26.0385 35.7594 25.8045 35.8776C25.5701 35.9957 25.3866 36.1606 25.2354 36.3446C25.086 36.5452 24.9687 36.765 24.884 37.015C24.8178 37.2815 24.7854 37.5316 24.7854 37.7981ZM26.6059 41.3259C26.088 41.3259 25.6209 41.227 25.1863 41.0237C24.767 40.8259 24.3999 40.5566 24.0993 40.2241C23.7987 39.8889 23.5644 39.5208 23.3979 39.0867C23.23 38.6691 23.1468 38.2185 23.1468 37.7679C23.1468 37.3145 23.23 36.8639 23.4133 36.4463C23.5814 36.0287 23.8326 35.644 24.1331 35.3253C24.4508 35.0093 24.8178 34.7401 25.2354 34.5587C25.6533 34.3554 26.1218 34.273 26.6229 34.273C27.1409 34.273 27.6096 34.3719 28.0442 34.5752C28.4608 34.7758 28.8289 35.0423 29.1295 35.3747C29.4304 35.7099 29.6645 36.0946 29.8326 36.5122C29.9991 36.9299 30.0824 37.364 30.0824 37.7981C30.0824 38.2514 29.9991 38.702 29.8142 39.1197C29.6477 39.5373 29.3977 39.9219 29.0971 40.2406C28.7952 40.5566 28.4281 40.8259 27.9934 41.0237C27.5755 41.227 27.1071 41.3259 26.6059 41.3259Z" fill="#00549E"/>
<path d="M31.0033 41.2754V34.3054H32.6066V39.855H35.9829V41.2754H31.0033Z" fill="#00549E"/>
<path d="M41.1811 37.7808C41.1811 37.4813 41.1473 37.1956 41.0638 36.9456C40.9791 36.6956 40.8635 36.4785 40.7124 36.2945C40.5629 36.1104 40.361 35.9758 40.128 35.8769C39.8939 35.7752 39.6426 35.7258 39.3588 35.7258H38.3722V39.8715H39.3588C39.6596 39.8715 39.9107 39.822 40.145 39.7204C40.3794 39.6187 40.5629 39.4704 40.7124 39.2863C40.8635 39.1022 40.9791 38.8852 41.0638 38.6352C41.1473 38.3824 41.1811 38.083 41.1811 37.7808ZM36.7521 41.2754V34.3054H39.342C39.9107 34.3054 40.4288 34.4043 40.8464 34.5719C41.2811 34.7559 41.6314 35.0059 41.9319 35.3246C42.2171 35.6433 42.4514 36.0087 42.5839 36.4291C42.735 36.8467 42.8014 37.2972 42.8014 37.7808C42.8014 38.3165 42.7179 38.7836 42.5514 39.2204C42.3836 39.6545 42.1492 40.0198 41.8487 40.3221C41.5481 40.6215 41.1811 40.8578 40.7462 41.0226C40.3115 41.1902 39.8428 41.2754 39.325 41.2754H36.7521Z" fill="#00549E"/>
<path d="M45.9275 45.2532H14.0053C13.72 45.2532 13.4703 45.0176 13.4703 44.7182L13.37 30.8623C13.37 30.5629 13.6045 30.3273 13.9049 30.3273C14.1888 30.3273 14.4399 30.5629 14.4399 30.8623L14.5402 44.1833H45.3925L45.2911 31.4139L23.7992 31.4637C23.4985 31.4637 23.2643 31.2309 23.2643 30.9288C23.2643 30.6295 23.4985 30.3939 23.7992 30.3939L45.8274 30.3606C46.111 30.3606 46.3607 30.5962 46.3607 30.8955L46.4624 44.7349C46.4624 44.8679 46.4117 45.0176 46.3114 45.1201C46.2113 45.2033 46.0771 45.2532 45.9275 45.2532Z" fill="#00549E"/>
<path d="M20.3569 29.826C20.9469 29.826 21.4269 30.306 21.4269 30.897C21.4269 31.4853 20.9469 31.9653 20.3569 31.9653C19.7656 31.9653 19.2872 31.4853 19.2872 30.897C19.2872 30.306 19.7656 29.826 20.3569 29.826Z" fill="#00549E"/>
<path d="M17.1642 29.826C17.7544 29.826 18.2341 30.306 18.2341 30.897C18.2341 31.4853 17.7544 31.9653 17.1642 31.9653C16.5742 31.9653 16.0945 31.4853 16.0945 30.897C16.0945 30.306 16.5742 29.826 17.1642 29.826Z" fill="#00549E"/>
<path d="M9.81651 17.4144C9.23208 17.4144 8.74645 17.8997 8.74645 18.4862C8.74645 19.0698 9.23208 19.5551 9.81651 19.5551C10.4007 19.5551 10.8863 19.0698 10.8863 18.4862C10.8863 17.8824 10.4191 17.4144 9.81651 17.4144ZM9.81651 20.6067C8.64621 20.6067 7.69371 19.6562 7.69371 18.4862C7.69371 17.3162 8.64621 16.3628 9.81651 16.3628C10.9865 16.3628 11.9393 17.3162 11.9393 18.4862C11.9393 19.6562 11.0033 20.6067 9.81651 20.6067Z" fill="#00549E"/>
<path d="M48.0159 12.2783C47.1295 12.2783 46.4281 12.9976 46.4281 13.8672C46.4281 14.7368 47.1466 15.4533 48.0159 15.4533C48.884 15.4533 49.6037 14.7368 49.6037 13.8672C49.6037 12.9976 48.884 12.2783 48.0159 12.2783ZM48.0159 16.5251C46.5454 16.5251 45.3583 15.3378 45.3583 13.8672C45.3583 12.3967 46.5454 11.2093 48.0159 11.2093C49.4867 11.2093 50.6724 12.3967 50.6724 13.8672C50.6724 15.3378 49.4697 16.5251 48.0159 16.5251Z" fill="#00549E"/>
<path d="M11.6655 51.6514C11.3819 51.6514 11.1306 51.4181 11.1306 51.1173C11.1134 49.8974 10.6463 48.7787 9.8109 47.9242C8.97525 47.0894 7.85458 46.6228 6.66898 46.6228C6.65212 46.6228 6.65212 46.6228 6.63497 46.6228C6.5009 46.6228 6.36682 46.5722 6.26675 46.471C6.16781 46.3727 6.11722 46.2377 6.11722 46.1028L6 29.5921C6 29.2913 6.23415 29.0552 6.53491 29.0552C7.73878 29.0412 8.85804 28.5718 9.69369 27.7201C10.5293 26.8684 10.9794 25.73 10.9639 24.5101C10.9639 24.378 11.0134 24.2263 11.1134 24.1251C11.2152 24.0267 11.3479 23.9761 11.4988 23.9761H15.1079C15.4086 23.9761 15.6442 24.2094 15.6442 24.5101C15.6442 24.8109 15.4086 25.0442 15.1079 25.0442H12.0168C11.8996 26.3315 11.3647 27.5346 10.4627 28.4706C9.55962 29.4066 8.37261 29.9744 7.08667 30.1093L7.20247 45.6025C8.48983 45.7205 9.67683 46.2715 10.6125 47.1906C11.5314 48.1097 12.0832 49.2959 12.2173 50.6001L47.8997 50.5664C48.0169 49.279 48.5841 48.076 49.5212 47.14C50.4558 46.204 51.6597 45.6362 52.9468 45.5013L52.8298 30.025C51.5256 29.9097 50.3232 29.3588 49.3703 28.4368C48.4177 27.5177 47.8334 26.3147 47.6993 25.0301H43.7203C43.4212 25.0301 43.1868 24.794 43.1868 24.4933C43.1868 24.1925 43.4212 23.9592 43.7203 23.9592H48.2004C48.4841 23.9592 48.7353 24.1925 48.7353 24.4933C48.7522 25.6963 49.2362 26.8347 50.1056 27.6864C50.9753 28.538 52.1283 29.0074 53.3479 28.9906C53.6315 28.9906 53.8828 29.2239 53.8828 29.5246L54 46.0213C54 46.3221 53.7656 46.5554 53.4648 46.5554C52.2441 46.5722 51.108 47.0388 50.24 47.9102C49.3703 48.7787 48.9031 49.9143 48.9186 51.1173C48.9186 51.2522 48.8694 51.4012 48.7691 51.5024C48.669 51.6036 48.5349 51.6514 48.3837 51.6514H11.6655Z" fill="#00549E"/>
<path d="M20.289 25.0283C19.9885 25.0283 19.7541 24.795 19.7541 24.4942C19.7541 24.1935 19.9885 23.9602 20.289 23.9602L38.4739 23.9433C38.7747 23.9433 39.0074 24.1766 39.0074 24.4774C39.0074 24.7782 38.7747 25.0115 38.4739 25.0115L20.289 25.0283Z" fill="#00549E"/>
<path d="M29.398 9.08485C28.5457 9.08485 27.7423 9.41936 27.1411 10.0215C26.5399 10.6236 26.2054 11.4264 26.2054 12.2786C26.2054 13.1309 26.5399 13.9337 27.1411 14.5329C27.7423 15.135 28.5457 15.4695 29.398 15.4695C30.2506 15.4695 31.0522 15.135 31.6534 14.5329C32.2561 13.9337 32.5895 13.1309 32.5895 12.2786C32.5895 11.4264 32.2561 10.6236 31.6534 10.0215C31.0522 9.41936 30.2506 9.08485 29.398 9.08485ZM29.398 16.5225C28.2619 16.5225 27.192 16.0891 26.3889 15.2688C25.5873 14.4689 25.1356 13.3985 25.1356 12.2612C25.1356 11.1239 25.5704 10.0564 26.3889 9.25355C27.192 8.45074 28.2619 7.9999 29.398 7.9999C30.5342 7.9999 31.6043 8.43329 32.4059 9.25355C34.0601 10.9086 34.0601 13.6167 32.4059 15.2688C31.6043 16.0891 30.5342 16.5225 29.398 16.5225Z" fill="#00549E"/>
<path d="M39.2093 22.6218C39.0753 22.6218 38.9409 22.573 38.8239 22.4726L31.6369 15.2865C31.4365 15.0856 31.4365 14.7354 31.6369 14.5345C31.8375 14.3337 32.1887 14.3337 32.389 14.5345L39.5763 21.7207C39.7767 21.9216 39.7767 22.2717 39.5763 22.4726C39.4928 22.573 39.3419 22.6218 39.2093 22.6218Z" fill="#00549E"/>
<path d="M19.5705 22.6218C19.4365 22.6218 19.3039 22.573 19.1868 22.4726C18.9848 22.2717 18.9848 21.9216 19.1868 21.7207L26.3724 14.5345C26.5741 14.3337 26.9243 14.3337 27.1246 14.5345C27.3249 14.7354 27.3249 15.0856 27.1246 15.2865L19.9376 22.4726C19.8374 22.573 19.7048 22.6218 19.5705 22.6218Z" fill="#00549E"/>
<path d="M19.5709 26.3826C19.4366 26.3826 19.3041 26.3344 19.1868 26.2325C18.9852 26.0314 18.9852 25.6802 19.1868 25.4792C20.0226 24.6437 20.0226 23.3069 19.1868 22.4714C18.3514 21.6359 17.0135 21.6359 16.1777 22.4714C15.3422 23.3069 15.3422 24.6437 16.1777 25.4792C16.3782 25.6802 16.3782 26.0314 16.1777 26.2325C15.9775 26.4336 15.626 26.4336 15.4269 26.2325C14.189 24.9948 14.189 22.9557 15.4269 21.7209C16.6634 20.4832 18.7014 20.4832 19.9379 21.7209C21.1756 22.9557 21.1756 24.9948 19.9379 26.2325C19.8377 26.3344 19.7048 26.3826 19.5709 26.3826Z" fill="#00549E"/>
<path d="M42.9693 26.3826C42.8351 26.3826 42.7012 26.3345 42.5841 26.2326C42.3837 26.0316 42.3837 25.6807 42.5841 25.4797C43.421 24.6448 43.421 23.3089 42.5841 22.4711C42.183 22.072 41.6484 21.8541 41.0809 21.8541C40.512 21.8541 39.9771 22.072 39.5763 22.4711C38.7405 23.3089 38.7405 24.6448 39.5763 25.4797C39.7767 25.6807 39.7767 26.0316 39.5763 26.2326C39.3756 26.4335 39.0244 26.4335 38.824 26.2326C37.5875 24.9958 37.5875 22.9579 38.824 21.7211C39.4266 21.1182 40.2284 20.7843 41.0809 20.7843C41.932 20.7843 42.7349 21.1182 43.3364 21.7211C44.574 22.9579 44.574 24.9958 43.3364 26.2326C43.2532 26.3345 43.102 26.3826 42.9693 26.3826Z" fill="#00549E"/>
</svg>
