<svg width="60" height="60" viewBox="0 0 60 60" fill="none" xmlns="http://www.w3.org/2000/svg">
<path d="M7.78593 46.2897L15.3066 53.8L18.751 51.3025C18.8471 51.238 18.9782 51.2051 19.0917 51.2051L35.1551 52.2752C36.8613 52.3903 38.5355 51.7559 39.738 50.5559L52.1938 38.114C53.2187 37.092 53.2187 35.4369 52.1938 34.4314C51.1719 33.4094 49.5151 33.4094 48.5077 34.4314L38.5675 44.3581C38.4219 44.7172 38.1948 45.0568 37.9182 45.3487C37.2369 46.0788 36.2761 46.4679 35.2861 46.4199L24.0939 45.9323C23.8027 45.9172 23.5902 45.6732 23.5902 45.3979C23.6076 45.1048 23.8522 44.8951 24.1259 44.8951L35.3181 45.3816C36.0169 45.4144 36.6691 45.1391 37.1379 44.6363C37.2864 44.4898 37.397 44.3115 37.496 44.1321C37.496 44.0019 37.5455 43.8731 37.6416 43.7745C37.7552 43.4511 37.7901 43.1101 37.7551 42.7527C37.6241 41.6332 36.7303 40.758 35.6122 40.6606L18.5735 39.2004C16.9662 39.0715 15.3532 39.5906 14.1361 40.6606L7.78593 46.2897ZM15.2426 55C15.1115 55 14.9805 54.952 14.8699 54.8549L6.6475 46.6473C6.55142 46.5487 6.48735 46.4033 6.50482 46.2568C6.50482 46.1117 6.56887 45.9814 6.68242 45.8829L13.4694 39.8988C14.8844 38.6496 16.7828 38.0166 18.6841 38.1783L35.7257 39.6385C37.333 39.7688 38.6315 41.0334 38.8121 42.6402L47.7624 33.7013C49.192 32.2736 51.498 32.2736 52.9276 33.7013C54.3572 35.1287 54.3572 37.4316 52.9276 38.8593L40.4688 51.3025C39.0392 52.7137 37.0913 53.4601 35.0765 53.3301L19.2053 52.2752L15.5512 54.9206C15.4522 54.9683 15.3532 55 15.2426 55Z" fill="#00549E"/>
<path d="M19.0439 52.2607C18.9306 52.2607 18.8011 52.2114 18.7039 52.1292L13.4741 47.5891C13.2636 47.3931 13.2285 47.0684 13.4255 46.8576C13.6198 46.648 13.9436 46.6151 14.1541 46.8081L19.3866 51.3509C19.5971 51.5469 19.6295 51.8702 19.4352 52.0813C19.3381 52.195 19.1896 52.2607 19.0439 52.2607Z" fill="#00549E"/>
<path d="M24.453 6.70711C22.8951 6.70711 21.3838 7.32478 20.2619 8.444L7.80489 20.8849C6.78182 21.9069 6.78182 23.5616 7.80489 24.5685C8.82795 25.5905 10.4846 25.5905 11.4932 24.5685L21.4332 14.6392C21.5785 14.2831 21.8081 13.9432 22.0813 13.65C22.7643 12.9212 23.7235 12.5308 24.7145 12.5801L35.9073 13.0663C36.1979 13.0829 36.4101 13.3267 36.4101 13.6021C36.3926 13.8938 36.1514 14.1211 35.8724 14.1048L24.6826 13.6184C23.9996 13.5856 23.334 13.861 22.8602 14.3637C22.7149 14.5103 22.6016 14.6885 22.5057 14.8679C22.5057 14.9968 22.4563 15.1268 22.3574 15.2241C22.2441 15.5489 22.2121 15.8885 22.2441 16.2461C22.3749 17.3653 23.2672 18.2421 24.389 18.3379L41.4295 19.7985C43.0368 19.9451 44.644 19.4092 45.8618 18.3379L52.1979 12.7087L44.6789 5.19866L41.2348 7.69747C41.1359 7.7619 41.0226 7.80979 40.8947 7.7947L24.8279 6.72337C24.7146 6.72337 24.5838 6.70711 24.453 6.70711ZM9.6563 26.3838C8.68264 26.3838 7.75547 26.0111 7.07246 25.3139C6.38945 24.633 6 23.7082 6 22.7341C6 21.7615 6.37491 20.8367 7.07246 20.1561L19.5324 7.71256C20.9623 6.30163 22.9271 5.55626 24.9267 5.68513L40.7959 6.73992L44.4522 4.09598C44.6615 3.95057 44.9376 3.96566 45.1323 4.14388L53.3517 12.3526C53.4476 12.4498 53.5145 12.5964 53.497 12.7418C53.4825 12.8884 53.4331 13.0184 53.3197 13.1145L46.5303 19.101C45.1149 20.3505 43.214 20.9821 41.3161 20.8216L24.2757 19.3599C22.6655 19.2313 21.3663 17.9667 21.189 16.3598L12.2401 25.2988C11.5397 25.996 10.63 26.3838 9.6563 26.3838Z" fill="#00549E"/>
<path d="M46.1697 12.3369C46.0551 12.3369 45.9262 12.2874 45.8288 12.2079L40.5973 7.66525C40.3853 7.47069 40.3538 7.14596 40.5486 6.93509C40.7435 6.72394 41.0701 6.69132 41.2792 6.88588L46.5106 11.4285C46.7226 11.6231 46.7542 11.9478 46.5593 12.1587C46.4447 12.2723 46.3158 12.3369 46.1697 12.3369Z" fill="#00549E"/>
<path d="M37.9012 22.5411C37.8047 22.445 37.7394 22.2984 37.7394 22.1683C37.7394 22.0382 37.7905 21.908 37.887 21.8108C38.0801 21.6013 38.4235 21.6013 38.6166 21.8108C38.7159 21.908 38.7812 22.0546 38.7812 22.1847C38.7812 22.3134 38.7301 22.445 38.6336 22.5411C38.5342 22.6383 38.3895 22.7041 38.2589 22.7041C38.1283 22.6876 38.0006 22.6383 37.9012 22.5411ZM39.6413 24.7165C39.5931 24.6343 39.559 24.5371 39.559 24.4384C39.559 24.2601 39.6413 24.0985 39.8031 24.0013C40.0472 23.8547 40.3709 23.9205 40.5185 24.1629C40.5667 24.2451 40.5979 24.3426 40.5979 24.4384C40.5979 24.6179 40.5184 24.7795 40.3538 24.8781C40.2743 24.926 40.175 24.9575 40.0785 24.9575C39.9167 24.9575 39.7378 24.8781 39.6413 24.7165ZM40.8421 27.2291C40.8279 27.1812 40.8108 27.1165 40.8108 27.0686C40.8108 26.8563 40.9386 26.6454 41.1685 26.581C41.4439 26.4838 41.7362 26.6289 41.8328 26.9056C41.8498 26.9535 41.864 27.0193 41.864 27.0686C41.864 27.2784 41.7362 27.4893 41.5091 27.5537C41.458 27.5715 41.3956 27.5865 41.3473 27.5865C41.1174 27.5865 40.9244 27.4564 40.8421 27.2291ZM41.4268 29.9551C41.4268 29.9389 41.4268 29.9225 41.4268 29.906C41.4268 29.6469 41.6227 29.4031 41.898 29.3867C42.1904 29.3552 42.4346 29.5661 42.4658 29.8578C42.4658 29.8743 42.4658 29.8893 42.4658 29.906C42.4658 30.1813 42.2557 30.4086 41.9974 30.4251C41.9804 30.4251 41.9633 30.4251 41.9463 30.4251C41.671 30.4415 41.4439 30.2306 41.4268 29.9551ZM41.8015 33.3458C41.5404 33.313 41.3473 33.0856 41.3473 32.8265C41.3473 32.81 41.3473 32.7774 41.3473 32.7457C41.3786 32.4526 41.6539 32.2581 41.9321 32.3074C42.1904 32.3403 42.3863 32.5677 42.3863 32.8265C42.3863 32.8582 42.3863 32.8747 42.3863 32.8908C42.3522 33.1514 42.1251 33.3458 41.864 33.3458C41.8498 33.3458 41.8186 33.3458 41.8015 33.3458ZM40.9386 36.12C40.7285 36.0392 40.615 35.8448 40.615 35.6324C40.615 35.5678 40.632 35.502 40.649 35.4377C40.7456 35.1789 41.055 35.0323 41.3303 35.146C41.5404 35.2268 41.6539 35.4212 41.6539 35.6324C41.6539 35.6982 41.6397 35.7611 41.6227 35.8269C41.5404 36.0392 41.3473 36.1515 41.1344 36.1515C41.072 36.1515 41.0039 36.1515 40.9386 36.12ZM39.4454 38.634C39.3007 38.5353 39.2183 38.3749 39.2183 38.2119C39.2183 38.1146 39.2496 38.001 39.3149 37.9202C39.4767 37.6764 39.8031 37.6285 40.0472 37.79C40.192 37.8873 40.2743 38.0503 40.2743 38.2119C40.2743 38.3091 40.2431 38.4231 40.175 38.5039C40.0785 38.6504 39.9167 38.7312 39.7549 38.7312C39.6413 38.7312 39.5448 38.6983 39.4454 38.634ZM37.43 40.7258C37.3505 40.6286 37.3022 40.4999 37.3022 40.3848C37.3022 40.2408 37.3675 40.0942 37.4782 39.997C37.6911 39.8011 38.0176 39.819 38.2106 40.0449C38.2929 40.1421 38.3412 40.2725 38.3412 40.3848C38.3412 40.5314 38.2759 40.6779 38.1624 40.7752C38.0659 40.8559 37.9353 40.9053 37.8217 40.9053C37.6741 40.9053 37.5293 40.8409 37.43 40.7258Z" fill="#00549E"/>
<path d="M23.9819 19.8153C23.9491 19.7509 23.9327 19.6699 23.9327 19.6044C23.9327 19.4096 24.0474 19.2138 24.2413 19.1344C24.5035 19.0207 24.8094 19.1344 24.9242 19.4097C24.9569 19.4757 24.9733 19.555 24.9733 19.6208C24.9733 19.8153 24.8586 20.0097 24.6647 20.0921C24.5991 20.1235 24.5172 20.1385 24.4544 20.1385C24.2577 20.1235 24.0638 20.0097 23.9819 19.8153ZM21.5291 21.388C21.4636 21.2907 21.4308 21.1949 21.4308 21.0812C21.4308 20.9194 21.4963 20.7729 21.6438 20.6592C21.8705 20.4797 22.1956 20.5291 22.3758 20.7563C22.4386 20.8537 22.4714 20.9674 22.4714 21.0632C22.4714 21.2263 22.4059 21.373 22.2611 21.4851C22.1628 21.5509 22.0508 21.5839 21.9525 21.5839C21.7886 21.6003 21.6274 21.5195 21.5291 21.388ZM19.4997 23.4813C19.3686 23.3839 19.3031 23.2224 19.3031 23.0757C19.3031 22.9619 19.3358 22.8498 19.4178 22.7511C19.598 22.5249 19.9367 22.4922 20.1498 22.6867C20.2782 22.7841 20.3437 22.9469 20.3437 23.0923C20.3437 23.2058 20.3109 23.3195 20.229 23.4169C20.1334 23.547 19.9695 23.6114 19.8247 23.6114C19.71 23.6114 19.598 23.562 19.4997 23.4813ZM18.0221 25.9965C17.8418 25.8994 17.7271 25.7212 17.7271 25.5254C17.7271 25.4444 17.7462 25.3623 17.7762 25.2993C17.9073 25.0388 18.216 24.9417 18.4754 25.0554C18.6557 25.1525 18.7677 25.3306 18.7677 25.5254C18.7677 25.6061 18.7513 25.6869 18.7185 25.7526C18.623 25.9307 18.4427 26.0445 18.2488 26.0445C18.1668 26.0445 18.0849 26.0281 18.0221 25.9965ZM17.1453 28.7708C16.8995 28.7214 16.7383 28.4939 16.7383 28.2678C16.7383 28.2337 16.7383 28.1857 16.7547 28.153C16.8203 27.8775 17.0961 27.6994 17.372 27.7637C17.6124 27.8117 17.7762 28.0406 17.7762 28.2678C17.7762 28.2995 17.7762 28.3488 17.7599 28.3802C17.7107 28.624 17.484 28.7858 17.2573 28.7858C17.2245 28.7858 17.1917 28.7858 17.1453 28.7708ZM16.4297 31.1545C16.4297 30.8613 16.6564 30.6352 16.9486 30.6352C17.2409 30.6352 17.4676 30.8613 17.4676 31.1545C17.4676 31.4464 17.2409 31.6736 16.9486 31.6736C16.6728 31.6736 16.4297 31.4464 16.4297 31.1545ZM16.8039 34.1724C16.7848 34.1231 16.7848 34.0917 16.7848 34.0423C16.7848 33.8162 16.9486 33.5873 17.1753 33.5396C17.4512 33.4739 17.7462 33.6354 17.809 33.9286C17.8254 33.9766 17.8254 34.0093 17.8254 34.0573C17.8254 34.2848 17.6642 34.5123 17.4348 34.56C17.3857 34.5767 17.3556 34.5767 17.3064 34.5767C17.0797 34.56 16.8667 34.4163 16.8039 34.1724ZM17.8746 37.0098C17.8418 36.9288 17.809 36.848 17.809 36.7673C17.809 36.5725 17.9073 36.3947 18.0849 36.2973C18.3471 36.1672 18.6557 36.2643 18.7841 36.5245C18.8169 36.6055 18.8496 36.6863 18.8496 36.7673C18.8496 36.9618 18.7513 37.1413 18.5738 37.2384C18.4919 37.27 18.4099 37.3027 18.3307 37.3027C18.134 37.2864 17.9565 37.1893 17.8746 37.0098Z" fill="#00549E"/>
<path d="M21.1253 27.4883C20.9459 27.4883 20.7499 27.391 20.6699 27.2115C20.5374 26.9527 20.6368 26.6446 20.8796 26.5156L28.823 22.2813C29.0825 22.1509 29.3916 22.2482 29.5213 22.4921C29.651 22.7512 29.5545 23.0594 29.3116 23.1895L21.3654 27.4241C21.2854 27.4555 21.2053 27.4883 21.1253 27.4883Z" fill="#00549E"/>
<path d="M37.0079 27.4883C36.9265 27.4883 36.845 27.472 36.7664 27.424L28.8201 23.1895C28.5617 23.0593 28.4634 22.7347 28.6094 22.4921C28.7414 22.2318 29.0645 22.1347 29.3088 22.2812L37.2523 26.5157C37.5135 26.6445 37.609 26.9691 37.463 27.2117C37.3675 27.3747 37.1877 27.4883 37.0079 27.4883Z" fill="#00549E"/>
<path d="M34.6205 35.9404H23.5127C23.2193 35.9404 22.9902 35.713 22.9902 35.4198V25.8984C22.9902 25.6055 23.2193 25.3795 23.5127 25.3795C23.8032 25.3795 24.0323 25.6055 24.0323 25.8984V34.8841H34.1009V25.8984C34.1009 25.6055 34.33 25.3795 34.6205 25.3795C34.9139 25.3795 35.143 25.6055 35.143 25.8984V35.4198C35.143 35.713 34.9139 35.9404 34.6205 35.9404Z" fill="#00549E"/>
<path d="M27.733 34.9024H30.3959V31.4638C30.3959 30.7338 29.7946 30.1336 29.0658 30.1336C28.3343 30.1336 27.733 30.7338 27.733 31.4638V34.9024ZM30.9169 35.9424H27.2148C26.9211 35.9424 26.6938 35.7149 26.6938 35.4216V31.4638C26.6938 30.1502 27.7662 29.0966 29.0658 29.0966C30.3654 29.0966 31.4378 30.1665 31.4378 31.4638V35.4216C31.4378 35.7149 31.2106 35.9424 30.9169 35.9424Z" fill="#00549E"/>
<path d="M47.2134 25.8498H49.2902V27.9268H47.2134V25.8498Z" fill="#00549E"/>
<path d="M49.29 23.7727H51.3703V25.8496H49.29V23.7727Z" fill="#00549E"/>
<path d="M47.2134 21.6813H49.2902V23.7568H47.2134V21.6813Z" fill="#00549E"/>
<path d="M49.29 19.6038H51.3703V21.6807H49.29V19.6038Z" fill="#00549E"/>
<path d="M8.59814 37.3205H10.676V39.3975H8.59814V37.3205Z" fill="#00549E"/>
<path d="M10.6938 35.226H12.7739V37.3027H10.6938V35.226Z" fill="#00549E"/>
<path d="M8.59814 33.1512H10.676V35.2266H8.59814V33.1512Z" fill="#00549E"/>
<path d="M10.6938 31.0737H12.7739V33.1504H10.6938V31.0737Z" fill="#00549E"/>
</svg>
