<svg width="60" height="60" viewBox="0 0 60 60" fill="none" xmlns="http://www.w3.org/2000/svg">
<path d="M37.9755 17.8031L41.4127 19.2579V16.3808C41.4127 15.4352 40.6452 14.6678 39.7028 14.6678C38.7568 14.6678 37.9893 15.4352 37.9893 16.3808L37.9755 17.8031ZM41.9256 20.5547C41.8615 20.5547 41.7974 20.5384 41.7177 20.506L37.2721 18.6204C37.078 18.5393 36.9672 18.3461 36.9672 18.1557V16.3955C36.9672 14.892 38.199 13.6602 39.7028 13.6602C41.2066 13.6602 42.4384 14.892 42.4384 16.3955V20.0427C42.4384 20.2184 42.3569 20.379 42.2149 20.475C42.1179 20.5223 42.0226 20.5547 41.9256 20.5547Z" fill="#00549E"/>
<path d="M28.5698 14.7331L10.0314 22.9704C9.42306 23.2419 9.03821 23.8335 9.03821 24.4901C9.03821 25.4018 9.79017 26.1529 10.7018 26.1529C10.8791 26.1529 11.0689 26.1219 11.2462 26.057L13.7096 25.2101L28.3943 19.8986C28.5042 19.8676 28.6159 19.85 28.7277 19.8986L43.43 24.9061C43.4442 24.9061 43.4442 24.9061 43.4442 24.921L45.9236 25.8977C46.1169 25.9773 46.3084 26.0084 46.5159 26.0084C46.915 26.0084 47.33 25.8503 47.6191 25.5613C47.9241 25.2573 48.0997 24.8588 48.0997 24.4252C48.0997 23.8025 47.7308 23.2257 47.1544 22.9704L28.5698 14.7331ZM10.7018 27.1768C9.21378 27.1768 8.01489 25.9773 8.01489 24.4901C8.01489 23.4352 8.63917 22.4585 9.6146 22.0425L28.3606 13.7093C28.49 13.6458 28.6496 13.6458 28.7773 13.7093L47.5712 22.0586C48.5147 22.4747 49.123 23.4176 49.123 24.4429C49.123 25.1452 48.8517 25.8179 48.3391 26.3138C47.8603 26.7931 47.1881 27.0499 46.5159 27.0499C46.179 27.0499 45.8597 26.985 45.5547 26.8581L43.0913 25.8814L28.5858 20.9402L14.0608 26.1868L11.5832 27.0336C11.2781 27.1296 10.9891 27.1768 10.7018 27.1768Z" fill="#00549E"/>
<path d="M24.0275 47.3468H31.5291V38.7246C31.5291 36.6618 29.8489 34.9815 27.7858 34.9815C25.7228 34.9815 24.0442 36.6618 24.0442 38.7246V47.3468H24.0275ZM32.0424 48.3706H23.531C23.2434 48.3706 23.0194 48.1464 23.0194 47.8587V38.7246C23.0194 36.1026 25.1627 33.9588 27.7858 33.9588C30.409 33.9588 32.5523 36.1026 32.5523 38.7246V47.8587C32.5523 48.1464 32.3132 48.3706 32.0424 48.3706Z" fill="#00549E"/>
<path d="M38.1647 29.8794H18.7644C18.4755 29.8794 18.2516 29.6553 18.2516 29.3688C18.2516 29.0797 18.4755 28.857 18.7644 28.857H38.1647C38.4553 28.857 38.6775 29.0797 38.6775 29.3688C38.6775 29.6553 38.4365 29.8794 38.1647 29.8794Z" fill="#00549E"/>
<path d="M32.0422 26.8242H24.8917C24.6024 26.8242 24.3784 26.6014 24.3784 26.3136C24.3784 26.0259 24.6024 25.8017 24.8917 25.8017H32.0422C32.328 25.8017 32.5521 26.0259 32.5521 26.3136C32.5521 26.5851 32.313 26.8242 32.0422 26.8242Z" fill="#00549E"/>
<path d="M50.4186 51.4409H6.51218C6.22486 51.4409 6 51.2168 6 50.9289C6 50.6427 6.22486 50.4183 6.51218 50.4183H50.4186C50.7059 50.4183 50.9308 50.6427 50.9308 50.9289C50.9308 51.2168 50.6917 51.4409 50.4186 51.4409Z" fill="#00549E"/>
<path d="M13.8686 48.3706C13.5831 48.3706 13.3585 48.1464 13.3585 47.8587V25.7054C13.3585 25.4973 13.4856 25.3055 13.6927 25.2258L28.395 19.9144C28.5047 19.8833 28.6178 19.8671 28.7292 19.9144L43.4297 24.9205C43.6369 24.9854 43.7814 25.1934 43.7814 25.4014V34.5829C43.7814 34.8705 43.5568 35.0947 43.2696 35.0947C42.9824 35.0947 42.7578 34.8705 42.7578 34.5829V25.7701L28.5691 20.9397L14.3821 26.0565V47.8587C14.3821 48.1464 14.1418 48.3706 13.8686 48.3706Z" fill="#00549E"/>
<path d="M11.1024 50.4188H45.8273V48.371H11.1024V50.4188ZM46.3235 51.4414H10.5904C10.3036 51.4414 10.0784 51.2172 10.0784 50.9294V47.8589C10.0784 47.5713 10.3036 47.3471 10.5904 47.3471H46.3235C46.612 47.3471 46.8355 47.5713 46.8355 47.8589V50.9294C46.8355 51.2172 46.612 51.4414 46.3235 51.4414Z" fill="#00549E"/>
<path d="M51.4409 16.7164C50.5951 16.7164 49.9062 17.4039 49.9062 18.2522C49.9062 19.0991 50.5951 19.7882 51.4409 19.7882C52.2885 19.7882 52.9756 19.0991 52.9756 18.2522C52.9612 17.4039 52.2741 16.7164 51.4409 16.7164ZM51.4409 20.8105C50.0342 20.8105 48.8818 19.6598 48.8818 18.2522C48.8818 16.8434 50.0342 15.6924 51.4409 15.6924C52.8494 15.6924 54 16.8434 54 18.2522C54 19.6598 52.8494 20.8105 51.4409 20.8105Z" fill="#00549E"/>
<path d="M16.4436 15.2296C16.4436 15.1176 16.3946 15.0202 16.2998 14.9581C16.2034 14.8933 16.0754 14.8298 15.9158 14.7825V15.6133C16.2682 15.5808 16.4436 15.4539 16.4436 15.2296ZM15.0986 13.0211C15.0986 13.1345 15.1476 13.2305 15.2282 13.2938C15.3073 13.3574 15.4353 13.4222 15.5965 13.4696V12.6226C15.2599 12.6536 15.0986 12.7834 15.0986 13.0211ZM17.0189 13.0859C17.0031 13.0697 16.9715 13.0386 16.8925 12.9899C16.8277 12.9427 16.7313 12.9103 16.6349 12.8617C16.5385 12.8143 16.412 12.7658 16.284 12.7185C16.156 12.6699 16.028 12.6387 15.8984 12.6226V13.5655L16.1228 13.614C16.363 13.6776 16.5716 13.7424 16.7629 13.822C16.9557 13.9019 17.1153 13.9976 17.2434 14.1084C17.3714 14.2219 17.4836 14.3651 17.5468 14.5246C17.61 14.6853 17.659 14.8784 17.659 15.1013C17.659 15.3567 17.61 15.5808 17.5152 15.7727C17.4204 15.9658 17.3066 16.109 17.1469 16.2212C16.9873 16.3333 16.8103 16.4292 16.6206 16.4926C16.412 16.5575 16.2034 16.5885 15.9805 16.5885V17.3896H15.5001V16.5724C15.1808 16.5412 14.86 16.4779 14.5565 16.3819C14.2531 16.286 13.9639 16.1415 13.7236 15.9806L14.2199 14.9892C14.2357 15.0053 14.2847 15.054 14.3637 15.1013C14.4443 15.15 14.5407 15.2135 14.6688 15.2607C14.7968 15.3255 14.9406 15.3742 15.0844 15.4215C15.244 15.4702 15.4037 15.5174 15.5633 15.5337V14.6218L15.2282 14.5246C15.0038 14.4623 14.811 14.3814 14.6356 14.3017C14.4759 14.2219 14.3321 14.126 14.2199 14.0288C14.1077 13.918 14.0287 13.8059 13.9797 13.6613C13.9323 13.5168 13.8991 13.3574 13.8991 13.1818C13.8991 12.9427 13.9481 12.7347 14.0287 12.543C14.1077 12.3497 14.2199 12.1904 14.3637 12.062C14.5075 11.9337 14.6688 11.8229 14.86 11.7418C15.0512 11.6622 15.2599 11.6135 15.4827 11.5986V10.8948H15.9632V11.5986C16.2682 11.6312 16.5385 11.6931 16.8103 11.8068C17.0679 11.9188 17.3066 12.0133 17.4994 12.1268L17.0189 13.0859Z" fill="#00549E"/>
<path d="M15.6926 9.5665C13.1665 9.5665 11.102 11.6305 11.102 14.1564C11.102 16.6838 13.1665 18.7478 15.6926 18.7478C18.2187 18.7478 20.2831 16.6838 20.2831 14.1564C20.2992 11.6305 18.2363 9.5665 15.6926 9.5665ZM15.6926 19.7881C12.5894 19.7881 10.0778 17.2594 10.0778 14.1728C10.0778 11.0862 12.6055 8.55879 15.6926 8.55879C18.7797 8.55879 21.3074 11.0862 21.3074 14.1728C21.3074 17.2594 18.7957 19.7881 15.6926 19.7881Z" fill="#00549E"/>
<path d="M47.0758 39.732C47.0758 39.6213 47.028 39.5254 46.9325 39.4605C46.8353 39.397 46.7079 39.3336 46.547 39.2849V40.1171C46.8989 40.0846 47.0758 39.9564 47.0758 39.732ZM45.7477 37.5411C45.7477 37.6532 45.7954 37.7505 45.875 37.8126C45.9546 37.8775 46.0837 37.9422 46.2428 37.9882V37.1413C45.9068 37.1574 45.7477 37.302 45.7477 37.5411ZM47.6505 37.5896C47.6346 37.5735 47.6027 37.5411 47.5232 37.4925C47.4577 37.4451 47.364 37.4141 47.2685 37.3655C47.1713 37.3169 47.0439 37.2695 46.9148 37.2209C46.7875 37.1736 46.6584 37.1413 46.5311 37.125V38.0692L46.7557 38.1178C46.9944 38.1815 47.2031 38.2462 47.3958 38.3245C47.5868 38.4043 47.746 38.5014 47.8751 38.6137C48.0024 38.7244 48.1156 38.8688 48.1792 39.0296C48.2429 39.1891 48.2906 39.3808 48.2906 39.605C48.2906 39.8604 48.2429 40.0846 48.1456 40.2765C48.0501 40.4682 47.9387 40.6128 47.7796 40.7235C47.6186 40.8371 47.4436 40.9329 47.2508 40.9964C47.0439 41.0599 46.8352 41.0924 46.6124 41.0924V41.8921H46.1314V41.1085C45.8114 41.0776 45.4913 41.0127 45.1871 40.9168C44.8847 40.8194 44.5947 40.6763 44.356 40.517L44.8529 39.5254C44.867 39.5403 44.9148 39.5889 44.9943 39.6361C45.0757 39.6848 45.1712 39.7497 45.3003 39.7969C45.4276 39.8604 45.5709 39.909 45.7159 39.9564C45.875 40.005 46.0359 40.0522 46.1951 40.0685V39.1567L45.8591 39.0607C45.6345 38.9972 45.4453 38.9176 45.2667 38.8379C45.1075 38.7581 44.9643 38.6609 44.8529 38.5487C44.7397 38.438 44.6601 38.3245 44.6124 38.1815C44.5646 38.0368 44.5328 37.8775 44.5328 37.7019C44.5328 37.4614 44.5805 37.2546 44.6601 37.0615C44.7397 36.8697 44.8529 36.7103 44.9943 36.5819C45.1394 36.4537 45.3003 36.3428 45.4913 36.2619C45.684 36.1821 45.8909 36.1335 46.1155 36.1186V35.415H46.5947V36.1186C46.8989 36.1497 47.1712 36.2132 47.4436 36.3253C47.7159 36.4389 47.9387 36.5333 48.1315 36.6454L47.6505 37.5896Z" fill="#00549E"/>
<path d="M46.3222 34.087C43.7971 34.087 41.7322 36.1497 41.7322 38.6772C41.7322 41.2044 43.7971 43.2684 46.3222 43.2684C48.8509 43.2684 50.914 41.2044 50.914 38.6772C50.9301 36.1336 48.867 34.087 46.3222 34.087ZM46.3222 44.291C43.2204 44.291 40.7096 41.765 40.7096 38.6772C40.7096 35.5743 43.2365 33.0631 46.3222 33.0631C49.4276 33.0631 51.9384 35.5904 51.9384 38.6772C51.9545 41.765 49.4276 44.291 46.3222 44.291Z" fill="#00549E"/>
<path d="M43.2696 48.3706C42.9824 48.3706 42.7578 48.1464 42.7578 47.8587V42.7566C42.7578 42.4676 42.9824 42.2448 43.2696 42.2448C43.5568 42.2448 43.7814 42.4676 43.7814 42.7566V47.8587C43.7814 48.1464 43.5568 48.3706 43.2696 48.3706Z" fill="#00549E"/>
</svg>
